solid CATIA STL
  facet normal  0.000000e+000  0.000000e+000  1.000000e+000
    outer loop
      vertex  4.379953e+001  1.507295e+001  1.536238e+001
      vertex  4.479953e+001  1.507295e+001  1.536238e+001
      vertex  4.379953e+001  1.607295e+001  1.536238e+001
    endloop
  endfacet
  facet normal  -0.000000e+000  0.000000e+000  1.000000e+000
    outer loop
      vertex  4.379953e+001  1.607295e+001  1.536238e+001
      vertex  4.479953e+001  1.507295e+001  1.536238e+001
      vertex  4.479953e+001  1.607295e+001  1.536238e+001
    endloop
  endfacet
  facet normal  0.000000e+000  0.000000e+000 -1.000000e+000
    outer loop
      vertex  4.379953e+001  1.507295e+001  1.436238e+001
      vertex  4.379953e+001  1.607295e+001  1.436238e+001
      vertex  4.479953e+001  1.507295e+001  1.436238e+001
    endloop
  endfacet
  facet normal  0.000000e+000  0.000000e+000 -1.000000e+000
    outer loop
      vertex  4.479953e+001  1.507295e+001  1.436238e+001
      vertex  4.379953e+001  1.607295e+001  1.436238e+001
      vertex  4.479953e+001  1.607295e+001  1.436238e+001
    endloop
  endfacet
  facet normal  0.000000e+000  1.000000e+000  0.000000e+000
    outer loop
      vertex  4.379953e+001  1.607295e+001  1.436238e+001
      vertex  4.379953e+001  1.607295e+001  1.536238e+001
      vertex  4.479953e+001  1.607295e+001  1.436238e+001
    endloop
  endfacet
  facet normal  0.000000e+000  1.000000e+000  -0.000000e+000
    outer loop
      vertex  4.479953e+001  1.607295e+001  1.436238e+001
      vertex  4.379953e+001  1.607295e+001  1.536238e+001
      vertex  4.479953e+001  1.607295e+001  1.536238e+001
    endloop
  endfacet
  facet normal  1.000000e+000  0.000000e+000  0.000000e+000
    outer loop
      vertex  4.479953e+001  1.607295e+001  1.436238e+001
      vertex  4.479953e+001  1.607295e+001  1.536238e+001
      vertex  4.479953e+001  1.507295e+001  1.436238e+001
    endloop
  endfacet
  facet normal  1.000000e+000  0.000000e+000  0.000000e+000
    outer loop
      vertex  4.479953e+001  1.507295e+001  1.436238e+001
      vertex  4.479953e+001  1.607295e+001  1.536238e+001
      vertex  4.479953e+001  1.507295e+001  1.536238e+001
    endloop
  endfacet
  facet normal  0.000000e+000 -1.000000e+000  -0.000000e+000
    outer loop
      vertex  4.479953e+001  1.507295e+001  1.436238e+001
      vertex  4.479953e+001  1.507295e+001  1.536238e+001
      vertex  4.379953e+001  1.507295e+001  1.436238e+001
    endloop
  endfacet
  facet normal  0.000000e+000 -1.000000e+000  0.000000e+000
    outer loop
      vertex  4.379953e+001  1.507295e+001  1.436238e+001
      vertex  4.479953e+001  1.507295e+001  1.536238e+001
      vertex  4.379953e+001  1.507295e+001  1.536238e+001
    endloop
  endfacet
  facet normal -1.000000e+000  0.000000e+000  0.000000e+000
    outer loop
      vertex  4.379953e+001  1.507295e+001  1.436238e+001
      vertex  4.379953e+001  1.507295e+001  1.536238e+001
      vertex  4.379953e+001  1.607295e+001  1.436238e+001
    endloop
  endfacet
  facet normal -1.000000e+000  0.000000e+000  0.000000e+000
    outer loop
      vertex  4.379953e+001  1.607295e+001  1.436238e+001
      vertex  4.379953e+001  1.507295e+001  1.536238e+001
      vertex  4.379953e+001  1.607295e+001  1.536238e+001
    endloop
  endfacet
endsolid CATIA STL
