solid CATIA STL
  facet normal -8.280589e-002 -3.444375e-003 -9.965597e-001
    outer loop
      vertex -3.482370e+001  6.066587e+000  2.128877e+001
      vertex -3.482264e+001  6.667150e+000  2.128660e+001
      vertex -3.479771e+001  6.067668e+000  2.128660e+001
    endloop
  endfacet
  facet normal -3.377709e-001 -1.404984e-002 -9.411234e-001
    outer loop
      vertex -3.479771e+001  6.067668e+000  2.128660e+001
      vertex -3.482264e+001  6.667150e+000  2.128660e+001
      vertex -3.479810e+001  6.668171e+000  2.127778e+001
    endloop
  endfacet
  facet normal -3.378080e-001 -1.404967e-002 -9.411102e-001
    outer loop
      vertex -3.479771e+001  6.067668e+000  2.128660e+001
      vertex -3.479810e+001  6.668171e+000  2.127778e+001
      vertex -3.477316e+001  6.068689e+000  2.127778e+001
    endloop
  endfacet
  facet normal -5.695797e-001 -2.368922e-002 -8.215947e-001
    outer loop
      vertex -3.477316e+001  6.068689e+000  2.127778e+001
      vertex -3.479810e+001  6.668171e+000  2.127778e+001
      vertex -3.477667e+001  6.669062e+000  2.126290e+001
    endloop
  endfacet
  facet normal -5.695797e-001 -2.368922e-002 -8.215947e-001
    outer loop
      vertex -3.477316e+001  6.068689e+000  2.127778e+001
      vertex -3.477667e+001  6.669062e+000  2.126290e+001
      vertex -3.475174e+001  6.069581e+000  2.126290e+001
    endloop
  endfacet
  facet normal -7.626798e-001 -3.172039e-002 -6.459979e-001
    outer loop
      vertex -3.475174e+001  6.069581e+000  2.126290e+001
      vertex -3.477667e+001  6.669062e+000  2.126290e+001
      vertex -3.475982e+001  6.669763e+000  2.124297e+001
    endloop
  endfacet
  facet normal -7.626221e-001 -3.172187e-002 -6.460660e-001
    outer loop
      vertex -3.475174e+001  6.069581e+000  2.126290e+001
      vertex -3.475982e+001  6.669763e+000  2.124297e+001
      vertex -3.473488e+001  6.070282e+000  2.124297e+001
    endloop
  endfacet
  facet normal -9.037231e-001 -3.759108e-002 -4.264640e-001
    outer loop
      vertex -3.473488e+001  6.070282e+000  2.124297e+001
      vertex -3.475982e+001  6.669763e+000  2.124297e+001
      vertex -3.474870e+001  6.670226e+000  2.121936e+001
    endloop
  endfacet
  facet normal -9.037231e-001 -3.759108e-002 -4.264640e-001
    outer loop
      vertex -3.473488e+001  6.070282e+000  2.124297e+001
      vertex -3.474870e+001  6.670226e+000  2.121936e+001
      vertex -3.472376e+001  6.070744e+000  2.121936e+001
    endloop
  endfacet
  facet normal -9.832073e-001 -4.089729e-002 -1.778511e-001
    outer loop
      vertex -3.472376e+001  6.070744e+000  2.121936e+001
      vertex -3.474870e+001  6.670226e+000  2.121936e+001
      vertex -3.474406e+001  6.670419e+000  2.119367e+001
    endloop
  endfacet
  facet normal -9.832278e-001 -4.089314e-002 -1.777380e-001
    outer loop
      vertex -3.472376e+001  6.070744e+000  2.121936e+001
      vertex -3.474406e+001  6.670419e+000  2.119367e+001
      vertex -3.471912e+001  6.070937e+000  2.119367e+001
    endloop
  endfacet
  facet normal -8.281556e-002 -3.444355e-003 -9.965589e-001
    outer loop
      vertex -3.482264e+001  6.667150e+000  2.128660e+001
      vertex -3.482370e+001  6.066587e+000  2.128877e+001
      vertex -3.484864e+001  6.666069e+000  2.128877e+001
    endloop
  endfacet
  facet normal  1.776665e-001  7.389271e-003 -9.840630e-001
    outer loop
      vertex -3.484864e+001  6.666069e+000  2.128877e+001
      vertex -3.482370e+001  6.066587e+000  2.128877e+001
      vertex -3.484937e+001  6.065520e+000  2.128412e+001
    endloop
  endfacet
  facet normal  1.776461e-001  7.389325e-003 -9.840667e-001
    outer loop
      vertex -3.484864e+001  6.666069e+000  2.128877e+001
      vertex -3.484937e+001  6.065520e+000  2.128412e+001
      vertex -3.487431e+001  6.665002e+000  2.128412e+001
    endloop
  endfacet
  facet normal  4.260731e-001  1.772284e-002 -9.045152e-001
    outer loop
      vertex -3.487431e+001  6.665002e+000  2.128412e+001
      vertex -3.484937e+001  6.065520e+000  2.128412e+001
      vertex -3.487296e+001  6.064538e+000  2.127299e+001
    endloop
  endfacet
  facet normal  4.261180e-001  1.772255e-002 -9.044940e-001
    outer loop
      vertex -3.487431e+001  6.665002e+000  2.128412e+001
      vertex -3.487296e+001  6.064538e+000  2.127299e+001
      vertex -3.489790e+001  6.664020e+000  2.127299e+001
    endloop
  endfacet
  facet normal  6.454811e-001  2.684601e-002 -7.633042e-001
    outer loop
      vertex -3.489790e+001  6.664020e+000  2.127299e+001
      vertex -3.487296e+001  6.064538e+000  2.127299e+001
      vertex -3.489287e+001  6.063711e+000  2.125613e+001
    endloop
  endfacet
  facet normal  6.454811e-001  2.684601e-002 -7.633042e-001
    outer loop
      vertex -3.489790e+001  6.664020e+000  2.127299e+001
      vertex -3.489287e+001  6.063711e+000  2.125613e+001
      vertex -3.491780e+001  6.663192e+000  2.125613e+001
    endloop
  endfacet
  facet normal  8.208789e-001  3.414093e-002 -5.700810e-001
    outer loop
      vertex -3.491780e+001  6.663192e+000  2.125613e+001
      vertex -3.489287e+001  6.063711e+000  2.125613e+001
      vertex -3.490774e+001  6.063092e+000  2.123468e+001
    endloop
  endfacet
  facet normal  8.208240e-001  3.414283e-002 -5.701598e-001
    outer loop
      vertex -3.491780e+001  6.663192e+000  2.125613e+001
      vertex -3.490774e+001  6.063092e+000  2.123468e+001
      vertex -3.493267e+001  6.662573e+000  2.123468e+001
    endloop
  endfacet
  facet normal  9.403297e-001  3.911376e-002 -3.380091e-001
    outer loop
      vertex -3.493267e+001  6.662573e+000  2.123468e+001
      vertex -3.490774e+001  6.063092e+000  2.123468e+001
      vertex -3.491656e+001  6.062725e+000  2.121011e+001
    endloop
  endfacet
  facet normal  9.403299e-001  3.911375e-002 -3.380086e-001
    outer loop
      vertex -3.493267e+001  6.662573e+000  2.123468e+001
      vertex -3.491656e+001  6.062725e+000  2.121011e+001
      vertex -3.494149e+001  6.662207e+000  2.121011e+001
    endloop
  endfacet
  facet normal  9.956921e-001  4.141658e-002 -8.295706e-002
    outer loop
      vertex -3.494149e+001  6.662207e+000  2.121011e+001
      vertex -3.491656e+001  6.062725e+000  2.121011e+001
      vertex -3.491872e+001  6.062635e+000  2.118410e+001
    endloop
  endfacet
  facet normal  9.957019e-001  4.141192e-002 -8.284106e-002
    outer loop
      vertex -3.494149e+001  6.662207e+000  2.121011e+001
      vertex -3.491872e+001  6.062635e+000  2.118410e+001
      vertex -3.494365e+001  6.662117e+000  2.118410e+001
    endloop
  endfacet
  facet normal  8.287354e-002  3.447191e-003  9.965541e-001
    outer loop
      vertex -3.481414e+001  6.066985e+000  2.108899e+001
      vertex -3.486507e+001  6.665386e+000  2.109116e+001
      vertex -3.484013e+001  6.065904e+000  2.109116e+001
    endloop
  endfacet
  facet normal  3.377563e-001  1.404924e-002  9.411287e-001
    outer loop
      vertex -3.484013e+001  6.065904e+000  2.109116e+001
      vertex -3.486507e+001  6.665386e+000  2.109116e+001
      vertex -3.488961e+001  6.664365e+000  2.109999e+001
    endloop
  endfacet
  facet normal  3.377193e-001  1.404598e-002  9.411421e-001
    outer loop
      vertex -3.484013e+001  6.065904e+000  2.109116e+001
      vertex -3.488961e+001  6.664365e+000  2.109999e+001
      vertex -3.486468e+001  6.064883e+000  2.109999e+001
    endloop
  endfacet
  facet normal  5.696191e-001  2.369086e-002  8.215672e-001
    outer loop
      vertex -3.486468e+001  6.064883e+000  2.109999e+001
      vertex -3.488961e+001  6.664365e+000  2.109999e+001
      vertex -3.491104e+001  6.663474e+000  2.111487e+001
    endloop
  endfacet
  facet normal  5.696189e-001  2.369084e-002  8.215675e-001
    outer loop
      vertex -3.486468e+001  6.064883e+000  2.109999e+001
      vertex -3.491104e+001  6.663474e+000  2.111487e+001
      vertex -3.488611e+001  6.063992e+000  2.111487e+001
    endloop
  endfacet
  facet normal  7.626224e-001  3.171798e-002  6.460659e-001
    outer loop
      vertex -3.488611e+001  6.063992e+000  2.111487e+001
      vertex -3.491104e+001  6.663474e+000  2.111487e+001
      vertex -3.492789e+001  6.662773e+000  2.113479e+001
    endloop
  endfacet
  facet normal  7.626801e-001  3.172428e-002  6.459976e-001
    outer loop
      vertex -3.488611e+001  6.063992e+000  2.111487e+001
      vertex -3.492789e+001  6.662773e+000  2.113479e+001
      vertex -3.490296e+001  6.063291e+000  2.113479e+001
    endloop
  endfacet
  facet normal  9.037124e-001  3.759064e-002  4.264866e-001
    outer loop
      vertex -3.490296e+001  6.063291e+000  2.113479e+001
      vertex -3.492789e+001  6.662773e+000  2.113479e+001
      vertex -3.493902e+001  6.662310e+000  2.115841e+001
    endloop
  endfacet
  facet normal  9.037122e-001  3.759060e-002  4.264871e-001
    outer loop
      vertex -3.490296e+001  6.063291e+000  2.113479e+001
      vertex -3.493902e+001  6.662310e+000  2.115841e+001
      vertex -3.491408e+001  6.062828e+000  2.115841e+001
    endloop
  endfacet
  facet normal  9.832295e-001  4.089819e-002  1.777278e-001
    outer loop
      vertex -3.491408e+001  6.062828e+000  2.115841e+001
      vertex -3.493902e+001  6.662310e+000  2.115841e+001
      vertex -3.494365e+001  6.662117e+000  2.118410e+001
    endloop
  endfacet
  facet normal  9.832093e-001  4.089234e-002  1.778409e-001
    outer loop
      vertex -3.491408e+001  6.062828e+000  2.115841e+001
      vertex -3.494365e+001  6.662117e+000  2.118410e+001
      vertex -3.491872e+001  6.062635e+000  2.118410e+001
    endloop
  endfacet
  facet normal  8.286392e-002  3.446369e-003  9.965550e-001
    outer loop
      vertex -3.486507e+001  6.665386e+000  2.109116e+001
      vertex -3.481414e+001  6.066985e+000  2.108899e+001
      vertex -3.483907e+001  6.666467e+000  2.108899e+001
    endloop
  endfacet
  facet normal -1.777026e-001 -7.390774e-003  9.840565e-001
    outer loop
      vertex -3.483907e+001  6.666467e+000  2.108899e+001
      vertex -3.481414e+001  6.066985e+000  2.108899e+001
      vertex -3.478847e+001  6.068053e+000  2.109364e+001
    endloop
  endfacet
  facet normal -1.777231e-001 -7.392536e-003  9.840528e-001
    outer loop
      vertex -3.483907e+001  6.666467e+000  2.108899e+001
      vertex -3.478847e+001  6.068053e+000  2.109364e+001
      vertex -3.481341e+001  6.667534e+000  2.109364e+001
    endloop
  endfacet
  facet normal -4.261183e-001 -1.772474e-002  9.044938e-001
    outer loop
      vertex -3.481341e+001  6.667534e+000  2.109364e+001
      vertex -3.478847e+001  6.068053e+000  2.109364e+001
      vertex -3.476488e+001  6.069034e+000  2.110477e+001
    endloop
  endfacet
  facet normal -4.260729e-001 -1.772066e-002  9.045152e-001
    outer loop
      vertex -3.481341e+001  6.667534e+000  2.109364e+001
      vertex -3.476488e+001  6.069034e+000  2.110477e+001
      vertex -3.478981e+001  6.668516e+000  2.110477e+001
    endloop
  endfacet
  facet normal -6.454468e-001 -2.684457e-002  7.633333e-001
    outer loop
      vertex -3.478981e+001  6.668516e+000  2.110477e+001
      vertex -3.476488e+001  6.069034e+000  2.110477e+001
      vertex -3.474497e+001  6.069862e+000  2.112164e+001
    endloop
  endfacet
  facet normal -6.454471e-001 -2.684460e-002  7.633331e-001
    outer loop
      vertex -3.478981e+001  6.668516e+000  2.110477e+001
      vertex -3.474497e+001  6.069862e+000  2.112164e+001
      vertex -3.476991e+001  6.669343e+000  2.112164e+001
    endloop
  endfacet
  facet normal -8.208435e-001 -3.413946e-002  5.701320e-001
    outer loop
      vertex -3.476991e+001  6.669343e+000  2.112164e+001
      vertex -3.474497e+001  6.069862e+000  2.112164e+001
      vertex -3.473010e+001  6.070480e+000  2.114308e+001
    endloop
  endfacet
  facet normal -8.208977e-001 -3.414587e-002  5.700536e-001
    outer loop
      vertex -3.476991e+001  6.669343e+000  2.112164e+001
      vertex -3.473010e+001  6.070480e+000  2.114308e+001
      vertex -3.475504e+001  6.669962e+000  2.114308e+001
    endloop
  endfacet
  facet normal -9.403230e-001 -3.911346e-002  3.380277e-001
    outer loop
      vertex -3.475504e+001  6.669962e+000  2.114308e+001
      vertex -3.473010e+001  6.070480e+000  2.114308e+001
      vertex -3.472128e+001  6.070847e+000  2.116765e+001
    endloop
  endfacet
  facet normal -9.403233e-001 -3.911349e-002  3.380271e-001
    outer loop
      vertex -3.475504e+001  6.669962e+000  2.114308e+001
      vertex -3.472128e+001  6.070847e+000  2.116765e+001
      vertex -3.474622e+001  6.670329e+000  2.116765e+001
    endloop
  endfacet
  facet normal -9.957023e-001 -4.141703e-002  8.283624e-002
    outer loop
      vertex -3.474622e+001  6.670329e+000  2.116765e+001
      vertex -3.472128e+001  6.070847e+000  2.116765e+001
      vertex -3.471912e+001  6.070937e+000  2.119367e+001
    endloop
  endfacet
  facet normal -9.956928e-001 -4.141156e-002  8.295224e-002
    outer loop
      vertex -3.474622e+001  6.670329e+000  2.116765e+001
      vertex -3.471912e+001  6.070937e+000  2.119367e+001
      vertex -3.474406e+001  6.670419e+000  2.119367e+001
    endloop
  endfacet
  facet normal  4.155689e-002 -9.991361e-001 -2.473072e-006
    outer loop
      vertex -3.490296e+001  6.063291e+000  2.113479e+001
      vertex -3.491408e+001  6.062828e+000  2.115841e+001
      vertex -3.749657e+001  5.955415e+000  2.103905e+001
    endloop
  endfacet
  facet normal  4.155625e-002 -9.991361e-001 -2.071847e-006
    outer loop
      vertex -3.437440e+001  6.085275e+000  2.112132e+001
      vertex -3.476488e+001  6.069034e+000  2.110477e+001
      vertex -3.478847e+001  6.068053e+000  2.109364e+001
    endloop
  endfacet
  facet normal  4.155756e-002 -9.991361e-001 -4.789889e-006
    outer loop
      vertex -3.436938e+001  6.085484e+000  2.118064e+001
      vertex -3.472128e+001  6.070847e+000  2.116765e+001
      vertex -3.473010e+001  6.070480e+000  2.114308e+001
    endloop
  endfacet
  facet normal  4.155689e-002 -9.991361e-001 -1.919021e-006
    outer loop
      vertex -3.748048e+001  5.956085e+000  2.116512e+001
      vertex -3.749320e+001  5.955556e+000  2.112425e+001
      vertex -3.489287e+001  6.063711e+000  2.125613e+001
    endloop
  endfacet
  facet normal  4.155750e-002 -9.991361e-001 -1.908136e-005
    outer loop
      vertex -3.748048e+001  5.956085e+000  2.116512e+001
      vertex -3.489287e+001  6.063711e+000  2.125613e+001
      vertex -3.487296e+001  6.064538e+000  2.127299e+001
    endloop
  endfacet
  facet normal  4.155581e-002 -9.991362e-001  2.170276e-005
    outer loop
      vertex -3.748048e+001  5.956085e+000  2.116512e+001
      vertex -3.487296e+001  6.064538e+000  2.127299e+001
      vertex -3.484937e+001  6.065520e+000  2.128412e+001
    endloop
  endfacet
  facet normal  4.155857e-002 -9.991361e-001 -3.925731e-005
    outer loop
      vertex -3.748048e+001  5.956085e+000  2.116512e+001
      vertex -3.484937e+001  6.065520e+000  2.128412e+001
      vertex -3.482370e+001  6.066587e+000  2.128877e+001
    endloop
  endfacet
  facet normal  4.155674e-002 -9.991360e-001 -4.084438e-008
    outer loop
      vertex -3.748048e+001  5.956085e+000  2.116512e+001
      vertex -3.482370e+001  6.066587e+000  2.128877e+001
      vertex -3.481874e+001  6.066793e+000  2.163888e+001
    endloop
  endfacet
  facet normal  4.155179e-002 -9.991363e-001  2.787519e-005
    outer loop
      vertex -3.748048e+001  5.956085e+000  2.116512e+001
      vertex -3.481874e+001  6.066793e+000  2.163888e+001
      vertex -3.487809e+001  6.064325e+000  2.163497e+001
    endloop
  endfacet
  facet normal  4.155702e-002 -9.991361e-001 -1.180620e-006
    outer loop
      vertex -3.748048e+001  5.956085e+000  2.116512e+001
      vertex -3.487809e+001  6.064325e+000  2.163497e+001
      vertex -3.728624e+001  5.964164e+000  2.131498e+001
    endloop
  endfacet
  facet normal  4.155394e-002 -9.991363e-001  2.819799e-006
    outer loop
      vertex -3.748048e+001  5.956085e+000  2.116512e+001
      vertex -3.728624e+001  5.964164e+000  2.131498e+001
      vertex -3.732797e+001  5.962428e+000  2.130566e+001
    endloop
  endfacet
  facet normal  4.155089e-002 -9.991363e-001  6.135888e-006
    outer loop
      vertex -3.748048e+001  5.956085e+000  2.116512e+001
      vertex -3.732797e+001  5.962428e+000  2.130566e+001
      vertex -3.736745e+001  5.960786e+000  2.128922e+001
    endloop
  endfacet
  facet normal  4.155517e-002 -9.991362e-001  2.229620e-006
    outer loop
      vertex -3.748048e+001  5.956085e+000  2.116512e+001
      vertex -3.736745e+001  5.960786e+000  2.128922e+001
      vertex -3.740347e+001  5.959288e+000  2.126615e+001
    endloop
  endfacet
  facet normal  4.155770e-002 -9.991361e-001  3.001255e-007
    outer loop
      vertex -3.748048e+001  5.956085e+000  2.116512e+001
      vertex -3.740347e+001  5.959288e+000  2.126615e+001
      vertex -3.743492e+001  5.957980e+000  2.123716e+001
    endloop
  endfacet
  facet normal  4.155245e-002 -9.991363e-001  3.624019e-006
    outer loop
      vertex -3.748048e+001  5.956085e+000  2.116512e+001
      vertex -3.743492e+001  5.957980e+000  2.123716e+001
      vertex -3.746086e+001  5.956901e+000  2.120314e+001
    endloop
  endfacet
  facet normal  4.155415e-002 -9.991363e-001  2.005520e-005
    outer loop
      vertex -3.482370e+001  6.066587e+000  2.128877e+001
      vertex -3.479771e+001  6.067668e+000  2.128660e+001
      vertex -3.440120e+001  6.084161e+000  2.135532e+001
    endloop
  endfacet
  facet normal  4.155723e-002 -9.991361e-001  4.656917e-007
    outer loop
      vertex -3.482370e+001  6.066587e+000  2.128877e+001
      vertex -3.440120e+001  6.084161e+000  2.135532e+001
      vertex -3.442680e+001  6.083096e+000  2.140905e+001
    endloop
  endfacet
  facet normal  4.155849e-002 -9.991361e-001 -3.690037e-006
    outer loop
      vertex -3.482370e+001  6.066587e+000  2.128877e+001
      vertex -3.442680e+001  6.083096e+000  2.140905e+001
      vertex -3.445927e+001  6.081745e+000  2.145893e+001
    endloop
  endfacet
  facet normal  4.155541e-002 -9.991363e-001  2.912782e-006
    outer loop
      vertex -3.482370e+001  6.066587e+000  2.128877e+001
      vertex -3.445927e+001  6.081745e+000  2.145893e+001
      vertex -3.449804e+001  6.080133e+000  2.150409e+001
    endloop
  endfacet
  facet normal  4.155687e-002 -9.991361e-001  6.990920e-007
    outer loop
      vertex -3.482370e+001  6.066587e+000  2.128877e+001
      vertex -3.449804e+001  6.080133e+000  2.150409e+001
      vertex -3.454242e+001  6.078287e+000  2.154372e+001
    endloop
  endfacet
  facet normal  4.155802e-002 -9.991361e-001 -5.666276e-007
    outer loop
      vertex -3.482370e+001  6.066587e+000  2.128877e+001
      vertex -3.454242e+001  6.078287e+000  2.154372e+001
      vertex -3.459164e+001  6.076240e+000  2.157715e+001
    endloop
  endfacet
  facet normal  4.155513e-002 -9.991361e-001  1.756284e-006
    outer loop
      vertex -3.482370e+001  6.066587e+000  2.128877e+001
      vertex -3.459164e+001  6.076240e+000  2.157715e+001
      vertex -3.464484e+001  6.074027e+000  2.160378e+001
    endloop
  endfacet
  facet normal  4.156024e-002 -9.991360e-001 -1.151659e-006
    outer loop
      vertex -3.482370e+001  6.066587e+000  2.128877e+001
      vertex -3.464484e+001  6.074027e+000  2.160378e+001
      vertex -3.470108e+001  6.071687e+000  2.162315e+001
    endloop
  endfacet
  facet normal  4.155865e-002 -9.991360e-001 -5.669913e-007
    outer loop
      vertex -3.482370e+001  6.066587e+000  2.128877e+001
      vertex -3.470108e+001  6.071687e+000  2.162315e+001
      vertex -3.475939e+001  6.069262e+000  2.163492e+001
    endloop
  endfacet
  facet normal  4.155575e-002 -9.991362e-001 -2.673112e-008
    outer loop
      vertex -3.482370e+001  6.066587e+000  2.128877e+001
      vertex -3.475939e+001  6.069262e+000  2.163492e+001
      vertex -3.481874e+001  6.066793e+000  2.163888e+001
    endloop
  endfacet
  facet normal  4.155665e-002 -9.991361e-001  1.766345e-006
    outer loop
      vertex -3.481414e+001  6.066985e+000  2.108899e+001
      vertex -3.747056e+001  5.956497e+000  2.095786e+001
      vertex -3.744740e+001  5.957461e+000  2.092189e+001
    endloop
  endfacet
  facet normal  4.155649e-002 -9.991361e-001  4.161544e-006
    outer loop
      vertex -3.481414e+001  6.066985e+000  2.108899e+001
      vertex -3.744740e+001  5.957461e+000  2.092189e+001
      vertex -3.741833e+001  5.958670e+000  2.089050e+001
    endloop
  endfacet
  facet normal  4.155675e-002 -9.991361e-001  8.293748e-007
    outer loop
      vertex -3.481414e+001  6.066985e+000  2.108899e+001
      vertex -3.741833e+001  5.958670e+000  2.089050e+001
      vertex -3.738424e+001  5.960087e+000  2.086465e+001
    endloop
  endfacet
  facet normal  4.155785e-002 -9.991361e-001 -1.180239e-005
    outer loop
      vertex -3.481414e+001  6.066985e+000  2.108899e+001
      vertex -3.738424e+001  5.960087e+000  2.086465e+001
      vertex -3.734619e+001  5.961670e+000  2.084514e+001
    endloop
  endfacet
  facet normal  4.155508e-002 -9.991361e-001  1.699260e-005
    outer loop
      vertex -3.481414e+001  6.066985e+000  2.108899e+001
      vertex -3.734619e+001  5.961670e+000  2.084514e+001
      vertex -3.730532e+001  5.963370e+000  2.083255e+001
    endloop
  endfacet
  facet normal  4.155773e-002 -9.991361e-001 -8.759074e-006
    outer loop
      vertex -3.481414e+001  6.066985e+000  2.108899e+001
      vertex -3.730532e+001  5.963370e+000  2.083255e+001
      vertex -3.726289e+001  5.965135e+000  2.082727e+001
    endloop
  endfacet
  facet normal  4.155686e-002 -9.991361e-001 -6.382029e-007
    outer loop
      vertex -3.481414e+001  6.066985e+000  2.108899e+001
      vertex -3.726289e+001  5.965135e+000  2.082727e+001
      vertex -3.483521e+001  6.066109e+000  2.073918e+001
    endloop
  endfacet
  facet normal  4.155163e-002 -9.991364e-001 -3.226406e-007
    outer loop
      vertex -3.481414e+001  6.066985e+000  2.108899e+001
      vertex -3.483521e+001  6.066109e+000  2.073918e+001
      vertex -3.477575e+001  6.068582e+000  2.074096e+001
    endloop
  endfacet
  facet normal  4.155704e-002 -9.991362e-001  2.745948e-007
    outer loop
      vertex -3.481414e+001  6.066985e+000  2.108899e+001
      vertex -3.477575e+001  6.068582e+000  2.074096e+001
      vertex -3.471706e+001  6.071023e+000  2.075058e+001
    endloop
  endfacet
  facet normal  4.155694e-002 -9.991361e-001  2.464506e-007
    outer loop
      vertex -3.481414e+001  6.066985e+000  2.108899e+001
      vertex -3.471706e+001  6.071023e+000  2.075058e+001
      vertex -3.466014e+001  6.073390e+000  2.076788e+001
    endloop
  endfacet
  facet normal  4.155765e-002 -9.991361e-001  5.902264e-007
    outer loop
      vertex -3.481414e+001  6.066985e+000  2.108899e+001
      vertex -3.466014e+001  6.073390e+000  2.076788e+001
      vertex -3.460600e+001  6.075642e+000  2.079254e+001
    endloop
  endfacet
  facet normal  4.155560e-002 -9.991361e-001 -8.541573e-007
    outer loop
      vertex -3.481414e+001  6.066985e+000  2.108899e+001
      vertex -3.460600e+001  6.075642e+000  2.079254e+001
      vertex -3.455559e+001  6.077739e+000  2.082414e+001
    endloop
  endfacet
  facet normal  4.155609e-002 -9.991361e-001 -3.728086e-007
    outer loop
      vertex -3.481414e+001  6.066985e+000  2.108899e+001
      vertex -3.455559e+001  6.077739e+000  2.082414e+001
      vertex -3.450979e+001  6.079644e+000  2.086212e+001
    endloop
  endfacet
  facet normal  4.155589e-002 -9.991362e-001 -6.474186e-007
    outer loop
      vertex -3.481414e+001  6.066985e+000  2.108899e+001
      vertex -3.450979e+001  6.079644e+000  2.086212e+001
      vertex -3.446939e+001  6.081324e+000  2.090582e+001
    endloop
  endfacet
  facet normal  4.155631e-002 -9.991362e-001  1.571222e-007
    outer loop
      vertex -3.481414e+001  6.066985e+000  2.108899e+001
      vertex -3.446939e+001  6.081324e+000  2.090582e+001
      vertex -3.443512e+001  6.082749e+000  2.095448e+001
    endloop
  endfacet
  facet normal  4.155780e-002 -9.991361e-001  4.345789e-006
    outer loop
      vertex -3.481414e+001  6.066985e+000  2.108899e+001
      vertex -3.443512e+001  6.082749e+000  2.095448e+001
      vertex -3.440757e+001  6.083896e+000  2.100724e+001
    endloop
  endfacet
  facet normal  4.155728e-002 -9.991361e-001  1.729406e-006
    outer loop
      vertex -3.481414e+001  6.066985e+000  2.108899e+001
      vertex -3.440757e+001  6.083896e+000  2.100724e+001
      vertex -3.438721e+001  6.084743e+000  2.106318e+001
    endloop
  endfacet
  facet normal  4.155683e-002 -9.991361e-001 -5.592773e-006
    outer loop
      vertex -3.481414e+001  6.066985e+000  2.108899e+001
      vertex -3.438721e+001  6.084743e+000  2.106318e+001
      vertex -3.437440e+001  6.085275e+000  2.112132e+001
    endloop
  endfacet
  facet normal  4.155304e-002 -9.991363e-001  4.616747e-005
    outer loop
      vertex -3.481414e+001  6.066985e+000  2.108899e+001
      vertex -3.437440e+001  6.085275e+000  2.112132e+001
      vertex -3.478847e+001  6.068053e+000  2.109364e+001
    endloop
  endfacet
  facet normal  4.155699e-002 -9.991361e-001 -5.164069e-006
    outer loop
      vertex -3.748712e+001  5.955808e+000  2.099731e+001
      vertex -3.747056e+001  5.956497e+000  2.095786e+001
      vertex -3.481414e+001  6.066985e+000  2.108899e+001
    endloop
  endfacet
  facet normal  4.155697e-002 -9.991361e-001 -4.611132e-006
    outer loop
      vertex -3.748712e+001  5.955808e+000  2.099731e+001
      vertex -3.481414e+001  6.066985e+000  2.108899e+001
      vertex -3.484013e+001  6.065904e+000  2.109116e+001
    endloop
  endfacet
  facet normal  4.155601e-002 -9.991362e-001  2.263542e-005
    outer loop
      vertex -3.748712e+001  5.955808e+000  2.099731e+001
      vertex -3.484013e+001  6.065904e+000  2.109116e+001
      vertex -3.486468e+001  6.064883e+000  2.109999e+001
    endloop
  endfacet
  facet normal  4.155735e-002 -9.991361e-001 -1.167879e-005
    outer loop
      vertex -3.748712e+001  5.955808e+000  2.099731e+001
      vertex -3.486468e+001  6.064883e+000  2.109999e+001
      vertex -3.488611e+001  6.063992e+000  2.111487e+001
    endloop
  endfacet
  facet normal  4.155676e-002 -9.991361e-001  1.262719e-006
    outer loop
      vertex -3.748712e+001  5.955808e+000  2.099731e+001
      vertex -3.488611e+001  6.063992e+000  2.111487e+001
      vertex -3.490296e+001  6.063291e+000  2.113479e+001
    endloop
  endfacet
  facet normal  4.155675e-002 -9.991362e-001  1.529004e-006
    outer loop
      vertex -3.748712e+001  5.955808e+000  2.099731e+001
      vertex -3.490296e+001  6.063291e+000  2.113479e+001
      vertex -3.749657e+001  5.955415e+000  2.103905e+001
    endloop
  endfacet
  facet normal  4.155670e-002 -9.991362e-001  1.268329e-006
    outer loop
      vertex -3.491656e+001  6.062725e+000  2.121011e+001
      vertex -3.749862e+001  5.955330e+000  2.108180e+001
      vertex -3.491872e+001  6.062635e+000  2.118410e+001
    endloop
  endfacet
  facet normal  4.155678e-002 -9.991361e-001 -5.624306e-007
    outer loop
      vertex -3.491872e+001  6.062635e+000  2.118410e+001
      vertex -3.749862e+001  5.955330e+000  2.108180e+001
      vertex -3.749657e+001  5.955415e+000  2.103905e+001
    endloop
  endfacet
  facet normal  4.155694e-002 -9.991361e-001 -3.422832e-006
    outer loop
      vertex -3.491872e+001  6.062635e+000  2.118410e+001
      vertex -3.749657e+001  5.955415e+000  2.103905e+001
      vertex -3.491408e+001  6.062828e+000  2.115841e+001
    endloop
  endfacet
  facet normal  4.155598e-002 -9.991362e-001  1.624185e-005
    outer loop
      vertex -3.489287e+001  6.063711e+000  2.125613e+001
      vertex -3.749320e+001  5.955556e+000  2.112425e+001
      vertex -3.490774e+001  6.063092e+000  2.123468e+001
    endloop
  endfacet
  facet normal  4.155652e-002 -9.991362e-001  3.476368e-006
    outer loop
      vertex -3.490774e+001  6.063092e+000  2.123468e+001
      vertex -3.749320e+001  5.955556e+000  2.112425e+001
      vertex -3.749862e+001  5.955330e+000  2.108180e+001
    endloop
  endfacet
  facet normal  4.155700e-002 -9.991361e-001 -4.587539e-006
    outer loop
      vertex -3.490774e+001  6.063092e+000  2.123468e+001
      vertex -3.749862e+001  5.955330e+000  2.108180e+001
      vertex -3.491656e+001  6.062725e+000  2.121011e+001
    endloop
  endfacet
  facet normal  4.155798e-002 -9.991360e-001 -8.833106e-006
    outer loop
      vertex -3.473010e+001  6.070480e+000  2.114308e+001
      vertex -3.474497e+001  6.069862e+000  2.112164e+001
      vertex -3.436938e+001  6.085484e+000  2.118064e+001
    endloop
  endfacet
  facet normal  4.155571e-002 -9.991362e-001  5.633615e-006
    outer loop
      vertex -3.436938e+001  6.085484e+000  2.118064e+001
      vertex -3.474497e+001  6.069862e+000  2.112164e+001
      vertex -3.476488e+001  6.069034e+000  2.110477e+001
    endloop
  endfacet
  facet normal  4.155599e-002 -9.991361e-001  4.178661e-006
    outer loop
      vertex -3.436938e+001  6.085484e+000  2.118064e+001
      vertex -3.476488e+001  6.069034e+000  2.110477e+001
      vertex -3.437440e+001  6.085275e+000  2.112132e+001
    endloop
  endfacet
  facet normal  4.155743e-002 -9.991361e-001 -8.271059e-006
    outer loop
      vertex -3.472376e+001  6.070744e+000  2.121936e+001
      vertex -3.471912e+001  6.070937e+000  2.119367e+001
      vertex -3.437223e+001  6.085365e+000  2.124010e+001
    endloop
  endfacet
  facet normal  4.155549e-002 -9.991361e-001  6.243980e-006
    outer loop
      vertex -3.437223e+001  6.085365e+000  2.124010e+001
      vertex -3.471912e+001  6.070937e+000  2.119367e+001
      vertex -3.472128e+001  6.070847e+000  2.116765e+001
    endloop
  endfacet
  facet normal  4.155751e-002 -9.991361e-001 -3.503046e-006
    outer loop
      vertex -3.437223e+001  6.085365e+000  2.124010e+001
      vertex -3.472128e+001  6.070847e+000  2.116765e+001
      vertex -3.436938e+001  6.085484e+000  2.118064e+001
    endloop
  endfacet
  facet normal  4.155829e-002 -9.991360e-001 -1.020407e-005
    outer loop
      vertex -3.475174e+001  6.069581e+000  2.126290e+001
      vertex -3.473488e+001  6.070282e+000  2.124297e+001
      vertex -3.438290e+001  6.084922e+000  2.129867e+001
    endloop
  endfacet
  facet normal  4.155469e-002 -9.991363e-001  1.262535e-005
    outer loop
      vertex -3.438290e+001  6.084922e+000  2.129867e+001
      vertex -3.473488e+001  6.070282e+000  2.124297e+001
      vertex -3.472376e+001  6.070744e+000  2.121936e+001
    endloop
  endfacet
  facet normal  4.155672e-002 -9.991362e-001  3.888985e-006
    outer loop
      vertex -3.438290e+001  6.084922e+000  2.129867e+001
      vertex -3.472376e+001  6.070744e+000  2.121936e+001
      vertex -3.437223e+001  6.085365e+000  2.124010e+001
    endloop
  endfacet
  facet normal  4.155612e-002 -9.991361e-001  1.217055e-005
    outer loop
      vertex -3.475174e+001  6.069581e+000  2.126290e+001
      vertex -3.438290e+001  6.084922e+000  2.129867e+001
      vertex -3.477316e+001  6.068689e+000  2.127778e+001
    endloop
  endfacet
  facet normal  4.155673e-002 -9.991361e-001  7.864710e-007
    outer loop
      vertex -3.477316e+001  6.068689e+000  2.127778e+001
      vertex -3.438290e+001  6.084922e+000  2.129867e+001
      vertex -3.440120e+001  6.084161e+000  2.135532e+001
    endloop
  endfacet
  facet normal  4.156117e-002 -9.991359e-001 -2.053223e-005
    outer loop
      vertex -3.477316e+001  6.068689e+000  2.127778e+001
      vertex -3.440120e+001  6.084161e+000  2.135532e+001
      vertex -3.479771e+001  6.067668e+000  2.128660e+001
    endloop
  endfacet
  facet normal -4.155622e-002  9.991362e-001 -1.334777e-005
    outer loop
      vertex -3.752150e+001  6.554897e+000  2.103905e+001
      vertex -3.493902e+001  6.662310e+000  2.115841e+001
      vertex -3.492789e+001  6.662773e+000  2.113479e+001
    endloop
  endfacet
  facet normal -4.155396e-002  9.991363e-001 -5.988320e-005
    outer loop
      vertex -3.481341e+001  6.667534e+000  2.109364e+001
      vertex -3.478981e+001  6.668516e+000  2.110477e+001
      vertex -3.439934e+001  6.684757e+000  2.112132e+001
    endloop
  endfacet
  facet normal -4.155887e-002  9.991360e-001  2.077450e-005
    outer loop
      vertex -3.475504e+001  6.669962e+000  2.114308e+001
      vertex -3.474622e+001  6.670329e+000  2.116765e+001
      vertex -3.439432e+001  6.684966e+000  2.118064e+001
    endloop
  endfacet
  facet normal -4.155245e-002  9.991363e-001 -3.624019e-006
    outer loop
      vertex -3.750542e+001  6.555566e+000  2.116512e+001
      vertex -3.748579e+001  6.556383e+000  2.120314e+001
      vertex -3.745985e+001  6.557462e+000  2.123716e+001
    endloop
  endfacet
  facet normal -4.150936e-002  9.991381e-001 -3.092510e-005
    outer loop
      vertex -3.750542e+001  6.555566e+000  2.116512e+001
      vertex -3.745985e+001  6.557462e+000  2.123716e+001
      vertex -3.742840e+001  6.558769e+000  2.126615e+001
    endloop
  endfacet
  facet normal -4.158367e-002  9.991351e-001  2.582012e-005
    outer loop
      vertex -3.750542e+001  6.555566e+000  2.116512e+001
      vertex -3.742840e+001  6.558769e+000  2.126615e+001
      vertex -3.739238e+001  6.560268e+000  2.128922e+001
    endloop
  endfacet
  facet normal -4.154710e-002  9.991366e-001 -7.547151e-006
    outer loop
      vertex -3.750542e+001  6.555566e+000  2.116512e+001
      vertex -3.739238e+001  6.560268e+000  2.128922e+001
      vertex -3.735290e+001  6.561910e+000  2.130566e+001
    endloop
  endfacet
  facet normal -4.155474e-002  9.991363e-001  7.589251e-007
    outer loop
      vertex -3.750542e+001  6.555566e+000  2.116512e+001
      vertex -3.735290e+001  6.561910e+000  2.130566e+001
      vertex -3.731117e+001  6.563645e+000  2.131498e+001
    endloop
  endfacet
  facet normal -4.155762e-002  9.991361e-001  4.500931e-006
    outer loop
      vertex -3.750542e+001  6.555566e+000  2.116512e+001
      vertex -3.731117e+001  6.563645e+000  2.131498e+001
      vertex -3.490303e+001  6.663807e+000  2.163497e+001
    endloop
  endfacet
  facet normal -4.154168e-002  9.991367e-001 -8.390715e-005
    outer loop
      vertex -3.750542e+001  6.555566e+000  2.116512e+001
      vertex -3.490303e+001  6.663807e+000  2.163497e+001
      vertex -3.484367e+001  6.666275e+000  2.163888e+001
    endloop
  endfacet
  facet normal -4.155679e-002  9.991360e-001  1.130179e-006
    outer loop
      vertex -3.750542e+001  6.555566e+000  2.116512e+001
      vertex -3.484367e+001  6.666275e+000  2.163888e+001
      vertex -3.484864e+001  6.666069e+000  2.128877e+001
    endloop
  endfacet
  facet normal -4.156028e-002  9.991360e-001  7.604985e-005
    outer loop
      vertex -3.750542e+001  6.555566e+000  2.116512e+001
      vertex -3.484864e+001  6.666069e+000  2.128877e+001
      vertex -3.487431e+001  6.665002e+000  2.128412e+001
    endloop
  endfacet
  facet normal -4.155359e-002  9.991363e-001 -7.205363e-005
    outer loop
      vertex -3.750542e+001  6.555566e+000  2.116512e+001
      vertex -3.487431e+001  6.665002e+000  2.128412e+001
      vertex -3.489790e+001  6.664020e+000  2.127299e+001
    endloop
  endfacet
  facet normal -4.155735e-002  9.991361e-001  1.889995e-005
    outer loop
      vertex -3.750542e+001  6.555566e+000  2.116512e+001
      vertex -3.489790e+001  6.664020e+000  2.127299e+001
      vertex -3.491780e+001  6.663192e+000  2.125613e+001
    endloop
  endfacet
  facet normal -4.155619e-002  9.991361e-001 -1.385096e-005
    outer loop
      vertex -3.750542e+001  6.555566e+000  2.116512e+001
      vertex -3.491780e+001  6.663192e+000  2.125613e+001
      vertex -3.751814e+001  6.555037e+000  2.112425e+001
    endloop
  endfacet
  facet normal -4.156209e-002  9.991360e-001  1.205249e-006
    outer loop
      vertex -3.484864e+001  6.666069e+000  2.128877e+001
      vertex -3.484367e+001  6.666275e+000  2.163888e+001
      vertex -3.478432e+001  6.668744e+000  2.163492e+001
    endloop
  endfacet
  facet normal -4.156075e-002  9.991360e-001  9.565127e-007
    outer loop
      vertex -3.484864e+001  6.666069e+000  2.128877e+001
      vertex -3.478432e+001  6.668744e+000  2.163492e+001
      vertex -3.472602e+001  6.671169e+000  2.162315e+001
    endloop
  endfacet
  facet normal -4.155236e-002  9.991364e-001 -2.125530e-006
    outer loop
      vertex -3.484864e+001  6.666069e+000  2.128877e+001
      vertex -3.472602e+001  6.671169e+000  2.162315e+001
      vertex -3.466977e+001  6.673509e+000  2.160378e+001
    endloop
  endfacet
  facet normal -4.155466e-002  9.991361e-001 -8.141512e-007
    outer loop
      vertex -3.484864e+001  6.666069e+000  2.128877e+001
      vertex -3.466977e+001  6.673509e+000  2.160378e+001
      vertex -3.461657e+001  6.675721e+000  2.157715e+001
    endloop
  endfacet
  facet normal -4.155244e-002  9.991363e-001 -2.607950e-006
    outer loop
      vertex -3.484864e+001  6.666069e+000  2.128877e+001
      vertex -3.461657e+001  6.675721e+000  2.157715e+001
      vertex -3.456735e+001  6.677768e+000  2.154372e+001
    endloop
  endfacet
  facet normal -4.155985e-002  9.991360e-001  5.579273e-006
    outer loop
      vertex -3.484864e+001  6.666069e+000  2.128877e+001
      vertex -3.456735e+001  6.677768e+000  2.154372e+001
      vertex -3.452297e+001  6.679615e+000  2.150409e+001
    endloop
  endfacet
  facet normal -4.155466e-002  9.991363e-001 -2.271877e-006
    outer loop
      vertex -3.484864e+001  6.666069e+000  2.128877e+001
      vertex -3.452297e+001  6.679615e+000  2.150409e+001
      vertex -3.448420e+001  6.681226e+000  2.145893e+001
    endloop
  endfacet
  facet normal -4.155495e-002  9.991362e-001 -1.647825e-006
    outer loop
      vertex -3.484864e+001  6.666069e+000  2.128877e+001
      vertex -3.448420e+001  6.681226e+000  2.145893e+001
      vertex -3.445173e+001  6.682577e+000  2.140905e+001
    endloop
  endfacet
  facet normal -4.155931e-002  9.991361e-001  1.272999e-005
    outer loop
      vertex -3.484864e+001  6.666069e+000  2.128877e+001
      vertex -3.445173e+001  6.682577e+000  2.140905e+001
      vertex -3.442613e+001  6.683643e+000  2.135532e+001
    endloop
  endfacet
  facet normal -4.155733e-002  9.991361e-001  2.094010e-007
    outer loop
      vertex -3.484864e+001  6.666069e+000  2.128877e+001
      vertex -3.442613e+001  6.683643e+000  2.135532e+001
      vertex -3.482264e+001  6.667150e+000  2.128660e+001
    endloop
  endfacet
  facet normal -4.156175e-002  9.991360e-001  5.684247e-005
    outer loop
      vertex -3.483907e+001  6.666467e+000  2.108899e+001
      vertex -3.481341e+001  6.667534e+000  2.109364e+001
      vertex -3.439934e+001  6.684757e+000  2.112132e+001
    endloop
  endfacet
  facet normal -4.155735e-002  9.991361e-001 -3.029684e-006
    outer loop
      vertex -3.483907e+001  6.666467e+000  2.108899e+001
      vertex -3.439934e+001  6.684757e+000  2.112132e+001
      vertex -3.441214e+001  6.684224e+000  2.106318e+001
    endloop
  endfacet
  facet normal -4.155728e-002  9.991361e-001 -1.729406e-006
    outer loop
      vertex -3.483907e+001  6.666467e+000  2.108899e+001
      vertex -3.441214e+001  6.684224e+000  2.106318e+001
      vertex -3.443250e+001  6.683377e+000  2.100724e+001
    endloop
  endfacet
  facet normal -4.155605e-002  9.991363e-001  4.367138e-006
    outer loop
      vertex -3.483907e+001  6.666467e+000  2.108899e+001
      vertex -3.443250e+001  6.683377e+000  2.100724e+001
      vertex -3.446006e+001  6.682231e+000  2.095448e+001
    endloop
  endfacet
  facet normal -4.155961e-002  9.991360e-001 -5.668443e-006
    outer loop
      vertex -3.483907e+001  6.666467e+000  2.108899e+001
      vertex -3.446006e+001  6.682231e+000  2.095448e+001
      vertex -3.449433e+001  6.680805e+000  2.090582e+001
    endloop
  endfacet
  facet normal -4.155717e-002  9.991361e-001 -1.070780e-006
    outer loop
      vertex -3.483907e+001  6.666467e+000  2.108899e+001
      vertex -3.449433e+001  6.680805e+000  2.090582e+001
      vertex -3.453472e+001  6.679125e+000  2.086212e+001
    endloop
  endfacet
  facet normal -4.155609e-002  9.991361e-001  3.728086e-007
    outer loop
      vertex -3.483907e+001  6.666467e+000  2.108899e+001
      vertex -3.453472e+001  6.679125e+000  2.086212e+001
      vertex -3.458052e+001  6.677220e+000  2.082414e+001
    endloop
  endfacet
  facet normal -4.155404e-002  9.991362e-001  2.377651e-006
    outer loop
      vertex -3.483907e+001  6.666467e+000  2.108899e+001
      vertex -3.458052e+001  6.677220e+000  2.082414e+001
      vertex -3.463094e+001  6.675124e+000  2.079254e+001
    endloop
  endfacet
  facet normal -4.155248e-002  9.991363e-001  3.478884e-006
    outer loop
      vertex -3.483907e+001  6.666467e+000  2.108899e+001
      vertex -3.463094e+001  6.675124e+000  2.079254e+001
      vertex -3.468507e+001  6.672872e+000  2.076788e+001
    endloop
  endfacet
  facet normal -4.155930e-002  9.991360e-001  2.015251e-007
    outer loop
      vertex -3.483907e+001  6.666467e+000  2.108899e+001
      vertex -3.468507e+001  6.672872e+000  2.076788e+001
      vertex -3.474199e+001  6.670505e+000  2.075058e+001
    endloop
  endfacet
  facet normal -4.155516e-002  9.991362e-001  1.393038e-006
    outer loop
      vertex -3.483907e+001  6.666467e+000  2.108899e+001
      vertex -3.474199e+001  6.670505e+000  2.075058e+001
      vertex -3.480069e+001  6.668064e+000  2.074096e+001
    endloop
  endfacet
  facet normal -4.156655e-002  9.991357e-001  1.335673e-007
    outer loop
      vertex -3.483907e+001  6.666467e+000  2.108899e+001
      vertex -3.480069e+001  6.668064e+000  2.074096e+001
      vertex -3.486015e+001  6.665590e+000  2.073918e+001
    endloop
  endfacet
  facet normal -4.155669e-002  9.991361e-001 -4.615345e-007
    outer loop
      vertex -3.483907e+001  6.666467e+000  2.108899e+001
      vertex -3.486015e+001  6.665590e+000  2.073918e+001
      vertex -3.728782e+001  6.564617e+000  2.082727e+001
    endloop
  endfacet
  facet normal -4.155493e-002  9.991362e-001 -1.692877e-005
    outer loop
      vertex -3.483907e+001  6.666467e+000  2.108899e+001
      vertex -3.728782e+001  6.564617e+000  2.082727e+001
      vertex -3.733026e+001  6.562852e+000  2.083255e+001
    endloop
  endfacet
  facet normal -4.155652e-002  9.991361e-001 -1.479451e-006
    outer loop
      vertex -3.483907e+001  6.666467e+000  2.108899e+001
      vertex -3.733026e+001  6.562852e+000  2.083255e+001
      vertex -3.737112e+001  6.561152e+000  2.084514e+001
    endloop
  endfacet
  facet normal -4.155781e-002  9.991361e-001  1.188461e-005
    outer loop
      vertex -3.483907e+001  6.666467e+000  2.108899e+001
      vertex -3.737112e+001  6.561152e+000  2.084514e+001
      vertex -3.740918e+001  6.559569e+000  2.086465e+001
    endloop
  endfacet
  facet normal -4.155709e-002  9.991361e-001  3.629424e-006
    outer loop
      vertex -3.483907e+001  6.666467e+000  2.108899e+001
      vertex -3.740918e+001  6.559569e+000  2.086465e+001
      vertex -3.744326e+001  6.558151e+000  2.089050e+001
    endloop
  endfacet
  facet normal -4.155563e-002  9.991361e-001 -1.550401e-005
    outer loop
      vertex -3.483907e+001  6.666467e+000  2.108899e+001
      vertex -3.744326e+001  6.558151e+000  2.089050e+001
      vertex -3.747233e+001  6.556943e+000  2.092189e+001
    endloop
  endfacet
  facet normal -4.155651e-002  9.991361e-001 -1.676779e-006
    outer loop
      vertex -3.483907e+001  6.666467e+000  2.108899e+001
      vertex -3.747233e+001  6.556943e+000  2.092189e+001
      vertex -3.749549e+001  6.555979e+000  2.095786e+001
    endloop
  endfacet
  facet normal -4.155665e-002  9.991362e-001 -1.506991e-006
    outer loop
      vertex -3.751205e+001  6.555290e+000  2.099731e+001
      vertex -3.752150e+001  6.554897e+000  2.103905e+001
      vertex -3.492789e+001  6.662773e+000  2.113479e+001
    endloop
  endfacet
  facet normal -4.155732e-002  9.991361e-001  1.103031e-005
    outer loop
      vertex -3.751205e+001  6.555290e+000  2.099731e+001
      vertex -3.492789e+001  6.662773e+000  2.113479e+001
      vertex -3.491104e+001  6.663474e+000  2.111487e+001
    endloop
  endfacet
  facet normal -4.155626e-002  9.991361e-001 -1.236498e-005
    outer loop
      vertex -3.751205e+001  6.555290e+000  2.099731e+001
      vertex -3.491104e+001  6.663474e+000  2.111487e+001
      vertex -3.488961e+001  6.664365e+000  2.109999e+001
    endloop
  endfacet
  facet normal -4.155638e-002  9.991361e-001 -9.310467e-006
    outer loop
      vertex -3.751205e+001  6.555290e+000  2.099731e+001
      vertex -3.488961e+001  6.664365e+000  2.109999e+001
      vertex -3.486507e+001  6.665386e+000  2.109116e+001
    endloop
  endfacet
  facet normal -4.155545e-002  9.991362e-001 -3.566441e-005
    outer loop
      vertex -3.751205e+001  6.555290e+000  2.099731e+001
      vertex -3.486507e+001  6.665386e+000  2.109116e+001
      vertex -3.483907e+001  6.666467e+000  2.108899e+001
    endloop
  endfacet
  facet normal -4.155685e-002  9.991361e-001  5.223062e-006
    outer loop
      vertex -3.751205e+001  6.555290e+000  2.099731e+001
      vertex -3.483907e+001  6.666467e+000  2.108899e+001
      vertex -3.749549e+001  6.555979e+000  2.095786e+001
    endloop
  endfacet
  facet normal -4.155721e-002  9.991361e-001  8.309890e-006
    outer loop
      vertex -3.493902e+001  6.662310e+000  2.115841e+001
      vertex -3.752150e+001  6.554897e+000  2.103905e+001
      vertex -3.494365e+001  6.662117e+000  2.118410e+001
    endloop
  endfacet
  facet normal -4.155711e-002  9.991361e-001  6.495557e-006
    outer loop
      vertex -3.494365e+001  6.662117e+000  2.118410e+001
      vertex -3.752150e+001  6.554897e+000  2.103905e+001
      vertex -3.752355e+001  6.554812e+000  2.108180e+001
    endloop
  endfacet
  facet normal -4.155661e-002  9.991361e-001 -6.151195e-006
    outer loop
      vertex -3.494365e+001  6.662117e+000  2.118410e+001
      vertex -3.752355e+001  6.554812e+000  2.108180e+001
      vertex -3.494149e+001  6.662207e+000  2.121011e+001
    endloop
  endfacet
  facet normal -4.155793e-002  9.991361e-001  2.043571e-005
    outer loop
      vertex -3.494149e+001  6.662207e+000  2.121011e+001
      vertex -3.752355e+001  6.554812e+000  2.108180e+001
      vertex -3.493267e+001  6.662573e+000  2.123468e+001
    endloop
  endfacet
  facet normal -4.155705e-002  9.991362e-001  5.570001e-006
    outer loop
      vertex -3.493267e+001  6.662573e+000  2.123468e+001
      vertex -3.752355e+001  6.554812e+000  2.108180e+001
      vertex -3.751814e+001  6.555037e+000  2.112425e+001
    endloop
  endfacet
  facet normal -4.155639e-002  9.991361e-001 -1.004270e-005
    outer loop
      vertex -3.493267e+001  6.662573e+000  2.123468e+001
      vertex -3.751814e+001  6.555037e+000  2.112425e+001
      vertex -3.491780e+001  6.663192e+000  2.125613e+001
    endloop
  endfacet
  facet normal -4.155640e-002  9.991361e-001 -2.005543e-006
    outer loop
      vertex -3.439934e+001  6.684757e+000  2.112132e+001
      vertex -3.478981e+001  6.668516e+000  2.110477e+001
      vertex -3.439432e+001  6.684966e+000  2.118064e+001
    endloop
  endfacet
  facet normal -4.156131e-002  9.991360e-001  2.358416e-005
    outer loop
      vertex -3.439432e+001  6.684966e+000  2.118064e+001
      vertex -3.478981e+001  6.668516e+000  2.110477e+001
      vertex -3.476991e+001  6.669343e+000  2.112164e+001
    endloop
  endfacet
  facet normal -4.155495e-002  9.991363e-001 -1.695572e-005
    outer loop
      vertex -3.439432e+001  6.684966e+000  2.118064e+001
      vertex -3.476991e+001  6.669343e+000  2.112164e+001
      vertex -3.475504e+001  6.669962e+000  2.114308e+001
    endloop
  endfacet
  facet normal -4.155847e-002  9.991360e-001  9.866681e-006
    outer loop
      vertex -3.439432e+001  6.684966e+000  2.118064e+001
      vertex -3.474622e+001  6.670329e+000  2.116765e+001
      vertex -3.439717e+001  6.684846e+000  2.124010e+001
    endloop
  endfacet
  facet normal -4.155615e-002  9.991362e-001 -1.314557e-006
    outer loop
      vertex -3.439717e+001  6.684846e+000  2.124010e+001
      vertex -3.474622e+001  6.670329e+000  2.116765e+001
      vertex -3.474406e+001  6.670419e+000  2.119367e+001
    endloop
  endfacet
  facet normal -4.155679e-002  9.991361e-001  3.450554e-006
    outer loop
      vertex -3.439717e+001  6.684846e+000  2.124010e+001
      vertex -3.474406e+001  6.670419e+000  2.119367e+001
      vertex -3.474870e+001  6.670226e+000  2.121936e+001
    endloop
  endfacet
  facet normal -4.155624e-002  9.991362e-001 -5.966328e-006
    outer loop
      vertex -3.439717e+001  6.684846e+000  2.124010e+001
      vertex -3.474870e+001  6.670226e+000  2.121936e+001
      vertex -3.440783e+001  6.684403e+000  2.129867e+001
    endloop
  endfacet
  facet normal -4.155469e-002  9.991363e-001 -1.262535e-005
    outer loop
      vertex -3.440783e+001  6.684403e+000  2.129867e+001
      vertex -3.474870e+001  6.670226e+000  2.121936e+001
      vertex -3.475982e+001  6.669763e+000  2.124297e+001
    endloop
  endfacet
  facet normal -4.155918e-002  9.991360e-001  1.581762e-005
    outer loop
      vertex -3.440783e+001  6.684403e+000  2.129867e+001
      vertex -3.475982e+001  6.669763e+000  2.124297e+001
      vertex -3.477667e+001  6.669062e+000  2.126290e+001
    endloop
  endfacet
  facet normal -4.155424e-002  9.991363e-001 -1.770373e-005
    outer loop
      vertex -3.482264e+001  6.667150e+000  2.128660e+001
      vertex -3.442613e+001  6.683643e+000  2.135532e+001
      vertex -3.479810e+001  6.668171e+000  2.127778e+001
    endloop
  endfacet
  facet normal -4.155681e-002  9.991361e-001 -5.302774e-006
    outer loop
      vertex -3.479810e+001  6.668171e+000  2.127778e+001
      vertex -3.442613e+001  6.683643e+000  2.135532e+001
      vertex -3.440783e+001  6.684403e+000  2.129867e+001
    endloop
  endfacet
  facet normal -4.155643e-002  9.991361e-001 -1.260499e-005
    outer loop
      vertex -3.479810e+001  6.668171e+000  2.127778e+001
      vertex -3.440783e+001  6.684403e+000  2.129867e+001
      vertex -3.477667e+001  6.669062e+000  2.126290e+001
    endloop
  endfacet
  facet normal -3.620007e-002 -1.505771e-003 -9.993435e-001
    outer loop
      vertex -3.728782e+001  6.564617e+000  2.082727e+001
      vertex -3.486015e+001  6.665590e+000  2.073918e+001
      vertex -3.726289e+001  5.965135e+000  2.082727e+001
    endloop
  endfacet
  facet normal -3.620012e-002 -1.505589e-003 -9.993434e-001
    outer loop
      vertex -3.726289e+001  5.965135e+000  2.082727e+001
      vertex -3.486015e+001  6.665590e+000  2.073918e+001
      vertex -3.483521e+001  6.066109e+000  2.073918e+001
    endloop
  endfacet
  facet normal  2.993527e-002  1.245030e-003 -9.995511e-001
    outer loop
      vertex -3.483521e+001  6.066109e+000  2.073918e+001
      vertex -3.486015e+001  6.665590e+000  2.073918e+001
      vertex -3.477575e+001  6.068582e+000  2.074096e+001
    endloop
  endfacet
  facet normal  2.993678e-002  1.245243e-003 -9.995511e-001
    outer loop
      vertex -3.477575e+001  6.068582e+000  2.074096e+001
      vertex -3.486015e+001  6.665590e+000  2.073918e+001
      vertex -3.480069e+001  6.668064e+000  2.074096e+001
    endloop
  endfacet
  facet normal  1.614935e-001  6.717449e-003 -9.868509e-001
    outer loop
      vertex -3.477575e+001  6.068582e+000  2.074096e+001
      vertex -3.480069e+001  6.668064e+000  2.074096e+001
      vertex -3.471706e+001  6.071023e+000  2.075058e+001
    endloop
  endfacet
  facet normal  1.614854e-001  6.716288e-003 -9.868522e-001
    outer loop
      vertex -3.471706e+001  6.071023e+000  2.075058e+001
      vertex -3.480069e+001  6.668064e+000  2.074096e+001
      vertex -3.474199e+001  6.670505e+000  2.075058e+001
    endloop
  endfacet
  facet normal  2.902398e-001  1.207127e-002 -9.568778e-001
    outer loop
      vertex -3.471706e+001  6.071023e+000  2.075058e+001
      vertex -3.474199e+001  6.670505e+000  2.075058e+001
      vertex -3.466014e+001  6.073390e+000  2.076788e+001
    endloop
  endfacet
  facet normal  2.902540e-001  1.207334e-002 -9.568735e-001
    outer loop
      vertex -3.466014e+001  6.073390e+000  2.076788e+001
      vertex -3.474199e+001  6.670505e+000  2.075058e+001
      vertex -3.468507e+001  6.672872e+000  2.076788e+001
    endloop
  endfacet
  facet normal  4.139077e-001  1.721681e-002 -9.101560e-001
    outer loop
      vertex -3.466014e+001  6.073390e+000  2.076788e+001
      vertex -3.468507e+001  6.672872e+000  2.076788e+001
      vertex -3.460600e+001  6.075642e+000  2.079254e+001
    endloop
  endfacet
  facet normal  4.139078e-001  1.721682e-002 -9.101560e-001
    outer loop
      vertex -3.460600e+001  6.075642e+000  2.079254e+001
      vertex -3.468507e+001  6.672872e+000  2.076788e+001
      vertex -3.463094e+001  6.675124e+000  2.079254e+001
    endloop
  endfacet
  facet normal  5.303446e-001  2.206011e-002 -8.474951e-001
    outer loop
      vertex -3.460600e+001  6.075642e+000  2.079254e+001
      vertex -3.463094e+001  6.675124e+000  2.079254e+001
      vertex -3.455559e+001  6.077739e+000  2.082414e+001
    endloop
  endfacet
  facet normal  5.303217e-001  2.205645e-002 -8.475095e-001
    outer loop
      vertex -3.455559e+001  6.077739e+000  2.082414e+001
      vertex -3.463094e+001  6.675124e+000  2.079254e+001
      vertex -3.458052e+001  6.677220e+000  2.082414e+001
    endloop
  endfacet
  facet normal  6.374582e-001  2.651234e-002 -7.700286e-001
    outer loop
      vertex -3.455559e+001  6.077739e+000  2.082414e+001
      vertex -3.458052e+001  6.677220e+000  2.082414e+001
      vertex -3.450979e+001  6.079644e+000  2.086212e+001
    endloop
  endfacet
  facet normal  6.374582e-001  2.651234e-002 -7.700286e-001
    outer loop
      vertex -3.450979e+001  6.079644e+000  2.086212e+001
      vertex -3.458052e+001  6.677220e+000  2.082414e+001
      vertex -3.453472e+001  6.679125e+000  2.086212e+001
    endloop
  endfacet
  facet normal  7.334285e-001  3.050381e-002 -6.790819e-001
    outer loop
      vertex -3.450979e+001  6.079644e+000  2.086212e+001
      vertex -3.453472e+001  6.679125e+000  2.086212e+001
      vertex -3.446939e+001  6.081324e+000  2.090582e+001
    endloop
  endfacet
  facet normal  7.334539e-001  3.050860e-002 -6.790543e-001
    outer loop
      vertex -3.446939e+001  6.081324e+000  2.090582e+001
      vertex -3.453472e+001  6.679125e+000  2.086212e+001
      vertex -3.449433e+001  6.680805e+000  2.090582e+001
    endloop
  endfacet
  facet normal  8.165967e-001  3.396699e-002 -5.762082e-001
    outer loop
      vertex -3.446939e+001  6.081324e+000  2.090582e+001
      vertex -3.449433e+001  6.680805e+000  2.090582e+001
      vertex -3.443512e+001  6.082749e+000  2.095448e+001
    endloop
  endfacet
  facet normal  8.165966e-001  3.396696e-002 -5.762084e-001
    outer loop
      vertex -3.443512e+001  6.082749e+000  2.095448e+001
      vertex -3.449433e+001  6.680805e+000  2.090582e+001
      vertex -3.446006e+001  6.682231e+000  2.095448e+001
    endloop
  endfacet
  facet normal  8.854619e-001  3.683147e-002 -4.632502e-001
    outer loop
      vertex -3.443512e+001  6.082749e+000  2.095448e+001
      vertex -3.446006e+001  6.682231e+000  2.095448e+001
      vertex -3.440757e+001  6.083896e+000  2.100724e+001
    endloop
  endfacet
  facet normal  8.854412e-001  3.682612e-002 -4.632903e-001
    outer loop
      vertex -3.440757e+001  6.083896e+000  2.100724e+001
      vertex -3.446006e+001  6.682231e+000  2.095448e+001
      vertex -3.443250e+001  6.683377e+000  2.100724e+001
    endloop
  endfacet
  facet normal  9.387954e-001  3.904516e-002 -3.422553e-001
    outer loop
      vertex -3.440757e+001  6.083896e+000  2.100724e+001
      vertex -3.443250e+001  6.683377e+000  2.100724e+001
      vertex -3.438721e+001  6.084743e+000  2.106318e+001
    endloop
  endfacet
  facet normal  9.387954e-001  3.904516e-002 -3.422553e-001
    outer loop
      vertex -3.438721e+001  6.084743e+000  2.106318e+001
      vertex -3.443250e+001  6.683377e+000  2.100724e+001
      vertex -3.441214e+001  6.684224e+000  2.106318e+001
    endloop
  endfacet
  facet normal  9.757201e-001  4.058089e-002 -2.152291e-001
    outer loop
      vertex -3.438721e+001  6.084743e+000  2.106318e+001
      vertex -3.441214e+001  6.684224e+000  2.106318e+001
      vertex -3.437440e+001  6.085275e+000  2.112132e+001
    endloop
  endfacet
  facet normal  9.757305e-001  4.058626e-002 -2.151805e-001
    outer loop
      vertex -3.437440e+001  6.085275e+000  2.112132e+001
      vertex -3.441214e+001  6.684224e+000  2.106318e+001
      vertex -3.439934e+001  6.684757e+000  2.112132e+001
    endloop
  endfacet
  facet normal  9.955713e-001  4.141155e-002 -8.439702e-002
    outer loop
      vertex -3.437440e+001  6.085275e+000  2.112132e+001
      vertex -3.439934e+001  6.684757e+000  2.112132e+001
      vertex -3.436938e+001  6.085484e+000  2.118064e+001
    endloop
  endfacet
  facet normal  9.955673e-001  4.140631e-002 -8.444787e-002
    outer loop
      vertex -3.436938e+001  6.085484e+000  2.118064e+001
      vertex -3.439934e+001  6.684757e+000  2.112132e+001
      vertex -3.439432e+001  6.684966e+000  2.118064e+001
    endloop
  endfacet
  facet normal  9.979908e-001  4.150711e-002  4.786837e-002
    outer loop
      vertex -3.436938e+001  6.085484e+000  2.118064e+001
      vertex -3.439432e+001  6.684966e+000  2.118064e+001
      vertex -3.437223e+001  6.085365e+000  2.124010e+001
    endloop
  endfacet
  facet normal  9.979909e-001  4.150714e-002  4.786864e-002
    outer loop
      vertex -3.437223e+001  6.085365e+000  2.124010e+001
      vertex -3.439432e+001  6.684966e+000  2.118064e+001
      vertex -3.439717e+001  6.684846e+000  2.124010e+001
    endloop
  endfacet
  facet normal  9.829510e-001  4.088163e-002  1.792652e-001
    outer loop
      vertex -3.437223e+001  6.085365e+000  2.124010e+001
      vertex -3.439717e+001  6.684846e+000  2.124010e+001
      vertex -3.438290e+001  6.084922e+000  2.129867e+001
    endloop
  endfacet
  facet normal  9.829417e-001  4.088624e-002  1.793148e-001
    outer loop
      vertex -3.438290e+001  6.084922e+000  2.129867e+001
      vertex -3.439717e+001  6.684846e+000  2.124010e+001
      vertex -3.440783e+001  6.684403e+000  2.129867e+001
    endloop
  endfacet
  facet normal  9.506874e-001  3.954460e-002  3.076193e-001
    outer loop
      vertex -3.438290e+001  6.084922e+000  2.129867e+001
      vertex -3.440783e+001  6.684403e+000  2.129867e+001
      vertex -3.440120e+001  6.084161e+000  2.135532e+001
    endloop
  endfacet
  facet normal  9.507027e-001  3.954037e-002  3.075727e-001
    outer loop
      vertex -3.440120e+001  6.084161e+000  2.135532e+001
      vertex -3.440783e+001  6.684403e+000  2.129867e+001
      vertex -3.442613e+001  6.683643e+000  2.135532e+001
    endloop
  endfacet
  facet normal  9.018075e-001  3.750679e-002  4.305072e-001
    outer loop
      vertex -3.440120e+001  6.084161e+000  2.135532e+001
      vertex -3.442613e+001  6.683643e+000  2.135532e+001
      vertex -3.442680e+001  6.083096e+000  2.140905e+001
    endloop
  endfacet
  facet normal  9.018072e-001  3.750682e-002  4.305077e-001
    outer loop
      vertex -3.442680e+001  6.083096e+000  2.140905e+001
      vertex -3.442613e+001  6.683643e+000  2.135532e+001
      vertex -3.445173e+001  6.682577e+000  2.140905e+001
    endloop
  endfacet
  facet normal  8.371273e-001  3.481674e-002  5.458990e-001
    outer loop
      vertex -3.442680e+001  6.083096e+000  2.140905e+001
      vertex -3.445173e+001  6.682577e+000  2.140905e+001
      vertex -3.445927e+001  6.081745e+000  2.145893e+001
    endloop
  endfacet
  facet normal  8.371274e-001  3.481672e-002  5.458987e-001
    outer loop
      vertex -3.445927e+001  6.081745e+000  2.145893e+001
      vertex -3.445173e+001  6.682577e+000  2.140905e+001
      vertex -3.448420e+001  6.681226e+000  2.145893e+001
    endloop
  endfacet
  facet normal  7.578343e-001  3.151886e-002  6.516852e-001
    outer loop
      vertex -3.445927e+001  6.081745e+000  2.145893e+001
      vertex -3.448420e+001  6.681226e+000  2.145893e+001
      vertex -3.449804e+001  6.080133e+000  2.150409e+001
    endloop
  endfacet
  facet normal  7.578343e-001  3.151886e-002  6.516852e-001
    outer loop
      vertex -3.449804e+001  6.080133e+000  2.150409e+001
      vertex -3.448420e+001  6.681226e+000  2.145893e+001
      vertex -3.452297e+001  6.679615e+000  2.150409e+001
    endloop
  endfacet
  facet normal  6.652110e-001  2.766660e-002  7.461426e-001
    outer loop
      vertex -3.449804e+001  6.080133e+000  2.150409e+001
      vertex -3.452297e+001  6.679615e+000  2.150409e+001
      vertex -3.454242e+001  6.078287e+000  2.154372e+001
    endloop
  endfacet
  facet normal  6.652109e-001  2.766661e-002  7.461427e-001
    outer loop
      vertex -3.454242e+001  6.078287e+000  2.154372e+001
      vertex -3.452297e+001  6.679615e+000  2.150409e+001
      vertex -3.456735e+001  6.677768e+000  2.154372e+001
    endloop
  endfacet
  facet normal  5.609939e-001  2.333215e-002  8.274911e-001
    outer loop
      vertex -3.454242e+001  6.078287e+000  2.154372e+001
      vertex -3.456735e+001  6.677768e+000  2.154372e+001
      vertex -3.459164e+001  6.076240e+000  2.157715e+001
    endloop
  endfacet
  facet normal  5.609940e-001  2.333214e-002  8.274910e-001
    outer loop
      vertex -3.459164e+001  6.076240e+000  2.157715e+001
      vertex -3.456735e+001  6.677768e+000  2.154372e+001
      vertex -3.461657e+001  6.675721e+000  2.157715e+001
    endloop
  endfacet
  facet normal  4.469283e-001  1.858806e-002  8.943766e-001
    outer loop
      vertex -3.459164e+001  6.076240e+000  2.157715e+001
      vertex -3.461657e+001  6.675721e+000  2.157715e+001
      vertex -3.464484e+001  6.074027e+000  2.160378e+001
    endloop
  endfacet
  facet normal  4.469283e-001  1.858806e-002  8.943766e-001
    outer loop
      vertex -3.464484e+001  6.074027e+000  2.160378e+001
      vertex -3.461657e+001  6.675721e+000  2.157715e+001
      vertex -3.466977e+001  6.673509e+000  2.160378e+001
    endloop
  endfacet
  facet normal  3.250834e-001  1.352045e-002  9.455887e-001
    outer loop
      vertex -3.464484e+001  6.074027e+000  2.160378e+001
      vertex -3.466977e+001  6.673509e+000  2.160378e+001
      vertex -3.470108e+001  6.071687e+000  2.162315e+001
    endloop
  endfacet
  facet normal  3.250676e-001  1.352144e-002  9.455941e-001
    outer loop
      vertex -3.470108e+001  6.071687e+000  2.162315e+001
      vertex -3.466977e+001  6.673509e+000  2.160378e+001
      vertex -3.472602e+001  6.671169e+000  2.162315e+001
    endloop
  endfacet
  facet normal  1.975122e-001  8.215673e-003  9.802660e-001
    outer loop
      vertex -3.470108e+001  6.071687e+000  2.162315e+001
      vertex -3.472602e+001  6.671169e+000  2.162315e+001
      vertex -3.475939e+001  6.069262e+000  2.163492e+001
    endloop
  endfacet
  facet normal  1.975222e-001  8.215082e-003  9.802641e-001
    outer loop
      vertex -3.475939e+001  6.069262e+000  2.163492e+001
      vertex -3.472602e+001  6.671169e+000  2.162315e+001
      vertex -3.478432e+001  6.668744e+000  2.163492e+001
    endloop
  endfacet
  facet normal  6.647918e-002  2.764914e-003  9.977839e-001
    outer loop
      vertex -3.475939e+001  6.069262e+000  2.163492e+001
      vertex -3.478432e+001  6.668744e+000  2.163492e+001
      vertex -3.481874e+001  6.066793e+000  2.163888e+001
    endloop
  endfacet
  facet normal  6.647916e-002  2.764915e-003  9.977840e-001
    outer loop
      vertex -3.481874e+001  6.066793e+000  2.163888e+001
      vertex -3.478432e+001  6.668744e+000  2.163492e+001
      vertex -3.484367e+001  6.666275e+000  2.163888e+001
    endloop
  endfacet
  facet normal -6.568541e-002 -2.731903e-003  9.978366e-001
    outer loop
      vertex -3.481874e+001  6.066793e+000  2.163888e+001
      vertex -3.484367e+001  6.666275e+000  2.163888e+001
      vertex -3.487809e+001  6.064325e+000  2.163497e+001
    endloop
  endfacet
  facet normal -6.568544e-002 -2.731902e-003  9.978366e-001
    outer loop
      vertex -3.487809e+001  6.064325e+000  2.163497e+001
      vertex -3.484367e+001  6.666275e+000  2.163888e+001
      vertex -3.490303e+001  6.663807e+000  2.163497e+001
    endloop
  endfacet
  facet normal -1.314953e-001 -5.468982e-003  9.913017e-001
    outer loop
      vertex -3.731117e+001  6.563645e+000  2.131498e+001
      vertex -3.728624e+001  5.964164e+000  2.131498e+001
      vertex -3.490303e+001  6.663807e+000  2.163497e+001
    endloop
  endfacet
  facet normal -1.314953e-001 -5.468979e-003  9.913018e-001
    outer loop
      vertex -3.490303e+001  6.663807e+000  2.163497e+001
      vertex -3.728624e+001  5.964164e+000  2.131498e+001
      vertex -3.487809e+001  6.064325e+000  2.163497e+001
    endloop
  endfacet
  facet normal -2.174888e-001 -9.045511e-003  9.760209e-001
    outer loop
      vertex -3.728624e+001  5.964164e+000  2.131498e+001
      vertex -3.731117e+001  6.563645e+000  2.131498e+001
      vertex -3.732797e+001  5.962428e+000  2.130566e+001
    endloop
  endfacet
  facet normal -2.174888e-001 -9.045511e-003  9.760209e-001
    outer loop
      vertex -3.732797e+001  5.962428e+000  2.130566e+001
      vertex -3.731117e+001  6.563645e+000  2.131498e+001
      vertex -3.735290e+001  6.561910e+000  2.130566e+001
    endloop
  endfacet
  facet normal -3.838788e-001 -1.596579e-002  9.232454e-001
    outer loop
      vertex -3.732797e+001  5.962428e+000  2.130566e+001
      vertex -3.735290e+001  6.561910e+000  2.130566e+001
      vertex -3.736745e+001  5.960786e+000  2.128922e+001
    endloop
  endfacet
  facet normal -3.838535e-001 -1.596669e-002  9.232560e-001
    outer loop
      vertex -3.736745e+001  5.960786e+000  2.128922e+001
      vertex -3.735290e+001  6.561910e+000  2.130566e+001
      vertex -3.739238e+001  6.560268e+000  2.128922e+001
    endloop
  endfacet
  facet normal -5.385217e-001 -2.240024e-002  8.423138e-001
    outer loop
      vertex -3.736745e+001  5.960786e+000  2.128922e+001
      vertex -3.739238e+001  6.560268e+000  2.128922e+001
      vertex -3.740347e+001  5.959288e+000  2.126615e+001
    endloop
  endfacet
  facet normal -5.385215e-001 -2.240025e-002  8.423139e-001
    outer loop
      vertex -3.740347e+001  5.959288e+000  2.126615e+001
      vertex -3.739238e+001  6.560268e+000  2.128922e+001
      vertex -3.742840e+001  6.558769e+000  2.126615e+001
    endloop
  endfacet
  facet normal -6.767586e-001 -2.815033e-002  7.356666e-001
    outer loop
      vertex -3.740347e+001  5.959288e+000  2.126615e+001
      vertex -3.742840e+001  6.558769e+000  2.126615e+001
      vertex -3.743492e+001  5.957980e+000  2.123716e+001
    endloop
  endfacet
  facet normal -6.767946e-001 -2.814835e-002  7.356336e-001
    outer loop
      vertex -3.743492e+001  5.957980e+000  2.123716e+001
      vertex -3.742840e+001  6.558769e+000  2.126615e+001
      vertex -3.745985e+001  6.557462e+000  2.123716e+001
    endloop
  endfacet
  facet normal -7.943498e-001 -3.303755e-002  6.065615e-001
    outer loop
      vertex -3.743492e+001  5.957980e+000  2.123716e+001
      vertex -3.745985e+001  6.557462e+000  2.123716e+001
      vertex -3.746086e+001  5.956901e+000  2.120314e+001
    endloop
  endfacet
  facet normal -7.943498e-001 -3.303755e-002  6.065615e-001
    outer loop
      vertex -3.746086e+001  5.956901e+000  2.120314e+001
      vertex -3.745985e+001  6.557462e+000  2.123716e+001
      vertex -3.748579e+001  6.556383e+000  2.120314e+001
    endloop
  endfacet
  facet normal -8.876757e-001 -3.691904e-002  4.589869e-001
    outer loop
      vertex -3.746086e+001  5.956901e+000  2.120314e+001
      vertex -3.748579e+001  6.556383e+000  2.120314e+001
      vertex -3.748048e+001  5.956085e+000  2.116512e+001
    endloop
  endfacet
  facet normal -8.876757e-001 -3.691904e-002  4.589869e-001
    outer loop
      vertex -3.748048e+001  5.956085e+000  2.116512e+001
      vertex -3.748579e+001  6.556383e+000  2.120314e+001
      vertex -3.750542e+001  6.555566e+000  2.116512e+001
    endloop
  endfacet
  facet normal -9.539516e-001 -3.967549e-002  2.973252e-001
    outer loop
      vertex -3.748048e+001  5.956085e+000  2.116512e+001
      vertex -3.750542e+001  6.555566e+000  2.116512e+001
      vertex -3.749320e+001  5.955556e+000  2.112425e+001
    endloop
  endfacet
  facet normal -9.539309e-001 -3.967954e-002  2.973908e-001
    outer loop
      vertex -3.749320e+001  5.955556e+000  2.112425e+001
      vertex -3.750542e+001  6.555566e+000  2.116512e+001
      vertex -3.751814e+001  6.555037e+000  2.112425e+001
    endloop
  endfacet
  facet normal -9.910863e-001 -4.122505e-002  1.266830e-001
    outer loop
      vertex -3.749320e+001  5.955556e+000  2.112425e+001
      vertex -3.751814e+001  6.555037e+000  2.112425e+001
      vertex -3.749862e+001  5.955330e+000  2.108180e+001
    endloop
  endfacet
  facet normal -9.910862e-001 -4.122502e-002  1.266826e-001
    outer loop
      vertex -3.749862e+001  5.955330e+000  2.108180e+001
      vertex -3.751814e+001  6.555037e+000  2.112425e+001
      vertex -3.752355e+001  6.554812e+000  2.108180e+001
    endloop
  endfacet
  facet normal -9.979932e-001 -4.151232e-002 -4.781643e-002
    outer loop
      vertex -3.749862e+001  5.955330e+000  2.108180e+001
      vertex -3.752355e+001  6.554812e+000  2.108180e+001
      vertex -3.749657e+001  5.955415e+000  2.103905e+001
    endloop
  endfacet
  facet normal -9.979900e-001 -4.150708e-002 -4.788788e-002
    outer loop
      vertex -3.749657e+001  5.955415e+000  2.103905e+001
      vertex -3.752355e+001  6.554812e+000  2.108180e+001
      vertex -3.752150e+001  6.554897e+000  2.103905e+001
    endloop
  endfacet
  facet normal -9.744402e-001 -4.052763e-002 -2.209611e-001
    outer loop
      vertex -3.749657e+001  5.955415e+000  2.103905e+001
      vertex -3.752150e+001  6.554897e+000  2.103905e+001
      vertex -3.748712e+001  5.955808e+000  2.099731e+001
    endloop
  endfacet
  facet normal -9.744402e-001 -4.052763e-002 -2.209611e-001
    outer loop
      vertex -3.748712e+001  5.955808e+000  2.099731e+001
      vertex -3.752150e+001  6.554897e+000  2.103905e+001
      vertex -3.751205e+001  6.555290e+000  2.099731e+001
    endloop
  endfacet
  facet normal -9.211726e-001 -3.831219e-002 -3.872637e-001
    outer loop
      vertex -3.748712e+001  5.955808e+000  2.099731e+001
      vertex -3.751205e+001  6.555290e+000  2.099731e+001
      vertex -3.747056e+001  5.956497e+000  2.095786e+001
    endloop
  endfacet
  facet normal -9.211726e-001 -3.831219e-002 -3.872637e-001
    outer loop
      vertex -3.747056e+001  5.956497e+000  2.095786e+001
      vertex -3.751205e+001  6.555290e+000  2.099731e+001
      vertex -3.749549e+001  6.555979e+000  2.095786e+001
    endloop
  endfacet
  facet normal -8.397640e-001 -3.492635e-002 -5.418271e-001
    outer loop
      vertex -3.747056e+001  5.956497e+000  2.095786e+001
      vertex -3.749549e+001  6.555979e+000  2.095786e+001
      vertex -3.744740e+001  5.957461e+000  2.092189e+001
    endloop
  endfacet
  facet normal -8.397640e-001 -3.492635e-002 -5.418271e-001
    outer loop
      vertex -3.744740e+001  5.957461e+000  2.092189e+001
      vertex -3.749549e+001  6.555979e+000  2.095786e+001
      vertex -3.747233e+001  6.556943e+000  2.092189e+001
    endloop
  endfacet
  facet normal -7.327685e-001 -3.047634e-002 -6.797951e-001
    outer loop
      vertex -3.744740e+001  5.957461e+000  2.092189e+001
      vertex -3.747233e+001  6.556943e+000  2.092189e+001
      vertex -3.741833e+001  5.958670e+000  2.089050e+001
    endloop
  endfacet
  facet normal -7.327687e-001 -3.047637e-002 -6.797950e-001
    outer loop
      vertex -3.741833e+001  5.958670e+000  2.089050e+001
      vertex -3.747233e+001  6.556943e+000  2.092189e+001
      vertex -3.744326e+001  6.558151e+000  2.089050e+001
    endloop
  endfacet
  facet normal -6.033849e-001 -2.509520e-002 -7.970551e-001
    outer loop
      vertex -3.741833e+001  5.958670e+000  2.089050e+001
      vertex -3.744326e+001  6.558151e+000  2.089050e+001
      vertex -3.738424e+001  5.960087e+000  2.086465e+001
    endloop
  endfacet
  facet normal -6.034190e-001 -2.509969e-002 -7.970291e-001
    outer loop
      vertex -3.738424e+001  5.960087e+000  2.086465e+001
      vertex -3.744326e+001  6.558151e+000  2.089050e+001
      vertex -3.740918e+001  6.559569e+000  2.086465e+001
    endloop
  endfacet
  facet normal -4.556176e-001 -1.895178e-002 -8.899738e-001
    outer loop
      vertex -3.738424e+001  5.960087e+000  2.086465e+001
      vertex -3.740918e+001  6.559569e+000  2.086465e+001
      vertex -3.734619e+001  5.961670e+000  2.084514e+001
    endloop
  endfacet
  facet normal -4.556176e-001 -1.895178e-002 -8.899738e-001
    outer loop
      vertex -3.734619e+001  5.961670e+000  2.084514e+001
      vertex -3.740918e+001  6.559569e+000  2.086465e+001
      vertex -3.737112e+001  6.561152e+000  2.084514e+001
    endloop
  endfacet
  facet normal -2.939380e-001 -1.222658e-002 -9.557464e-001
    outer loop
      vertex -3.734619e+001  5.961670e+000  2.084514e+001
      vertex -3.737112e+001  6.561152e+000  2.084514e+001
      vertex -3.730532e+001  5.963370e+000  2.083255e+001
    endloop
  endfacet
  facet normal -2.939179e-001 -1.222424e-002 -9.557525e-001
    outer loop
      vertex -3.730532e+001  5.963370e+000  2.083255e+001
      vertex -3.737112e+001  6.561152e+000  2.084514e+001
      vertex -3.733026e+001  6.562852e+000  2.083255e+001
    endloop
  endfacet
  facet normal -1.232522e-001 -5.126142e-003 -9.923621e-001
    outer loop
      vertex -3.730532e+001  5.963370e+000  2.083255e+001
      vertex -3.733026e+001  6.562852e+000  2.083255e+001
      vertex -3.726289e+001  5.965135e+000  2.082727e+001
    endloop
  endfacet
  facet normal -1.232609e-001 -5.127136e-003 -9.923610e-001
    outer loop
      vertex -3.726289e+001  5.965135e+000  2.082727e+001
      vertex -3.733026e+001  6.562852e+000  2.083255e+001
      vertex -3.728782e+001  6.564617e+000  2.082727e+001
    endloop
  endfacet
endsolid CATIA STL
