solid CATIA STL
  facet normal -8.280600e-002 -3.444375e-003 -9.965597e-001
    outer loop
      vertex -3.527501e+001  1.691721e+001  2.128877e+001
      vertex -3.527395e+001  1.751777e+001  2.128660e+001
      vertex -3.524902e+001  1.691829e+001  2.128660e+001
    endloop
  endfacet
  facet normal -3.377709e-001 -1.404982e-002 -9.411234e-001
    outer loop
      vertex -3.524902e+001  1.691829e+001  2.128660e+001
      vertex -3.527395e+001  1.751777e+001  2.128660e+001
      vertex -3.524940e+001  1.751879e+001  2.127778e+001
    endloop
  endfacet
  facet normal -3.378074e-001 -1.404966e-002 -9.411104e-001
    outer loop
      vertex -3.524902e+001  1.691829e+001  2.128660e+001
      vertex -3.524940e+001  1.751879e+001  2.127778e+001
      vertex -3.522447e+001  1.691931e+001  2.127778e+001
    endloop
  endfacet
  facet normal -5.695797e-001 -2.368924e-002 -8.215947e-001
    outer loop
      vertex -3.522447e+001  1.691931e+001  2.127778e+001
      vertex -3.524940e+001  1.751879e+001  2.127778e+001
      vertex -3.522797e+001  1.751968e+001  2.126290e+001
    endloop
  endfacet
  facet normal -5.695797e-001 -2.368924e-002 -8.215947e-001
    outer loop
      vertex -3.522447e+001  1.691931e+001  2.127778e+001
      vertex -3.522797e+001  1.751968e+001  2.126290e+001
      vertex -3.520304e+001  1.692020e+001  2.126290e+001
    endloop
  endfacet
  facet normal -7.626805e-001 -3.172044e-002 -6.459972e-001
    outer loop
      vertex -3.520304e+001  1.692020e+001  2.126290e+001
      vertex -3.522797e+001  1.751968e+001  2.126290e+001
      vertex -3.521112e+001  1.752038e+001  2.124297e+001
    endloop
  endfacet
  facet normal -7.626228e-001 -3.172192e-002 -6.460652e-001
    outer loop
      vertex -3.520304e+001  1.692020e+001  2.126290e+001
      vertex -3.521112e+001  1.752038e+001  2.124297e+001
      vertex -3.518619e+001  1.692090e+001  2.124297e+001
    endloop
  endfacet
  facet normal -9.037220e-001 -3.759106e-002 -4.264660e-001
    outer loop
      vertex -3.518619e+001  1.692090e+001  2.124297e+001
      vertex -3.521112e+001  1.752038e+001  2.124297e+001
      vertex -3.520000e+001  1.752085e+001  2.121936e+001
    endloop
  endfacet
  facet normal -9.037682e-001 -3.758829e-002 -4.263685e-001
    outer loop
      vertex -3.518619e+001  1.692090e+001  2.124297e+001
      vertex -3.520000e+001  1.752085e+001  2.121936e+001
      vertex -3.517507e+001  1.692136e+001  2.121936e+001
    endloop
  endfacet
  facet normal -9.832076e-001 -4.089222e-002 -1.778499e-001
    outer loop
      vertex -3.517507e+001  1.692136e+001  2.121936e+001
      vertex -3.520000e+001  1.752085e+001  2.121936e+001
      vertex -3.519536e+001  1.752104e+001  2.119367e+001
    endloop
  endfacet
  facet normal -9.832072e-001 -4.089231e-002 -1.778523e-001
    outer loop
      vertex -3.517507e+001  1.692136e+001  2.121936e+001
      vertex -3.519536e+001  1.752104e+001  2.119367e+001
      vertex -3.517043e+001  1.692156e+001  2.119367e+001
    endloop
  endfacet
  facet normal -8.281547e-002 -3.444356e-003 -9.965590e-001
    outer loop
      vertex -3.527395e+001  1.751777e+001  2.128660e+001
      vertex -3.527501e+001  1.691721e+001  2.128877e+001
      vertex -3.529994e+001  1.751669e+001  2.128877e+001
    endloop
  endfacet
  facet normal  1.776663e-001  7.389272e-003 -9.840631e-001
    outer loop
      vertex -3.529994e+001  1.751669e+001  2.128877e+001
      vertex -3.527501e+001  1.691721e+001  2.128877e+001
      vertex -3.530067e+001  1.691614e+001  2.128412e+001
    endloop
  endfacet
  facet normal  1.776463e-001  7.389324e-003 -9.840667e-001
    outer loop
      vertex -3.529994e+001  1.751669e+001  2.128877e+001
      vertex -3.530067e+001  1.691614e+001  2.128412e+001
      vertex -3.532561e+001  1.751562e+001  2.128412e+001
    endloop
  endfacet
  facet normal  4.260733e-001  1.772282e-002 -9.045150e-001
    outer loop
      vertex -3.532561e+001  1.751562e+001  2.128412e+001
      vertex -3.530067e+001  1.691614e+001  2.128412e+001
      vertex -3.532427e+001  1.691516e+001  2.127299e+001
    endloop
  endfacet
  facet normal  4.261184e-001  1.772253e-002 -9.044938e-001
    outer loop
      vertex -3.532561e+001  1.751562e+001  2.128412e+001
      vertex -3.532427e+001  1.691516e+001  2.127299e+001
      vertex -3.534920e+001  1.751464e+001  2.127299e+001
    endloop
  endfacet
  facet normal  6.454818e-001  2.684599e-002 -7.633037e-001
    outer loop
      vertex -3.534920e+001  1.751464e+001  2.127299e+001
      vertex -3.532427e+001  1.691516e+001  2.127299e+001
      vertex -3.534418e+001  1.691433e+001  2.125613e+001
    endloop
  endfacet
  facet normal  6.454806e-001  2.684601e-002 -7.633048e-001
    outer loop
      vertex -3.534920e+001  1.751464e+001  2.127299e+001
      vertex -3.534418e+001  1.691433e+001  2.125613e+001
      vertex -3.536911e+001  1.751381e+001  2.125613e+001
    endloop
  endfacet
  facet normal  8.208783e-001  3.414093e-002 -5.700818e-001
    outer loop
      vertex -3.536911e+001  1.751381e+001  2.125613e+001
      vertex -3.534418e+001  1.691433e+001  2.125613e+001
      vertex -3.535905e+001  1.691371e+001  2.123468e+001
    endloop
  endfacet
  facet normal  8.208246e-001  3.414279e-002 -5.701590e-001
    outer loop
      vertex -3.536911e+001  1.751381e+001  2.125613e+001
      vertex -3.535905e+001  1.691371e+001  2.123468e+001
      vertex -3.538398e+001  1.751319e+001  2.123468e+001
    endloop
  endfacet
  facet normal  9.403299e-001  3.911369e-002 -3.380085e-001
    outer loop
      vertex -3.538398e+001  1.751319e+001  2.123468e+001
      vertex -3.535905e+001  1.691371e+001  2.123468e+001
      vertex -3.536786e+001  1.691334e+001  2.121011e+001
    endloop
  endfacet
  facet normal  9.403291e-001  3.911376e-002 -3.380107e-001
    outer loop
      vertex -3.538398e+001  1.751319e+001  2.123468e+001
      vertex -3.536786e+001  1.691334e+001  2.121011e+001
      vertex -3.539280e+001  1.751283e+001  2.121011e+001
    endloop
  endfacet
  facet normal  9.956921e-001  4.141663e-002 -8.295707e-002
    outer loop
      vertex -3.539280e+001  1.751283e+001  2.121011e+001
      vertex -3.536786e+001  1.691334e+001  2.121011e+001
      vertex -3.537003e+001  1.691325e+001  2.118410e+001
    endloop
  endfacet
  facet normal  9.957019e-001  4.141197e-002 -8.284106e-002
    outer loop
      vertex -3.539280e+001  1.751283e+001  2.121011e+001
      vertex -3.537003e+001  1.691325e+001  2.118410e+001
      vertex -3.539496e+001  1.751274e+001  2.118410e+001
    endloop
  endfacet
  facet normal  8.287344e-002  3.447189e-003  9.965541e-001
    outer loop
      vertex -3.526545e+001  1.691760e+001  2.108899e+001
      vertex -3.531637e+001  1.751600e+001  2.109116e+001
      vertex -3.529144e+001  1.691652e+001  2.109116e+001
    endloop
  endfacet
  facet normal  3.377563e-001  1.404925e-002  9.411287e-001
    outer loop
      vertex -3.529144e+001  1.691652e+001  2.109116e+001
      vertex -3.531637e+001  1.751600e+001  2.109116e+001
      vertex -3.534092e+001  1.751498e+001  2.109999e+001
    endloop
  endfacet
  facet normal  3.377193e-001  1.404599e-002  9.411421e-001
    outer loop
      vertex -3.529144e+001  1.691652e+001  2.109116e+001
      vertex -3.534092e+001  1.751498e+001  2.109999e+001
      vertex -3.531599e+001  1.691550e+001  2.109999e+001
    endloop
  endfacet
  facet normal  5.696191e-001  2.369088e-002  8.215672e-001
    outer loop
      vertex -3.531599e+001  1.691550e+001  2.109999e+001
      vertex -3.534092e+001  1.751498e+001  2.109999e+001
      vertex -3.536235e+001  1.751409e+001  2.111487e+001
    endloop
  endfacet
  facet normal  5.696191e-001  2.369088e-002  8.215672e-001
    outer loop
      vertex -3.531599e+001  1.691550e+001  2.109999e+001
      vertex -3.536235e+001  1.751409e+001  2.111487e+001
      vertex -3.533741e+001  1.691461e+001  2.111487e+001
    endloop
  endfacet
  facet normal  7.626228e-001  3.171804e-002  6.460652e-001
    outer loop
      vertex -3.533741e+001  1.691461e+001  2.111487e+001
      vertex -3.536235e+001  1.751409e+001  2.111487e+001
      vertex -3.537920e+001  1.751339e+001  2.113479e+001
    endloop
  endfacet
  facet normal  7.626802e-001  3.172431e-002  6.459972e-001
    outer loop
      vertex -3.533741e+001  1.691461e+001  2.111487e+001
      vertex -3.537920e+001  1.751339e+001  2.113479e+001
      vertex -3.535426e+001  1.691391e+001  2.113479e+001
    endloop
  endfacet
  facet normal  9.037125e-001  3.759066e-002  4.264866e-001
    outer loop
      vertex -3.535426e+001  1.691391e+001  2.113479e+001
      vertex -3.537920e+001  1.751339e+001  2.113479e+001
      vertex -3.539032e+001  1.751293e+001  2.115841e+001
    endloop
  endfacet
  facet normal  9.037116e-001  3.759053e-002  4.264886e-001
    outer loop
      vertex -3.535426e+001  1.691391e+001  2.113479e+001
      vertex -3.539032e+001  1.751293e+001  2.115841e+001
      vertex -3.536539e+001  1.691345e+001  2.115841e+001
    endloop
  endfacet
  facet normal  9.832293e-001  4.089813e-002  1.777289e-001
    outer loop
      vertex -3.536539e+001  1.691345e+001  2.115841e+001
      vertex -3.539032e+001  1.751293e+001  2.115841e+001
      vertex -3.539496e+001  1.751274e+001  2.118410e+001
    endloop
  endfacet
  facet normal  9.832095e-001  4.089240e-002  1.778397e-001
    outer loop
      vertex -3.536539e+001  1.691345e+001  2.115841e+001
      vertex -3.539496e+001  1.751274e+001  2.118410e+001
      vertex -3.537003e+001  1.691325e+001  2.118410e+001
    endloop
  endfacet
  facet normal  8.286382e-002  3.446367e-003  9.965549e-001
    outer loop
      vertex -3.531637e+001  1.751600e+001  2.109116e+001
      vertex -3.526545e+001  1.691760e+001  2.108899e+001
      vertex -3.529038e+001  1.751709e+001  2.108899e+001
    endloop
  endfacet
  facet normal -1.777233e-001 -7.391642e-003  9.840528e-001
    outer loop
      vertex -3.529038e+001  1.751709e+001  2.108899e+001
      vertex -3.526545e+001  1.691760e+001  2.108899e+001
      vertex -3.523978e+001  1.691867e+001  2.109364e+001
    endloop
  endfacet
  facet normal -1.777229e-001 -7.391606e-003  9.840528e-001
    outer loop
      vertex -3.529038e+001  1.751709e+001  2.108899e+001
      vertex -3.523978e+001  1.691867e+001  2.109364e+001
      vertex -3.526471e+001  1.751815e+001  2.109364e+001
    endloop
  endfacet
  facet normal -4.260734e-001 -1.772066e-002  9.045150e-001
    outer loop
      vertex -3.526471e+001  1.751815e+001  2.109364e+001
      vertex -3.523978e+001  1.691867e+001  2.109364e+001
      vertex -3.521619e+001  1.691965e+001  2.110477e+001
    endloop
  endfacet
  facet normal -4.260734e-001 -1.772066e-002  9.045150e-001
    outer loop
      vertex -3.526471e+001  1.751815e+001  2.109364e+001
      vertex -3.521619e+001  1.691965e+001  2.110477e+001
      vertex -3.524112e+001  1.751913e+001  2.110477e+001
    endloop
  endfacet
  facet normal -6.454464e-001 -2.684452e-002  7.633335e-001
    outer loop
      vertex -3.524112e+001  1.751913e+001  2.110477e+001
      vertex -3.521619e+001  1.691965e+001  2.110477e+001
      vertex -3.519628e+001  1.692048e+001  2.112164e+001
    endloop
  endfacet
  facet normal -6.454477e-001 -2.684464e-002  7.633326e-001
    outer loop
      vertex -3.524112e+001  1.751913e+001  2.110477e+001
      vertex -3.519628e+001  1.692048e+001  2.112164e+001
      vertex -3.522121e+001  1.751996e+001  2.112164e+001
    endloop
  endfacet
  facet normal -8.208985e-001 -3.414177e-002  5.700528e-001
    outer loop
      vertex -3.522121e+001  1.751996e+001  2.112164e+001
      vertex -3.519628e+001  1.692048e+001  2.112164e+001
      vertex -3.518141e+001  1.692110e+001  2.114308e+001
    endloop
  endfacet
  facet normal -8.208972e-001 -3.414163e-002  5.700544e-001
    outer loop
      vertex -3.522121e+001  1.751996e+001  2.112164e+001
      vertex -3.518141e+001  1.692110e+001  2.114308e+001
      vertex -3.520634e+001  1.752058e+001  2.114308e+001
    endloop
  endfacet
  facet normal -9.403226e-001 -3.910861e-002  3.380293e-001
    outer loop
      vertex -3.520634e+001  1.752058e+001  2.114308e+001
      vertex -3.518141e+001  1.692110e+001  2.114308e+001
      vertex -3.517259e+001  1.692147e+001  2.116765e+001
    endloop
  endfacet
  facet normal -9.403235e-001 -3.910874e-002  3.380271e-001
    outer loop
      vertex -3.520634e+001  1.752058e+001  2.114308e+001
      vertex -3.517259e+001  1.692147e+001  2.116765e+001
      vertex -3.519753e+001  1.752095e+001  2.116765e+001
    endloop
  endfacet
  facet normal -9.956927e-001 -4.141159e-002  8.295222e-002
    outer loop
      vertex -3.519753e+001  1.752095e+001  2.116765e+001
      vertex -3.517259e+001  1.692147e+001  2.116765e+001
      vertex -3.517043e+001  1.692156e+001  2.119367e+001
    endloop
  endfacet
  facet normal -9.956927e-001 -4.141159e-002  8.295222e-002
    outer loop
      vertex -3.519753e+001  1.752095e+001  2.116765e+001
      vertex -3.517043e+001  1.692156e+001  2.119367e+001
      vertex -3.519536e+001  1.752104e+001  2.119367e+001
    endloop
  endfacet
  facet normal -4.155622e-002  9.991362e-001 -1.334777e-005
    outer loop
      vertex -3.797281e+001  1.740552e+001  2.103905e+001
      vertex -3.539032e+001  1.751293e+001  2.115841e+001
      vertex -3.537920e+001  1.751339e+001  2.113479e+001
    endloop
  endfacet
  facet normal -4.155500e-002  9.991361e-001  1.079806e-005
    outer loop
      vertex -3.526471e+001  1.751815e+001  2.109364e+001
      vertex -3.524112e+001  1.751913e+001  2.110477e+001
      vertex -3.485065e+001  1.753538e+001  2.112132e+001
    endloop
  endfacet
  facet normal -4.155667e-002  9.991361e-001  1.998671e-005
    outer loop
      vertex -3.520634e+001  1.752058e+001  2.114308e+001
      vertex -3.519753e+001  1.752095e+001  2.116765e+001
      vertex -3.484562e+001  1.753558e+001  2.118064e+001
    endloop
  endfacet
  facet normal -4.155245e-002  9.991363e-001 -3.624019e-006
    outer loop
      vertex -3.795672e+001  1.740619e+001  2.116512e+001
      vertex -3.793710e+001  1.740700e+001  2.120314e+001
      vertex -3.791116e+001  1.740808e+001  2.123716e+001
    endloop
  endfacet
  facet normal -4.162534e-002  9.991332e-001  4.254888e-005
    outer loop
      vertex -3.795672e+001  1.740619e+001  2.116512e+001
      vertex -3.791116e+001  1.740808e+001  2.123716e+001
      vertex -3.787971e+001  1.740939e+001  2.126615e+001
    endloop
  endfacet
  facet normal -4.148226e-002  9.991392e-001 -6.670642e-005
    outer loop
      vertex -3.795672e+001  1.740619e+001  2.116512e+001
      vertex -3.787971e+001  1.740939e+001  2.126615e+001
      vertex -3.784369e+001  1.741089e+001  2.128922e+001
    endloop
  endfacet
  facet normal -4.155226e-002  9.991363e-001 -2.833784e-006
    outer loop
      vertex -3.795672e+001  1.740619e+001  2.116512e+001
      vertex -3.784369e+001  1.741089e+001  2.128922e+001
      vertex -3.780421e+001  1.741253e+001  2.130566e+001
    endloop
  endfacet
  facet normal -4.157453e-002  9.991354e-001  2.137120e-005
    outer loop
      vertex -3.795672e+001  1.740619e+001  2.116512e+001
      vertex -3.780421e+001  1.741253e+001  2.130566e+001
      vertex -3.776248e+001  1.741426e+001  2.131498e+001
    endloop
  endfacet
  facet normal -4.155680e-002  9.991361e-001 -1.644022e-006
    outer loop
      vertex -3.795672e+001  1.740619e+001  2.116512e+001
      vertex -3.776248e+001  1.741426e+001  2.131498e+001
      vertex -3.535434e+001  1.751443e+001  2.163497e+001
    endloop
  endfacet
  facet normal -4.156172e-002  9.991359e-001  2.560085e-005
    outer loop
      vertex -3.795672e+001  1.740619e+001  2.116512e+001
      vertex -3.535434e+001  1.751443e+001  2.163497e+001
      vertex -3.529498e+001  1.751690e+001  2.163888e+001
    endloop
  endfacet
  facet normal -4.155659e-002  9.991361e-001 -3.227159e-006
    outer loop
      vertex -3.795672e+001  1.740619e+001  2.116512e+001
      vertex -3.529498e+001  1.751690e+001  2.163888e+001
      vertex -3.529994e+001  1.751669e+001  2.128877e+001
    endloop
  endfacet
  facet normal -4.157055e-002  9.991356e-001  2.971880e-004
    outer loop
      vertex -3.795672e+001  1.740619e+001  2.116512e+001
      vertex -3.529994e+001  1.751669e+001  2.128877e+001
      vertex -3.532561e+001  1.751562e+001  2.128412e+001
    endloop
  endfacet
  facet normal -4.155733e-002  9.991360e-001  4.355131e-006
    outer loop
      vertex -3.795672e+001  1.740619e+001  2.116512e+001
      vertex -3.532561e+001  1.751562e+001  2.128412e+001
      vertex -3.534920e+001  1.751464e+001  2.127299e+001
    endloop
  endfacet
  facet normal -4.155600e-002  9.991362e-001 -2.789264e-005
    outer loop
      vertex -3.795672e+001  1.740619e+001  2.116512e+001
      vertex -3.534920e+001  1.751464e+001  2.127299e+001
      vertex -3.536911e+001  1.751381e+001  2.125613e+001
    endloop
  endfacet
  facet normal -4.155782e-002  9.991361e-001  2.396509e-005
    outer loop
      vertex -3.795672e+001  1.740619e+001  2.116512e+001
      vertex -3.536911e+001  1.751381e+001  2.125613e+001
      vertex -3.796944e+001  1.740566e+001  2.112425e+001
    endloop
  endfacet
  facet normal -4.153676e-002  9.991370e-001 -3.508825e-006
    outer loop
      vertex -3.529994e+001  1.751669e+001  2.128877e+001
      vertex -3.529498e+001  1.751690e+001  2.163888e+001
      vertex -3.523563e+001  1.751936e+001  2.163492e+001
    endloop
  endfacet
  facet normal -4.157332e-002  9.991354e-001  3.297690e-006
    outer loop
      vertex -3.529994e+001  1.751669e+001  2.128877e+001
      vertex -3.523563e+001  1.751936e+001  2.163492e+001
      vertex -3.517732e+001  1.752179e+001  2.162315e+001
    endloop
  endfacet
  facet normal -4.155305e-002  9.991363e-001 -4.149587e-006
    outer loop
      vertex -3.529994e+001  1.751669e+001  2.128877e+001
      vertex -3.517732e+001  1.752179e+001  2.162315e+001
      vertex -3.512107e+001  1.752413e+001  2.160378e+001
    endloop
  endfacet
  facet normal -4.155561e-002  9.991361e-001 -2.698416e-006
    outer loop
      vertex -3.529994e+001  1.751669e+001  2.128877e+001
      vertex -3.512107e+001  1.752413e+001  2.160378e+001
      vertex -3.506788e+001  1.752634e+001  2.157715e+001
    endloop
  endfacet
  facet normal -4.156525e-002  9.991357e-001  5.082153e-006
    outer loop
      vertex -3.529994e+001  1.751669e+001  2.128877e+001
      vertex -3.506788e+001  1.752634e+001  2.157715e+001
      vertex -3.501866e+001  1.752839e+001  2.154372e+001
    endloop
  endfacet
  facet normal -4.154548e-002  9.991366e-001 -1.677271e-005
    outer loop
      vertex -3.529994e+001  1.751669e+001  2.128877e+001
      vertex -3.501866e+001  1.752839e+001  2.154372e+001
      vertex -3.497428e+001  1.753023e+001  2.150409e+001
    endloop
  endfacet
  facet normal -4.156083e-002  9.991359e-001  6.492053e-006
    outer loop
      vertex -3.529994e+001  1.751669e+001  2.128877e+001
      vertex -3.497428e+001  1.753023e+001  2.150409e+001
      vertex -3.493551e+001  1.753185e+001  2.145893e+001
    endloop
  endfacet
  facet normal -4.155656e-002  9.991362e-001 -2.692068e-006
    outer loop
      vertex -3.529994e+001  1.751669e+001  2.128877e+001
      vertex -3.493551e+001  1.753185e+001  2.145893e+001
      vertex -3.490304e+001  1.753320e+001  2.140905e+001
    endloop
  endfacet
  facet normal -4.155723e-002  9.991361e-001 -4.656917e-007
    outer loop
      vertex -3.529994e+001  1.751669e+001  2.128877e+001
      vertex -3.490304e+001  1.753320e+001  2.140905e+001
      vertex -3.487743e+001  1.753426e+001  2.135532e+001
    endloop
  endfacet
  facet normal -4.157649e-002  9.991353e-001  1.220209e-004
    outer loop
      vertex -3.529994e+001  1.751669e+001  2.128877e+001
      vertex -3.487743e+001  1.753426e+001  2.135532e+001
      vertex -3.527395e+001  1.751777e+001  2.128660e+001
    endloop
  endfacet
  facet normal -4.153854e-002  9.991369e-001 -2.358060e-004
    outer loop
      vertex -3.529038e+001  1.751709e+001  2.108899e+001
      vertex -3.526471e+001  1.751815e+001  2.109364e+001
      vertex -3.485065e+001  1.753538e+001  2.112132e+001
    endloop
  endfacet
  facet normal -4.155576e-002  9.991363e-001 -1.200372e-006
    outer loop
      vertex -3.529038e+001  1.751709e+001  2.108899e+001
      vertex -3.485065e+001  1.753538e+001  2.112132e+001
      vertex -3.486345e+001  1.753484e+001  2.106318e+001
    endloop
  endfacet
  facet normal -4.155595e-002  9.991361e-001 -4.477724e-006
    outer loop
      vertex -3.529038e+001  1.751709e+001  2.108899e+001
      vertex -3.486345e+001  1.753484e+001  2.106318e+001
      vertex -3.488380e+001  1.753399e+001  2.100724e+001
    endloop
  endfacet
  facet normal -4.155436e-002  9.991363e-001  3.480912e-006
    outer loop
      vertex -3.529038e+001  1.751709e+001  2.108899e+001
      vertex -3.488380e+001  1.753399e+001  2.100724e+001
      vertex -3.491136e+001  1.753285e+001  2.095448e+001
    endloop
  endfacet
  facet normal -4.155356e-002  9.991363e-001  5.731315e-006
    outer loop
      vertex -3.529038e+001  1.751709e+001  2.108899e+001
      vertex -3.491136e+001  1.753285e+001  2.095448e+001
      vertex -3.494564e+001  1.753142e+001  2.090582e+001
    endloop
  endfacet
  facet normal -4.155613e-002  9.991361e-001  8.754493e-007
    outer loop
      vertex -3.529038e+001  1.751709e+001  2.108899e+001
      vertex -3.494564e+001  1.753142e+001  2.090582e+001
      vertex -3.498603e+001  1.752975e+001  2.086212e+001
    endloop
  endfacet
  facet normal -4.154975e-002  9.991364e-001  9.447945e-006
    outer loop
      vertex -3.529038e+001  1.751709e+001  2.108899e+001
      vertex -3.498603e+001  1.752975e+001  2.086212e+001
      vertex -3.503183e+001  1.752784e+001  2.082414e+001
    endloop
  endfacet
  facet normal -4.157389e-002  9.991354e-001 -1.415175e-005
    outer loop
      vertex -3.529038e+001  1.751709e+001  2.108899e+001
      vertex -3.503183e+001  1.752784e+001  2.082414e+001
      vertex -3.508224e+001  1.752574e+001  2.079254e+001
    endloop
  endfacet
  facet normal -4.154094e-002  9.991368e-001  9.020634e-006
    outer loop
      vertex -3.529038e+001  1.751709e+001  2.108899e+001
      vertex -3.508224e+001  1.752574e+001  2.079254e+001
      vertex -3.513638e+001  1.752349e+001  2.076788e+001
    endloop
  endfacet
  facet normal -4.157097e-002  9.991355e-001 -5.404514e-006
    outer loop
      vertex -3.529038e+001  1.751709e+001  2.108899e+001
      vertex -3.513638e+001  1.752349e+001  2.076788e+001
      vertex -3.519329e+001  1.752112e+001  2.075058e+001
    endloop
  endfacet
  facet normal -4.155480e-002  9.991362e-001 -7.583138e-007
    outer loop
      vertex -3.529038e+001  1.751709e+001  2.108899e+001
      vertex -3.519329e+001  1.752112e+001  2.075058e+001
      vertex -3.525200e+001  1.751868e+001  2.074096e+001
    endloop
  endfacet
  facet normal -4.154098e-002  9.991368e-001  7.691335e-007
    outer loop
      vertex -3.529038e+001  1.751709e+001  2.108899e+001
      vertex -3.525200e+001  1.751868e+001  2.074096e+001
      vertex -3.531145e+001  1.751621e+001  2.073918e+001
    endloop
  endfacet
  facet normal -4.155724e-002  9.991361e-001  1.750534e-006
    outer loop
      vertex -3.529038e+001  1.751709e+001  2.108899e+001
      vertex -3.531145e+001  1.751621e+001  2.073918e+001
      vertex -3.773913e+001  1.741524e+001  2.082727e+001
    endloop
  endfacet
  facet normal -4.154681e-002  9.991366e-001 -9.594182e-005
    outer loop
      vertex -3.529038e+001  1.751709e+001  2.108899e+001
      vertex -3.773913e+001  1.741524e+001  2.082727e+001
      vertex -3.778156e+001  1.741347e+001  2.083255e+001
    endloop
  endfacet
  facet normal -4.155652e-002  9.991361e-001 -1.479451e-006
    outer loop
      vertex -3.529038e+001  1.751709e+001  2.108899e+001
      vertex -3.778156e+001  1.741347e+001  2.083255e+001
      vertex -3.782243e+001  1.741177e+001  2.084514e+001
    endloop
  endfacet
  facet normal -4.156097e-002  9.991360e-001  4.476841e-005
    outer loop
      vertex -3.529038e+001  1.751709e+001  2.108899e+001
      vertex -3.782243e+001  1.741177e+001  2.084514e+001
      vertex -3.786049e+001  1.741019e+001  2.086465e+001
    endloop
  endfacet
  facet normal -4.155697e-002  9.991361e-001 -1.121765e-006
    outer loop
      vertex -3.529038e+001  1.751709e+001  2.108899e+001
      vertex -3.786049e+001  1.741019e+001  2.086465e+001
      vertex -3.789457e+001  1.740877e+001  2.089050e+001
    endloop
  endfacet
  facet normal -4.155586e-002  9.991362e-001 -1.571510e-005
    outer loop
      vertex -3.529038e+001  1.751709e+001  2.108899e+001
      vertex -3.789457e+001  1.740877e+001  2.089050e+001
      vertex -3.792364e+001  1.740756e+001  2.092189e+001
    endloop
  endfacet
  facet normal -4.155566e-002  9.991362e-001 -1.879831e-005
    outer loop
      vertex -3.529038e+001  1.751709e+001  2.108899e+001
      vertex -3.792364e+001  1.740756e+001  2.092189e+001
      vertex -3.794680e+001  1.740660e+001  2.095786e+001
    endloop
  endfacet
  facet normal -4.155609e-002  9.991361e-001 -1.660551e-005
    outer loop
      vertex -3.796336e+001  1.740591e+001  2.099731e+001
      vertex -3.797281e+001  1.740552e+001  2.103905e+001
      vertex -3.537920e+001  1.751339e+001  2.113479e+001
    endloop
  endfacet
  facet normal -4.155561e-002  9.991362e-001 -2.577634e-005
    outer loop
      vertex -3.796336e+001  1.740591e+001  2.099731e+001
      vertex -3.537920e+001  1.751339e+001  2.113479e+001
      vertex -3.536235e+001  1.751409e+001  2.111487e+001
    endloop
  endfacet
  facet normal -4.155621e-002  9.991361e-001 -1.229907e-005
    outer loop
      vertex -3.796336e+001  1.740591e+001  2.099731e+001
      vertex -3.536235e+001  1.751409e+001  2.111487e+001
      vertex -3.534092e+001  1.751498e+001  2.109999e+001
    endloop
  endfacet
  facet normal -4.155634e-002  9.991363e-001 -9.189162e-006
    outer loop
      vertex -3.796336e+001  1.740591e+001  2.099731e+001
      vertex -3.534092e+001  1.751498e+001  2.109999e+001
      vertex -3.531637e+001  1.751600e+001  2.109116e+001
    endloop
  endfacet
  facet normal -4.156415e-002  9.991359e-001  2.116841e-004
    outer loop
      vertex -3.796336e+001  1.740591e+001  2.099731e+001
      vertex -3.531637e+001  1.751600e+001  2.109116e+001
      vertex -3.529038e+001  1.751709e+001  2.108899e+001
    endloop
  endfacet
  facet normal -4.155762e-002  9.991360e-001  2.100154e-005
    outer loop
      vertex -3.796336e+001  1.740591e+001  2.099731e+001
      vertex -3.529038e+001  1.751709e+001  2.108899e+001
      vertex -3.794680e+001  1.740660e+001  2.095786e+001
    endloop
  endfacet
  facet normal -4.155857e-002  9.991361e-001  3.773709e-005
    outer loop
      vertex -3.539032e+001  1.751293e+001  2.115841e+001
      vertex -3.797281e+001  1.740552e+001  2.103905e+001
      vertex -3.539496e+001  1.751274e+001  2.118410e+001
    endloop
  endfacet
  facet normal -4.155682e-002  9.991361e-001  6.509684e-006
    outer loop
      vertex -3.539496e+001  1.751274e+001  2.118410e+001
      vertex -3.797281e+001  1.740552e+001  2.103905e+001
      vertex -3.797486e+001  1.740543e+001  2.108180e+001
    endloop
  endfacet
  facet normal -4.155631e-002  9.991361e-001 -6.175816e-006
    outer loop
      vertex -3.539496e+001  1.751274e+001  2.118410e+001
      vertex -3.797486e+001  1.740543e+001  2.108180e+001
      vertex -3.539280e+001  1.751283e+001  2.121011e+001
    endloop
  endfacet
  facet normal -4.155450e-002  9.991362e-001 -4.284912e-005
    outer loop
      vertex -3.539280e+001  1.751283e+001  2.121011e+001
      vertex -3.797486e+001  1.740543e+001  2.108180e+001
      vertex -3.538398e+001  1.751319e+001  2.123468e+001
    endloop
  endfacet
  facet normal -4.155629e-002  9.991362e-001 -1.248491e-005
    outer loop
      vertex -3.538398e+001  1.751319e+001  2.123468e+001
      vertex -3.797486e+001  1.740543e+001  2.108180e+001
      vertex -3.796944e+001  1.740566e+001  2.112425e+001
    endloop
  endfacet
  facet normal -4.155795e-002  9.991361e-001  2.658590e-005
    outer loop
      vertex -3.538398e+001  1.751319e+001  2.123468e+001
      vertex -3.796944e+001  1.740566e+001  2.112425e+001
      vertex -3.536911e+001  1.751381e+001  2.125613e+001
    endloop
  endfacet
  facet normal -4.155445e-002  9.991363e-001 -2.171446e-006
    outer loop
      vertex -3.485065e+001  1.753538e+001  2.112132e+001
      vertex -3.524112e+001  1.751913e+001  2.110477e+001
      vertex -3.484562e+001  1.753558e+001  2.118064e+001
    endloop
  endfacet
  facet normal -4.157001e-002  9.991356e-001  7.907797e-005
    outer loop
      vertex -3.484562e+001  1.753558e+001  2.118064e+001
      vertex -3.524112e+001  1.751913e+001  2.110477e+001
      vertex -3.522121e+001  1.751996e+001  2.112164e+001
    endloop
  endfacet
  facet normal -4.154870e-002  9.991366e-001 -5.684057e-005
    outer loop
      vertex -3.484562e+001  1.753558e+001  2.118064e+001
      vertex -3.522121e+001  1.751996e+001  2.112164e+001
      vertex -3.520634e+001  1.752058e+001  2.114308e+001
    endloop
  endfacet
  facet normal -4.155536e-002  9.991361e-001 -1.562250e-005
    outer loop
      vertex -3.484562e+001  1.753558e+001  2.118064e+001
      vertex -3.519753e+001  1.752095e+001  2.116765e+001
      vertex -3.484847e+001  1.753547e+001  2.124010e+001
    endloop
  endfacet
  facet normal -4.155837e-002  9.991361e-001 -1.129742e-006
    outer loop
      vertex -3.484847e+001  1.753547e+001  2.124010e+001
      vertex -3.519753e+001  1.752095e+001  2.116765e+001
      vertex -3.519536e+001  1.752104e+001  2.119367e+001
    endloop
  endfacet
  facet normal -4.155506e-002  9.991363e-001 -2.591090e-005
    outer loop
      vertex -3.484847e+001  1.753547e+001  2.124010e+001
      vertex -3.519536e+001  1.752104e+001  2.119367e+001
      vertex -3.520000e+001  1.752085e+001  2.121936e+001
    endloop
  endfacet
  facet normal -4.155699e-002  9.991362e-001  6.910615e-006
    outer loop
      vertex -3.484847e+001  1.753547e+001  2.124010e+001
      vertex -3.520000e+001  1.752085e+001  2.121936e+001
      vertex -3.485914e+001  1.753502e+001  2.129867e+001
    endloop
  endfacet
  facet normal -4.156619e-002  9.991357e-001  4.651043e-005
    outer loop
      vertex -3.485914e+001  1.753502e+001  2.129867e+001
      vertex -3.520000e+001  1.752085e+001  2.121936e+001
      vertex -3.521112e+001  1.752038e+001  2.124297e+001
    endloop
  endfacet
  facet normal -4.155575e-002  9.991362e-001 -1.953742e-005
    outer loop
      vertex -3.485914e+001  1.753502e+001  2.129867e+001
      vertex -3.521112e+001  1.752038e+001  2.124297e+001
      vertex -3.522797e+001  1.751968e+001  2.126290e+001
    endloop
  endfacet
  facet normal -4.155294e-002  9.991363e-001 -1.409570e-005
    outer loop
      vertex -3.527395e+001  1.751777e+001  2.128660e+001
      vertex -3.487743e+001  1.753426e+001  2.135532e+001
      vertex -3.524940e+001  1.751879e+001  2.127778e+001
    endloop
  endfacet
  facet normal -4.155752e-002  9.991361e-001  7.924889e-006
    outer loop
      vertex -3.524940e+001  1.751879e+001  2.127778e+001
      vertex -3.487743e+001  1.753426e+001  2.135532e+001
      vertex -3.485914e+001  1.753502e+001  2.129867e+001
    endloop
  endfacet
  facet normal -4.155643e-002  9.991361e-001 -1.260499e-005
    outer loop
      vertex -3.524940e+001  1.751879e+001  2.127778e+001
      vertex -3.485914e+001  1.753502e+001  2.129867e+001
      vertex -3.522797e+001  1.751968e+001  2.126290e+001
    endloop
  endfacet
  facet normal  4.155909e-002 -9.991361e-001 -4.986767e-005
    outer loop
      vertex -3.535426e+001  1.691391e+001  2.113479e+001
      vertex -3.536539e+001  1.691345e+001  2.115841e+001
      vertex -3.794788e+001  1.680603e+001  2.103905e+001
    endloop
  endfacet
  facet normal  4.155893e-002 -9.991361e-001 -1.913249e-005
    outer loop
      vertex -3.482571e+001  1.693589e+001  2.112132e+001
      vertex -3.521619e+001  1.691965e+001  2.110477e+001
      vertex -3.523978e+001  1.691867e+001  2.109364e+001
    endloop
  endfacet
  facet normal  4.155437e-002 -9.991363e-001  4.290043e-005
    outer loop
      vertex -3.482069e+001  1.693610e+001  2.118064e+001
      vertex -3.517259e+001  1.692147e+001  2.116765e+001
      vertex -3.518141e+001  1.692110e+001  2.114308e+001
    endloop
  endfacet
  facet normal  4.155638e-002 -9.991361e-001  1.689627e-005
    outer loop
      vertex -3.793179e+001  1.680670e+001  2.116512e+001
      vertex -3.794450e+001  1.680617e+001  2.112425e+001
      vertex -3.534418e+001  1.691433e+001  2.125613e+001
    endloop
  endfacet
  facet normal  4.155931e-002 -9.991360e-001 -6.641817e-005
    outer loop
      vertex -3.793179e+001  1.680670e+001  2.116512e+001
      vertex -3.534418e+001  1.691433e+001  2.125613e+001
      vertex -3.532427e+001  1.691516e+001  2.127299e+001
    endloop
  endfacet
  facet normal  4.155721e-002 -9.991362e-001 -1.548356e-005
    outer loop
      vertex -3.793179e+001  1.680670e+001  2.116512e+001
      vertex -3.532427e+001  1.691516e+001  2.127299e+001
      vertex -3.530067e+001  1.691614e+001  2.128412e+001
    endloop
  endfacet
  facet normal  4.154829e-002 -9.991364e-001  1.818719e-004
    outer loop
      vertex -3.793179e+001  1.680670e+001  2.116512e+001
      vertex -3.530067e+001  1.691614e+001  2.128412e+001
      vertex -3.527501e+001  1.691721e+001  2.128877e+001
    endloop
  endfacet
  facet normal  4.155679e-002 -9.991360e-001 -1.130179e-006
    outer loop
      vertex -3.793179e+001  1.680670e+001  2.116512e+001
      vertex -3.527501e+001  1.691721e+001  2.128877e+001
      vertex -3.527005e+001  1.691741e+001  2.163888e+001
    endloop
  endfacet
  facet normal  4.156205e-002 -9.991359e-001 -3.071261e-005
    outer loop
      vertex -3.793179e+001  1.680670e+001  2.116512e+001
      vertex -3.527005e+001  1.691741e+001  2.163888e+001
      vertex -3.532940e+001  1.691494e+001  2.163497e+001
    endloop
  endfacet
  facet normal  4.155604e-002 -9.991362e-001  2.635360e-006
    outer loop
      vertex -3.793179e+001  1.680670e+001  2.116512e+001
      vertex -3.532940e+001  1.691494e+001  2.163497e+001
      vertex -3.773755e+001  1.681478e+001  2.131498e+001
    endloop
  endfacet
  facet normal  4.157880e-002 -9.991352e-001 -2.691616e-005
    outer loop
      vertex -3.793179e+001  1.680670e+001  2.116512e+001
      vertex -3.773755e+001  1.681478e+001  2.131498e+001
      vertex -3.777928e+001  1.681305e+001  2.130566e+001
    endloop
  endfacet
  facet normal  4.155295e-002 -9.991363e-001  1.187394e-006
    outer loop
      vertex -3.793179e+001  1.680670e+001  2.116512e+001
      vertex -3.777928e+001  1.681305e+001  2.130566e+001
      vertex -3.781875e+001  1.681141e+001  2.128922e+001
    endloop
  endfacet
  facet normal  4.158524e-002 -9.991350e-001 -2.827430e-005
    outer loop
      vertex -3.793179e+001  1.680670e+001  2.116512e+001
      vertex -3.781875e+001  1.681141e+001  2.128922e+001
      vertex -3.785477e+001  1.680991e+001  2.126615e+001
    endloop
  endfacet
  facet normal  4.149971e-002 -9.991384e-001  3.702869e-005
    outer loop
      vertex -3.793179e+001  1.680670e+001  2.116512e+001
      vertex -3.785477e+001  1.680991e+001  2.126615e+001
      vertex -3.788623e+001  1.680860e+001  2.123716e+001
    endloop
  endfacet
  facet normal  4.155245e-002 -9.991363e-001  3.624019e-006
    outer loop
      vertex -3.793179e+001  1.680670e+001  2.116512e+001
      vertex -3.788623e+001  1.680860e+001  2.123716e+001
      vertex -3.791217e+001  1.680752e+001  2.120314e+001
    endloop
  endfacet
  facet normal  4.153499e-002 -9.991371e-001  1.418575e-004
    outer loop
      vertex -3.527501e+001  1.691721e+001  2.128877e+001
      vertex -3.524902e+001  1.691829e+001  2.128660e+001
      vertex -3.485250e+001  1.693478e+001  2.135532e+001
    endloop
  endfacet
  facet normal  4.155723e-002 -9.991361e-001  4.656917e-007
    outer loop
      vertex -3.527501e+001  1.691721e+001  2.128877e+001
      vertex -3.485250e+001  1.693478e+001  2.135532e+001
      vertex -3.487811e+001  1.693371e+001  2.140905e+001
    endloop
  endfacet
  facet normal  4.155656e-002 -9.991362e-001  2.692068e-006
    outer loop
      vertex -3.527501e+001  1.691721e+001  2.128877e+001
      vertex -3.487811e+001  1.693371e+001  2.140905e+001
      vertex -3.491058e+001  1.693236e+001  2.145893e+001
    endloop
  endfacet
  facet normal  4.156177e-002 -9.991359e-001 -8.497158e-006
    outer loop
      vertex -3.527501e+001  1.691721e+001  2.128877e+001
      vertex -3.491058e+001  1.693236e+001  2.145893e+001
      vertex -3.494934e+001  1.693075e+001  2.150409e+001
    endloop
  endfacet
  facet normal  4.155985e-002 -9.991360e-001 -5.579273e-006
    outer loop
      vertex -3.527501e+001  1.691721e+001  2.128877e+001
      vertex -3.494934e+001  1.693075e+001  2.150409e+001
      vertex -3.499372e+001  1.692891e+001  2.154372e+001
    endloop
  endfacet
  facet normal  4.154360e-002 -9.991366e-001  1.237553e-005
    outer loop
      vertex -3.527501e+001  1.691721e+001  2.128877e+001
      vertex -3.499372e+001  1.692891e+001  2.154372e+001
      vertex -3.504295e+001  1.692686e+001  2.157715e+001
    endloop
  endfacet
  facet normal  4.155561e-002 -9.991361e-001  2.698416e-006
    outer loop
      vertex -3.527501e+001  1.691721e+001  2.128877e+001
      vertex -3.504295e+001  1.692686e+001  2.157715e+001
      vertex -3.509614e+001  1.692465e+001  2.160378e+001
    endloop
  endfacet
  facet normal  4.157569e-002 -9.991354e-001 -8.723503e-006
    outer loop
      vertex -3.527501e+001  1.691721e+001  2.128877e+001
      vertex -3.509614e+001  1.692465e+001  2.160378e+001
      vertex -3.515239e+001  1.692231e+001  2.162315e+001
    endloop
  endfacet
  facet normal  4.154816e-002 -9.991364e-001  1.384667e-006
    outer loop
      vertex -3.527501e+001  1.691721e+001  2.128877e+001
      vertex -3.515239e+001  1.692231e+001  2.162315e+001
      vertex -3.521070e+001  1.691988e+001  2.163492e+001
    endloop
  endfacet
  facet normal  4.156209e-002 -9.991360e-001 -1.205249e-006
    outer loop
      vertex -3.527501e+001  1.691721e+001  2.128877e+001
      vertex -3.521070e+001  1.691988e+001  2.163492e+001
      vertex -3.527005e+001  1.691741e+001  2.163888e+001
    endloop
  endfacet
  facet normal  4.155807e-002 -9.991361e-001 -1.850339e-005
    outer loop
      vertex -3.526545e+001  1.691760e+001  2.108899e+001
      vertex -3.792187e+001  1.680712e+001  2.095786e+001
      vertex -3.789870e+001  1.680808e+001  2.092189e+001
    endloop
  endfacet
  facet normal  4.155590e-002 -9.991361e-001  1.575722e-005
    outer loop
      vertex -3.526545e+001  1.691760e+001  2.108899e+001
      vertex -3.789870e+001  1.680808e+001  2.092189e+001
      vertex -3.786963e+001  1.680929e+001  2.089050e+001
    endloop
  endfacet
  facet normal  4.155701e-002 -9.991361e-001  1.180119e-006
    outer loop
      vertex -3.526545e+001  1.691760e+001  2.108899e+001
      vertex -3.786963e+001  1.680929e+001  2.089050e+001
      vertex -3.783555e+001  1.681071e+001  2.086465e+001
    endloop
  endfacet
  facet normal  4.155519e-002 -9.991361e-001  2.206986e-005
    outer loop
      vertex -3.526545e+001  1.691760e+001  2.108899e+001
      vertex -3.783555e+001  1.681071e+001  2.086465e+001
      vertex -3.779750e+001  1.681229e+001  2.084514e+001
    endloop
  endfacet
  facet normal  4.155776e-002 -9.991361e-001 -4.581869e-006
    outer loop
      vertex -3.526545e+001  1.691760e+001  2.108899e+001
      vertex -3.779750e+001  1.681229e+001  2.084514e+001
      vertex -3.775663e+001  1.681399e+001  2.083255e+001
    endloop
  endfacet
  facet normal  4.156204e-002 -9.991360e-001 -4.624550e-005
    outer loop
      vertex -3.526545e+001  1.691760e+001  2.108899e+001
      vertex -3.775663e+001  1.681399e+001  2.083255e+001
      vertex -3.771420e+001  1.681575e+001  2.082727e+001
    endloop
  endfacet
  facet normal  4.155682e-002 -9.991361e-001  2.632716e-006
    outer loop
      vertex -3.526545e+001  1.691760e+001  2.108899e+001
      vertex -3.771420e+001  1.681575e+001  2.082727e+001
      vertex -3.528652e+001  1.691673e+001  2.073918e+001
    endloop
  endfacet
  facet normal  4.156649e-002 -9.991357e-001  2.049452e-006
    outer loop
      vertex -3.526545e+001  1.691760e+001  2.108899e+001
      vertex -3.528652e+001  1.691673e+001  2.073918e+001
      vertex -3.522706e+001  1.691920e+001  2.074096e+001
    endloop
  endfacet
  facet normal  4.155480e-002 -9.991362e-001  7.583138e-007
    outer loop
      vertex -3.526545e+001  1.691760e+001  2.108899e+001
      vertex -3.522706e+001  1.691920e+001  2.074096e+001
      vertex -3.516836e+001  1.692164e+001  2.075058e+001
    endloop
  endfacet
  facet normal  4.154432e-002 -9.991366e-001 -2.251550e-006
    outer loop
      vertex -3.526545e+001  1.691760e+001  2.108899e+001
      vertex -3.516836e+001  1.692164e+001  2.075058e+001
      vertex -3.511145e+001  1.692401e+001  2.076788e+001
    endloop
  endfacet
  facet normal  4.156210e-002 -9.991359e-001  6.283447e-006
    outer loop
      vertex -3.526545e+001  1.691760e+001  2.108899e+001
      vertex -3.511145e+001  1.692401e+001  2.076788e+001
      vertex -3.505731e+001  1.692626e+001  2.079254e+001
    endloop
  endfacet
  facet normal  4.155448e-002 -9.991363e-001  9.313364e-007
    outer loop
      vertex -3.526545e+001  1.691760e+001  2.108899e+001
      vertex -3.505731e+001  1.692626e+001  2.079254e+001
      vertex -3.500690e+001  1.692836e+001  2.082414e+001
    endloop
  endfacet
  facet normal  4.156396e-002 -9.991359e-001  1.019575e-005
    outer loop
      vertex -3.526545e+001  1.691760e+001  2.108899e+001
      vertex -3.500690e+001  1.692836e+001  2.082414e+001
      vertex -3.496109e+001  1.693026e+001  2.086212e+001
    endloop
  endfacet
  facet normal  4.155717e-002 -9.991361e-001  1.070780e-006
    outer loop
      vertex -3.526545e+001  1.691760e+001  2.108899e+001
      vertex -3.496109e+001  1.693026e+001  2.086212e+001
      vertex -3.492070e+001  1.693194e+001  2.090582e+001
    endloop
  endfacet
  facet normal  4.155356e-002 -9.991363e-001 -5.731315e-006
    outer loop
      vertex -3.526545e+001  1.691760e+001  2.108899e+001
      vertex -3.492070e+001  1.693194e+001  2.090582e+001
      vertex -3.488643e+001  1.693337e+001  2.095448e+001
    endloop
  endfacet
  facet normal  4.155436e-002 -9.991363e-001 -3.480912e-006
    outer loop
      vertex -3.526545e+001  1.691760e+001  2.108899e+001
      vertex -3.488643e+001  1.693337e+001  2.095448e+001
      vertex -3.485887e+001  1.693451e+001  2.100724e+001
    endloop
  endfacet
  facet normal  4.155553e-002 -9.991361e-001  2.365221e-006
    outer loop
      vertex -3.526545e+001  1.691760e+001  2.108899e+001
      vertex -3.485887e+001  1.693451e+001  2.100724e+001
      vertex -3.483851e+001  1.693536e+001  2.106318e+001
    endloop
  endfacet
  facet normal  4.155546e-002 -9.991362e-001  1.264924e-006
    outer loop
      vertex -3.526545e+001  1.691760e+001  2.108899e+001
      vertex -3.483851e+001  1.693536e+001  2.106318e+001
      vertex -3.482571e+001  1.693589e+001  2.112132e+001
    endloop
  endfacet
  facet normal  4.157864e-002 -9.991353e-001 -3.145266e-004
    outer loop
      vertex -3.526545e+001  1.691760e+001  2.108899e+001
      vertex -3.482571e+001  1.693589e+001  2.112132e+001
      vertex -3.523978e+001  1.691867e+001  2.109364e+001
    endloop
  endfacet
  facet normal  4.155647e-002 -9.991361e-001  1.394044e-005
    outer loop
      vertex -3.793843e+001  1.680643e+001  2.099731e+001
      vertex -3.792187e+001  1.680712e+001  2.095786e+001
      vertex -3.526545e+001  1.691760e+001  2.108899e+001
    endloop
  endfacet
  facet normal  4.156561e-002 -9.991357e-001 -2.527772e-004
    outer loop
      vertex -3.793843e+001  1.680643e+001  2.099731e+001
      vertex -3.526545e+001  1.691760e+001  2.108899e+001
      vertex -3.529144e+001  1.691652e+001  2.109116e+001
    endloop
  endfacet
  facet normal  4.155587e-002 -9.991362e-001  2.227081e-005
    outer loop
      vertex -3.793843e+001  1.680643e+001  2.099731e+001
      vertex -3.529144e+001  1.691652e+001  2.109116e+001
      vertex -3.531599e+001  1.691550e+001  2.109999e+001
    endloop
  endfacet
  facet normal  4.155626e-002 -9.991361e-001  1.236498e-005
    outer loop
      vertex -3.793843e+001  1.680643e+001  2.099731e+001
      vertex -3.531599e+001  1.691550e+001  2.109999e+001
      vertex -3.533741e+001  1.691461e+001  2.111487e+001
    endloop
  endfacet
  facet normal  4.155593e-002 -9.991362e-001  1.968603e-005
    outer loop
      vertex -3.793843e+001  1.680643e+001  2.099731e+001
      vertex -3.533741e+001  1.691461e+001  2.111487e+001
      vertex -3.535426e+001  1.691391e+001  2.113479e+001
    endloop
  endfacet
  facet normal  4.155785e-002 -9.991361e-001 -1.648375e-005
    outer loop
      vertex -3.793843e+001  1.680643e+001  2.099731e+001
      vertex -3.535426e+001  1.691391e+001  2.113479e+001
      vertex -3.794788e+001  1.680603e+001  2.103905e+001
    endloop
  endfacet
  facet normal  4.155651e-002 -9.991362e-001  1.284759e-006
    outer loop
      vertex -3.536786e+001  1.691334e+001  2.121011e+001
      vertex -3.794992e+001  1.680595e+001  2.108180e+001
      vertex -3.537003e+001  1.691325e+001  2.118410e+001
    endloop
  endfacet
  facet normal  4.155541e-002 -9.991363e-001  2.908577e-005
    outer loop
      vertex -3.537003e+001  1.691325e+001  2.118410e+001
      vertex -3.794992e+001  1.680595e+001  2.108180e+001
      vertex -3.794788e+001  1.680603e+001  2.103905e+001
    endloop
  endfacet
  facet normal  4.155558e-002 -9.991362e-001  2.600421e-005
    outer loop
      vertex -3.537003e+001  1.691325e+001  2.118410e+001
      vertex -3.794788e+001  1.680603e+001  2.103905e+001
      vertex -3.536539e+001  1.691345e+001  2.115841e+001
    endloop
  endfacet
  facet normal  4.155457e-002 -9.991363e-001  5.276491e-005
    outer loop
      vertex -3.534418e+001  1.691433e+001  2.125613e+001
      vertex -3.794450e+001  1.680617e+001  2.112425e+001
      vertex -3.535905e+001  1.691371e+001  2.123468e+001
    endloop
  endfacet
  facet normal  4.155795e-002 -9.991361e-001 -2.662880e-005
    outer loop
      vertex -3.535905e+001  1.691371e+001  2.123468e+001
      vertex -3.794450e+001  1.680617e+001  2.112425e+001
      vertex -3.794992e+001  1.680595e+001  2.108180e+001
    endloop
  endfacet
  facet normal  4.155758e-002 -9.991360e-001 -2.030991e-005
    outer loop
      vertex -3.535905e+001  1.691371e+001  2.123468e+001
      vertex -3.794992e+001  1.680595e+001  2.108180e+001
      vertex -3.536786e+001  1.691334e+001  2.121011e+001
    endloop
  endfacet
  facet normal  4.156120e-002 -9.991359e-001 -2.292911e-005
    outer loop
      vertex -3.518141e+001  1.692110e+001  2.114308e+001
      vertex -3.519628e+001  1.692048e+001  2.112164e+001
      vertex -3.482069e+001  1.693610e+001  2.118064e+001
    endloop
  endfacet
  facet normal  4.155260e-002 -9.991363e-001  3.190969e-005
    outer loop
      vertex -3.482069e+001  1.693610e+001  2.118064e+001
      vertex -3.519628e+001  1.692048e+001  2.112164e+001
      vertex -3.521619e+001  1.691965e+001  2.110477e+001
    endloop
  endfacet
  facet normal  4.155795e-002 -9.991361e-001  4.012861e-006
    outer loop
      vertex -3.482069e+001  1.693610e+001  2.118064e+001
      vertex -3.521619e+001  1.691965e+001  2.110477e+001
      vertex -3.482571e+001  1.693589e+001  2.112132e+001
    endloop
  endfacet
  facet normal  4.155852e-002 -9.991361e-001 -3.281200e-005
    outer loop
      vertex -3.517507e+001  1.692136e+001  2.121936e+001
      vertex -3.517043e+001  1.692156e+001  2.119367e+001
      vertex -3.482354e+001  1.693598e+001  2.124010e+001
    endloop
  endfacet
  facet normal  4.155393e-002 -9.991363e-001  1.499372e-006
    outer loop
      vertex -3.482354e+001  1.693598e+001  2.124010e+001
      vertex -3.517043e+001  1.692156e+001  2.119367e+001
      vertex -3.517259e+001  1.692147e+001  2.116765e+001
    endloop
  endfacet
  facet normal  4.155631e-002 -9.991361e-001 -9.970219e-006
    outer loop
      vertex -3.482354e+001  1.693598e+001  2.124010e+001
      vertex -3.517259e+001  1.692147e+001  2.116765e+001
      vertex -3.482069e+001  1.693610e+001  2.118064e+001
    endloop
  endfacet
  facet normal  4.155487e-002 -9.991362e-001  2.515052e-005
    outer loop
      vertex -3.520304e+001  1.692020e+001  2.126290e+001
      vertex -3.518619e+001  1.692090e+001  2.124297e+001
      vertex -3.483420e+001  1.693554e+001  2.129867e+001
    endloop
  endfacet
  facet normal  4.155749e-002 -9.991361e-001  8.576473e-006
    outer loop
      vertex -3.483420e+001  1.693554e+001  2.129867e+001
      vertex -3.518619e+001  1.692090e+001  2.124297e+001
      vertex -3.517507e+001  1.692136e+001  2.121936e+001
    endloop
  endfacet
  facet normal  4.155560e-002 -9.991361e-001  1.670098e-005
    outer loop
      vertex -3.483420e+001  1.693554e+001  2.129867e+001
      vertex -3.517507e+001  1.692136e+001  2.121936e+001
      vertex -3.482354e+001  1.693598e+001  2.124010e+001
    endloop
  endfacet
  facet normal  4.155612e-002 -9.991361e-001  1.217055e-005
    outer loop
      vertex -3.520304e+001  1.692020e+001  2.126290e+001
      vertex -3.483420e+001  1.693554e+001  2.129867e+001
      vertex -3.522447e+001  1.691931e+001  2.127778e+001
    endloop
  endfacet
  facet normal  4.155709e-002 -9.991361e-001 -5.827343e-006
    outer loop
      vertex -3.522447e+001  1.691931e+001  2.127778e+001
      vertex -3.483420e+001  1.693554e+001  2.129867e+001
      vertex -3.485250e+001  1.693478e+001  2.135532e+001
    endloop
  endfacet
  facet normal  4.157759e-002 -9.991354e-001 -1.043459e-004
    outer loop
      vertex -3.522447e+001  1.691931e+001  2.127778e+001
      vertex -3.485250e+001  1.693478e+001  2.135532e+001
      vertex -3.524902e+001  1.691829e+001  2.128660e+001
    endloop
  endfacet
  facet normal -3.620011e-002 -1.505773e-003 -9.993435e-001
    outer loop
      vertex -3.771420e+001  1.681575e+001  2.082727e+001
      vertex -3.773913e+001  1.741524e+001  2.082727e+001
      vertex -3.528652e+001  1.691673e+001  2.073918e+001
    endloop
  endfacet
  facet normal -3.620008e-002 -1.505584e-003 -9.993435e-001
    outer loop
      vertex -3.528652e+001  1.691673e+001  2.073918e+001
      vertex -3.773913e+001  1.741524e+001  2.082727e+001
      vertex -3.531145e+001  1.751621e+001  2.073918e+001
    endloop
  endfacet
  facet normal  2.993678e-002  1.245089e-003 -9.995509e-001
    outer loop
      vertex -3.528652e+001  1.691673e+001  2.073918e+001
      vertex -3.531145e+001  1.751621e+001  2.073918e+001
      vertex -3.522706e+001  1.691920e+001  2.074096e+001
    endloop
  endfacet
  facet normal  2.993682e-002  1.245094e-003 -9.995511e-001
    outer loop
      vertex -3.522706e+001  1.691920e+001  2.074096e+001
      vertex -3.531145e+001  1.751621e+001  2.073918e+001
      vertex -3.525200e+001  1.751868e+001  2.074096e+001
    endloop
  endfacet
  facet normal  1.614854e-001  6.716297e-003 -9.868522e-001
    outer loop
      vertex -3.522706e+001  1.691920e+001  2.074096e+001
      vertex -3.525200e+001  1.751868e+001  2.074096e+001
      vertex -3.516836e+001  1.692164e+001  2.075058e+001
    endloop
  endfacet
  facet normal  1.614854e-001  6.716297e-003 -9.868522e-001
    outer loop
      vertex -3.516836e+001  1.692164e+001  2.075058e+001
      vertex -3.525200e+001  1.751868e+001  2.074096e+001
      vertex -3.519329e+001  1.752112e+001  2.075058e+001
    endloop
  endfacet
  facet normal  2.902400e-001  1.207129e-002 -9.568778e-001
    outer loop
      vertex -3.516836e+001  1.692164e+001  2.075058e+001
      vertex -3.519329e+001  1.752112e+001  2.075058e+001
      vertex -3.511145e+001  1.692401e+001  2.076788e+001
    endloop
  endfacet
  facet normal  2.902538e-001  1.207331e-002 -9.568736e-001
    outer loop
      vertex -3.511145e+001  1.692401e+001  2.076788e+001
      vertex -3.519329e+001  1.752112e+001  2.075058e+001
      vertex -3.513638e+001  1.752349e+001  2.076788e+001
    endloop
  endfacet
  facet normal  4.139076e-001  1.721678e-002 -9.101561e-001
    outer loop
      vertex -3.511145e+001  1.692401e+001  2.076788e+001
      vertex -3.513638e+001  1.752349e+001  2.076788e+001
      vertex -3.505731e+001  1.692626e+001  2.079254e+001
    endloop
  endfacet
  facet normal  4.139079e-001  1.721684e-002 -9.101558e-001
    outer loop
      vertex -3.505731e+001  1.692626e+001  2.079254e+001
      vertex -3.513638e+001  1.752349e+001  2.076788e+001
      vertex -3.508224e+001  1.752574e+001  2.079254e+001
    endloop
  endfacet
  facet normal  5.303447e-001  2.206012e-002 -8.474951e-001
    outer loop
      vertex -3.505731e+001  1.692626e+001  2.079254e+001
      vertex -3.508224e+001  1.752574e+001  2.079254e+001
      vertex -3.500690e+001  1.692836e+001  2.082414e+001
    endloop
  endfacet
  facet normal  5.303212e-001  2.205639e-002 -8.475098e-001
    outer loop
      vertex -3.500690e+001  1.692836e+001  2.082414e+001
      vertex -3.508224e+001  1.752574e+001  2.079254e+001
      vertex -3.503183e+001  1.752784e+001  2.082414e+001
    endloop
  endfacet
  facet normal  6.374580e-001  2.651228e-002 -7.700289e-001
    outer loop
      vertex -3.500690e+001  1.692836e+001  2.082414e+001
      vertex -3.503183e+001  1.752784e+001  2.082414e+001
      vertex -3.496109e+001  1.693026e+001  2.086212e+001
    endloop
  endfacet
  facet normal  6.374835e-001  2.651665e-002 -7.700075e-001
    outer loop
      vertex -3.496109e+001  1.693026e+001  2.086212e+001
      vertex -3.503183e+001  1.752784e+001  2.082414e+001
      vertex -3.498603e+001  1.752975e+001  2.086212e+001
    endloop
  endfacet
  facet normal  7.334539e-001  3.050862e-002 -6.790542e-001
    outer loop
      vertex -3.496109e+001  1.693026e+001  2.086212e+001
      vertex -3.498603e+001  1.752975e+001  2.086212e+001
      vertex -3.492070e+001  1.693194e+001  2.090582e+001
    endloop
  endfacet
  facet normal  7.334285e-001  3.050383e-002 -6.790818e-001
    outer loop
      vertex -3.492070e+001  1.693194e+001  2.090582e+001
      vertex -3.498603e+001  1.752975e+001  2.086212e+001
      vertex -3.494564e+001  1.753142e+001  2.090582e+001
    endloop
  endfacet
  facet normal  8.165970e-001  3.396287e-002 -5.762081e-001
    outer loop
      vertex -3.492070e+001  1.693194e+001  2.090582e+001
      vertex -3.494564e+001  1.753142e+001  2.090582e+001
      vertex -3.488643e+001  1.693337e+001  2.095448e+001
    endloop
  endfacet
  facet normal  8.165970e-001  3.396287e-002 -5.762081e-001
    outer loop
      vertex -3.488643e+001  1.693337e+001  2.095448e+001
      vertex -3.494564e+001  1.753142e+001  2.090582e+001
      vertex -3.491136e+001  1.753285e+001  2.095448e+001
    endloop
  endfacet
  facet normal  8.854411e-001  3.682614e-002 -4.632902e-001
    outer loop
      vertex -3.488643e+001  1.693337e+001  2.095448e+001
      vertex -3.491136e+001  1.753285e+001  2.095448e+001
      vertex -3.485887e+001  1.693451e+001  2.100724e+001
    endloop
  endfacet
  facet normal  8.854411e-001  3.682614e-002 -4.632902e-001
    outer loop
      vertex -3.485887e+001  1.693451e+001  2.100724e+001
      vertex -3.491136e+001  1.753285e+001  2.095448e+001
      vertex -3.488380e+001  1.753399e+001  2.100724e+001
    endloop
  endfacet
  facet normal  9.387954e-001  3.904519e-002 -3.422553e-001
    outer loop
      vertex -3.485887e+001  1.693451e+001  2.100724e+001
      vertex -3.488380e+001  1.753399e+001  2.100724e+001
      vertex -3.483851e+001  1.693536e+001  2.106318e+001
    endloop
  endfacet
  facet normal  9.388117e-001  3.905064e-002 -3.422101e-001
    outer loop
      vertex -3.483851e+001  1.693536e+001  2.106318e+001
      vertex -3.488380e+001  1.753399e+001  2.100724e+001
      vertex -3.486345e+001  1.753484e+001  2.106318e+001
    endloop
  endfacet
  facet normal  9.757198e-001  4.058587e-002 -2.152294e-001
    outer loop
      vertex -3.483851e+001  1.693536e+001  2.106318e+001
      vertex -3.486345e+001  1.753484e+001  2.106318e+001
      vertex -3.482571e+001  1.693589e+001  2.112132e+001
    endloop
  endfacet
  facet normal  9.757198e-001  4.058587e-002 -2.152294e-001
    outer loop
      vertex -3.482571e+001  1.693589e+001  2.112132e+001
      vertex -3.486345e+001  1.753484e+001  2.106318e+001
      vertex -3.485065e+001  1.753538e+001  2.112132e+001
    endloop
  endfacet
  facet normal  9.955713e-001  4.141160e-002 -8.439702e-002
    outer loop
      vertex -3.482571e+001  1.693589e+001  2.112132e+001
      vertex -3.485065e+001  1.753538e+001  2.112132e+001
      vertex -3.482069e+001  1.693610e+001  2.118064e+001
    endloop
  endfacet
  facet normal  9.955673e-001  4.140637e-002 -8.444788e-002
    outer loop
      vertex -3.482069e+001  1.693610e+001  2.118064e+001
      vertex -3.485065e+001  1.753538e+001  2.112132e+001
      vertex -3.484562e+001  1.753558e+001  2.118064e+001
    endloop
  endfacet
  facet normal  9.979908e-001  4.150717e-002  4.786863e-002
    outer loop
      vertex -3.482069e+001  1.693610e+001  2.118064e+001
      vertex -3.484562e+001  1.753558e+001  2.118064e+001
      vertex -3.482354e+001  1.693598e+001  2.124010e+001
    endloop
  endfacet
  facet normal  9.979910e-001  4.150707e-002  4.786757e-002
    outer loop
      vertex -3.482354e+001  1.693598e+001  2.124010e+001
      vertex -3.484562e+001  1.753558e+001  2.118064e+001
      vertex -3.484847e+001  1.753547e+001  2.124010e+001
    endloop
  endfacet
  facet normal  9.829511e-001  4.088156e-002  1.792647e-001
    outer loop
      vertex -3.482354e+001  1.693598e+001  2.124010e+001
      vertex -3.484847e+001  1.753547e+001  2.124010e+001
      vertex -3.483420e+001  1.693554e+001  2.129867e+001
    endloop
  endfacet
  facet normal  9.829416e-001  4.088626e-002  1.793153e-001
    outer loop
      vertex -3.483420e+001  1.693554e+001  2.129867e+001
      vertex -3.484847e+001  1.753547e+001  2.124010e+001
      vertex -3.485914e+001  1.753502e+001  2.129867e+001
    endloop
  endfacet
  facet normal  9.506873e-001  3.954462e-002  3.076195e-001
    outer loop
      vertex -3.483420e+001  1.693554e+001  2.129867e+001
      vertex -3.485914e+001  1.753502e+001  2.129867e+001
      vertex -3.485250e+001  1.693478e+001  2.135532e+001
    endloop
  endfacet
  facet normal  9.507026e-001  3.954042e-002  3.075732e-001
    outer loop
      vertex -3.485250e+001  1.693478e+001  2.135532e+001
      vertex -3.485914e+001  1.753502e+001  2.129867e+001
      vertex -3.487743e+001  1.753426e+001  2.135532e+001
    endloop
  endfacet
  facet normal  9.018075e-001  3.750683e-002  4.305072e-001
    outer loop
      vertex -3.485250e+001  1.693478e+001  2.135532e+001
      vertex -3.487743e+001  1.753426e+001  2.135532e+001
      vertex -3.487811e+001  1.693371e+001  2.140905e+001
    endloop
  endfacet
  facet normal  9.018075e-001  3.750683e-002  4.305072e-001
    outer loop
      vertex -3.487811e+001  1.693371e+001  2.140905e+001
      vertex -3.487743e+001  1.753426e+001  2.135532e+001
      vertex -3.490304e+001  1.753320e+001  2.140905e+001
    endloop
  endfacet
  facet normal  8.371274e-001  3.481674e-002  5.458987e-001
    outer loop
      vertex -3.487811e+001  1.693371e+001  2.140905e+001
      vertex -3.490304e+001  1.753320e+001  2.140905e+001
      vertex -3.491058e+001  1.693236e+001  2.145893e+001
    endloop
  endfacet
  facet normal  8.371274e-001  3.481674e-002  5.458987e-001
    outer loop
      vertex -3.491058e+001  1.693236e+001  2.145893e+001
      vertex -3.490304e+001  1.753320e+001  2.140905e+001
      vertex -3.493551e+001  1.753185e+001  2.145893e+001
    endloop
  endfacet
  facet normal  7.578340e-001  3.151887e-002  6.516856e-001
    outer loop
      vertex -3.491058e+001  1.693236e+001  2.145893e+001
      vertex -3.493551e+001  1.753185e+001  2.145893e+001
      vertex -3.494934e+001  1.693075e+001  2.150409e+001
    endloop
  endfacet
  facet normal  7.578086e-001  3.152167e-002  6.517151e-001
    outer loop
      vertex -3.494934e+001  1.693075e+001  2.150409e+001
      vertex -3.493551e+001  1.753185e+001  2.145893e+001
      vertex -3.497428e+001  1.753023e+001  2.150409e+001
    endloop
  endfacet
  facet normal  6.652108e-001  2.766999e-002  7.461427e-001
    outer loop
      vertex -3.494934e+001  1.693075e+001  2.150409e+001
      vertex -3.497428e+001  1.753023e+001  2.150409e+001
      vertex -3.499372e+001  1.692891e+001  2.154372e+001
    endloop
  endfacet
  facet normal  6.652114e-001  2.766994e-002  7.461422e-001
    outer loop
      vertex -3.499372e+001  1.692891e+001  2.154372e+001
      vertex -3.497428e+001  1.753023e+001  2.150409e+001
      vertex -3.501866e+001  1.752839e+001  2.154372e+001
    endloop
  endfacet
  facet normal  5.609941e-001  2.333495e-002  8.274908e-001
    outer loop
      vertex -3.499372e+001  1.692891e+001  2.154372e+001
      vertex -3.501866e+001  1.752839e+001  2.154372e+001
      vertex -3.504295e+001  1.692686e+001  2.157715e+001
    endloop
  endfacet
  facet normal  5.610175e-001  2.333313e-002  8.274750e-001
    outer loop
      vertex -3.504295e+001  1.692686e+001  2.157715e+001
      vertex -3.501866e+001  1.752839e+001  2.154372e+001
      vertex -3.506788e+001  1.752634e+001  2.157715e+001
    endloop
  endfacet
  facet normal  4.469283e-001  1.858808e-002  8.943766e-001
    outer loop
      vertex -3.504295e+001  1.692686e+001  2.157715e+001
      vertex -3.506788e+001  1.752634e+001  2.157715e+001
      vertex -3.509614e+001  1.692465e+001  2.160378e+001
    endloop
  endfacet
  facet normal  4.469283e-001  1.858808e-002  8.943766e-001
    outer loop
      vertex -3.509614e+001  1.692465e+001  2.160378e+001
      vertex -3.506788e+001  1.752634e+001  2.157715e+001
      vertex -3.512107e+001  1.752413e+001  2.160378e+001
    endloop
  endfacet
  facet normal  3.250674e-001  1.351979e-002  9.455943e-001
    outer loop
      vertex -3.509614e+001  1.692465e+001  2.160378e+001
      vertex -3.512107e+001  1.752413e+001  2.160378e+001
      vertex -3.515239e+001  1.692231e+001  2.162315e+001
    endloop
  endfacet
  facet normal  3.250677e-001  1.351977e-002  9.455941e-001
    outer loop
      vertex -3.515239e+001  1.692231e+001  2.162315e+001
      vertex -3.512107e+001  1.752413e+001  2.160378e+001
      vertex -3.517732e+001  1.752179e+001  2.162315e+001
    endloop
  endfacet
  facet normal  1.975223e-001  8.215076e-003  9.802640e-001
    outer loop
      vertex -3.515239e+001  1.692231e+001  2.162315e+001
      vertex -3.517732e+001  1.752179e+001  2.162315e+001
      vertex -3.521070e+001  1.691988e+001  2.163492e+001
    endloop
  endfacet
  facet normal  1.975221e-001  8.215088e-003  9.802641e-001
    outer loop
      vertex -3.521070e+001  1.691988e+001  2.163492e+001
      vertex -3.517732e+001  1.752179e+001  2.162315e+001
      vertex -3.523563e+001  1.751936e+001  2.163492e+001
    endloop
  endfacet
  facet normal  6.647916e-002  2.764917e-003  9.977840e-001
    outer loop
      vertex -3.521070e+001  1.691988e+001  2.163492e+001
      vertex -3.523563e+001  1.751936e+001  2.163492e+001
      vertex -3.527005e+001  1.691741e+001  2.163888e+001
    endloop
  endfacet
  facet normal  6.647924e-002  2.764913e-003  9.977840e-001
    outer loop
      vertex -3.527005e+001  1.691741e+001  2.163888e+001
      vertex -3.523563e+001  1.751936e+001  2.163492e+001
      vertex -3.529498e+001  1.751690e+001  2.163888e+001
    endloop
  endfacet
  facet normal -6.568541e-002 -2.731897e-003  9.978366e-001
    outer loop
      vertex -3.527005e+001  1.691741e+001  2.163888e+001
      vertex -3.529498e+001  1.751690e+001  2.163888e+001
      vertex -3.532940e+001  1.691494e+001  2.163497e+001
    endloop
  endfacet
  facet normal -6.568541e-002 -2.731897e-003  9.978366e-001
    outer loop
      vertex -3.532940e+001  1.691494e+001  2.163497e+001
      vertex -3.529498e+001  1.751690e+001  2.163888e+001
      vertex -3.535434e+001  1.751443e+001  2.163497e+001
    endloop
  endfacet
  facet normal -1.314953e-001 -5.468986e-003  9.913017e-001
    outer loop
      vertex -3.773755e+001  1.681478e+001  2.131498e+001
      vertex -3.532940e+001  1.691494e+001  2.163497e+001
      vertex -3.776248e+001  1.741426e+001  2.131498e+001
    endloop
  endfacet
  facet normal -1.314953e-001 -5.468972e-003  9.913017e-001
    outer loop
      vertex -3.776248e+001  1.741426e+001  2.131498e+001
      vertex -3.532940e+001  1.691494e+001  2.163497e+001
      vertex -3.535434e+001  1.751443e+001  2.163497e+001
    endloop
  endfacet
  facet normal -2.174886e-001 -9.045511e-003  9.760209e-001
    outer loop
      vertex -3.773755e+001  1.681478e+001  2.131498e+001
      vertex -3.776248e+001  1.741426e+001  2.131498e+001
      vertex -3.777928e+001  1.681305e+001  2.130566e+001
    endloop
  endfacet
  facet normal -2.174734e-001 -9.045987e-003  9.760243e-001
    outer loop
      vertex -3.777928e+001  1.681305e+001  2.130566e+001
      vertex -3.776248e+001  1.741426e+001  2.131498e+001
      vertex -3.780421e+001  1.741253e+001  2.130566e+001
    endloop
  endfacet
  facet normal -3.838787e-001 -1.596775e-002  9.232454e-001
    outer loop
      vertex -3.777928e+001  1.681305e+001  2.130566e+001
      vertex -3.780421e+001  1.741253e+001  2.130566e+001
      vertex -3.781875e+001  1.681141e+001  2.128922e+001
    endloop
  endfacet
  facet normal -3.838787e-001 -1.596775e-002  9.232454e-001
    outer loop
      vertex -3.781875e+001  1.681141e+001  2.128922e+001
      vertex -3.780421e+001  1.741253e+001  2.130566e+001
      vertex -3.784369e+001  1.741089e+001  2.128922e+001
    endloop
  endfacet
  facet normal -5.385215e-001 -2.240025e-002  8.423139e-001
    outer loop
      vertex -3.781875e+001  1.681141e+001  2.128922e+001
      vertex -3.784369e+001  1.741089e+001  2.128922e+001
      vertex -3.785477e+001  1.680991e+001  2.126615e+001
    endloop
  endfacet
  facet normal -5.385222e-001 -2.240022e-002  8.423135e-001
    outer loop
      vertex -3.785477e+001  1.680991e+001  2.126615e+001
      vertex -3.784369e+001  1.741089e+001  2.128922e+001
      vertex -3.787971e+001  1.740939e+001  2.126615e+001
    endloop
  endfacet
  facet normal -6.767589e-001 -2.815027e-002  7.356663e-001
    outer loop
      vertex -3.785477e+001  1.680991e+001  2.126615e+001
      vertex -3.787971e+001  1.740939e+001  2.126615e+001
      vertex -3.788623e+001  1.680860e+001  2.123716e+001
    endloop
  endfacet
  facet normal -6.767939e-001 -2.814835e-002  7.356343e-001
    outer loop
      vertex -3.788623e+001  1.680860e+001  2.123716e+001
      vertex -3.787971e+001  1.740939e+001  2.126615e+001
      vertex -3.791116e+001  1.740808e+001  2.123716e+001
    endloop
  endfacet
  facet normal -7.943498e-001 -3.303759e-002  6.065616e-001
    outer loop
      vertex -3.788623e+001  1.680860e+001  2.123716e+001
      vertex -3.791116e+001  1.740808e+001  2.123716e+001
      vertex -3.791217e+001  1.680752e+001  2.120314e+001
    endloop
  endfacet
  facet normal -7.943498e-001 -3.303759e-002  6.065616e-001
    outer loop
      vertex -3.791217e+001  1.680752e+001  2.120314e+001
      vertex -3.791116e+001  1.740808e+001  2.123716e+001
      vertex -3.793710e+001  1.740700e+001  2.120314e+001
    endloop
  endfacet
  facet normal -8.876756e-001 -3.691908e-002  4.589869e-001
    outer loop
      vertex -3.791217e+001  1.680752e+001  2.120314e+001
      vertex -3.793710e+001  1.740700e+001  2.120314e+001
      vertex -3.793179e+001  1.680670e+001  2.116512e+001
    endloop
  endfacet
  facet normal -8.876756e-001 -3.691908e-002  4.589869e-001
    outer loop
      vertex -3.793179e+001  1.680670e+001  2.116512e+001
      vertex -3.793710e+001  1.740700e+001  2.120314e+001
      vertex -3.795672e+001  1.740619e+001  2.116512e+001
    endloop
  endfacet
  facet normal -9.539513e-001 -3.967553e-002  2.973258e-001
    outer loop
      vertex -3.793179e+001  1.680670e+001  2.116512e+001
      vertex -3.795672e+001  1.740619e+001  2.116512e+001
      vertex -3.794450e+001  1.680617e+001  2.112425e+001
    endloop
  endfacet
  facet normal -9.539313e-001 -3.967946e-002  2.973894e-001
    outer loop
      vertex -3.794450e+001  1.680617e+001  2.112425e+001
      vertex -3.795672e+001  1.740619e+001  2.116512e+001
      vertex -3.796944e+001  1.740566e+001  2.112425e+001
    endloop
  endfacet
  facet normal -9.910774e-001 -4.122457e-002  1.267520e-001
    outer loop
      vertex -3.794450e+001  1.680617e+001  2.112425e+001
      vertex -3.796944e+001  1.740566e+001  2.112425e+001
      vertex -3.794992e+001  1.680595e+001  2.108180e+001
    endloop
  endfacet
  facet normal -9.910864e-001 -4.122001e-002  1.266833e-001
    outer loop
      vertex -3.794992e+001  1.680595e+001  2.108180e+001
      vertex -3.796944e+001  1.740566e+001  2.112425e+001
      vertex -3.797486e+001  1.740543e+001  2.108180e+001
    endloop
  endfacet
  facet normal -9.979900e-001 -4.150713e-002 -4.788640e-002
    outer loop
      vertex -3.794992e+001  1.680595e+001  2.108180e+001
      vertex -3.797486e+001  1.740543e+001  2.108180e+001
      vertex -3.794788e+001  1.680603e+001  2.103905e+001
    endloop
  endfacet
  facet normal -9.979900e-001 -4.150703e-002 -4.788788e-002
    outer loop
      vertex -3.794788e+001  1.680603e+001  2.103905e+001
      vertex -3.797486e+001  1.740543e+001  2.108180e+001
      vertex -3.797281e+001  1.740552e+001  2.103905e+001
    endloop
  endfacet
  facet normal -9.744400e-001 -4.052757e-002 -2.209618e-001
    outer loop
      vertex -3.794788e+001  1.680603e+001  2.103905e+001
      vertex -3.797281e+001  1.740552e+001  2.103905e+001
      vertex -3.793843e+001  1.680643e+001  2.099731e+001
    endloop
  endfacet
  facet normal -9.744554e-001 -4.053327e-002 -2.208926e-001
    outer loop
      vertex -3.793843e+001  1.680643e+001  2.099731e+001
      vertex -3.797281e+001  1.740552e+001  2.103905e+001
      vertex -3.796336e+001  1.740591e+001  2.099731e+001
    endloop
  endfacet
  facet normal -9.211727e-001 -3.831694e-002 -3.872630e-001
    outer loop
      vertex -3.793843e+001  1.680643e+001  2.099731e+001
      vertex -3.796336e+001  1.740591e+001  2.099731e+001
      vertex -3.792187e+001  1.680712e+001  2.095786e+001
    endloop
  endfacet
  facet normal -9.211470e-001 -3.831108e-002 -3.873248e-001
    outer loop
      vertex -3.792187e+001  1.680712e+001  2.095786e+001
      vertex -3.796336e+001  1.740591e+001  2.099731e+001
      vertex -3.794680e+001  1.740660e+001  2.095786e+001
    endloop
  endfacet
  facet normal -8.397636e-001 -3.492630e-002 -5.418276e-001
    outer loop
      vertex -3.792187e+001  1.680712e+001  2.095786e+001
      vertex -3.794680e+001  1.740660e+001  2.095786e+001
      vertex -3.789870e+001  1.680808e+001  2.092189e+001
    endloop
  endfacet
  facet normal -8.397966e-001 -3.493203e-002 -5.417762e-001
    outer loop
      vertex -3.789870e+001  1.680808e+001  2.092189e+001
      vertex -3.794680e+001  1.740660e+001  2.095786e+001
      vertex -3.792364e+001  1.740756e+001  2.092189e+001
    endloop
  endfacet
  facet normal -7.327685e-001 -3.048011e-002 -6.797949e-001
    outer loop
      vertex -3.789870e+001  1.680808e+001  2.092189e+001
      vertex -3.792364e+001  1.740756e+001  2.092189e+001
      vertex -3.786963e+001  1.680929e+001  2.089050e+001
    endloop
  endfacet
  facet normal -7.327685e-001 -3.048011e-002 -6.797949e-001
    outer loop
      vertex -3.786963e+001  1.680929e+001  2.089050e+001
      vertex -3.792364e+001  1.740756e+001  2.092189e+001
      vertex -3.789457e+001  1.740877e+001  2.089050e+001
    endloop
  endfacet
  facet normal -6.033849e-001 -2.509829e-002 -7.970552e-001
    outer loop
      vertex -3.786963e+001  1.680929e+001  2.089050e+001
      vertex -3.789457e+001  1.740877e+001  2.089050e+001
      vertex -3.783555e+001  1.681071e+001  2.086465e+001
    endloop
  endfacet
  facet normal -6.033849e-001 -2.509829e-002 -7.970552e-001
    outer loop
      vertex -3.783555e+001  1.681071e+001  2.086465e+001
      vertex -3.789457e+001  1.740877e+001  2.089050e+001
      vertex -3.786049e+001  1.741019e+001  2.086465e+001
    endloop
  endfacet
  facet normal -4.556179e-001 -1.895180e-002 -8.899737e-001
    outer loop
      vertex -3.783555e+001  1.681071e+001  2.086465e+001
      vertex -3.786049e+001  1.741019e+001  2.086465e+001
      vertex -3.779750e+001  1.681229e+001  2.084514e+001
    endloop
  endfacet
  facet normal -4.556173e-001 -1.895173e-002 -8.899740e-001
    outer loop
      vertex -3.779750e+001  1.681229e+001  2.084514e+001
      vertex -3.786049e+001  1.741019e+001  2.086465e+001
      vertex -3.782243e+001  1.741177e+001  2.084514e+001
    endloop
  endfacet
  facet normal -2.939378e-001 -1.222655e-002 -9.557464e-001
    outer loop
      vertex -3.779750e+001  1.681229e+001  2.084514e+001
      vertex -3.782243e+001  1.741177e+001  2.084514e+001
      vertex -3.775663e+001  1.681399e+001  2.083255e+001
    endloop
  endfacet
  facet normal -2.939179e-001 -1.222423e-002 -9.557526e-001
    outer loop
      vertex -3.775663e+001  1.681399e+001  2.083255e+001
      vertex -3.782243e+001  1.741177e+001  2.084514e+001
      vertex -3.778156e+001  1.741347e+001  2.083255e+001
    endloop
  endfacet
  facet normal -1.232521e-001 -5.126134e-003 -9.923621e-001
    outer loop
      vertex -3.775663e+001  1.681399e+001  2.083255e+001
      vertex -3.778156e+001  1.741347e+001  2.083255e+001
      vertex -3.771420e+001  1.681575e+001  2.082727e+001
    endloop
  endfacet
  facet normal -1.232610e-001 -5.127144e-003 -9.923611e-001
    outer loop
      vertex -3.771420e+001  1.681575e+001  2.082727e+001
      vertex -3.778156e+001  1.741347e+001  2.083255e+001
      vertex -3.773913e+001  1.741524e+001  2.082727e+001
    endloop
  endfacet
endsolid CATIA STL
