solid CATIA STL
  facet normal -9.979921e-001 -4.150515e-002 -4.784580e-002
    outer loop
      vertex -4.113649e+001  1.674347e+001  2.093184e+001
      vertex -4.115727e+001  1.724304e+001  2.093184e+001
      vertex -4.113419e+001  1.674357e+001  2.088369e+001
    endloop
  endfacet
  facet normal -9.979921e-001 -4.150515e-002 -4.784580e-002
    outer loop
      vertex -4.113419e+001  1.674357e+001  2.088369e+001
      vertex -4.115727e+001  1.724304e+001  2.093184e+001
      vertex -4.115496e+001  1.724314e+001  2.088369e+001
    endloop
  endfacet
  facet normal -1.375969e-001 -5.722470e-003  9.904717e-001
    outer loop
      vertex -4.115727e+001  1.724304e+001  2.093184e+001
      vertex -4.113649e+001  1.674347e+001  2.093184e+001
      vertex -4.009639e+001  1.728716e+001  2.107947e+001
    endloop
  endfacet
  facet normal -1.375965e-001 -5.723293e-003  9.904718e-001
    outer loop
      vertex -4.009639e+001  1.728716e+001  2.107947e+001
      vertex -4.113649e+001  1.674347e+001  2.093184e+001
      vertex -4.007560e+001  1.678760e+001  2.107947e+001
    endloop
  endfacet
  facet normal -1.335563e-001 -5.555244e-003  9.910256e-001
    outer loop
      vertex -4.009639e+001  1.728716e+001  2.107947e+001
      vertex -4.007560e+001  1.678760e+001  2.107947e+001
      vertex -3.946182e+001  1.731356e+001  2.116514e+001
    endloop
  endfacet
  facet normal -1.335563e-001 -5.555244e-003  9.910256e-001
    outer loop
      vertex -3.946182e+001  1.731356e+001  2.116514e+001
      vertex -4.007560e+001  1.678760e+001  2.107947e+001
      vertex -3.944104e+001  1.681399e+001  2.116514e+001
    endloop
  endfacet
  facet normal -1.293564e-001 -5.380549e-003  9.915836e-001
    outer loop
      vertex -3.946182e+001  1.731356e+001  2.116514e+001
      vertex -3.944104e+001  1.681399e+001  2.116514e+001
      vertex -3.819197e+001  1.736637e+001  2.133108e+001
    endloop
  endfacet
  facet normal -1.293568e-001 -5.379774e-003  9.915836e-001
    outer loop
      vertex -3.819197e+001  1.736637e+001  2.133108e+001
      vertex -3.944104e+001  1.681399e+001  2.116514e+001
      vertex -3.817119e+001  1.686681e+001  2.133108e+001
    endloop
  endfacet
  facet normal -1.240743e-001 -5.160083e-003  9.922596e-001
    outer loop
      vertex -3.819197e+001  1.736637e+001  2.133108e+001
      vertex -3.817119e+001  1.686681e+001  2.133108e+001
      vertex -3.692126e+001  1.741923e+001  2.149025e+001
    endloop
  endfacet
  facet normal -1.240743e-001 -5.160083e-003  9.922596e-001
    outer loop
      vertex -3.692126e+001  1.741923e+001  2.149025e+001
      vertex -3.817119e+001  1.686681e+001  2.133108e+001
      vertex -3.690048e+001  1.691966e+001  2.149025e+001
    endloop
  endfacet
  facet normal -1.189703e-001 -4.947812e-003  9.928855e-001
    outer loop
      vertex -3.692126e+001  1.741923e+001  2.149025e+001
      vertex -3.690048e+001  1.691966e+001  2.149025e+001
      vertex -3.564974e+001  1.747211e+001  2.164287e+001
    endloop
  endfacet
  facet normal -1.189703e-001 -4.947812e-003  9.928855e-001
    outer loop
      vertex -3.564974e+001  1.747211e+001  2.164287e+001
      vertex -3.690048e+001  1.691966e+001  2.149025e+001
      vertex -3.562896e+001  1.697255e+001  2.164287e+001
    endloop
  endfacet
  facet normal -4.155626e-002  9.991361e-001  6.244700e-006
    outer loop
      vertex -4.111532e+001  1.724479e+001  2.089137e+001
      vertex -3.990060e+001  1.729531e+001  2.083988e+001
      vertex -4.008484e+001  1.728765e+001  2.083825e+001
    endloop
  endfacet
  facet normal -4.156002e-002  9.991360e-001 -6.691291e-005
    outer loop
      vertex -4.111532e+001  1.724479e+001  2.089137e+001
      vertex -4.008484e+001  1.728765e+001  2.083825e+001
      vertex -4.115496e+001  1.724314e+001  2.088369e+001
    endloop
  endfacet
  facet normal -4.157399e-002  9.991354e-001  5.350182e-006
    outer loop
      vertex -4.111532e+001  1.724479e+001  2.089137e+001
      vertex -4.115496e+001  1.724314e+001  2.088369e+001
      vertex -4.115727e+001  1.724304e+001  2.093184e+001
    endloop
  endfacet
  facet normal -4.156965e-002  9.991356e-001  9.857871e-006
    outer loop
      vertex -4.111532e+001  1.724479e+001  2.089137e+001
      vertex -4.115727e+001  1.724304e+001  2.093184e+001
      vertex -4.111707e+001  1.724471e+001  2.092799e+001
    endloop
  endfacet
  facet normal -4.156472e-002  9.991359e-001  6.143044e-005
    outer loop
      vertex -4.111707e+001  1.724471e+001  2.092799e+001
      vertex -4.115727e+001  1.724304e+001  2.093184e+001
      vertex -3.991283e+001  1.729480e+001  2.109548e+001
    endloop
  endfacet
  facet normal -4.154833e-002  9.991365e-001 -6.348448e-005
    outer loop
      vertex -3.991283e+001  1.729480e+001  2.109548e+001
      vertex -4.115727e+001  1.724304e+001  2.093184e+001
      vertex -4.009639e+001  1.728716e+001  2.107947e+001
    endloop
  endfacet
  facet normal -4.154611e-002  9.991366e-001 -8.889126e-005
    outer loop
      vertex -3.991283e+001  1.729480e+001  2.109548e+001
      vertex -4.009639e+001  1.728716e+001  2.107947e+001
      vertex -3.870765e+001  1.734493e+001  2.125603e+001
    endloop
  endfacet
  facet normal -4.157354e-002  9.991355e-001  1.271771e-004
    outer loop
      vertex -3.870765e+001  1.734493e+001  2.125603e+001
      vertex -4.009639e+001  1.728716e+001  2.107947e+001
      vertex -3.946182e+001  1.731356e+001  2.116514e+001
    endloop
  endfacet
  facet normal -4.157243e-002  9.991354e-001  1.180360e-004
    outer loop
      vertex -3.870765e+001  1.734493e+001  2.125603e+001
      vertex -3.946182e+001  1.731356e+001  2.116514e+001
      vertex -3.819197e+001  1.736637e+001  2.133108e+001
    endloop
  endfacet
  facet normal -4.155815e-002  9.991361e-001  3.463152e-006
    outer loop
      vertex -3.564974e+001  1.747211e+001  2.164287e+001
      vertex -3.564938e+001  1.747213e+001  2.163520e+001
      vertex -3.692126e+001  1.741923e+001  2.149025e+001
    endloop
  endfacet
  facet normal -4.157643e-002  9.991353e-001  1.641488e-004
    outer loop
      vertex -3.692126e+001  1.741923e+001  2.149025e+001
      vertex -3.564938e+001  1.747213e+001  2.163520e+001
      vertex -3.666932e+001  1.742971e+001  2.151308e+001
    endloop
  endfacet
  facet normal -4.157516e-002  9.991354e-001  1.500904e-004
    outer loop
      vertex -3.692126e+001  1.741923e+001  2.149025e+001
      vertex -3.666932e+001  1.742971e+001  2.151308e+001
      vertex -3.819197e+001  1.736637e+001  2.133108e+001
    endloop
  endfacet
  facet normal -4.156675e-002  9.991357e-001  7.967884e-005
    outer loop
      vertex -3.819197e+001  1.736637e+001  2.133108e+001
      vertex -3.666932e+001  1.742971e+001  2.151308e+001
      vertex -3.768876e+001  1.738730e+001  2.138672e+001
    endloop
  endfacet
  facet normal -4.156641e-002  9.991357e-001  7.656567e-005
    outer loop
      vertex -3.819197e+001  1.736637e+001  2.133108e+001
      vertex -3.768876e+001  1.738730e+001  2.138672e+001
      vertex -3.870765e+001  1.734493e+001  2.125603e+001
    endloop
  endfacet
  facet normal -4.155631e-002  9.991362e-001  1.290872e-005
    outer loop
      vertex -4.008484e+001  1.728765e+001  2.083825e+001
      vertex -3.990060e+001  1.729531e+001  2.083988e+001
      vertex -3.944499e+001  1.731426e+001  2.081370e+001
    endloop
  endfacet
  facet normal -4.155736e-002  9.991362e-001 -5.185354e-006
    outer loop
      vertex -3.944499e+001  1.731426e+001  2.081370e+001
      vertex -3.990060e+001  1.729531e+001  2.083988e+001
      vertex -3.868560e+001  1.734584e+001  2.079538e+001
    endloop
  endfacet
  facet normal -4.155917e-002  9.991360e-001 -8.049361e-005
    outer loop
      vertex -3.944499e+001  1.731426e+001  2.081370e+001
      vertex -3.868560e+001  1.734584e+001  2.079538e+001
      vertex -3.816511e+001  1.736749e+001  2.077003e+001
    endloop
  endfacet
  facet normal -4.155723e-002  9.991361e-001  3.507768e-006
    outer loop
      vertex -3.560511e+001  1.747397e+001  2.071060e+001
      vertex -3.560475e+001  1.747398e+001  2.070293e+001
      vertex -3.663206e+001  1.743126e+001  2.073456e+001
    endloop
  endfacet
  facet normal -4.155606e-002  9.991361e-001  4.135422e-005
    outer loop
      vertex -3.663206e+001  1.743126e+001  2.073456e+001
      vertex -3.560475e+001  1.747398e+001  2.070293e+001
      vertex -3.688501e+001  1.742073e+001  2.073318e+001
    endloop
  endfacet
  facet normal -4.155584e-002  9.991362e-001 -6.056413e-007
    outer loop
      vertex -3.663206e+001  1.743126e+001  2.073456e+001
      vertex -3.688501e+001  1.742073e+001  2.073318e+001
      vertex -3.765889e+001  1.738855e+001  2.076279e+001
    endloop
  endfacet
  facet normal -4.155913e-002  9.991360e-001 -8.673834e-005
    outer loop
      vertex -3.765889e+001  1.738855e+001  2.076279e+001
      vertex -3.688501e+001  1.742073e+001  2.073318e+001
      vertex -3.816511e+001  1.736749e+001  2.077003e+001
    endloop
  endfacet
  facet normal -4.155899e-002  9.991361e-001 -7.676289e-005
    outer loop
      vertex -3.765889e+001  1.738855e+001  2.076279e+001
      vertex -3.816511e+001  1.736749e+001  2.077003e+001
      vertex -3.868560e+001  1.734584e+001  2.079538e+001
    endloop
  endfacet
  facet normal -3.827890e-002 -1.592202e-003 -9.992658e-001
    outer loop
      vertex -3.944499e+001  1.731426e+001  2.081370e+001
      vertex -4.006406e+001  1.678808e+001  2.083825e+001
      vertex -4.008484e+001  1.728765e+001  2.083825e+001
    endloop
  endfacet
  facet normal -4.235277e-002 -1.761653e-003 -9.991012e-001
    outer loop
      vertex -4.008484e+001  1.728765e+001  2.083825e+001
      vertex -4.006406e+001  1.678808e+001  2.083825e+001
      vertex -4.113419e+001  1.674357e+001  2.088369e+001
    endloop
  endfacet
  facet normal -4.235290e-002 -1.761400e-003 -9.991011e-001
    outer loop
      vertex -4.008484e+001  1.728765e+001  2.083825e+001
      vertex -4.113419e+001  1.674357e+001  2.088369e+001
      vertex -4.115496e+001  1.724314e+001  2.088369e+001
    endloop
  endfacet
  facet normal -3.827890e-002 -1.592202e-003 -9.992658e-001
    outer loop
      vertex -4.006406e+001  1.678808e+001  2.083825e+001
      vertex -3.944499e+001  1.731426e+001  2.081370e+001
      vertex -3.942421e+001  1.681469e+001  2.081370e+001
    endloop
  endfacet
  facet normal -3.404450e-002 -1.416073e-003 -9.994193e-001
    outer loop
      vertex -3.942421e+001  1.681469e+001  2.081370e+001
      vertex -3.944499e+001  1.731426e+001  2.081370e+001
      vertex -3.816511e+001  1.736749e+001  2.077003e+001
    endloop
  endfacet
  facet normal -3.404459e-002 -1.415868e-003 -9.994193e-001
    outer loop
      vertex -3.942421e+001  1.681469e+001  2.081370e+001
      vertex -3.816511e+001  1.736749e+001  2.077003e+001
      vertex -3.814433e+001  1.686792e+001  2.077003e+001
    endloop
  endfacet
  facet normal -2.872172e-002 -1.194498e-003 -9.995868e-001
    outer loop
      vertex -3.814433e+001  1.686792e+001  2.077003e+001
      vertex -3.816511e+001  1.736749e+001  2.077003e+001
      vertex -3.688501e+001  1.742073e+001  2.073318e+001
    endloop
  endfacet
  facet normal -2.872172e-002 -1.194498e-003 -9.995868e-001
    outer loop
      vertex -3.814433e+001  1.686792e+001  2.077003e+001
      vertex -3.688501e+001  1.742073e+001  2.073318e+001
      vertex -3.686424e+001  1.692117e+001  2.073318e+001
    endloop
  endfacet
  facet normal -2.358093e-002 -9.806993e-004 -9.997215e-001
    outer loop
      vertex -3.686424e+001  1.692117e+001  2.073318e+001
      vertex -3.688501e+001  1.742073e+001  2.073318e+001
      vertex -3.560475e+001  1.747398e+001  2.070293e+001
    endloop
  endfacet
  facet normal -2.358087e-002 -9.808408e-004 -9.997215e-001
    outer loop
      vertex -3.686424e+001  1.692117e+001  2.073318e+001
      vertex -3.560475e+001  1.747398e+001  2.070293e+001
      vertex -3.558397e+001  1.697442e+001  2.070293e+001
    endloop
  endfacet
  facet normal  4.155736e-002 -9.991361e-001 -1.702205e-006
    outer loop
      vertex -3.817119e+001  1.686681e+001  2.133108e+001
      vertex -3.944104e+001  1.681399e+001  2.116514e+001
      vertex -3.942421e+001  1.681469e+001  2.081370e+001
    endloop
  endfacet
  facet normal  4.155653e-002 -9.991361e-001  3.003147e-007
    outer loop
      vertex -3.817119e+001  1.686681e+001  2.133108e+001
      vertex -3.942421e+001  1.681469e+001  2.081370e+001
      vertex -3.814433e+001  1.686792e+001  2.077003e+001
    endloop
  endfacet
  facet normal  4.155955e-002 -9.991360e-001  4.449026e-007
    outer loop
      vertex -3.817119e+001  1.686681e+001  2.133108e+001
      vertex -3.814433e+001  1.686792e+001  2.077003e+001
      vertex -3.795674e+001  1.687573e+001  2.106019e+001
    endloop
  endfacet
  facet normal  4.156204e-002 -9.991360e-001  2.421669e-006
    outer loop
      vertex -3.817119e+001  1.686681e+001  2.133108e+001
      vertex -3.795674e+001  1.687573e+001  2.106019e+001
      vertex -3.795512e+001  1.687579e+001  2.110585e+001
    endloop
  endfacet
  facet normal  4.155251e-002 -9.991363e-001 -6.738662e-006
    outer loop
      vertex -3.817119e+001  1.686681e+001  2.133108e+001
      vertex -3.795512e+001  1.687579e+001  2.110585e+001
      vertex -3.794598e+001  1.687617e+001  2.115062e+001
    endloop
  endfacet
  facet normal  4.154589e-002 -9.991366e-001 -1.502059e-005
    outer loop
      vertex -3.817119e+001  1.686681e+001  2.133108e+001
      vertex -3.794598e+001  1.687617e+001  2.115062e+001
      vertex -3.792956e+001  1.687686e+001  2.119324e+001
    endloop
  endfacet
  facet normal  4.156125e-002 -9.991360e-001  1.195839e-005
    outer loop
      vertex -3.817119e+001  1.686681e+001  2.133108e+001
      vertex -3.792956e+001  1.687686e+001  2.119324e+001
      vertex -3.790632e+001  1.687782e+001  2.123257e+001
    endloop
  endfacet
  facet normal  4.155384e-002 -9.991363e-001 -7.999970e-006
    outer loop
      vertex -3.817119e+001  1.686681e+001  2.133108e+001
      vertex -3.790632e+001  1.687782e+001  2.123257e+001
      vertex -3.787689e+001  1.687905e+001  2.126749e+001
    endloop
  endfacet
  facet normal  4.155968e-002 -9.991360e-001  1.909472e-005
    outer loop
      vertex -3.817119e+001  1.686681e+001  2.133108e+001
      vertex -3.787689e+001  1.687905e+001  2.126749e+001
      vertex -3.784209e+001  1.688050e+001  2.129706e+001
    endloop
  endfacet
  facet normal  4.155843e-002 -9.991360e-001  7.031243e-006
    outer loop
      vertex -3.817119e+001  1.686681e+001  2.133108e+001
      vertex -3.784209e+001  1.688050e+001  2.129706e+001
      vertex -3.780288e+001  1.688213e+001  2.132045e+001
    endloop
  endfacet
  facet normal  4.155664e-002 -9.991361e-001 -5.527604e-005
    outer loop
      vertex -3.817119e+001  1.686681e+001  2.133108e+001
      vertex -3.780288e+001  1.688213e+001  2.132045e+001
      vertex -3.776033e+001  1.688389e+001  2.133703e+001
    endloop
  endfacet
  facet normal  4.155407e-002 -9.991362e-001  1.223338e-004
    outer loop
      vertex -3.817119e+001  1.686681e+001  2.133108e+001
      vertex -3.776033e+001  1.688389e+001  2.133703e+001
      vertex -3.771564e+001  1.688576e+001  2.134632e+001
    endloop
  endfacet
  facet normal  4.155881e-002 -9.991361e-001 -1.934414e-005
    outer loop
      vertex -3.817119e+001  1.686681e+001  2.133108e+001
      vertex -3.771564e+001  1.688576e+001  2.134632e+001
      vertex -3.690048e+001  1.691966e+001  2.149025e+001
    endloop
  endfacet
  facet normal  4.155735e-002 -9.991361e-001  2.483249e-005
    outer loop
      vertex -3.814433e+001  1.686792e+001  2.077003e+001
      vertex -3.686424e+001  1.692117e+001  2.073318e+001
      vertex -3.768941e+001  1.688685e+001  2.079844e+001
    endloop
  endfacet
  facet normal  4.155853e-002 -9.991360e-001  5.915453e-006
    outer loop
      vertex -3.814433e+001  1.686792e+001  2.077003e+001
      vertex -3.768941e+001  1.688685e+001  2.079844e+001
      vertex -3.773479e+001  1.688496e+001  2.080342e+001
    endloop
  endfacet
  facet normal  4.156338e-002 -9.991358e-001 -5.378605e-005
    outer loop
      vertex -3.814433e+001  1.686792e+001  2.077003e+001
      vertex -3.773479e+001  1.688496e+001  2.080342e+001
      vertex -3.777872e+001  1.688313e+001  2.081585e+001
    endloop
  endfacet
  facet normal  4.155798e-002 -9.991361e-001 -1.049358e-005
    outer loop
      vertex -3.814433e+001  1.686792e+001  2.077003e+001
      vertex -3.777872e+001  1.688313e+001  2.081585e+001
      vertex -3.781998e+001  1.688141e+001  2.083538e+001
    endloop
  endfacet
  facet normal  4.155363e-002 -9.991363e-001  1.108895e-005
    outer loop
      vertex -3.814433e+001  1.686792e+001  2.077003e+001
      vertex -3.781998e+001  1.688141e+001  2.083538e+001
      vertex -3.785745e+001  1.687986e+001  2.086148e+001
    endloop
  endfacet
  facet normal  4.155132e-002 -9.991363e-001  1.835153e-005
    outer loop
      vertex -3.814433e+001  1.686792e+001  2.077003e+001
      vertex -3.785745e+001  1.687986e+001  2.086148e+001
      vertex -3.789008e+001  1.687850e+001  2.089343e+001
    endloop
  endfacet
  facet normal  4.155764e-002 -9.991361e-001  5.300290e-006
    outer loop
      vertex -3.814433e+001  1.686792e+001  2.077003e+001
      vertex -3.789008e+001  1.687850e+001  2.089343e+001
      vertex -3.791698e+001  1.687738e+001  2.093035e+001
    endloop
  endfacet
  facet normal  4.156968e-002 -9.991356e-001 -1.180582e-005
    outer loop
      vertex -3.814433e+001  1.686792e+001  2.077003e+001
      vertex -3.791698e+001  1.687738e+001  2.093035e+001
      vertex -3.793739e+001  1.687653e+001  2.097121e+001
    endloop
  endfacet
  facet normal  4.156829e-002 -9.991356e-001 -1.037027e-005
    outer loop
      vertex -3.814433e+001  1.686792e+001  2.077003e+001
      vertex -3.793739e+001  1.687653e+001  2.097121e+001
      vertex -3.795077e+001  1.687597e+001  2.101489e+001
    endloop
  endfacet
  facet normal  4.153256e-002 -9.991372e-001  1.792383e-005
    outer loop
      vertex -3.814433e+001  1.686792e+001  2.077003e+001
      vertex -3.795077e+001  1.687597e+001  2.101489e+001
      vertex -3.795674e+001  1.687573e+001  2.106019e+001
    endloop
  endfacet
  facet normal  4.155593e-002 -9.991361e-001  1.505327e-005
    outer loop
      vertex -3.562896e+001  1.697255e+001  2.164287e+001
      vertex -3.690048e+001  1.691966e+001  2.149025e+001
      vertex -3.562701e+001  1.697263e+001  2.160196e+001
    endloop
  endfacet
  facet normal  4.155907e-002 -9.991361e-001 -2.084466e-005
    outer loop
      vertex -3.562701e+001  1.697263e+001  2.160196e+001
      vertex -3.690048e+001  1.691966e+001  2.149025e+001
      vertex -3.771564e+001  1.688576e+001  2.134632e+001
    endloop
  endfacet
  facet normal  4.155681e-002 -9.991362e-001 -6.174250e-006
    outer loop
      vertex -4.113419e+001  1.674357e+001  2.088369e+001
      vertex -4.006406e+001  1.678808e+001  2.083825e+001
      vertex -4.113649e+001  1.674347e+001  2.093184e+001
    endloop
  endfacet
  facet normal  4.155722e-002 -9.991361e-001 -1.409683e-006
    outer loop
      vertex -4.113649e+001  1.674347e+001  2.093184e+001
      vertex -4.006406e+001  1.678808e+001  2.083825e+001
      vertex -4.007560e+001  1.678760e+001  2.107947e+001
    endloop
  endfacet
  facet normal  4.155676e-002 -9.991362e-001 -1.431969e-006
    outer loop
      vertex -4.006406e+001  1.678808e+001  2.083825e+001
      vertex -3.942421e+001  1.681469e+001  2.081370e+001
      vertex -4.007560e+001  1.678760e+001  2.107947e+001
    endloop
  endfacet
  facet normal  4.155663e-002 -9.991361e-001 -1.737146e-006
    outer loop
      vertex -4.007560e+001  1.678760e+001  2.107947e+001
      vertex -3.942421e+001  1.681469e+001  2.081370e+001
      vertex -3.944104e+001  1.681399e+001  2.116514e+001
    endloop
  endfacet
  facet normal  4.155730e-002 -9.991362e-001  1.511902e-005
    outer loop
      vertex -3.558397e+001  1.697442e+001  2.070293e+001
      vertex -3.558593e+001  1.697433e+001  2.074384e+001
      vertex -3.686424e+001  1.692117e+001  2.073318e+001
    endloop
  endfacet
  facet normal  4.155723e-002 -9.991362e-001  2.333692e-005
    outer loop
      vertex -3.686424e+001  1.692117e+001  2.073318e+001
      vertex -3.558593e+001  1.697433e+001  2.074384e+001
      vertex -3.768941e+001  1.688685e+001  2.079844e+001
    endloop
  endfacet
  facet normal  9.979965e-001  4.151142e-002  4.774811e-002
    outer loop
      vertex -3.560475e+001  1.747398e+001  2.070293e+001
      vertex -3.560511e+001  1.747397e+001  2.071060e+001
      vertex -3.558397e+001  1.697442e+001  2.070293e+001
    endloop
  endfacet
  facet normal  9.979920e-001  4.150981e-002  4.784101e-002
    outer loop
      vertex -3.558397e+001  1.697442e+001  2.070293e+001
      vertex -3.560511e+001  1.747397e+001  2.071060e+001
      vertex -3.558849e+001  1.707432e+001  2.071060e+001
    endloop
  endfacet
  facet normal  9.979905e-001  4.150701e-002  4.787661e-002
    outer loop
      vertex -3.558397e+001  1.697442e+001  2.070293e+001
      vertex -3.558849e+001  1.707432e+001  2.071060e+001
      vertex -3.558593e+001  1.697433e+001  2.074384e+001
    endloop
  endfacet
  facet normal  9.979885e-001  4.151745e-002  4.790815e-002
    outer loop
      vertex -3.558593e+001  1.697433e+001  2.074384e+001
      vertex -3.558849e+001  1.707432e+001  2.071060e+001
      vertex -3.559008e+001  1.707425e+001  2.074384e+001
    endloop
  endfacet
  facet normal  9.979901e-001  4.151751e-002  4.787660e-002
    outer loop
      vertex -3.562701e+001  1.697263e+001  2.160196e+001
      vertex -3.563116e+001  1.707254e+001  2.160196e+001
      vertex -3.562896e+001  1.697255e+001  2.164287e+001
    endloop
  endfacet
  facet normal  9.979939e-001  4.149322e-002  4.781703e-002
    outer loop
      vertex -3.562896e+001  1.697255e+001  2.164287e+001
      vertex -3.563116e+001  1.707254e+001  2.160196e+001
      vertex -3.563275e+001  1.707247e+001  2.163520e+001
    endloop
  endfacet
  facet normal  9.979860e-001  4.150489e-002  4.797307e-002
    outer loop
      vertex -3.562896e+001  1.697255e+001  2.164287e+001
      vertex -3.563275e+001  1.707247e+001  2.163520e+001
      vertex -3.564974e+001  1.747211e+001  2.164287e+001
    endloop
  endfacet
  facet normal  9.979970e-001  4.150986e-002  4.773863e-002
    outer loop
      vertex -3.564974e+001  1.747211e+001  2.164287e+001
      vertex -3.563275e+001  1.707247e+001  2.163520e+001
      vertex -3.564938e+001  1.747213e+001  2.163520e+001
    endloop
  endfacet
  facet normal -4.151615e-002  9.991378e-001  8.818437e-005
    outer loop
      vertex -3.764227e+001  1.698889e+001  2.076279e+001
      vertex -3.778288e+001  1.698305e+001  2.081585e+001
      vertex -3.773895e+001  1.698487e+001  2.080342e+001
    endloop
  endfacet
  facet normal -4.156332e-002  9.991358e-001 -2.426796e-005
    outer loop
      vertex -3.764227e+001  1.698889e+001  2.076279e+001
      vertex -3.773895e+001  1.698487e+001  2.080342e+001
      vertex -3.769357e+001  1.698676e+001  2.079844e+001
    endloop
  endfacet
  facet normal -4.163784e-002  9.991328e-001  1.644261e-004
    outer loop
      vertex -3.776449e+001  1.698381e+001  2.133703e+001
      vertex -3.780703e+001  1.698204e+001  2.132045e+001
      vertex -3.767213e+001  1.698765e+001  2.138672e+001
    endloop
  endfacet
  facet normal -4.155495e-002  9.991362e-001 -1.548804e-005
    outer loop
      vertex -3.563116e+001  1.707254e+001  2.160196e+001
      vertex -3.665270e+001  1.703005e+001  2.151308e+001
      vertex -3.563275e+001  1.707247e+001  2.163520e+001
    endloop
  endfacet
  facet normal -4.155729e-002  9.991361e-001 -3.445382e-006
    outer loop
      vertex -3.866897e+001  1.694619e+001  2.079538e+001
      vertex -3.988397e+001  1.689565e+001  2.083988e+001
      vertex -3.989621e+001  1.689515e+001  2.109548e+001
    endloop
  endfacet
  facet normal -4.155653e-002  9.991362e-001 -3.115347e-007
    outer loop
      vertex -3.866897e+001  1.694619e+001  2.079538e+001
      vertex -3.989621e+001  1.689515e+001  2.109548e+001
      vertex -3.869102e+001  1.694527e+001  2.125603e+001
    endloop
  endfacet
  facet normal -4.155742e-002  9.991361e-001 -3.544881e-007
    outer loop
      vertex -3.866897e+001  1.694619e+001  2.079538e+001
      vertex -3.869102e+001  1.694527e+001  2.125603e+001
      vertex -3.782414e+001  1.698133e+001  2.083538e+001
    endloop
  endfacet
  facet normal -4.155793e-002  9.991361e-001  1.056854e-005
    outer loop
      vertex -3.866897e+001  1.694619e+001  2.079538e+001
      vertex -3.782414e+001  1.698133e+001  2.083538e+001
      vertex -3.778288e+001  1.698305e+001  2.081585e+001
    endloop
  endfacet
  facet normal -4.155721e-002  9.991361e-001 -2.083135e-005
    outer loop
      vertex -3.866897e+001  1.694619e+001  2.079538e+001
      vertex -3.778288e+001  1.698305e+001  2.081585e+001
      vertex -3.764227e+001  1.698889e+001  2.076279e+001
    endloop
  endfacet
  facet normal -4.155639e-002  9.991361e-001 -1.664066e-006
    outer loop
      vertex -3.869102e+001  1.694527e+001  2.125603e+001
      vertex -3.767213e+001  1.698765e+001  2.138672e+001
      vertex -3.780703e+001  1.698204e+001  2.132045e+001
    endloop
  endfacet
  facet normal -4.155566e-002  9.991361e-001 -1.168467e-005
    outer loop
      vertex -3.869102e+001  1.694527e+001  2.125603e+001
      vertex -3.780703e+001  1.698204e+001  2.132045e+001
      vertex -3.784624e+001  1.698041e+001  2.129706e+001
    endloop
  endfacet
  facet normal -4.155791e-002  9.991361e-001  3.466971e-005
    outer loop
      vertex -3.869102e+001  1.694527e+001  2.125603e+001
      vertex -3.784624e+001  1.698041e+001  2.129706e+001
      vertex -3.788104e+001  1.697896e+001  2.126749e+001
    endloop
  endfacet
  facet normal -4.155691e-002  9.991361e-001 -3.669329e-005
    outer loop
      vertex -3.869102e+001  1.694527e+001  2.125603e+001
      vertex -3.788104e+001  1.697896e+001  2.126749e+001
      vertex -3.791047e+001  1.697774e+001  2.123257e+001
    endloop
  endfacet
  facet normal -4.155501e-002  9.991362e-001  2.634595e-005
    outer loop
      vertex -3.869102e+001  1.694527e+001  2.125603e+001
      vertex -3.791047e+001  1.697774e+001  2.123257e+001
      vertex -3.793372e+001  1.697677e+001  2.119324e+001
    endloop
  endfacet
  facet normal -4.155851e-002  9.991360e-001 -1.587209e-005
    outer loop
      vertex -3.869102e+001  1.694527e+001  2.125603e+001
      vertex -3.793372e+001  1.697677e+001  2.119324e+001
      vertex -3.795014e+001  1.697609e+001  2.115062e+001
    endloop
  endfacet
  facet normal -4.155522e-002  9.991363e-001  7.292643e-006
    outer loop
      vertex -3.869102e+001  1.694527e+001  2.125603e+001
      vertex -3.795014e+001  1.697609e+001  2.115062e+001
      vertex -3.795928e+001  1.697571e+001  2.110585e+001
    endloop
  endfacet
  facet normal -4.155780e-002  9.991361e-001 -5.348921e-006
    outer loop
      vertex -3.869102e+001  1.694527e+001  2.125603e+001
      vertex -3.795928e+001  1.697571e+001  2.110585e+001
      vertex -3.796089e+001  1.697564e+001  2.106019e+001
    endloop
  endfacet
  facet normal -4.155210e-002  9.991363e-001  1.595398e-005
    outer loop
      vertex -3.869102e+001  1.694527e+001  2.125603e+001
      vertex -3.796089e+001  1.697564e+001  2.106019e+001
      vertex -3.795493e+001  1.697589e+001  2.101489e+001
    endloop
  endfacet
  facet normal -4.156501e-002  9.991359e-001 -2.352470e-005
    outer loop
      vertex -3.869102e+001  1.694527e+001  2.125603e+001
      vertex -3.795493e+001  1.697589e+001  2.101489e+001
      vertex -3.794155e+001  1.697644e+001  2.097121e+001
    endloop
  endfacet
  facet normal -4.154737e-002  9.991366e-001  2.297265e-005
    outer loop
      vertex -3.869102e+001  1.694527e+001  2.125603e+001
      vertex -3.794155e+001  1.697644e+001  2.097121e+001
      vertex -3.792113e+001  1.697729e+001  2.093035e+001
    endloop
  endfacet
  facet normal -4.156006e-002  9.991360e-001 -7.061647e-006
    outer loop
      vertex -3.869102e+001  1.694527e+001  2.125603e+001
      vertex -3.792113e+001  1.697729e+001  2.093035e+001
      vertex -3.789424e+001  1.697841e+001  2.089343e+001
    endloop
  endfacet
  facet normal -4.157722e-002  9.991353e-001 -4.485868e-005
    outer loop
      vertex -3.869102e+001  1.694527e+001  2.125603e+001
      vertex -3.789424e+001  1.697841e+001  2.089343e+001
      vertex -3.786161e+001  1.697977e+001  2.086148e+001
    endloop
  endfacet
  facet normal -4.149002e-002  9.991389e-001  1.387849e-004
    outer loop
      vertex -3.869102e+001  1.694527e+001  2.125603e+001
      vertex -3.786161e+001  1.697977e+001  2.086148e+001
      vertex -3.782414e+001  1.698133e+001  2.083538e+001
    endloop
  endfacet
  facet normal -4.155666e-002  9.991361e-001 -3.415431e-006
    outer loop
      vertex -3.988397e+001  1.689565e+001  2.083988e+001
      vertex -4.109870e+001  1.684513e+001  2.089137e+001
      vertex -3.989621e+001  1.689515e+001  2.109548e+001
    endloop
  endfacet
  facet normal -4.155900e-002  9.991360e-001  1.036835e-005
    outer loop
      vertex -3.989621e+001  1.689515e+001  2.109548e+001
      vertex -4.109870e+001  1.684513e+001  2.089137e+001
      vertex -4.110045e+001  1.684506e+001  2.092799e+001
    endloop
  endfacet
  facet normal -4.155669e-002  9.991361e-001  2.647586e-005
    outer loop
      vertex -3.558849e+001  1.707432e+001  2.071060e+001
      vertex -3.661543e+001  1.703160e+001  2.073456e+001
      vertex -3.559008e+001  1.707425e+001  2.074384e+001
    endloop
  endfacet
  facet normal -4.155667e-002  9.991362e-001  2.324703e-005
    outer loop
      vertex -3.559008e+001  1.707425e+001  2.074384e+001
      vertex -3.661543e+001  1.703160e+001  2.073456e+001
      vertex -3.764227e+001  1.698889e+001  2.076279e+001
    endloop
  endfacet
  facet normal -4.155702e-002  9.991361e-001 -1.517657e-005
    outer loop
      vertex -3.559008e+001  1.707425e+001  2.074384e+001
      vertex -3.764227e+001  1.698889e+001  2.076279e+001
      vertex -3.769357e+001  1.698676e+001  2.079844e+001
    endloop
  endfacet
  facet normal -4.154283e-002  9.991367e-001 -1.245426e-005
    outer loop
      vertex -3.776449e+001  1.698381e+001  2.133703e+001
      vertex -3.767213e+001  1.698765e+001  2.138672e+001
      vertex -3.771980e+001  1.698567e+001  2.134632e+001
    endloop
  endfacet
  facet normal -4.155750e-002  9.991361e-001  4.874916e-006
    outer loop
      vertex -3.771980e+001  1.698567e+001  2.134632e+001
      vertex -3.767213e+001  1.698765e+001  2.138672e+001
      vertex -3.665270e+001  1.703005e+001  2.151308e+001
    endloop
  endfacet
  facet normal -4.155575e-002  9.991362e-001 -6.302129e-006
    outer loop
      vertex -3.771980e+001  1.698567e+001  2.134632e+001
      vertex -3.665270e+001  1.703005e+001  2.151308e+001
      vertex -3.563116e+001  1.707254e+001  2.160196e+001
    endloop
  endfacet
  facet normal  2.590652e-002  1.077740e-003  9.996638e-001
    outer loop
      vertex -3.559008e+001  1.707425e+001  2.074384e+001
      vertex -3.769357e+001  1.698676e+001  2.079844e+001
      vertex -3.558593e+001  1.697433e+001  2.074384e+001
    endloop
  endfacet
  facet normal  2.590652e-002  1.077740e-003  9.996638e-001
    outer loop
      vertex -3.558593e+001  1.697433e+001  2.074384e+001
      vertex -3.769357e+001  1.698676e+001  2.079844e+001
      vertex -3.768941e+001  1.688685e+001  2.079844e+001
    endloop
  endfacet
  facet normal  9.985132e-001  4.153927e-002 -3.529801e-002
    outer loop
      vertex -3.795674e+001  1.687573e+001  2.106019e+001
      vertex -3.795928e+001  1.697571e+001  2.110585e+001
      vertex -3.795512e+001  1.687579e+001  2.110585e+001
    endloop
  endfacet
  facet normal  9.788903e-001  4.072294e-002 -2.002881e-001
    outer loop
      vertex -3.795512e+001  1.687579e+001  2.110585e+001
      vertex -3.795928e+001  1.697571e+001  2.110585e+001
      vertex -3.795014e+001  1.697609e+001  2.115062e+001
    endloop
  endfacet
  facet normal  9.788903e-001  4.072294e-002 -2.002881e-001
    outer loop
      vertex -3.795512e+001  1.687579e+001  2.110585e+001
      vertex -3.795014e+001  1.697609e+001  2.115062e+001
      vertex -3.794598e+001  1.687617e+001  2.115062e+001
    endloop
  endfacet
  facet normal  9.322711e-001  3.878352e-002 -3.596754e-001
    outer loop
      vertex -3.794598e+001  1.687617e+001  2.115062e+001
      vertex -3.795014e+001  1.697609e+001  2.115062e+001
      vertex -3.793372e+001  1.697677e+001  2.119324e+001
    endloop
  endfacet
  facet normal  9.322716e-001  3.878295e-002 -3.596742e-001
    outer loop
      vertex -3.794598e+001  1.687617e+001  2.115062e+001
      vertex -3.793372e+001  1.697677e+001  2.119324e+001
      vertex -3.792956e+001  1.687686e+001  2.119324e+001
    endloop
  endfacet
  facet normal  8.598694e-001  3.577099e-002 -5.092593e-001
    outer loop
      vertex -3.792956e+001  1.687686e+001  2.119324e+001
      vertex -3.793372e+001  1.697677e+001  2.119324e+001
      vertex -3.791047e+001  1.697774e+001  2.123257e+001
    endloop
  endfacet
  facet normal  8.598990e-001  3.574650e-002 -5.092109e-001
    outer loop
      vertex -3.792956e+001  1.687686e+001  2.119324e+001
      vertex -3.791047e+001  1.697774e+001  2.123257e+001
      vertex -3.790632e+001  1.687782e+001  2.123257e+001
    endloop
  endfacet
  facet normal  7.637945e-001  3.175138e-002 -6.446781e-001
    outer loop
      vertex -3.790632e+001  1.687782e+001  2.123257e+001
      vertex -3.791047e+001  1.697774e+001  2.123257e+001
      vertex -3.788104e+001  1.697896e+001  2.126749e+001
    endloop
  endfacet
  facet normal  7.637613e-001  3.177284e-002 -6.447162e-001
    outer loop
      vertex -3.790632e+001  1.687782e+001  2.123257e+001
      vertex -3.788104e+001  1.697896e+001  2.126749e+001
      vertex -3.787689e+001  1.687905e+001  2.126749e+001
    endloop
  endfacet
  facet normal  6.465939e-001  2.689862e-002 -7.623600e-001
    outer loop
      vertex -3.787689e+001  1.687905e+001  2.126749e+001
      vertex -3.788104e+001  1.697896e+001  2.126749e+001
      vertex -3.784624e+001  1.698041e+001  2.129706e+001
    endloop
  endfacet
  facet normal  6.466269e-001  2.688066e-002 -7.623327e-001
    outer loop
      vertex -3.787689e+001  1.687905e+001  2.126749e+001
      vertex -3.784624e+001  1.698041e+001  2.129706e+001
      vertex -3.784209e+001  1.688050e+001  2.129706e+001
    endloop
  endfacet
  facet normal  5.115436e-001  2.126516e-002 -8.589941e-001
    outer loop
      vertex -3.784209e+001  1.688050e+001  2.129706e+001
      vertex -3.784624e+001  1.698041e+001  2.129706e+001
      vertex -3.780703e+001  1.698204e+001  2.132045e+001
    endloop
  endfacet
  facet normal  5.115436e-001  2.126516e-002 -8.589941e-001
    outer loop
      vertex -3.784209e+001  1.688050e+001  2.129706e+001
      vertex -3.780703e+001  1.698204e+001  2.132045e+001
      vertex -3.780288e+001  1.688213e+001  2.132045e+001
    endloop
  endfacet
  facet normal  3.624284e-001  1.506636e-002 -9.318898e-001
    outer loop
      vertex -3.780288e+001  1.688213e+001  2.132045e+001
      vertex -3.780703e+001  1.698204e+001  2.132045e+001
      vertex -3.776449e+001  1.698381e+001  2.133703e+001
    endloop
  endfacet
  facet normal  3.624059e-001  1.507626e-002 -9.318985e-001
    outer loop
      vertex -3.780288e+001  1.688213e+001  2.132045e+001
      vertex -3.776449e+001  1.698381e+001  2.133703e+001
      vertex -3.776033e+001  1.688389e+001  2.133703e+001
    endloop
  endfacet
  facet normal  2.032416e-001  8.454949e-003 -9.790921e-001
    outer loop
      vertex -3.776033e+001  1.688389e+001  2.133703e+001
      vertex -3.776449e+001  1.698381e+001  2.133703e+001
      vertex -3.771980e+001  1.698567e+001  2.134632e+001
    endloop
  endfacet
  facet normal  2.032413e-001  8.455066e-003 -9.790922e-001
    outer loop
      vertex -3.776033e+001  1.688389e+001  2.133703e+001
      vertex -3.771980e+001  1.698567e+001  2.134632e+001
      vertex -3.771564e+001  1.688576e+001  2.134632e+001
    endloop
  endfacet
  facet normal  9.985168e-001  4.150892e-002 -3.523136e-002
    outer loop
      vertex -3.795928e+001  1.697571e+001  2.110585e+001
      vertex -3.795674e+001  1.687573e+001  2.106019e+001
      vertex -3.796089e+001  1.697564e+001  2.106019e+001
    endloop
  endfacet
  facet normal  9.905672e-001  4.117846e-002  1.306942e-001
    outer loop
      vertex -3.796089e+001  1.697564e+001  2.106019e+001
      vertex -3.795674e+001  1.687573e+001  2.106019e+001
      vertex -3.795077e+001  1.687597e+001  2.101489e+001
    endloop
  endfacet
  facet normal  9.905744e-001  4.120838e-002  1.306300e-001
    outer loop
      vertex -3.796089e+001  1.697564e+001  2.106019e+001
      vertex -3.795077e+001  1.687597e+001  2.101489e+001
      vertex -3.795493e+001  1.697589e+001  2.101489e+001
    endloop
  endfacet
  facet normal  9.552809e-001  3.974015e-002  2.930172e-001
    outer loop
      vertex -3.795493e+001  1.697589e+001  2.101489e+001
      vertex -3.795077e+001  1.687597e+001  2.101489e+001
      vertex -3.793739e+001  1.687653e+001  2.097121e+001
    endloop
  endfacet
  facet normal  9.552813e-001  3.974077e-002  2.930160e-001
    outer loop
      vertex -3.795493e+001  1.697589e+001  2.101489e+001
      vertex -3.793739e+001  1.687653e+001  2.097121e+001
      vertex -3.794155e+001  1.697644e+001  2.097121e+001
    endloop
  endfacet
  facet normal  8.936330e-001  3.717614e-002  4.472560e-001
    outer loop
      vertex -3.794155e+001  1.697644e+001  2.097121e+001
      vertex -3.793739e+001  1.687653e+001  2.097121e+001
      vertex -3.791698e+001  1.687738e+001  2.093035e+001
    endloop
  endfacet
  facet normal  8.936330e-001  3.717614e-002  4.472560e-001
    outer loop
      vertex -3.794155e+001  1.697644e+001  2.097121e+001
      vertex -3.791698e+001  1.687738e+001  2.093035e+001
      vertex -3.792113e+001  1.697729e+001  2.093035e+001
    endloop
  endfacet
  facet normal  8.073128e-001  3.358512e-002  5.891673e-001
    outer loop
      vertex -3.792113e+001  1.697729e+001  2.093035e+001
      vertex -3.791698e+001  1.687738e+001  2.093035e+001
      vertex -3.789008e+001  1.687850e+001  2.089343e+001
    endloop
  endfacet
  facet normal  8.073128e-001  3.358512e-002  5.891673e-001
    outer loop
      vertex -3.792113e+001  1.697729e+001  2.093035e+001
      vertex -3.789008e+001  1.687850e+001  2.089343e+001
      vertex -3.789424e+001  1.697841e+001  2.089343e+001
    endloop
  endfacet
  facet normal  6.986872e-001  2.906617e-002  7.148367e-001
    outer loop
      vertex -3.789424e+001  1.697841e+001  2.089343e+001
      vertex -3.789008e+001  1.687850e+001  2.089343e+001
      vertex -3.785745e+001  1.687986e+001  2.086148e+001
    endloop
  endfacet
  facet normal  6.986872e-001  2.906617e-002  7.148367e-001
    outer loop
      vertex -3.789424e+001  1.697841e+001  2.089343e+001
      vertex -3.785745e+001  1.687986e+001  2.086148e+001
      vertex -3.786161e+001  1.697977e+001  2.086148e+001
    endloop
  endfacet
  facet normal  5.708002e-001  2.374593e-002  8.207455e-001
    outer loop
      vertex -3.786161e+001  1.697977e+001  2.086148e+001
      vertex -3.785745e+001  1.687986e+001  2.086148e+001
      vertex -3.781998e+001  1.688141e+001  2.083538e+001
    endloop
  endfacet
  facet normal  5.707996e-001  2.374554e-002  8.207460e-001
    outer loop
      vertex -3.786161e+001  1.697977e+001  2.086148e+001
      vertex -3.781998e+001  1.688141e+001  2.083538e+001
      vertex -3.782414e+001  1.698133e+001  2.083538e+001
    endloop
  endfacet
  facet normal  4.271877e-001  1.777122e-002  9.039883e-001
    outer loop
      vertex -3.782414e+001  1.698133e+001  2.083538e+001
      vertex -3.781998e+001  1.688141e+001  2.083538e+001
      vertex -3.777872e+001  1.688313e+001  2.081585e+001
    endloop
  endfacet
  facet normal  4.271877e-001  1.777122e-002  9.039883e-001
    outer loop
      vertex -3.782414e+001  1.698133e+001  2.083538e+001
      vertex -3.777872e+001  1.688313e+001  2.081585e+001
      vertex -3.778288e+001  1.698305e+001  2.081585e+001
    endloop
  endfacet
  facet normal  2.717288e-001  1.130405e-002  9.623075e-001
    outer loop
      vertex -3.778288e+001  1.698305e+001  2.081585e+001
      vertex -3.777872e+001  1.688313e+001  2.081585e+001
      vertex -3.773479e+001  1.688496e+001  2.080342e+001
    endloop
  endfacet
  facet normal  2.717120e-001  1.129523e-002  9.623123e-001
    outer loop
      vertex -3.778288e+001  1.698305e+001  2.081585e+001
      vertex -3.773479e+001  1.688496e+001  2.080342e+001
      vertex -3.773895e+001  1.698487e+001  2.080342e+001
    endloop
  endfacet
  facet normal  1.087770e-001  4.521924e-003  9.940559e-001
    outer loop
      vertex -3.773895e+001  1.698487e+001  2.080342e+001
      vertex -3.773479e+001  1.688496e+001  2.080342e+001
      vertex -3.768941e+001  1.688685e+001  2.079844e+001
    endloop
  endfacet
  facet normal  1.087841e-001  4.525540e-003  9.940550e-001
    outer loop
      vertex -3.773895e+001  1.698487e+001  2.080342e+001
      vertex -3.768941e+001  1.688685e+001  2.079844e+001
      vertex -3.769357e+001  1.698676e+001  2.079844e+001
    endloop
  endfacet
  facet normal  1.212794e-001  5.045359e-003 -9.926056e-001
    outer loop
      vertex -3.563116e+001  1.707254e+001  2.160196e+001
      vertex -3.562701e+001  1.697263e+001  2.160196e+001
      vertex -3.771980e+001  1.698567e+001  2.134632e+001
    endloop
  endfacet
  facet normal  1.212794e-001  5.045359e-003 -9.926056e-001
    outer loop
      vertex -3.771980e+001  1.698567e+001  2.134632e+001
      vertex -3.562701e+001  1.697263e+001  2.160196e+001
      vertex -3.771564e+001  1.688576e+001  2.134632e+001
    endloop
  endfacet
  facet normal  2.743620e-002  1.141163e-003  9.996229e-001
    outer loop
      vertex -3.765889e+001  1.738855e+001  2.076279e+001
      vertex -3.661543e+001  1.703160e+001  2.073456e+001
      vertex -3.663206e+001  1.743126e+001  2.073456e+001
    endloop
  endfacet
  facet normal  2.328707e-002  9.685869e-004  9.997283e-001
    outer loop
      vertex -3.663206e+001  1.743126e+001  2.073456e+001
      vertex -3.661543e+001  1.703160e+001  2.073456e+001
      vertex -3.558849e+001  1.707432e+001  2.071060e+001
    endloop
  endfacet
  facet normal  2.328707e-002  9.685869e-004  9.997283e-001
    outer loop
      vertex -3.663206e+001  1.743126e+001  2.073456e+001
      vertex -3.558849e+001  1.707432e+001  2.071060e+001
      vertex -3.560511e+001  1.747397e+001  2.071060e+001
    endloop
  endfacet
  facet normal  2.743620e-002  1.141159e-003  9.996229e-001
    outer loop
      vertex -3.661543e+001  1.703160e+001  2.073456e+001
      vertex -3.765889e+001  1.738855e+001  2.076279e+001
      vertex -3.764227e+001  1.698889e+001  2.076279e+001
    endloop
  endfacet
  facet normal  3.167276e-002  1.317371e-003  9.994974e-001
    outer loop
      vertex -3.764227e+001  1.698889e+001  2.076279e+001
      vertex -3.765889e+001  1.738855e+001  2.076279e+001
      vertex -3.868560e+001  1.734584e+001  2.079538e+001
    endloop
  endfacet
  facet normal  3.167276e-002  1.317371e-003  9.994974e-001
    outer loop
      vertex -3.764227e+001  1.698889e+001  2.076279e+001
      vertex -3.868560e+001  1.734584e+001  2.079538e+001
      vertex -3.866897e+001  1.694619e+001  2.079538e+001
    endloop
  endfacet
  facet normal  3.653717e-002  1.519697e-003  9.993311e-001
    outer loop
      vertex -3.866897e+001  1.694619e+001  2.079538e+001
      vertex -3.868560e+001  1.734584e+001  2.079538e+001
      vertex -3.990060e+001  1.729531e+001  2.083988e+001
    endloop
  endfacet
  facet normal  3.653717e-002  1.519697e-003  9.993311e-001
    outer loop
      vertex -3.866897e+001  1.694619e+001  2.079538e+001
      vertex -3.990060e+001  1.729531e+001  2.083988e+001
      vertex -3.988397e+001  1.689565e+001  2.083988e+001
    endloop
  endfacet
  facet normal  4.227774e-002  1.758465e-003  9.991044e-001
    outer loop
      vertex -3.988397e+001  1.689565e+001  2.083988e+001
      vertex -3.990060e+001  1.729531e+001  2.083988e+001
      vertex -4.111532e+001  1.724479e+001  2.089137e+001
    endloop
  endfacet
  facet normal  4.227774e-002  1.758465e-003  9.991044e-001
    outer loop
      vertex -3.988397e+001  1.689565e+001  2.083988e+001
      vertex -4.111532e+001  1.724479e+001  2.089137e+001
      vertex -4.109870e+001  1.684513e+001  2.089137e+001
    endloop
  endfacet
  facet normal  9.979927e-001  4.150968e-002  4.782831e-002
    outer loop
      vertex -4.111532e+001  1.724479e+001  2.089137e+001
      vertex -4.111707e+001  1.724471e+001  2.092799e+001
      vertex -4.109870e+001  1.684513e+001  2.089137e+001
    endloop
  endfacet
  facet normal  9.979927e-001  4.150968e-002  4.782831e-002
    outer loop
      vertex -4.109870e+001  1.684513e+001  2.089137e+001
      vertex -4.111707e+001  1.724471e+001  2.092799e+001
      vertex -4.110045e+001  1.684506e+001  2.092799e+001
    endloop
  endfacet
  facet normal  1.186777e-001  4.936180e-003 -9.929206e-001
    outer loop
      vertex -3.564938e+001  1.747213e+001  2.163520e+001
      vertex -3.563275e+001  1.707247e+001  2.163520e+001
      vertex -3.666932e+001  1.742971e+001  2.151308e+001
    endloop
  endfacet
  facet normal  1.186777e-001  4.936180e-003 -9.929206e-001
    outer loop
      vertex -3.666932e+001  1.742971e+001  2.151308e+001
      vertex -3.563275e+001  1.707247e+001  2.163520e+001
      vertex -3.665270e+001  1.703005e+001  2.151308e+001
    endloop
  endfacet
  facet normal  1.227971e-001  5.107521e-003 -9.924186e-001
    outer loop
      vertex -3.666932e+001  1.742971e+001  2.151308e+001
      vertex -3.665270e+001  1.703005e+001  2.151308e+001
      vertex -3.768876e+001  1.738730e+001  2.138672e+001
    endloop
  endfacet
  facet normal  1.227971e-001  5.107521e-003 -9.924186e-001
    outer loop
      vertex -3.768876e+001  1.738730e+001  2.138672e+001
      vertex -3.665270e+001  1.703005e+001  2.151308e+001
      vertex -3.767213e+001  1.698765e+001  2.138672e+001
    endloop
  endfacet
  facet normal  1.270038e-001  5.282491e-003 -9.918881e-001
    outer loop
      vertex -3.768876e+001  1.738730e+001  2.138672e+001
      vertex -3.767213e+001  1.698765e+001  2.138672e+001
      vertex -3.870765e+001  1.734493e+001  2.125603e+001
    endloop
  endfacet
  facet normal  1.270038e-001  5.282491e-003 -9.918881e-001
    outer loop
      vertex -3.870765e+001  1.734493e+001  2.125603e+001
      vertex -3.767213e+001  1.698765e+001  2.138672e+001
      vertex -3.869102e+001  1.694527e+001  2.125603e+001
    endloop
  endfacet
  facet normal  1.318299e-001  5.483222e-003 -9.912572e-001
    outer loop
      vertex -3.870765e+001  1.734493e+001  2.125603e+001
      vertex -3.869102e+001  1.694527e+001  2.125603e+001
      vertex -3.991283e+001  1.729480e+001  2.109548e+001
    endloop
  endfacet
  facet normal  1.318296e-001  5.482225e-003 -9.912571e-001
    outer loop
      vertex -3.991283e+001  1.729480e+001  2.109548e+001
      vertex -3.869102e+001  1.694527e+001  2.125603e+001
      vertex -3.989621e+001  1.689515e+001  2.109548e+001
    endloop
  endfacet
  facet normal  1.375214e-001  5.718924e-003 -9.904823e-001
    outer loop
      vertex -3.991283e+001  1.729480e+001  2.109548e+001
      vertex -3.989621e+001  1.689515e+001  2.109548e+001
      vertex -4.111707e+001  1.724471e+001  2.092799e+001
    endloop
  endfacet
  facet normal  1.375217e-001  5.719964e-003 -9.904823e-001
    outer loop
      vertex -4.111707e+001  1.724471e+001  2.092799e+001
      vertex -3.989621e+001  1.689515e+001  2.109548e+001
      vertex -4.110045e+001  1.684506e+001  2.092799e+001
    endloop
  endfacet
endsolid CATIA STL
