solid CATIA STL
  facet normal -9.979888e-001 -4.151111e-002 -4.790859e-002
    outer loop
      vertex -4.070430e+001  6.352456e+000  2.093184e+001
      vertex -4.070199e+001  6.352551e+000  2.088369e+001
      vertex -4.068352e+001  5.852888e+000  2.093184e+001
    endloop
  endfacet
  facet normal -9.979921e-001 -4.150515e-002 -4.784548e-002
    outer loop
      vertex -4.068352e+001  5.852888e+000  2.093184e+001
      vertex -4.070199e+001  6.352551e+000  2.088369e+001
      vertex -4.068122e+001  5.852983e+000  2.088369e+001
    endloop
  endfacet
  facet normal -1.335563e-001 -5.555244e-003  9.910257e-001
    outer loop
      vertex -3.898807e+001  5.923406e+000  2.116514e+001
      vertex -3.964341e+001  6.396581e+000  2.107947e+001
      vertex -3.962263e+001  5.897012e+000  2.107947e+001
    endloop
  endfacet
  facet normal -1.375965e-001 -5.723293e-003  9.904718e-001
    outer loop
      vertex -3.962263e+001  5.897012e+000  2.107947e+001
      vertex -3.964341e+001  6.396581e+000  2.107947e+001
      vertex -4.070430e+001  6.352456e+000  2.093184e+001
    endloop
  endfacet
  facet normal -1.375965e-001 -5.723293e-003  9.904718e-001
    outer loop
      vertex -3.962263e+001  5.897012e+000  2.107947e+001
      vertex -4.070430e+001  6.352456e+000  2.093184e+001
      vertex -4.068352e+001  5.852888e+000  2.093184e+001
    endloop
  endfacet
  facet normal -1.335563e-001 -5.555248e-003  9.910257e-001
    outer loop
      vertex -3.964341e+001  6.396581e+000  2.107947e+001
      vertex -3.898807e+001  5.923406e+000  2.116514e+001
      vertex -3.900885e+001  6.422974e+000  2.116514e+001
    endloop
  endfacet
  facet normal -1.293567e-001 -5.380567e-003  9.915836e-001
    outer loop
      vertex -3.900885e+001  6.422974e+000  2.116514e+001
      vertex -3.898807e+001  5.923406e+000  2.116514e+001
      vertex -3.771822e+001  5.976223e+000  2.133108e+001
    endloop
  endfacet
  facet normal -1.293565e-001 -5.379761e-003  9.915836e-001
    outer loop
      vertex -3.900885e+001  6.422974e+000  2.116514e+001
      vertex -3.771822e+001  5.976223e+000  2.133108e+001
      vertex -3.773900e+001  6.475791e+000  2.133108e+001
    endloop
  endfacet
  facet normal -1.240743e-001 -5.160083e-003  9.922596e-001
    outer loop
      vertex -3.773900e+001  6.475791e+000  2.133108e+001
      vertex -3.771822e+001  5.976223e+000  2.133108e+001
      vertex -3.644751e+001  6.029075e+000  2.149025e+001
    endloop
  endfacet
  facet normal -1.240743e-001 -5.160078e-003  9.922595e-001
    outer loop
      vertex -3.773900e+001  6.475791e+000  2.133108e+001
      vertex -3.644751e+001  6.029075e+000  2.149025e+001
      vertex -3.646829e+001  6.528643e+000  2.149025e+001
    endloop
  endfacet
  facet normal -1.189703e-001 -4.947809e-003  9.928855e-001
    outer loop
      vertex -3.646829e+001  6.528643e+000  2.149025e+001
      vertex -3.644751e+001  6.029075e+000  2.149025e+001
      vertex -3.517599e+001  6.081960e+000  2.164287e+001
    endloop
  endfacet
  facet normal -1.189703e-001 -4.947812e-003  9.928855e-001
    outer loop
      vertex -3.646829e+001  6.528643e+000  2.149025e+001
      vertex -3.517599e+001  6.081960e+000  2.164287e+001
      vertex -3.519677e+001  6.581529e+000  2.164287e+001
    endloop
  endfacet
  facet normal  4.156148e-002 -9.991360e-001  3.623687e-006
    outer loop
      vertex -4.064157e+001  5.854632e+000  2.089137e+001
      vertex -4.064333e+001  5.854559e+000  2.092799e+001
      vertex -4.068352e+001  5.852888e+000  2.093184e+001
    endloop
  endfacet
  facet normal  4.155980e-002 -9.991360e-001  1.886310e-006
    outer loop
      vertex -4.064157e+001  5.854632e+000  2.089137e+001
      vertex -4.068352e+001  5.852888e+000  2.093184e+001
      vertex -4.068122e+001  5.852983e+000  2.088369e+001
    endloop
  endfacet
  facet normal  4.155733e-002 -9.991361e-001  1.466272e-005
    outer loop
      vertex -4.064157e+001  5.854632e+000  2.089137e+001
      vertex -4.068122e+001  5.852983e+000  2.088369e+001
      vertex -3.961109e+001  5.897493e+000  2.083825e+001
    endloop
  endfacet
  facet normal  4.155860e-002 -9.991360e-001  3.940678e-005
    outer loop
      vertex -4.064157e+001  5.854632e+000  2.089137e+001
      vertex -3.961109e+001  5.897493e+000  2.083825e+001
      vertex -3.942685e+001  5.905156e+000  2.083988e+001
    endloop
  endfacet
  facet normal  4.155533e-002 -9.991362e-001  1.157309e-005
    outer loop
      vertex -3.771822e+001  5.976223e+000  2.133108e+001
      vertex -3.898807e+001  5.923406e+000  2.116514e+001
      vertex -3.823390e+001  5.954774e+000  2.125603e+001
    endloop
  endfacet
  facet normal  4.155442e-002 -9.991362e-001  1.909575e-005
    outer loop
      vertex -3.823390e+001  5.954774e+000  2.125603e+001
      vertex -3.898807e+001  5.923406e+000  2.116514e+001
      vertex -3.962263e+001  5.897012e+000  2.107947e+001
    endloop
  endfacet
  facet normal  4.156270e-002 -9.991359e-001 -4.614153e-005
    outer loop
      vertex -3.823390e+001  5.954774e+000  2.125603e+001
      vertex -3.962263e+001  5.897012e+000  2.107947e+001
      vertex -3.943908e+001  5.904647e+000  2.109548e+001
    endloop
  endfacet
  facet normal  4.156208e-002 -9.991359e-001 -3.895866e-005
    outer loop
      vertex -3.943908e+001  5.904647e+000  2.109548e+001
      vertex -3.962263e+001  5.897012e+000  2.107947e+001
      vertex -4.068352e+001  5.852888e+000  2.093184e+001
    endloop
  endfacet
  facet normal  4.155937e-002 -9.991360e-001 -1.836108e-005
    outer loop
      vertex -3.943908e+001  5.904647e+000  2.109548e+001
      vertex -4.068352e+001  5.852888e+000  2.093184e+001
      vertex -4.064333e+001  5.854559e+000  2.092799e+001
    endloop
  endfacet
  facet normal  4.155467e-002 -9.991362e-001  1.609386e-005
    outer loop
      vertex -3.823390e+001  5.954774e+000  2.125603e+001
      vertex -3.721501e+001  5.997152e+000  2.138672e+001
      vertex -3.771822e+001  5.976223e+000  2.133108e+001
    endloop
  endfacet
  facet normal  4.155274e-002 -9.991363e-001  3.356385e-005
    outer loop
      vertex -3.771822e+001  5.976223e+000  2.133108e+001
      vertex -3.721501e+001  5.997152e+000  2.138672e+001
      vertex -3.619558e+001  6.039553e+000  2.151308e+001
    endloop
  endfacet
  facet normal  4.155799e-002 -9.991361e-001 -1.037652e-005
    outer loop
      vertex -3.771822e+001  5.976223e+000  2.133108e+001
      vertex -3.619558e+001  6.039553e+000  2.151308e+001
      vertex -3.644751e+001  6.029075e+000  2.149025e+001
    endloop
  endfacet
  facet normal  4.155817e-002 -9.991360e-001 -1.247662e-005
    outer loop
      vertex -3.644751e+001  6.029075e+000  2.149025e+001
      vertex -3.619558e+001  6.039553e+000  2.151308e+001
      vertex -3.517562e+001  6.081975e+000  2.163520e+001
    endloop
  endfacet
  facet normal  4.155528e-002 -9.991362e-001  1.293604e-005
    outer loop
      vertex -3.644751e+001  6.029075e+000  2.149025e+001
      vertex -3.517562e+001  6.081975e+000  2.163520e+001
      vertex -3.517599e+001  6.081960e+000  2.164287e+001
    endloop
  endfacet
  facet normal  4.155821e-002 -9.991361e-001  4.081783e-005
    outer loop
      vertex -3.769136e+001  5.977339e+000  2.077003e+001
      vertex -3.821185e+001  5.955691e+000  2.079538e+001
      vertex -3.897124e+001  5.924106e+000  2.081370e+001
    endloop
  endfacet
  facet normal  4.155816e-002 -9.991361e-001  3.861865e-005
    outer loop
      vertex -3.897124e+001  5.924106e+000  2.081370e+001
      vertex -3.821185e+001  5.955691e+000  2.079538e+001
      vertex -3.942685e+001  5.905156e+000  2.083988e+001
    endloop
  endfacet
  facet normal  4.155855e-002 -9.991360e-001  4.548120e-005
    outer loop
      vertex -3.897124e+001  5.924106e+000  2.081370e+001
      vertex -3.942685e+001  5.905156e+000  2.083988e+001
      vertex -3.961109e+001  5.897493e+000  2.083825e+001
    endloop
  endfacet
  facet normal  4.155716e-002 -9.991361e-001  1.926847e-005
    outer loop
      vertex -3.821185e+001  5.955691e+000  2.079538e+001
      vertex -3.769136e+001  5.977339e+000  2.077003e+001
      vertex -3.718514e+001  5.998394e+000  2.076279e+001
    endloop
  endfacet
  facet normal  4.155685e-002 -9.991361e-001 -3.043886e-006
    outer loop
      vertex -3.718514e+001  5.998394e+000  2.076279e+001
      vertex -3.769136e+001  5.977339e+000  2.077003e+001
      vertex -3.641127e+001  6.030582e+000  2.073318e+001
    endloop
  endfacet
  facet normal  4.155686e-002 -9.991361e-001 -2.677109e-006
    outer loop
      vertex -3.718514e+001  5.998394e+000  2.076279e+001
      vertex -3.641127e+001  6.030582e+000  2.073318e+001
      vertex -3.615831e+001  6.041103e+000  2.073456e+001
    endloop
  endfacet
  facet normal  4.155681e-002 -9.991361e-001  6.860313e-006
    outer loop
      vertex -3.615831e+001  6.041103e+000  2.073456e+001
      vertex -3.641127e+001  6.030582e+000  2.073318e+001
      vertex -3.513100e+001  6.083832e+000  2.070293e+001
    endloop
  endfacet
  facet normal  4.155700e-002 -9.991361e-001  1.302120e-005
    outer loop
      vertex -3.615831e+001  6.041103e+000  2.073456e+001
      vertex -3.513100e+001  6.083832e+000  2.070293e+001
      vertex -3.513137e+001  6.083817e+000  2.071060e+001
    endloop
  endfacet
  facet normal -4.235278e-002 -1.761395e-003 -9.991012e-001
    outer loop
      vertex -4.068122e+001  5.852983e+000  2.088369e+001
      vertex -4.070199e+001  6.352551e+000  2.088369e+001
      vertex -3.961109e+001  5.897493e+000  2.083825e+001
    endloop
  endfacet
  facet normal -4.235289e-002 -1.761658e-003 -9.991012e-001
    outer loop
      vertex -3.961109e+001  5.897493e+000  2.083825e+001
      vertex -4.070199e+001  6.352551e+000  2.088369e+001
      vertex -3.963187e+001  6.397061e+000  2.083825e+001
    endloop
  endfacet
  facet normal -3.827890e-002 -1.592202e-003 -9.992658e-001
    outer loop
      vertex -3.961109e+001  5.897493e+000  2.083825e+001
      vertex -3.963187e+001  6.397061e+000  2.083825e+001
      vertex -3.897124e+001  5.924106e+000  2.081370e+001
    endloop
  endfacet
  facet normal -3.827891e-002 -1.592201e-003 -9.992658e-001
    outer loop
      vertex -3.897124e+001  5.924106e+000  2.081370e+001
      vertex -3.963187e+001  6.397061e+000  2.083825e+001
      vertex -3.899202e+001  6.423674e+000  2.081370e+001
    endloop
  endfacet
  facet normal -3.404457e-002 -1.416075e-003 -9.994193e-001
    outer loop
      vertex -3.897124e+001  5.924106e+000  2.081370e+001
      vertex -3.899202e+001  6.423674e+000  2.081370e+001
      vertex -3.769136e+001  5.977339e+000  2.077003e+001
    endloop
  endfacet
  facet normal -3.404450e-002 -1.415865e-003 -9.994193e-001
    outer loop
      vertex -3.769136e+001  5.977339e+000  2.077003e+001
      vertex -3.899202e+001  6.423674e+000  2.081370e+001
      vertex -3.771214e+001  6.476907e+000  2.077003e+001
    endloop
  endfacet
  facet normal -2.872172e-002 -1.194498e-003 -9.995868e-001
    outer loop
      vertex -3.769136e+001  5.977339e+000  2.077003e+001
      vertex -3.771214e+001  6.476907e+000  2.077003e+001
      vertex -3.641127e+001  6.030582e+000  2.073318e+001
    endloop
  endfacet
  facet normal -2.872179e-002 -1.194677e-003 -9.995868e-001
    outer loop
      vertex -3.641127e+001  6.030582e+000  2.073318e+001
      vertex -3.771214e+001  6.476907e+000  2.077003e+001
      vertex -3.643205e+001  6.530150e+000  2.073318e+001
    endloop
  endfacet
  facet normal -2.358087e-002 -9.808416e-004 -9.997215e-001
    outer loop
      vertex -3.641127e+001  6.030582e+000  2.073318e+001
      vertex -3.643205e+001  6.530150e+000  2.073318e+001
      vertex -3.513100e+001  6.083832e+000  2.070293e+001
    endloop
  endfacet
  facet normal -2.358087e-002 -9.808408e-004 -9.997215e-001
    outer loop
      vertex -3.513100e+001  6.083832e+000  2.070293e+001
      vertex -3.643205e+001  6.530150e+000  2.073318e+001
      vertex -3.515178e+001  6.583400e+000  2.070293e+001
    endloop
  endfacet
  facet normal -4.155669e-002  9.991361e-001 -2.384836e-006
    outer loop
      vertex -3.773900e+001  6.475791e+000  2.133108e+001
      vertex -3.646829e+001  6.528643e+000  2.149025e+001
      vertex -3.728345e+001  6.494738e+000  2.134632e+001
    endloop
  endfacet
  facet normal -4.155568e-002  9.991362e-001 -3.258538e-005
    outer loop
      vertex -3.773900e+001  6.475791e+000  2.133108e+001
      vertex -3.728345e+001  6.494738e+000  2.134632e+001
      vertex -3.732814e+001  6.492879e+000  2.133703e+001
    endloop
  endfacet
  facet normal -4.155615e-002  9.991361e-001  3.800291e-007
    outer loop
      vertex -3.773900e+001  6.475791e+000  2.133108e+001
      vertex -3.732814e+001  6.492879e+000  2.133703e+001
      vertex -3.737068e+001  6.491109e+000  2.132045e+001
    endloop
  endfacet
  facet normal -4.155646e-002  9.991361e-001 -1.034056e-005
    outer loop
      vertex -3.773900e+001  6.475791e+000  2.133108e+001
      vertex -3.737068e+001  6.491109e+000  2.132045e+001
      vertex -3.740989e+001  6.489479e+000  2.129706e+001
    endloop
  endfacet
  facet normal -4.155485e-002  9.991361e-001  5.282799e-006
    outer loop
      vertex -3.773900e+001  6.475791e+000  2.133108e+001
      vertex -3.740989e+001  6.489479e+000  2.129706e+001
      vertex -3.744470e+001  6.488031e+000  2.126749e+001
    endloop
  endfacet
  facet normal -4.155486e-002  9.991363e-001  5.235415e-006
    outer loop
      vertex -3.773900e+001  6.475791e+000  2.133108e+001
      vertex -3.744470e+001  6.488031e+000  2.126749e+001
      vertex -3.747412e+001  6.486807e+000  2.123257e+001
    endloop
  endfacet
  facet normal -4.155437e-002  9.991363e-001  6.577035e-006
    outer loop
      vertex -3.773900e+001  6.475791e+000  2.133108e+001
      vertex -3.747412e+001  6.486807e+000  2.123257e+001
      vertex -3.749737e+001  6.485841e+000  2.119324e+001
    endloop
  endfacet
  facet normal -4.156559e-002  9.991358e-001 -1.313838e-005
    outer loop
      vertex -3.773900e+001  6.475791e+000  2.133108e+001
      vertex -3.749737e+001  6.485841e+000  2.119324e+001
      vertex -3.751379e+001  6.485157e+000  2.115062e+001
    endloop
  endfacet
  facet normal -4.155008e-002  9.991364e-001  6.243380e-006
    outer loop
      vertex -3.773900e+001  6.475791e+000  2.133108e+001
      vertex -3.751379e+001  6.485157e+000  2.115062e+001
      vertex -3.752293e+001  6.484777e+000  2.110585e+001
    endloop
  endfacet
  facet normal -4.155920e-002  9.991360e-001 -2.521772e-006
    outer loop
      vertex -3.773900e+001  6.475791e+000  2.133108e+001
      vertex -3.752293e+001  6.484777e+000  2.110585e+001
      vertex -3.752455e+001  6.484710e+000  2.106019e+001
    endloop
  endfacet
  facet normal -4.155640e-002  9.991361e-001 -2.939242e-007
    outer loop
      vertex -3.773900e+001  6.475791e+000  2.133108e+001
      vertex -3.752455e+001  6.484710e+000  2.106019e+001
      vertex -3.771214e+001  6.476907e+000  2.077003e+001
    endloop
  endfacet
  facet normal -4.155643e-002  9.991361e-001 -2.955635e-007
    outer loop
      vertex -3.773900e+001  6.475791e+000  2.133108e+001
      vertex -3.771214e+001  6.476907e+000  2.077003e+001
      vertex -3.899202e+001  6.423674e+000  2.081370e+001
    endloop
  endfacet
  facet normal -4.155726e-002  9.991361e-001  1.706956e-006
    outer loop
      vertex -3.773900e+001  6.475791e+000  2.133108e+001
      vertex -3.899202e+001  6.423674e+000  2.081370e+001
      vertex -3.900885e+001  6.422974e+000  2.116514e+001
    endloop
  endfacet
  facet normal -4.155133e-002  9.991363e-001 -3.572895e-006
    outer loop
      vertex -3.771214e+001  6.476907e+000  2.077003e+001
      vertex -3.752455e+001  6.484710e+000  2.106019e+001
      vertex -3.751858e+001  6.484958e+000  2.101489e+001
    endloop
  endfacet
  facet normal -4.156876e-002  9.991356e-001  1.022562e-005
    outer loop
      vertex -3.771214e+001  6.476907e+000  2.077003e+001
      vertex -3.751858e+001  6.484958e+000  2.101489e+001
      vertex -3.750520e+001  6.485515e+000  2.097121e+001
    endloop
  endfacet
  facet normal -4.155791e-002  9.991361e-001 -9.559927e-007
    outer loop
      vertex -3.771214e+001  6.476907e+000  2.077003e+001
      vertex -3.750520e+001  6.485515e+000  2.097121e+001
      vertex -3.748479e+001  6.486364e+000  2.093035e+001
    endloop
  endfacet
  facet normal -4.155580e-002  9.991361e-001 -3.955112e-006
    outer loop
      vertex -3.771214e+001  6.476907e+000  2.077003e+001
      vertex -3.748479e+001  6.486364e+000  2.093035e+001
      vertex -3.745789e+001  6.487483e+000  2.089343e+001
    endloop
  endfacet
  facet normal -4.155738e-002  9.991361e-001 -6.940368e-007
    outer loop
      vertex -3.771214e+001  6.476907e+000  2.077003e+001
      vertex -3.745789e+001  6.487483e+000  2.089343e+001
      vertex -3.742526e+001  6.488840e+000  2.086148e+001
    endloop
  endfacet
  facet normal -4.155393e-002  9.991363e-001 -1.152425e-005
    outer loop
      vertex -3.771214e+001  6.476907e+000  2.077003e+001
      vertex -3.742526e+001  6.488840e+000  2.086148e+001
      vertex -3.738779e+001  6.490398e+000  2.083538e+001
    endloop
  endfacet
  facet normal -4.155824e-002  9.991360e-001  9.914187e-006
    outer loop
      vertex -3.771214e+001  6.476907e+000  2.077003e+001
      vertex -3.738779e+001  6.490398e+000  2.083538e+001
      vertex -3.734653e+001  6.492115e+000  2.081585e+001
    endloop
  endfacet
  facet normal -4.155742e-002  9.991361e-001  3.349778e-006
    outer loop
      vertex -3.771214e+001  6.476907e+000  2.077003e+001
      vertex -3.734653e+001  6.492115e+000  2.081585e+001
      vertex -3.730260e+001  6.493942e+000  2.080342e+001
    endloop
  endfacet
  facet normal -4.155865e-002  9.991361e-001  1.844163e-005
    outer loop
      vertex -3.771214e+001  6.476907e+000  2.077003e+001
      vertex -3.730260e+001  6.493942e+000  2.080342e+001
      vertex -3.725722e+001  6.495829e+000  2.079844e+001
    endloop
  endfacet
  facet normal -4.155697e-002  9.991361e-001 -8.440205e-006
    outer loop
      vertex -3.771214e+001  6.476907e+000  2.077003e+001
      vertex -3.725722e+001  6.495829e+000  2.079844e+001
      vertex -3.643205e+001  6.530150e+000  2.073318e+001
    endloop
  endfacet
  facet normal -4.155733e-002  9.991362e-001  6.612579e-006
    outer loop
      vertex -3.519677e+001  6.581529e+000  2.164287e+001
      vertex -3.519482e+001  6.581610e+000  2.160196e+001
      vertex -3.646829e+001  6.528643e+000  2.149025e+001
    endloop
  endfacet
  facet normal -4.155640e-002  9.991362e-001 -4.072159e-006
    outer loop
      vertex -3.646829e+001  6.528643e+000  2.149025e+001
      vertex -3.519482e+001  6.581610e+000  2.160196e+001
      vertex -3.728345e+001  6.494738e+000  2.134632e+001
    endloop
  endfacet
  facet normal -4.155701e-002  9.991361e-001 -4.386950e-006
    outer loop
      vertex -4.070199e+001  6.352551e+000  2.088369e+001
      vertex -4.070430e+001  6.352456e+000  2.093184e+001
      vertex -3.963187e+001  6.397061e+000  2.083825e+001
    endloop
  endfacet
  facet normal -4.155665e-002  9.991361e-001 -1.428367e-007
    outer loop
      vertex -3.963187e+001  6.397061e+000  2.083825e+001
      vertex -4.070430e+001  6.352456e+000  2.093184e+001
      vertex -3.964341e+001  6.396581e+000  2.107947e+001
    endloop
  endfacet
  facet normal -4.155742e-002  9.991362e-001 -1.795699e-007
    outer loop
      vertex -3.963187e+001  6.397061e+000  2.083825e+001
      vertex -3.964341e+001  6.396581e+000  2.107947e+001
      vertex -3.899202e+001  6.423674e+000  2.081370e+001
    endloop
  endfacet
  facet normal -4.155663e-002  9.991361e-001  1.737146e-006
    outer loop
      vertex -3.899202e+001  6.423674e+000  2.081370e+001
      vertex -3.964341e+001  6.396581e+000  2.107947e+001
      vertex -3.900885e+001  6.422974e+000  2.116514e+001
    endloop
  endfacet
  facet normal -4.155686e-002  9.991362e-001  3.535040e-006
    outer loop
      vertex -3.515178e+001  6.583400e+000  2.070293e+001
      vertex -3.643205e+001  6.530150e+000  2.073318e+001
      vertex -3.515374e+001  6.583318e+000  2.074384e+001
    endloop
  endfacet
  facet normal -4.155678e-002  9.991362e-001 -5.951052e-006
    outer loop
      vertex -3.515374e+001  6.583318e+000  2.074384e+001
      vertex -3.643205e+001  6.530150e+000  2.073318e+001
      vertex -3.725722e+001  6.495829e+000  2.079844e+001
    endloop
  endfacet
  facet normal  9.979775e-001  4.151063e-002  4.814441e-002
    outer loop
      vertex -3.513100e+001  6.083832e+000  2.070293e+001
      vertex -3.515178e+001  6.583400e+000  2.070293e+001
      vertex -3.513137e+001  6.083817e+000  2.071060e+001
    endloop
  endfacet
  facet normal  9.979823e-001  4.150933e-002  4.804637e-002
    outer loop
      vertex -3.513137e+001  6.083817e+000  2.071060e+001
      vertex -3.515178e+001  6.583400e+000  2.070293e+001
      vertex -3.514799e+001  6.483471e+000  2.071060e+001
    endloop
  endfacet
  facet normal  9.979908e-001  4.149668e-002  4.787737e-002
    outer loop
      vertex -3.515178e+001  6.583400e+000  2.070293e+001
      vertex -3.515374e+001  6.583318e+000  2.074384e+001
      vertex -3.514799e+001  6.483471e+000  2.071060e+001
    endloop
  endfacet
  facet normal  9.979930e-001  4.151731e-002  4.781578e-002
    outer loop
      vertex -3.514799e+001  6.483471e+000  2.071060e+001
      vertex -3.515374e+001  6.583318e+000  2.074384e+001
      vertex -3.514958e+001  6.483405e+000  2.074384e+001
    endloop
  endfacet
  facet normal  9.979936e-001  4.151734e-002  4.780311e-002
    outer loop
      vertex -3.519482e+001  6.581610e+000  2.160196e+001
      vertex -3.519677e+001  6.581529e+000  2.164287e+001
      vertex -3.519066e+001  6.481697e+000  2.160196e+001
    endloop
  endfacet
  facet normal  9.979932e-001  4.151122e-002  4.781798e-002
    outer loop
      vertex -3.519066e+001  6.481697e+000  2.160196e+001
      vertex -3.519677e+001  6.581529e+000  2.164287e+001
      vertex -3.519225e+001  6.481630e+000  2.163520e+001
    endloop
  endfacet
  facet normal  9.979897e-001  4.150505e-002  4.789630e-002
    outer loop
      vertex -3.519677e+001  6.581529e+000  2.164287e+001
      vertex -3.517599e+001  6.081960e+000  2.164287e+001
      vertex -3.519225e+001  6.481630e+000  2.163520e+001
    endloop
  endfacet
  facet normal  9.979780e-001  4.150915e-002  4.813486e-002
    outer loop
      vertex -3.519225e+001  6.481630e+000  2.163520e+001
      vertex -3.517599e+001  6.081960e+000  2.164287e+001
      vertex -3.517562e+001  6.081975e+000  2.163520e+001
    endloop
  endfacet
  facet normal  4.154604e-002 -9.991366e-001 -2.319247e-005
    outer loop
      vertex -3.729844e+001  6.394028e+000  2.080342e+001
      vertex -3.734237e+001  6.392201e+000  2.081585e+001
      vertex -3.720176e+001  6.398049e+000  2.076279e+001
    endloop
  endfacet
  facet normal  4.155863e-002 -9.991361e-001  6.802205e-006
    outer loop
      vertex -3.725306e+001  6.395916e+000  2.079844e+001
      vertex -3.729844e+001  6.394028e+000  2.080342e+001
      vertex -3.720176e+001  6.398049e+000  2.076279e+001
    endloop
  endfacet
  facet normal  4.153703e-002 -9.991369e-001  4.114626e-005
    outer loop
      vertex -3.723164e+001  6.396807e+000  2.138672e+001
      vertex -3.736653e+001  6.391196e+000  2.132045e+001
      vertex -3.732399e+001  6.392965e+000  2.133703e+001
    endloop
  endfacet
  facet normal  4.155756e-002 -9.991361e-001 -7.319039e-006
    outer loop
      vertex -3.519225e+001  6.481630e+000  2.163520e+001
      vertex -3.621220e+001  6.439208e+000  2.151308e+001
      vertex -3.519066e+001  6.481697e+000  2.160196e+001
    endloop
  endfacet
  facet normal  4.155671e-002 -9.991361e-001  5.143816e-006
    outer loop
      vertex -3.822847e+001  6.355346e+000  2.079538e+001
      vertex -3.720176e+001  6.398049e+000  2.076279e+001
      vertex -3.734237e+001  6.392201e+000  2.081585e+001
    endloop
  endfacet
  facet normal  4.155711e-002 -9.991361e-001 -1.230130e-005
    outer loop
      vertex -3.822847e+001  6.355346e+000  2.079538e+001
      vertex -3.734237e+001  6.392201e+000  2.081585e+001
      vertex -3.738364e+001  6.390484e+000  2.083538e+001
    endloop
  endfacet
  facet normal  4.155656e-002 -9.991361e-001 -5.141294e-007
    outer loop
      vertex -3.822847e+001  6.355346e+000  2.079538e+001
      vertex -3.738364e+001  6.390484e+000  2.083538e+001
      vertex -3.825052e+001  6.354428e+000  2.125603e+001
    endloop
  endfacet
  facet normal  4.155663e-002 -9.991362e-001 -5.106147e-007
    outer loop
      vertex -3.822847e+001  6.355346e+000  2.079538e+001
      vertex -3.825052e+001  6.354428e+000  2.125603e+001
      vertex -3.945571e+001  6.304302e+000  2.109548e+001
    endloop
  endfacet
  facet normal  4.155686e-002 -9.991361e-001  4.427262e-007
    outer loop
      vertex -3.822847e+001  6.355346e+000  2.079538e+001
      vertex -3.945571e+001  6.304302e+000  2.109548e+001
      vertex -3.944347e+001  6.304811e+000  2.083988e+001
    endloop
  endfacet
  facet normal  4.155849e-002 -9.991360e-001  3.485671e-006
    outer loop
      vertex -3.825052e+001  6.354428e+000  2.125603e+001
      vertex -3.738364e+001  6.390484e+000  2.083538e+001
      vertex -3.742110e+001  6.388926e+000  2.086148e+001
    endloop
  endfacet
  facet normal  4.155698e-002 -9.991361e-001  2.808621e-007
    outer loop
      vertex -3.825052e+001  6.354428e+000  2.125603e+001
      vertex -3.742110e+001  6.388926e+000  2.086148e+001
      vertex -3.745374e+001  6.387569e+000  2.089343e+001
    endloop
  endfacet
  facet normal  4.156006e-002 -9.991360e-001  7.061647e-006
    outer loop
      vertex -3.825052e+001  6.354428e+000  2.125603e+001
      vertex -3.745374e+001  6.387569e+000  2.089343e+001
      vertex -3.748063e+001  6.386450e+000  2.093035e+001
    endloop
  endfacet
  facet normal  4.155736e-002 -9.991361e-001  6.812695e-007
    outer loop
      vertex -3.825052e+001  6.354428e+000  2.125603e+001
      vertex -3.748063e+001  6.386450e+000  2.093035e+001
      vertex -3.750105e+001  6.385601e+000  2.097121e+001
    endloop
  endfacet
  facet normal  4.155492e-002 -9.991362e-001 -5.745401e-006
    outer loop
      vertex -3.825052e+001  6.354428e+000  2.125603e+001
      vertex -3.750105e+001  6.385601e+000  2.097121e+001
      vertex -3.751442e+001  6.385045e+000  2.101489e+001
    endloop
  endfacet
  facet normal  4.155827e-002 -9.991361e-001  4.487682e-006
    outer loop
      vertex -3.825052e+001  6.354428e+000  2.125603e+001
      vertex -3.751442e+001  6.385045e+000  2.101489e+001
      vertex -3.752039e+001  6.384797e+000  2.106019e+001
    endloop
  endfacet
  facet normal  4.155775e-002 -9.991360e-001  2.573087e-006
    outer loop
      vertex -3.825052e+001  6.354428e+000  2.125603e+001
      vertex -3.752039e+001  6.384797e+000  2.106019e+001
      vertex -3.751878e+001  6.384864e+000  2.110585e+001
    endloop
  endfacet
  facet normal  4.155627e-002 -9.991362e-001 -4.675614e-006
    outer loop
      vertex -3.825052e+001  6.354428e+000  2.125603e+001
      vertex -3.751878e+001  6.384864e+000  2.110585e+001
      vertex -3.750964e+001  6.385244e+000  2.115062e+001
    endloop
  endfacet
  facet normal  4.155755e-002 -9.991361e-001  4.325166e-006
    outer loop
      vertex -3.825052e+001  6.354428e+000  2.125603e+001
      vertex -3.750964e+001  6.385244e+000  2.115062e+001
      vertex -3.749322e+001  6.385927e+000  2.119324e+001
    endloop
  endfacet
  facet normal  4.155680e-002 -9.991361e-001 -4.791664e-006
    outer loop
      vertex -3.825052e+001  6.354428e+000  2.125603e+001
      vertex -3.749322e+001  6.385927e+000  2.119324e+001
      vertex -3.746997e+001  6.386894e+000  2.123257e+001
    endloop
  endfacet
  facet normal  4.155695e-002 -9.991361e-001  2.860842e-007
    outer loop
      vertex -3.825052e+001  6.354428e+000  2.125603e+001
      vertex -3.746997e+001  6.386894e+000  2.123257e+001
      vertex -3.744054e+001  6.388118e+000  2.126749e+001
    endloop
  endfacet
  facet normal  4.155700e-002 -9.991361e-001 -3.528039e-006
    outer loop
      vertex -3.825052e+001  6.354428e+000  2.125603e+001
      vertex -3.744054e+001  6.388118e+000  2.126749e+001
      vertex -3.740574e+001  6.389565e+000  2.129706e+001
    endloop
  endfacet
  facet normal  4.155632e-002 -9.991361e-001  1.058739e-005
    outer loop
      vertex -3.825052e+001  6.354428e+000  2.125603e+001
      vertex -3.740574e+001  6.389565e+000  2.129706e+001
      vertex -3.736653e+001  6.391196e+000  2.132045e+001
    endloop
  endfacet
  facet normal  4.155707e-002 -9.991361e-001  2.906345e-007
    outer loop
      vertex -3.825052e+001  6.354428e+000  2.125603e+001
      vertex -3.736653e+001  6.391196e+000  2.132045e+001
      vertex -3.723164e+001  6.396807e+000  2.138672e+001
    endloop
  endfacet
  facet normal  4.155685e-002 -9.991361e-001  4.420478e-007
    outer loop
      vertex -3.944347e+001  6.304811e+000  2.083988e+001
      vertex -3.945571e+001  6.304302e+000  2.109548e+001
      vertex -4.065820e+001  6.254287e+000  2.089137e+001
    endloop
  endfacet
  facet normal  4.155635e-002 -9.991361e-001  3.377873e-006
    outer loop
      vertex -4.065820e+001  6.254287e+000  2.089137e+001
      vertex -3.945571e+001  6.304302e+000  2.109548e+001
      vertex -4.065995e+001  6.254214e+000  2.092799e+001
    endloop
  endfacet
  facet normal  4.155673e-002 -9.991361e-001  4.072207e-006
    outer loop
      vertex -3.725306e+001  6.395916e+000  2.079844e+001
      vertex -3.720176e+001  6.398049e+000  2.076279e+001
      vertex -3.514958e+001  6.483405e+000  2.074384e+001
    endloop
  endfacet
  facet normal  4.155657e-002 -9.991362e-001 -1.309023e-005
    outer loop
      vertex -3.514958e+001  6.483405e+000  2.074384e+001
      vertex -3.720176e+001  6.398049e+000  2.076279e+001
      vertex -3.617493e+001  6.440758e+000  2.073456e+001
    endloop
  endfacet
  facet normal  4.155652e-002 -9.991362e-001 -7.368426e-006
    outer loop
      vertex -3.514958e+001  6.483405e+000  2.074384e+001
      vertex -3.617493e+001  6.440758e+000  2.073456e+001
      vertex -3.514799e+001  6.483471e+000  2.071060e+001
    endloop
  endfacet
  facet normal  4.155716e-002 -9.991361e-001 -2.678083e-006
    outer loop
      vertex -3.519066e+001  6.481697e+000  2.160196e+001
      vertex -3.621220e+001  6.439208e+000  2.151308e+001
      vertex -3.727929e+001  6.394825e+000  2.134632e+001
    endloop
  endfacet
  facet normal  4.155569e-002 -9.991361e-001  6.691333e-006
    outer loop
      vertex -3.727929e+001  6.394825e+000  2.134632e+001
      vertex -3.621220e+001  6.439208e+000  2.151308e+001
      vertex -3.723164e+001  6.396807e+000  2.138672e+001
    endloop
  endfacet
  facet normal  4.155527e-002 -9.991362e-001  7.190523e-006
    outer loop
      vertex -3.727929e+001  6.394825e+000  2.134632e+001
      vertex -3.723164e+001  6.396807e+000  2.138672e+001
      vertex -3.732399e+001  6.392965e+000  2.133703e+001
    endloop
  endfacet
  facet normal  2.590652e-002  1.077732e-003  9.996638e-001
    outer loop
      vertex -3.514958e+001  6.483405e+000  2.074384e+001
      vertex -3.515374e+001  6.583318e+000  2.074384e+001
      vertex -3.725306e+001  6.395916e+000  2.079844e+001
    endloop
  endfacet
  facet normal  2.590652e-002  1.077732e-003  9.996638e-001
    outer loop
      vertex -3.725306e+001  6.395916e+000  2.079844e+001
      vertex -3.515374e+001  6.583318e+000  2.074384e+001
      vertex -3.725722e+001  6.495829e+000  2.079844e+001
    endloop
  endfacet
  facet normal  9.985132e-001  4.153911e-002 -3.529801e-002
    outer loop
      vertex -3.752039e+001  6.384797e+000  2.106019e+001
      vertex -3.752293e+001  6.484777e+000  2.110585e+001
      vertex -3.751878e+001  6.384864e+000  2.110585e+001
    endloop
  endfacet
  facet normal  9.788904e-001  4.072278e-002 -2.002881e-001
    outer loop
      vertex -3.751878e+001  6.384864e+000  2.110585e+001
      vertex -3.752293e+001  6.484777e+000  2.110585e+001
      vertex -3.751379e+001  6.485157e+000  2.115062e+001
    endloop
  endfacet
  facet normal  9.789047e-001  4.069348e-002 -2.002240e-001
    outer loop
      vertex -3.751878e+001  6.384864e+000  2.110585e+001
      vertex -3.751379e+001  6.485157e+000  2.115062e+001
      vertex -3.750964e+001  6.385244e+000  2.115062e+001
    endloop
  endfacet
  facet normal  9.322723e-001  3.875495e-002 -3.596754e-001
    outer loop
      vertex -3.750964e+001  6.385244e+000  2.115062e+001
      vertex -3.751379e+001  6.485157e+000  2.115062e+001
      vertex -3.749737e+001  6.485841e+000  2.119324e+001
    endloop
  endfacet
  facet normal  9.322489e-001  3.878231e-002 -3.597333e-001
    outer loop
      vertex -3.750964e+001  6.385244e+000  2.115062e+001
      vertex -3.749737e+001  6.485841e+000  2.119324e+001
      vertex -3.749322e+001  6.385927e+000  2.119324e+001
    endloop
  endfacet
  facet normal  8.598691e-001  3.577125e-002 -5.092599e-001
    outer loop
      vertex -3.749322e+001  6.385927e+000  2.119324e+001
      vertex -3.749737e+001  6.485841e+000  2.119324e+001
      vertex -3.747412e+001  6.486807e+000  2.123257e+001
    endloop
  endfacet
  facet normal  8.598994e-001  3.574624e-002 -5.092105e-001
    outer loop
      vertex -3.749322e+001  6.385927e+000  2.119324e+001
      vertex -3.747412e+001  6.486807e+000  2.123257e+001
      vertex -3.746997e+001  6.386894e+000  2.123257e+001
    endloop
  endfacet
  facet normal  7.637952e-001  3.175116e-002 -6.446773e-001
    outer loop
      vertex -3.746997e+001  6.386894e+000  2.123257e+001
      vertex -3.747412e+001  6.486807e+000  2.123257e+001
      vertex -3.744470e+001  6.488031e+000  2.126749e+001
    endloop
  endfacet
  facet normal  7.637611e-001  3.177320e-002 -6.447164e-001
    outer loop
      vertex -3.746997e+001  6.386894e+000  2.123257e+001
      vertex -3.744470e+001  6.488031e+000  2.126749e+001
      vertex -3.744054e+001  6.388118e+000  2.126749e+001
    endloop
  endfacet
  facet normal  6.465936e-001  2.689891e-002 -7.623603e-001
    outer loop
      vertex -3.744054e+001  6.388118e+000  2.126749e+001
      vertex -3.744470e+001  6.488031e+000  2.126749e+001
      vertex -3.740989e+001  6.489479e+000  2.129706e+001
    endloop
  endfacet
  facet normal  6.466272e-001  2.688056e-002 -7.623323e-001
    outer loop
      vertex -3.744054e+001  6.388118e+000  2.126749e+001
      vertex -3.740989e+001  6.489479e+000  2.129706e+001
      vertex -3.740574e+001  6.389565e+000  2.129706e+001
    endloop
  endfacet
  facet normal  5.115436e-001  2.126508e-002 -8.589941e-001
    outer loop
      vertex -3.740574e+001  6.389565e+000  2.129706e+001
      vertex -3.740989e+001  6.489479e+000  2.129706e+001
      vertex -3.737068e+001  6.491109e+000  2.132045e+001
    endloop
  endfacet
  facet normal  5.115436e-001  2.126508e-002 -8.589941e-001
    outer loop
      vertex -3.740574e+001  6.389565e+000  2.129706e+001
      vertex -3.737068e+001  6.491109e+000  2.132045e+001
      vertex -3.736653e+001  6.391196e+000  2.132045e+001
    endloop
  endfacet
  facet normal  3.624286e-001  1.506631e-002 -9.318897e-001
    outer loop
      vertex -3.736653e+001  6.391196e+000  2.132045e+001
      vertex -3.737068e+001  6.491109e+000  2.132045e+001
      vertex -3.732814e+001  6.492879e+000  2.133703e+001
    endloop
  endfacet
  facet normal  3.624056e-001  1.507642e-002 -9.318985e-001
    outer loop
      vertex -3.736653e+001  6.391196e+000  2.132045e+001
      vertex -3.732814e+001  6.492879e+000  2.133703e+001
      vertex -3.732399e+001  6.392965e+000  2.133703e+001
    endloop
  endfacet
  facet normal  2.032414e-001  8.455039e-003 -9.790921e-001
    outer loop
      vertex -3.732399e+001  6.392965e+000  2.133703e+001
      vertex -3.732814e+001  6.492879e+000  2.133703e+001
      vertex -3.728345e+001  6.494738e+000  2.134632e+001
    endloop
  endfacet
  facet normal  2.032550e-001  8.449365e-003 -9.790894e-001
    outer loop
      vertex -3.732399e+001  6.392965e+000  2.133703e+001
      vertex -3.728345e+001  6.494738e+000  2.134632e+001
      vertex -3.727929e+001  6.394825e+000  2.134632e+001
    endloop
  endfacet
  facet normal  9.985132e-001  4.153911e-002 -3.529801e-002
    outer loop
      vertex -3.752293e+001  6.484777e+000  2.110585e+001
      vertex -3.752039e+001  6.384797e+000  2.106019e+001
      vertex -3.752455e+001  6.484710e+000  2.106019e+001
    endloop
  endfacet
  facet normal  9.905658e-001  4.120849e-002  1.306949e-001
    outer loop
      vertex -3.752455e+001  6.484710e+000  2.106019e+001
      vertex -3.752039e+001  6.384797e+000  2.106019e+001
      vertex -3.751442e+001  6.385045e+000  2.101489e+001
    endloop
  endfacet
  facet normal  9.905658e-001  4.120849e-002  1.306949e-001
    outer loop
      vertex -3.752455e+001  6.484710e+000  2.106019e+001
      vertex -3.751442e+001  6.385045e+000  2.101489e+001
      vertex -3.751858e+001  6.484958e+000  2.101489e+001
    endloop
  endfacet
  facet normal  9.552811e-001  3.974061e-002  2.930169e-001
    outer loop
      vertex -3.751858e+001  6.484958e+000  2.101489e+001
      vertex -3.751442e+001  6.385045e+000  2.101489e+001
      vertex -3.750105e+001  6.385601e+000  2.097121e+001
    endloop
  endfacet
  facet normal  9.552809e-001  3.974046e-002  2.930173e-001
    outer loop
      vertex -3.751858e+001  6.484958e+000  2.101489e+001
      vertex -3.750105e+001  6.385601e+000  2.097121e+001
      vertex -3.750520e+001  6.485515e+000  2.097121e+001
    endloop
  endfacet
  facet normal  8.936334e-001  3.717587e-002  4.472555e-001
    outer loop
      vertex -3.750520e+001  6.485515e+000  2.097121e+001
      vertex -3.750105e+001  6.385601e+000  2.097121e+001
      vertex -3.748063e+001  6.386450e+000  2.093035e+001
    endloop
  endfacet
  facet normal  8.936334e-001  3.717587e-002  4.472555e-001
    outer loop
      vertex -3.750520e+001  6.485515e+000  2.097121e+001
      vertex -3.748063e+001  6.386450e+000  2.093035e+001
      vertex -3.748479e+001  6.486364e+000  2.093035e+001
    endloop
  endfacet
  facet normal  8.073128e-001  3.358487e-002  5.891673e-001
    outer loop
      vertex -3.748479e+001  6.486364e+000  2.093035e+001
      vertex -3.748063e+001  6.386450e+000  2.093035e+001
      vertex -3.745374e+001  6.387569e+000  2.089343e+001
    endloop
  endfacet
  facet normal  8.073128e-001  3.358487e-002  5.891673e-001
    outer loop
      vertex -3.748479e+001  6.486364e+000  2.093035e+001
      vertex -3.745374e+001  6.387569e+000  2.089343e+001
      vertex -3.745789e+001  6.487483e+000  2.089343e+001
    endloop
  endfacet
  facet normal  6.986868e-001  2.906593e-002  7.148370e-001
    outer loop
      vertex -3.745789e+001  6.487483e+000  2.089343e+001
      vertex -3.745374e+001  6.387569e+000  2.089343e+001
      vertex -3.742110e+001  6.388926e+000  2.086148e+001
    endloop
  endfacet
  facet normal  6.986868e-001  2.906593e-002  7.148370e-001
    outer loop
      vertex -3.745789e+001  6.487483e+000  2.089343e+001
      vertex -3.742110e+001  6.388926e+000  2.086148e+001
      vertex -3.742526e+001  6.488840e+000  2.086148e+001
    endloop
  endfacet
  facet normal  5.708001e-001  2.374574e-002  8.207456e-001
    outer loop
      vertex -3.742526e+001  6.488840e+000  2.086148e+001
      vertex -3.742110e+001  6.388926e+000  2.086148e+001
      vertex -3.738364e+001  6.390484e+000  2.083538e+001
    endloop
  endfacet
  facet normal  5.708002e-001  2.374584e-002  8.207456e-001
    outer loop
      vertex -3.742526e+001  6.488840e+000  2.086148e+001
      vertex -3.738364e+001  6.390484e+000  2.083538e+001
      vertex -3.738779e+001  6.490398e+000  2.083538e+001
    endloop
  endfacet
  facet normal  4.271877e-001  1.777142e-002  9.039882e-001
    outer loop
      vertex -3.738779e+001  6.490398e+000  2.083538e+001
      vertex -3.738364e+001  6.390484e+000  2.083538e+001
      vertex -3.734237e+001  6.392201e+000  2.081585e+001
    endloop
  endfacet
  facet normal  4.271877e-001  1.777142e-002  9.039882e-001
    outer loop
      vertex -3.738779e+001  6.490398e+000  2.083538e+001
      vertex -3.734237e+001  6.392201e+000  2.081585e+001
      vertex -3.734653e+001  6.492115e+000  2.081585e+001
    endloop
  endfacet
  facet normal  2.717290e-001  1.130419e-002  9.623074e-001
    outer loop
      vertex -3.734653e+001  6.492115e+000  2.081585e+001
      vertex -3.734237e+001  6.392201e+000  2.081585e+001
      vertex -3.729844e+001  6.394028e+000  2.080342e+001
    endloop
  endfacet
  facet normal  2.717118e-001  1.129513e-002  9.623124e-001
    outer loop
      vertex -3.734653e+001  6.492115e+000  2.081585e+001
      vertex -3.729844e+001  6.394028e+000  2.080342e+001
      vertex -3.730260e+001  6.493942e+000  2.080342e+001
    endloop
  endfacet
  facet normal  1.087770e-001  4.521889e-003  9.940559e-001
    outer loop
      vertex -3.730260e+001  6.493942e+000  2.080342e+001
      vertex -3.729844e+001  6.394028e+000  2.080342e+001
      vertex -3.725306e+001  6.395916e+000  2.079844e+001
    endloop
  endfacet
  facet normal  1.087841e-001  4.525506e-003  9.940552e-001
    outer loop
      vertex -3.730260e+001  6.493942e+000  2.080342e+001
      vertex -3.725306e+001  6.395916e+000  2.079844e+001
      vertex -3.725722e+001  6.495829e+000  2.079844e+001
    endloop
  endfacet
  facet normal  1.212792e-001  5.045312e-003 -9.926056e-001
    outer loop
      vertex -3.519066e+001  6.481697e+000  2.160196e+001
      vertex -3.727929e+001  6.394825e+000  2.134632e+001
      vertex -3.519482e+001  6.581610e+000  2.160196e+001
    endloop
  endfacet
  facet normal  1.212795e-001  5.041622e-003 -9.926056e-001
    outer loop
      vertex -3.519482e+001  6.581610e+000  2.160196e+001
      vertex -3.727929e+001  6.394825e+000  2.134632e+001
      vertex -3.728345e+001  6.494738e+000  2.134632e+001
    endloop
  endfacet
  facet normal  2.328715e-002  9.685881e-004  9.997284e-001
    outer loop
      vertex -3.513137e+001  6.083817e+000  2.071060e+001
      vertex -3.514799e+001  6.483471e+000  2.071060e+001
      vertex -3.615831e+001  6.041103e+000  2.073456e+001
    endloop
  endfacet
  facet normal  2.328715e-002  9.685881e-004  9.997284e-001
    outer loop
      vertex -3.615831e+001  6.041103e+000  2.073456e+001
      vertex -3.514799e+001  6.483471e+000  2.071060e+001
      vertex -3.617493e+001  6.440758e+000  2.073456e+001
    endloop
  endfacet
  facet normal  2.743620e-002  1.141161e-003  9.996229e-001
    outer loop
      vertex -3.615831e+001  6.041103e+000  2.073456e+001
      vertex -3.617493e+001  6.440758e+000  2.073456e+001
      vertex -3.718514e+001  5.998394e+000  2.076279e+001
    endloop
  endfacet
  facet normal  2.743620e-002  1.141161e-003  9.996229e-001
    outer loop
      vertex -3.718514e+001  5.998394e+000  2.076279e+001
      vertex -3.617493e+001  6.440758e+000  2.073456e+001
      vertex -3.720176e+001  6.398049e+000  2.076279e+001
    endloop
  endfacet
  facet normal  3.167276e-002  1.317373e-003  9.994975e-001
    outer loop
      vertex -3.718514e+001  5.998394e+000  2.076279e+001
      vertex -3.720176e+001  6.398049e+000  2.076279e+001
      vertex -3.821185e+001  5.955691e+000  2.079538e+001
    endloop
  endfacet
  facet normal  3.167276e-002  1.317373e-003  9.994975e-001
    outer loop
      vertex -3.821185e+001  5.955691e+000  2.079538e+001
      vertex -3.720176e+001  6.398049e+000  2.076279e+001
      vertex -3.822847e+001  6.355346e+000  2.079538e+001
    endloop
  endfacet
  facet normal  3.653708e-002  1.519696e-003  9.993311e-001
    outer loop
      vertex -3.821185e+001  5.955691e+000  2.079538e+001
      vertex -3.822847e+001  6.355346e+000  2.079538e+001
      vertex -3.942685e+001  5.905156e+000  2.083988e+001
    endloop
  endfacet
  facet normal  3.653719e-002  1.519421e-003  9.993311e-001
    outer loop
      vertex -3.942685e+001  5.905156e+000  2.083988e+001
      vertex -3.822847e+001  6.355346e+000  2.079538e+001
      vertex -3.944347e+001  6.304811e+000  2.083988e+001
    endloop
  endfacet
  facet normal  4.227787e-002  1.758151e-003  9.991044e-001
    outer loop
      vertex -3.942685e+001  5.905156e+000  2.083988e+001
      vertex -3.944347e+001  6.304811e+000  2.083988e+001
      vertex -4.064157e+001  5.854632e+000  2.089137e+001
    endloop
  endfacet
  facet normal  4.227775e-002  1.758469e-003  9.991044e-001
    outer loop
      vertex -4.064157e+001  5.854632e+000  2.089137e+001
      vertex -3.944347e+001  6.304811e+000  2.083988e+001
      vertex -4.065820e+001  6.254287e+000  2.089137e+001
    endloop
  endfacet
  facet normal  9.979888e-001  4.150959e-002  4.791087e-002
    outer loop
      vertex -4.064157e+001  5.854632e+000  2.089137e+001
      vertex -4.065820e+001  6.254287e+000  2.089137e+001
      vertex -4.064333e+001  5.854559e+000  2.092799e+001
    endloop
  endfacet
  facet normal  9.979888e-001  4.150959e-002  4.791087e-002
    outer loop
      vertex -4.064333e+001  5.854559e+000  2.092799e+001
      vertex -4.065820e+001  6.254287e+000  2.089137e+001
      vertex -4.065995e+001  6.254214e+000  2.092799e+001
    endloop
  endfacet
  facet normal  1.227971e-001  5.107531e-003 -9.924186e-001
    outer loop
      vertex -3.721501e+001  5.997152e+000  2.138672e+001
      vertex -3.621220e+001  6.439208e+000  2.151308e+001
      vertex -3.619558e+001  6.039553e+000  2.151308e+001
    endloop
  endfacet
  facet normal  1.186773e-001  4.936175e-003 -9.929205e-001
    outer loop
      vertex -3.619558e+001  6.039553e+000  2.151308e+001
      vertex -3.621220e+001  6.439208e+000  2.151308e+001
      vertex -3.519225e+001  6.481630e+000  2.163520e+001
    endloop
  endfacet
  facet normal  1.186773e-001  4.936175e-003 -9.929205e-001
    outer loop
      vertex -3.619558e+001  6.039553e+000  2.151308e+001
      vertex -3.519225e+001  6.481630e+000  2.163520e+001
      vertex -3.517562e+001  6.081975e+000  2.163520e+001
    endloop
  endfacet
  facet normal  1.227971e-001  5.107526e-003 -9.924186e-001
    outer loop
      vertex -3.621220e+001  6.439208e+000  2.151308e+001
      vertex -3.721501e+001  5.997152e+000  2.138672e+001
      vertex -3.723164e+001  6.396807e+000  2.138672e+001
    endloop
  endfacet
  facet normal  1.270042e-001  5.282512e-003 -9.918881e-001
    outer loop
      vertex -3.723164e+001  6.396807e+000  2.138672e+001
      vertex -3.721501e+001  5.997152e+000  2.138672e+001
      vertex -3.823390e+001  5.954774e+000  2.125603e+001
    endloop
  endfacet
  facet normal  1.270042e-001  5.282517e-003 -9.918881e-001
    outer loop
      vertex -3.723164e+001  6.396807e+000  2.138672e+001
      vertex -3.823390e+001  5.954774e+000  2.125603e+001
      vertex -3.825052e+001  6.354428e+000  2.125603e+001
    endloop
  endfacet
  facet normal  1.318295e-001  5.483219e-003 -9.912572e-001
    outer loop
      vertex -3.825052e+001  6.354428e+000  2.125603e+001
      vertex -3.823390e+001  5.954774e+000  2.125603e+001
      vertex -3.943908e+001  5.904647e+000  2.109548e+001
    endloop
  endfacet
  facet normal  1.318295e-001  5.483219e-003 -9.912572e-001
    outer loop
      vertex -3.825052e+001  6.354428e+000  2.125603e+001
      vertex -3.943908e+001  5.904647e+000  2.109548e+001
      vertex -3.945571e+001  6.304302e+000  2.109548e+001
    endloop
  endfacet
  facet normal  1.375214e-001  5.719961e-003 -9.904823e-001
    outer loop
      vertex -3.945571e+001  6.304302e+000  2.109548e+001
      vertex -3.943908e+001  5.904647e+000  2.109548e+001
      vertex -4.064333e+001  5.854559e+000  2.092799e+001
    endloop
  endfacet
  facet normal  1.375214e-001  5.719961e-003 -9.904823e-001
    outer loop
      vertex -3.945571e+001  6.304302e+000  2.109548e+001
      vertex -4.064333e+001  5.854559e+000  2.092799e+001
      vertex -4.065995e+001  6.254214e+000  2.092799e+001
    endloop
  endfacet
endsolid CATIA STL
