solid CATIA STL
  facet normal -7.753018e-002 -3.224684e-003 -9.969848e-001
    outer loop
      vertex -3.044423e+001  1.217386e+001  2.119956e+001
      vertex -3.130785e+001  3.406688e+001  2.119591e+001
      vertex -3.039734e+001  1.217581e+001  2.119591e+001
    endloop
  endfacet
  facet normal -2.324072e-001 -9.666425e-003 -9.725705e-001
    outer loop
      vertex -3.039734e+001  1.217581e+001  2.119591e+001
      vertex -3.130785e+001  3.406688e+001  2.119591e+001
      vertex -3.126211e+001  3.406879e+001  2.118496e+001
    endloop
  endfacet
  facet normal -2.323929e-001 -9.665861e-003 -9.725740e-001
    outer loop
      vertex -3.039734e+001  1.217581e+001  2.119591e+001
      vertex -3.126211e+001  3.406879e+001  2.118496e+001
      vertex -3.035160e+001  1.217771e+001  2.118496e+001
    endloop
  endfacet
  facet normal -3.815198e-001 -1.586846e-002 -9.242244e-001
    outer loop
      vertex -3.035160e+001  1.217771e+001  2.118496e+001
      vertex -3.126211e+001  3.406879e+001  2.118496e+001
      vertex -3.121863e+001  3.407059e+001  2.116698e+001
    endloop
  endfacet
  facet normal -3.815427e-001 -1.586936e-002 -9.242150e-001
    outer loop
      vertex -3.035160e+001  1.217771e+001  2.118496e+001
      vertex -3.121863e+001  3.407059e+001  2.116698e+001
      vertex -3.030813e+001  1.217952e+001  2.116698e+001
    endloop
  endfacet
  facet normal -5.213137e-001 -2.168280e-002 -8.530897e-001
    outer loop
      vertex -3.030813e+001  1.217952e+001  2.116698e+001
      vertex -3.121863e+001  3.407059e+001  2.116698e+001
      vertex -3.117851e+001  3.407226e+001  2.114242e+001
    endloop
  endfacet
  facet normal -5.212848e-001 -2.168168e-002 -8.531073e-001
    outer loop
      vertex -3.030813e+001  1.217952e+001  2.116698e+001
      vertex -3.117851e+001  3.407226e+001  2.114242e+001
      vertex -3.026800e+001  1.218119e+001  2.114242e+001
    endloop
  endfacet
  facet normal -6.482379e-001 -2.696200e-002 -7.609603e-001
    outer loop
      vertex -3.026800e+001  1.218119e+001  2.114242e+001
      vertex -3.117851e+001  3.407226e+001  2.114242e+001
      vertex -3.114272e+001  3.407375e+001  2.111188e+001
    endloop
  endfacet
  facet normal -6.482379e-001 -2.696200e-002 -7.609603e-001
    outer loop
      vertex -3.026800e+001  1.218119e+001  2.114242e+001
      vertex -3.114272e+001  3.407375e+001  2.111188e+001
      vertex -3.023221e+001  1.218268e+001  2.111188e+001
    endloop
  endfacet
  facet normal -7.591732e-001 -3.157611e-002 -6.501223e-001
    outer loop
      vertex -3.023221e+001  1.218268e+001  2.111188e+001
      vertex -3.114272e+001  3.407375e+001  2.111188e+001
      vertex -3.111214e+001  3.407502e+001  2.107611e+001
    endloop
  endfacet
  facet normal -7.591732e-001 -3.157611e-002 -6.501223e-001
    outer loop
      vertex -3.023221e+001  1.218268e+001  2.111188e+001
      vertex -3.111214e+001  3.407502e+001  2.107611e+001
      vertex -3.020163e+001  1.218395e+001  2.107611e+001
    endloop
  endfacet
  facet normal -8.514594e-001 -3.541455e-002 -5.232233e-001
    outer loop
      vertex -3.020163e+001  1.218395e+001  2.107611e+001
      vertex -3.111214e+001  3.407502e+001  2.107611e+001
      vertex -3.108753e+001  3.407605e+001  2.103599e+001
    endloop
  endfacet
  facet normal -8.514594e-001 -3.541455e-002 -5.232233e-001
    outer loop
      vertex -3.020163e+001  1.218395e+001  2.107611e+001
      vertex -3.108753e+001  3.407605e+001  2.103599e+001
      vertex -3.017702e+001  1.218497e+001  2.103599e+001
    endloop
  endfacet
  facet normal -9.227322e-001 -3.837898e-002 -3.835260e-001
    outer loop
      vertex -3.017702e+001  1.218497e+001  2.103599e+001
      vertex -3.108753e+001  3.407605e+001  2.103599e+001
      vertex -3.106949e+001  3.407680e+001  2.099251e+001
    endloop
  endfacet
  facet normal -9.227322e-001 -3.837898e-002 -3.835260e-001
    outer loop
      vertex -3.017702e+001  1.218497e+001  2.103599e+001
      vertex -3.106949e+001  3.407680e+001  2.099251e+001
      vertex -3.015898e+001  1.218572e+001  2.099251e+001
    endloop
  endfacet
  facet normal -9.713270e-001 -4.040018e-002 -2.342895e-001
    outer loop
      vertex -3.015898e+001  1.218572e+001  2.099251e+001
      vertex -3.106949e+001  3.407680e+001  2.099251e+001
      vertex -3.105847e+001  3.407726e+001  2.094675e+001
    endloop
  endfacet
  facet normal -9.713270e-001 -4.040018e-002 -2.342895e-001
    outer loop
      vertex -3.015898e+001  1.218572e+001  2.099251e+001
      vertex -3.105847e+001  3.407726e+001  2.094675e+001
      vertex -3.014796e+001  1.218618e+001  2.094675e+001
    endloop
  endfacet
  facet normal -9.959854e-001 -4.142579e-002 -7.935247e-002
    outer loop
      vertex -3.014796e+001  1.218618e+001  2.094675e+001
      vertex -3.105847e+001  3.407726e+001  2.094675e+001
      vertex -3.105474e+001  3.407741e+001  2.089982e+001
    endloop
  endfacet
  facet normal -9.959906e-001 -4.142586e-002 -7.928810e-002
    outer loop
      vertex -3.014796e+001  1.218618e+001  2.094675e+001
      vertex -3.105474e+001  3.407741e+001  2.089982e+001
      vertex -3.014423e+001  1.218634e+001  2.089982e+001
    endloop
  endfacet
  facet normal -7.753027e-002 -3.224688e-003 -9.969848e-001
    outer loop
      vertex -3.130785e+001  3.406688e+001  2.119591e+001
      vertex -3.044423e+001  1.217386e+001  2.119956e+001
      vertex -3.135474e+001  3.406493e+001  2.119956e+001
    endloop
  endfacet
  facet normal  7.925136e-002  3.296272e-003 -9.968492e-001
    outer loop
      vertex -3.135474e+001  3.406493e+001  2.119956e+001
      vertex -3.044423e+001  1.217386e+001  2.119956e+001
      vertex -3.049112e+001  1.217191e+001  2.119583e+001
    endloop
  endfacet
  facet normal  7.924624e-002  3.296070e-003 -9.968496e-001
    outer loop
      vertex -3.135474e+001  3.406493e+001  2.119956e+001
      vertex -3.049112e+001  1.217191e+001  2.119583e+001
      vertex -3.140163e+001  3.406298e+001  2.119583e+001
    endloop
  endfacet
  facet normal  2.341041e-001  9.737038e-003 -9.721628e-001
    outer loop
      vertex -3.140163e+001  3.406298e+001  2.119583e+001
      vertex -3.049112e+001  1.217191e+001  2.119583e+001
      vertex -3.053685e+001  1.217001e+001  2.118480e+001
    endloop
  endfacet
  facet normal  2.341189e-001  9.737618e-003 -9.721593e-001
    outer loop
      vertex -3.140163e+001  3.406298e+001  2.119583e+001
      vertex -3.053685e+001  1.217001e+001  2.118480e+001
      vertex -3.144736e+001  3.406108e+001  2.118480e+001
    endloop
  endfacet
  facet normal  3.831536e-001  1.593637e-002 -9.235471e-001
    outer loop
      vertex -3.144736e+001  3.406108e+001  2.118480e+001
      vertex -3.053685e+001  1.217001e+001  2.118480e+001
      vertex -3.058029e+001  1.216820e+001  2.116674e+001
    endloop
  endfacet
  facet normal  3.831536e-001  1.593637e-002 -9.235471e-001
    outer loop
      vertex -3.144736e+001  3.406108e+001  2.118480e+001
      vertex -3.058029e+001  1.216820e+001  2.116674e+001
      vertex -3.149079e+001  3.405928e+001  2.116674e+001
    endloop
  endfacet
  facet normal  5.228015e-001  2.174469e-002 -8.521771e-001
    outer loop
      vertex -3.149079e+001  3.405928e+001  2.116674e+001
      vertex -3.058029e+001  1.216820e+001  2.116674e+001
      vertex -3.062037e+001  1.216653e+001  2.114211e+001
    endloop
  endfacet
  facet normal  5.227726e-001  2.174356e-002 -8.521948e-001
    outer loop
      vertex -3.149079e+001  3.405928e+001  2.116674e+001
      vertex -3.062037e+001  1.216653e+001  2.114211e+001
      vertex -3.153088e+001  3.405761e+001  2.114211e+001
    endloop
  endfacet
  facet normal  6.495316e-001  2.701581e-002 -7.598546e-001
    outer loop
      vertex -3.153088e+001  3.405761e+001  2.114211e+001
      vertex -3.062037e+001  1.216653e+001  2.114211e+001
      vertex -3.065611e+001  1.216505e+001  2.111151e+001
    endloop
  endfacet
  facet normal  6.495622e-001  2.701700e-002 -7.598283e-001
    outer loop
      vertex -3.153088e+001  3.405761e+001  2.114211e+001
      vertex -3.065611e+001  1.216505e+001  2.111151e+001
      vertex -3.156661e+001  3.405612e+001  2.111151e+001
    endloop
  endfacet
  facet normal  7.603238e-001  3.162387e-002 -6.487740e-001
    outer loop
      vertex -3.156661e+001  3.405612e+001  2.111151e+001
      vertex -3.065611e+001  1.216505e+001  2.111151e+001
      vertex -3.068662e+001  1.216378e+001  2.107568e+001
    endloop
  endfacet
  facet normal  7.602932e-001  3.162270e-002 -6.488099e-001
    outer loop
      vertex -3.156661e+001  3.405612e+001  2.111151e+001
      vertex -3.068662e+001  1.216378e+001  2.107568e+001
      vertex -3.159713e+001  3.405485e+001  2.107568e+001
    endloop
  endfacet
  facet normal  8.523501e-001  3.545159e-002 -5.217686e-001
    outer loop
      vertex -3.159713e+001  3.405485e+001  2.107568e+001
      vertex -3.068662e+001  1.216378e+001  2.107568e+001
      vertex -3.071116e+001  1.216276e+001  2.103552e+001
    endloop
  endfacet
  facet normal  8.523788e-001  3.545268e-002 -5.217215e-001
    outer loop
      vertex -3.159713e+001  3.405485e+001  2.107568e+001
      vertex -3.071116e+001  1.216276e+001  2.103552e+001
      vertex -3.162167e+001  3.405383e+001  2.103552e+001
    endloop
  endfacet
  facet normal  9.234282e-001  3.840780e-002 -3.818444e-001
    outer loop
      vertex -3.162167e+001  3.405383e+001  2.103552e+001
      vertex -3.071116e+001  1.216276e+001  2.103552e+001
      vertex -3.072912e+001  1.216201e+001  2.099202e+001
    endloop
  endfacet
  facet normal  9.234049e-001  3.840696e-002 -3.819010e-001
    outer loop
      vertex -3.162167e+001  3.405383e+001  2.103552e+001
      vertex -3.072912e+001  1.216201e+001  2.099202e+001
      vertex -3.163963e+001  3.405308e+001  2.099202e+001
    endloop
  endfacet
  facet normal  9.717307e-001  4.041697e-002 -2.326064e-001
    outer loop
      vertex -3.163963e+001  3.405308e+001  2.099202e+001
      vertex -3.072912e+001  1.216201e+001  2.099202e+001
      vertex -3.074006e+001  1.216156e+001  2.094623e+001
    endloop
  endfacet
  facet normal  9.717307e-001  4.041697e-002 -2.326064e-001
    outer loop
      vertex -3.163963e+001  3.405308e+001  2.099202e+001
      vertex -3.074006e+001  1.216156e+001  2.094623e+001
      vertex -3.165057e+001  3.405263e+001  2.094623e+001
    endloop
  endfacet
  facet normal  9.961233e-001  4.143152e-002 -7.760026e-002
    outer loop
      vertex -3.165057e+001  3.405263e+001  2.094623e+001
      vertex -3.074006e+001  1.216156e+001  2.094623e+001
      vertex -3.074371e+001  1.216140e+001  2.089930e+001
    endloop
  endfacet
  facet normal  9.961283e-001  4.143159e-002 -7.753722e-002
    outer loop
      vertex -3.165057e+001  3.405263e+001  2.094623e+001
      vertex -3.074371e+001  1.216140e+001  2.089930e+001
      vertex -3.165422e+001  3.405247e+001  2.089930e+001
    endloop
  endfacet
  facet normal  7.753018e-002  3.224694e-003  9.969848e-001
    outer loop
      vertex -3.044371e+001  1.217388e+001  2.059956e+001
      vertex -3.140111e+001  3.406300e+001  2.060321e+001
      vertex -3.049060e+001  1.217193e+001  2.060321e+001
    endloop
  endfacet
  facet normal  2.324078e-001  9.666482e-003  9.725704e-001
    outer loop
      vertex -3.049060e+001  1.217193e+001  2.060321e+001
      vertex -3.140111e+001  3.406300e+001  2.060321e+001
      vertex -3.144686e+001  3.406110e+001  2.061416e+001
    endloop
  endfacet
  facet normal  2.323931e-001  9.665840e-003  9.725739e-001
    outer loop
      vertex -3.049060e+001  1.217193e+001  2.060321e+001
      vertex -3.144686e+001  3.406110e+001  2.061416e+001
      vertex -3.053635e+001  1.217003e+001  2.061416e+001
    endloop
  endfacet
  facet normal  3.815189e-001  1.586837e-002  9.242249e-001
    outer loop
      vertex -3.053635e+001  1.217003e+001  2.061416e+001
      vertex -3.144686e+001  3.406110e+001  2.061416e+001
      vertex -3.149033e+001  3.405929e+001  2.063214e+001
    endloop
  endfacet
  facet normal  3.815422e-001  1.586940e-002  9.242153e-001
    outer loop
      vertex -3.053635e+001  1.217003e+001  2.061416e+001
      vertex -3.149033e+001  3.405929e+001  2.063214e+001
      vertex -3.057982e+001  1.216822e+001  2.063214e+001
    endloop
  endfacet
  facet normal  5.213136e-001  2.168288e-002  8.530897e-001
    outer loop
      vertex -3.057982e+001  1.216822e+001  2.063214e+001
      vertex -3.149033e+001  3.405929e+001  2.063214e+001
      vertex -3.153045e+001  3.405762e+001  2.065670e+001
    endloop
  endfacet
  facet normal  5.213136e-001  2.168288e-002  8.530897e-001
    outer loop
      vertex -3.057982e+001  1.216822e+001  2.063214e+001
      vertex -3.153045e+001  3.405762e+001  2.065670e+001
      vertex -3.061994e+001  1.216655e+001  2.065670e+001
    endloop
  endfacet
  facet normal  6.482379e-001  2.696201e-002  7.609603e-001
    outer loop
      vertex -3.061994e+001  1.216655e+001  2.065670e+001
      vertex -3.153045e+001  3.405762e+001  2.065670e+001
      vertex -3.156624e+001  3.405613e+001  2.068724e+001
    endloop
  endfacet
  facet normal  6.482066e-001  2.696062e-002  7.609871e-001
    outer loop
      vertex -3.061994e+001  1.216655e+001  2.065670e+001
      vertex -3.156624e+001  3.405613e+001  2.068724e+001
      vertex -3.065574e+001  1.216506e+001  2.068724e+001
    endloop
  endfacet
  facet normal  7.591746e-001  3.157607e-002  6.501207e-001
    outer loop
      vertex -3.065574e+001  1.216506e+001  2.068724e+001
      vertex -3.156624e+001  3.405613e+001  2.068724e+001
      vertex -3.159682e+001  3.405487e+001  2.072301e+001
    endloop
  endfacet
  facet normal  7.592052e-001  3.157744e-002  6.500849e-001
    outer loop
      vertex -3.065574e+001  1.216506e+001  2.068724e+001
      vertex -3.159682e+001  3.405487e+001  2.072301e+001
      vertex -3.068631e+001  1.216379e+001  2.072301e+001
    endloop
  endfacet
  facet normal  8.514583e-001  3.541450e-002  5.232254e-001
    outer loop
      vertex -3.068631e+001  1.216379e+001  2.072301e+001
      vertex -3.159682e+001  3.405487e+001  2.072301e+001
      vertex -3.162143e+001  3.405384e+001  2.076313e+001
    endloop
  endfacet
  facet normal  8.514299e-001  3.541321e-002  5.232713e-001
    outer loop
      vertex -3.068631e+001  1.216379e+001  2.072301e+001
      vertex -3.162143e+001  3.405384e+001  2.076313e+001
      vertex -3.071093e+001  1.216277e+001  2.076313e+001
    endloop
  endfacet
  facet normal  9.227369e-001  3.837905e-002  3.835145e-001
    outer loop
      vertex -3.071093e+001  1.216277e+001  2.076313e+001
      vertex -3.162143e+001  3.405384e+001  2.076313e+001
      vertex -3.163947e+001  3.405309e+001  2.080661e+001
    endloop
  endfacet
  facet normal  9.227604e-001  3.838016e-002  3.834582e-001
    outer loop
      vertex -3.071093e+001  1.216277e+001  2.076313e+001
      vertex -3.163947e+001  3.405309e+001  2.080661e+001
      vertex -3.072896e+001  1.216202e+001  2.080661e+001
    endloop
  endfacet
  facet normal  9.713253e-001  4.040011e-002  2.342969e-001
    outer loop
      vertex -3.072896e+001  1.216202e+001  2.080661e+001
      vertex -3.163947e+001  3.405309e+001  2.080661e+001
      vertex -3.165049e+001  3.405263e+001  2.085237e+001
    endloop
  endfacet
  facet normal  9.713250e-001  4.040010e-002  2.342981e-001
    outer loop
      vertex -3.072896e+001  1.216202e+001  2.080661e+001
      vertex -3.165049e+001  3.405263e+001  2.085237e+001
      vertex -3.073998e+001  1.216156e+001  2.085237e+001
    endloop
  endfacet
  facet normal  9.959909e-001  4.142602e-002  7.928555e-002
    outer loop
      vertex -3.073998e+001  1.216156e+001  2.085237e+001
      vertex -3.165049e+001  3.405263e+001  2.085237e+001
      vertex -3.165422e+001  3.405247e+001  2.089930e+001
    endloop
  endfacet
  facet normal  9.959858e-001  4.142567e-002  7.934857e-002
    outer loop
      vertex -3.073998e+001  1.216156e+001  2.085237e+001
      vertex -3.165422e+001  3.405247e+001  2.089930e+001
      vertex -3.074371e+001  1.216140e+001  2.089930e+001
    endloop
  endfacet
  facet normal  7.753028e-002  3.224699e-003  9.969848e-001
    outer loop
      vertex -3.140111e+001  3.406300e+001  2.060321e+001
      vertex -3.044371e+001  1.217388e+001  2.059956e+001
      vertex -3.135422e+001  3.406495e+001  2.059956e+001
    endloop
  endfacet
  facet normal -7.927843e-002 -3.297409e-003  9.968471e-001
    outer loop
      vertex -3.135422e+001  3.406495e+001  2.059956e+001
      vertex -3.044371e+001  1.217388e+001  2.059956e+001
      vertex -3.039682e+001  1.217583e+001  2.060329e+001
    endloop
  endfacet
  facet normal -7.927843e-002 -3.297409e-003  9.968471e-001
    outer loop
      vertex -3.135422e+001  3.406495e+001  2.059956e+001
      vertex -3.039682e+001  1.217583e+001  2.060329e+001
      vertex -3.130733e+001  3.406691e+001  2.060329e+001
    endloop
  endfacet
  facet normal -2.340880e-001 -9.736365e-003  9.721666e-001
    outer loop
      vertex -3.130733e+001  3.406691e+001  2.060329e+001
      vertex -3.039682e+001  1.217583e+001  2.060329e+001
      vertex -3.035110e+001  1.217773e+001  2.061432e+001
    endloop
  endfacet
  facet normal -2.340883e-001 -9.736379e-003  9.721666e-001
    outer loop
      vertex -3.130733e+001  3.406691e+001  2.060329e+001
      vertex -3.035110e+001  1.217773e+001  2.061432e+001
      vertex -3.126161e+001  3.406881e+001  2.061432e+001
    endloop
  endfacet
  facet normal -3.831536e-001 -1.593642e-002  9.235471e-001
    outer loop
      vertex -3.126161e+001  3.406881e+001  2.061432e+001
      vertex -3.035110e+001  1.217773e+001  2.061432e+001
      vertex -3.030766e+001  1.217954e+001  2.063238e+001
    endloop
  endfacet
  facet normal -3.831536e-001 -1.593642e-002  9.235471e-001
    outer loop
      vertex -3.126161e+001  3.406881e+001  2.061432e+001
      vertex -3.030766e+001  1.217954e+001  2.063238e+001
      vertex -3.121817e+001  3.407061e+001  2.063238e+001
    endloop
  endfacet
  facet normal -5.228015e-001 -2.174476e-002  8.521771e-001
    outer loop
      vertex -3.121817e+001  3.407061e+001  2.063238e+001
      vertex -3.030766e+001  1.217954e+001  2.063238e+001
      vertex -3.026758e+001  1.218121e+001  2.065701e+001
    endloop
  endfacet
  facet normal -5.227714e-001 -2.174344e-002  8.521956e-001
    outer loop
      vertex -3.121817e+001  3.407061e+001  2.063238e+001
      vertex -3.026758e+001  1.218121e+001  2.065701e+001
      vertex -3.117809e+001  3.407228e+001  2.065701e+001
    endloop
  endfacet
  facet normal -6.495503e-001 -2.701650e-002  7.598385e-001
    outer loop
      vertex -3.117809e+001  3.407228e+001  2.065701e+001
      vertex -3.026758e+001  1.218121e+001  2.065701e+001
      vertex -3.023184e+001  1.218269e+001  2.068761e+001
    endloop
  endfacet
  facet normal -6.495503e-001 -2.701650e-002  7.598385e-001
    outer loop
      vertex -3.117809e+001  3.407228e+001  2.065701e+001
      vertex -3.023184e+001  1.218269e+001  2.068761e+001
      vertex -3.114235e+001  3.407377e+001  2.068761e+001
    endloop
  endfacet
  facet normal -7.603238e-001 -3.162386e-002  6.487740e-001
    outer loop
      vertex -3.114235e+001  3.407377e+001  2.068761e+001
      vertex -3.023184e+001  1.218269e+001  2.068761e+001
      vertex -3.020132e+001  1.218396e+001  2.072344e+001
    endloop
  endfacet
  facet normal -7.603238e-001 -3.162386e-002  6.487740e-001
    outer loop
      vertex -3.114235e+001  3.407377e+001  2.068761e+001
      vertex -3.020132e+001  1.218396e+001  2.072344e+001
      vertex -3.111183e+001  3.407504e+001  2.072344e+001
    endloop
  endfacet
  facet normal -8.523418e-001 -3.545113e-002  5.217821e-001
    outer loop
      vertex -3.111183e+001  3.407504e+001  2.072344e+001
      vertex -3.020132e+001  1.218396e+001  2.072344e+001
      vertex -3.017678e+001  1.218498e+001  2.076360e+001
    endloop
  endfacet
  facet normal -8.523713e-001 -3.545248e-002  5.217340e-001
    outer loop
      vertex -3.111183e+001  3.407504e+001  2.072344e+001
      vertex -3.017678e+001  1.218498e+001  2.076360e+001
      vertex -3.108729e+001  3.407606e+001  2.076360e+001
    endloop
  endfacet
  facet normal -9.234053e-001 -3.840698e-002  3.818998e-001
    outer loop
      vertex -3.108729e+001  3.407606e+001  2.076360e+001
      vertex -3.017678e+001  1.218498e+001  2.076360e+001
      vertex -3.015882e+001  1.218573e+001  2.080710e+001
    endloop
  endfacet
  facet normal -9.234049e-001 -3.840696e-002  3.819010e-001
    outer loop
      vertex -3.108729e+001  3.407606e+001  2.076360e+001
      vertex -3.015882e+001  1.218573e+001  2.080710e+001
      vertex -3.106933e+001  3.407681e+001  2.080710e+001
    endloop
  endfacet
  facet normal -9.717454e-001 -4.041758e-002  2.325451e-001
    outer loop
      vertex -3.106933e+001  3.407681e+001  2.080710e+001
      vertex -3.015882e+001  1.218573e+001  2.080710e+001
      vertex -3.014788e+001  1.218619e+001  2.085289e+001
    endloop
  endfacet
  facet normal -9.717308e-001 -4.041683e-002  2.326064e-001
    outer loop
      vertex -3.106933e+001  3.407681e+001  2.080710e+001
      vertex -3.014788e+001  1.218619e+001  2.085289e+001
      vertex -3.105839e+001  3.407726e+001  2.085289e+001
    endloop
  endfacet
  facet normal -9.961234e-001 -4.143138e-002  7.759909e-002
    outer loop
      vertex -3.105839e+001  3.407726e+001  2.085289e+001
      vertex -3.014788e+001  1.218619e+001  2.085289e+001
      vertex -3.014423e+001  1.218634e+001  2.089982e+001
    endloop
  endfacet
  facet normal -9.961234e-001 -4.143138e-002  7.759909e-002
    outer loop
      vertex -3.105839e+001  3.407726e+001  2.085289e+001
      vertex -3.014423e+001  1.218634e+001  2.089982e+001
      vertex -3.105474e+001  3.407741e+001  2.089982e+001
    endloop
  endfacet
  facet normal -4.154489e-002  9.991367e-001  3.672900e-005
    outer loop
      vertex -3.149033e+001  3.405929e+001  2.063214e+001
      vertex -3.165963e+001  3.405225e+001  2.065064e+001
      vertex -3.153045e+001  3.405762e+001  2.065670e+001
    endloop
  endfacet
  facet normal -4.154489e-002  9.991367e-001 -1.035266e-004
    outer loop
      vertex -3.121817e+001  3.407061e+001  2.063238e+001
      vertex -3.117809e+001  3.407228e+001  2.065701e+001
      vertex -3.104890e+001  3.407765e+001  2.065118e+001
    endloop
  endfacet
  facet normal -4.174644e-002  9.991282e-001  3.492826e-004
    outer loop
      vertex -3.158178e+001  3.405549e+001  2.122125e+001
      vertex -3.153589e+001  3.405740e+001  2.124923e+001
      vertex -3.148663e+001  3.405945e+001  2.127069e+001
    endloop
  endfacet
  facet normal -4.142428e-002  9.991416e-001 -2.716785e-004
    outer loop
      vertex -3.158178e+001  3.405549e+001  2.122125e+001
      vertex -3.148663e+001  3.405945e+001  2.127069e+001
      vertex -3.143491e+001  3.406160e+001  2.128525e+001
    endloop
  endfacet
  facet normal -4.161918e-002  9.991335e-001  1.763435e-004
    outer loop
      vertex -3.158178e+001  3.405549e+001  2.122125e+001
      vertex -3.143491e+001  3.406160e+001  2.128525e+001
      vertex -3.138169e+001  3.406381e+001  2.129262e+001
    endloop
  endfacet
  facet normal -4.154081e-002  9.991367e-001 -4.373874e-005
    outer loop
      vertex -3.158178e+001  3.405549e+001  2.122125e+001
      vertex -3.138169e+001  3.406381e+001  2.129262e+001
      vertex -3.132796e+001  3.406605e+001  2.129266e+001
    endloop
  endfacet
  facet normal -4.155295e-002  9.991364e-001 -5.274067e-007
    outer loop
      vertex -3.158178e+001  3.405549e+001  2.122125e+001
      vertex -3.132796e+001  3.406605e+001  2.129266e+001
      vertex -3.135474e+001  3.406493e+001  2.119956e+001
    endloop
  endfacet
  facet normal -4.155394e-002  9.991363e-001 -1.092426e-005
    outer loop
      vertex -3.158178e+001  3.405549e+001  2.122125e+001
      vertex -3.135474e+001  3.406493e+001  2.119956e+001
      vertex -3.140163e+001  3.406298e+001  2.119583e+001
    endloop
  endfacet
  facet normal -4.154951e-002  9.991364e-001  2.053959e-005
    outer loop
      vertex -3.158178e+001  3.405549e+001  2.122125e+001
      vertex -3.140163e+001  3.406298e+001  2.119583e+001
      vertex -3.144736e+001  3.406108e+001  2.118480e+001
    endloop
  endfacet
  facet normal -4.156250e-002  9.991359e-001 -2.746539e-005
    outer loop
      vertex -3.158178e+001  3.405549e+001  2.122125e+001
      vertex -3.144736e+001  3.406108e+001  2.118480e+001
      vertex -3.162343e+001  3.405376e+001  2.118727e+001
    endloop
  endfacet
  facet normal -4.158184e-002  9.991351e-001  7.796369e-006
    outer loop
      vertex -3.135474e+001  3.406493e+001  2.119956e+001
      vertex -3.132796e+001  3.406605e+001  2.129266e+001
      vertex -3.127472e+001  3.406826e+001  2.128539e+001
    endloop
  endfacet
  facet normal -4.154682e-002  9.991366e-001 -2.490791e-005
    outer loop
      vertex -3.135474e+001  3.406493e+001  2.119956e+001
      vertex -3.127472e+001  3.406826e+001  2.128539e+001
      vertex -3.122298e+001  3.407042e+001  2.127093e+001
    endloop
  endfacet
  facet normal -4.156216e-002  9.991360e-001  3.466268e-006
    outer loop
      vertex -3.135474e+001  3.406493e+001  2.119956e+001
      vertex -3.122298e+001  3.407042e+001  2.127093e+001
      vertex -3.117368e+001  3.407246e+001  2.124954e+001
    endloop
  endfacet
  facet normal -4.155957e-002  9.991360e-001 -5.903985e-006
    outer loop
      vertex -3.135474e+001  3.406493e+001  2.119956e+001
      vertex -3.117368e+001  3.407246e+001  2.124954e+001
      vertex -3.112775e+001  3.407438e+001  2.122164e+001
    endloop
  endfacet
  facet normal -4.155418e-002  9.991362e-001 -6.140583e-005
    outer loop
      vertex -3.135474e+001  3.406493e+001  2.119956e+001
      vertex -3.112775e+001  3.407438e+001  2.122164e+001
      vertex -3.130785e+001  3.406688e+001  2.119591e+001
    endloop
  endfacet
  facet normal -4.156195e-002  9.991359e-001  8.988490e-005
    outer loop
      vertex -3.135422e+001  3.406495e+001  2.059956e+001
      vertex -3.130733e+001  3.406691e+001  2.060329e+001
      vertex -3.108554e+001  3.407613e+001  2.061185e+001
    endloop
  endfacet
  facet normal -4.155625e-002  9.991361e-001 -3.514313e-005
    outer loop
      vertex -3.135422e+001  3.406495e+001  2.059956e+001
      vertex -3.108554e+001  3.407613e+001  2.061185e+001
      vertex -3.112719e+001  3.407440e+001  2.057787e+001
    endloop
  endfacet
  facet normal -4.155031e-002  9.991364e-001  2.711941e-005
    outer loop
      vertex -3.135422e+001  3.406495e+001  2.059956e+001
      vertex -3.112719e+001  3.407440e+001  2.057787e+001
      vertex -3.117307e+001  3.407249e+001  2.054989e+001
    endloop
  endfacet
  facet normal -4.154807e-002  9.991365e-001  3.530612e-005
    outer loop
      vertex -3.135422e+001  3.406495e+001  2.059956e+001
      vertex -3.117307e+001  3.407249e+001  2.054989e+001
      vertex -3.122233e+001  3.407044e+001  2.052843e+001
    endloop
  endfacet
  facet normal -4.156206e-002  9.991359e-001  9.326918e-006
    outer loop
      vertex -3.135422e+001  3.406495e+001  2.059956e+001
      vertex -3.122233e+001  3.407044e+001  2.052843e+001
      vertex -3.127405e+001  3.406829e+001  2.051387e+001
    endloop
  endfacet
  facet normal -4.159218e-002  9.991347e-001 -1.890830e-005
    outer loop
      vertex -3.135422e+001  3.406495e+001  2.059956e+001
      vertex -3.127405e+001  3.406829e+001  2.051387e+001
      vertex -3.132727e+001  3.406607e+001  2.050650e+001
    endloop
  endfacet
  facet normal -4.154084e-002  9.991368e-001 -4.015179e-006
    outer loop
      vertex -3.135422e+001  3.406495e+001  2.059956e+001
      vertex -3.132727e+001  3.406607e+001  2.050650e+001
      vertex -3.138100e+001  3.406384e+001  2.050645e+001
    endloop
  endfacet
  facet normal -4.152682e-002  9.991375e-001 -8.056508e-006
    outer loop
      vertex -3.135422e+001  3.406495e+001  2.059956e+001
      vertex -3.138100e+001  3.406384e+001  2.050645e+001
      vertex -3.143424e+001  3.406163e+001  2.051373e+001
    endloop
  endfacet
  facet normal -4.158561e-002  9.991349e-001  4.685080e-005
    outer loop
      vertex -3.135422e+001  3.406495e+001  2.059956e+001
      vertex -3.143424e+001  3.406163e+001  2.051373e+001
      vertex -3.148599e+001  3.405947e+001  2.052819e+001
    endloop
  endfacet
  facet normal -4.156216e-002  9.991360e-001  3.466268e-006
    outer loop
      vertex -3.135422e+001  3.406495e+001  2.059956e+001
      vertex -3.148599e+001  3.405947e+001  2.052819e+001
      vertex -3.153528e+001  3.405742e+001  2.054957e+001
    endloop
  endfacet
  facet normal -4.155957e-002  9.991360e-001 -5.903985e-006
    outer loop
      vertex -3.135422e+001  3.406495e+001  2.059956e+001
      vertex -3.153528e+001  3.405742e+001  2.054957e+001
      vertex -3.158122e+001  3.405551e+001  2.057747e+001
    endloop
  endfacet
  facet normal -4.155630e-002  9.991362e-001 -3.965772e-005
    outer loop
      vertex -3.135422e+001  3.406495e+001  2.059956e+001
      vertex -3.158122e+001  3.405551e+001  2.057747e+001
      vertex -3.162292e+001  3.405378e+001  2.061138e+001
    endloop
  endfacet
  facet normal -4.156123e-002  9.991360e-001 -1.519684e-004
    outer loop
      vertex -3.135422e+001  3.406495e+001  2.059956e+001
      vertex -3.162292e+001  3.405378e+001  2.061138e+001
      vertex -3.140111e+001  3.406300e+001  2.060321e+001
    endloop
  endfacet
  facet normal -4.155061e-002  9.991364e-001 -1.573893e-005
    outer loop
      vertex -3.165963e+001  3.405225e+001  2.065064e+001
      vertex -3.149033e+001  3.405929e+001  2.063214e+001
      vertex -3.162292e+001  3.405378e+001  2.061138e+001
    endloop
  endfacet
  facet normal -4.156393e-002  9.991358e-001  6.949309e-005
    outer loop
      vertex -3.162292e+001  3.405378e+001  2.061138e+001
      vertex -3.149033e+001  3.405929e+001  2.063214e+001
      vertex -3.144686e+001  3.406110e+001  2.061416e+001
    endloop
  endfacet
  facet normal -4.156067e-002  9.991360e-001 -1.368967e-004
    outer loop
      vertex -3.162292e+001  3.405378e+001  2.061138e+001
      vertex -3.144686e+001  3.406110e+001  2.061416e+001
      vertex -3.140111e+001  3.406300e+001  2.060321e+001
    endloop
  endfacet
  facet normal -4.154476e-002  9.991367e-001  3.414347e-005
    outer loop
      vertex -3.153045e+001  3.405762e+001  2.065670e+001
      vertex -3.165963e+001  3.405225e+001  2.065064e+001
      vertex -3.156624e+001  3.405613e+001  2.068724e+001
    endloop
  endfacet
  facet normal -4.154138e-002  9.991367e-001  2.549205e-005
    outer loop
      vertex -3.156624e+001  3.405613e+001  2.068724e+001
      vertex -3.165963e+001  3.405225e+001  2.065064e+001
      vertex -3.169065e+001  3.405096e+001  2.069455e+001
    endloop
  endfacet
  facet normal -4.154613e-002  9.991366e-001 -5.557689e-005
    outer loop
      vertex -3.156624e+001  3.405613e+001  2.068724e+001
      vertex -3.169065e+001  3.405096e+001  2.069455e+001
      vertex -3.159682e+001  3.405487e+001  2.072301e+001
    endloop
  endfacet
  facet normal -4.157076e-002  9.991356e-001  2.574967e-005
    outer loop
      vertex -3.159682e+001  3.405487e+001  2.072301e+001
      vertex -3.169065e+001  3.405096e+001  2.069455e+001
      vertex -3.171541e+001  3.404993e+001  2.074228e+001
    endloop
  endfacet
  facet normal -4.156878e-002  9.991357e-001  3.795521e-005
    outer loop
      vertex -3.159682e+001  3.405487e+001  2.072301e+001
      vertex -3.171541e+001  3.404993e+001  2.074228e+001
      vertex -3.162143e+001  3.405384e+001  2.076313e+001
    endloop
  endfacet
  facet normal -4.155006e-002  9.991364e-001 -4.653861e-005
    outer loop
      vertex -3.162143e+001  3.405384e+001  2.076313e+001
      vertex -3.171541e+001  3.404993e+001  2.074228e+001
      vertex -3.173345e+001  3.404918e+001  2.079293e+001
    endloop
  endfacet
  facet normal -4.153229e-002  9.991372e-001  2.038161e-005
    outer loop
      vertex -3.162143e+001  3.405384e+001  2.076313e+001
      vertex -3.173345e+001  3.404918e+001  2.079293e+001
      vertex -3.163947e+001  3.405309e+001  2.080661e+001
    endloop
  endfacet
  facet normal -4.152847e-002  9.991373e-001 -5.915564e-006
    outer loop
      vertex -3.163947e+001  3.405309e+001  2.080661e+001
      vertex -3.173345e+001  3.404918e+001  2.079293e+001
      vertex -3.165049e+001  3.405263e+001  2.085237e+001
    endloop
  endfacet
  facet normal -4.154992e-002  9.991364e-001  2.408059e-005
    outer loop
      vertex -3.165049e+001  3.405263e+001  2.085237e+001
      vertex -3.173345e+001  3.404918e+001  2.079293e+001
      vertex -3.174443e+001  3.404873e+001  2.084557e+001
    endloop
  endfacet
  facet normal -4.154905e-002  9.991364e-001  1.190213e-005
    outer loop
      vertex -3.165049e+001  3.405263e+001  2.085237e+001
      vertex -3.174443e+001  3.404873e+001  2.084557e+001
      vertex -3.165422e+001  3.405247e+001  2.089930e+001
    endloop
  endfacet
  facet normal -4.155494e-002  9.991361e-001  2.182039e-005
    outer loop
      vertex -3.165422e+001  3.405247e+001  2.089930e+001
      vertex -3.174443e+001  3.404873e+001  2.084557e+001
      vertex -3.174814e+001  3.404857e+001  2.089922e+001
    endloop
  endfacet
  facet normal -4.155491e-002  9.991363e-001 -1.942235e-005
    outer loop
      vertex -3.165422e+001  3.405247e+001  2.089930e+001
      vertex -3.174814e+001  3.404857e+001  2.089922e+001
      vertex -3.165057e+001  3.405263e+001  2.094623e+001
    endloop
  endfacet
  facet normal -4.154554e-002  9.991366e-001 -3.889538e-005
    outer loop
      vertex -3.165057e+001  3.405263e+001  2.094623e+001
      vertex -3.174814e+001  3.404857e+001  2.089922e+001
      vertex -3.174452e+001  3.404872e+001  2.095287e+001
    endloop
  endfacet
  facet normal -4.154252e-002  9.991367e-001  3.903797e-006
    outer loop
      vertex -3.165057e+001  3.405263e+001  2.094623e+001
      vertex -3.174452e+001  3.404872e+001  2.095287e+001
      vertex -3.163963e+001  3.405308e+001  2.099202e+001
    endloop
  endfacet
  facet normal -4.154820e-002  9.991364e-001  1.913693e-005
    outer loop
      vertex -3.163963e+001  3.405308e+001  2.099202e+001
      vertex -3.174452e+001  3.404872e+001  2.095287e+001
      vertex -3.173364e+001  3.404918e+001  2.100553e+001
    endloop
  endfacet
  facet normal -4.155303e-002  9.991363e-001 -1.453797e-005
    outer loop
      vertex -3.163963e+001  3.405308e+001  2.099202e+001
      vertex -3.173364e+001  3.404918e+001  2.100553e+001
      vertex -3.162167e+001  3.405383e+001  2.103552e+001
    endloop
  endfacet
  facet normal -4.155068e-002  9.991364e-001 -2.332003e-005
    outer loop
      vertex -3.162167e+001  3.405383e+001  2.103552e+001
      vertex -3.173364e+001  3.404918e+001  2.100553e+001
      vertex -3.171569e+001  3.404992e+001  2.105621e+001
    endloop
  endfacet
  facet normal -4.155502e-002  9.991361e-001 -4.306422e-005
    outer loop
      vertex -3.162167e+001  3.405383e+001  2.103552e+001
      vertex -3.171569e+001  3.404992e+001  2.105621e+001
      vertex -3.159713e+001  3.405485e+001  2.107568e+001
    endloop
  endfacet
  facet normal -4.157798e-002  9.991353e-001  9.700510e-005
    outer loop
      vertex -3.159713e+001  3.405485e+001  2.107568e+001
      vertex -3.171569e+001  3.404992e+001  2.105621e+001
      vertex -3.156661e+001  3.405612e+001  2.111151e+001
    endloop
  endfacet
  facet normal -4.154789e-002  9.991365e-001  1.574146e-005
    outer loop
      vertex -3.156661e+001  3.405612e+001  2.111151e+001
      vertex -3.171569e+001  3.404992e+001  2.105621e+001
      vertex -3.169101e+001  3.405095e+001  2.110398e+001
    endloop
  endfacet
  facet normal -4.154005e-002  9.991369e-001 -1.141624e-004
    outer loop
      vertex -3.156661e+001  3.405612e+001  2.111151e+001
      vertex -3.169101e+001  3.405095e+001  2.110398e+001
      vertex -3.153088e+001  3.405761e+001  2.114211e+001
    endloop
  endfacet
  facet normal -4.156433e-002  9.991358e-001 -1.201180e-005
    outer loop
      vertex -3.153088e+001  3.405761e+001  2.114211e+001
      vertex -3.169101e+001  3.405095e+001  2.110398e+001
      vertex -3.166006e+001  3.405223e+001  2.114794e+001
    endloop
  endfacet
  facet normal -4.156165e-002  9.991360e-001  4.757003e-005
    outer loop
      vertex -3.153088e+001  3.405761e+001  2.114211e+001
      vertex -3.166006e+001  3.405223e+001  2.114794e+001
      vertex -3.149079e+001  3.405928e+001  2.116674e+001
    endloop
  endfacet
  facet normal -4.155979e-002  9.991360e-001  3.088026e-005
    outer loop
      vertex -3.149079e+001  3.405928e+001  2.116674e+001
      vertex -3.166006e+001  3.405223e+001  2.114794e+001
      vertex -3.162343e+001  3.405376e+001  2.118727e+001
    endloop
  endfacet
  facet normal -4.156187e-002  9.991360e-001  1.744227e-005
    outer loop
      vertex -3.149079e+001  3.405928e+001  2.116674e+001
      vertex -3.162343e+001  3.405376e+001  2.118727e+001
      vertex -3.144736e+001  3.406108e+001  2.118480e+001
    endloop
  endfacet
  facet normal -4.155700e-002  9.991361e-001  5.710077e-006
    outer loop
      vertex -3.121817e+001  3.407061e+001  2.063238e+001
      vertex -3.104890e+001  3.407765e+001  2.065118e+001
      vertex -3.126161e+001  3.406881e+001  2.061432e+001
    endloop
  endfacet
  facet normal -4.156166e-002  9.991359e-001  3.261926e-005
    outer loop
      vertex -3.126161e+001  3.406881e+001  2.061432e+001
      vertex -3.104890e+001  3.407765e+001  2.065118e+001
      vertex -3.108554e+001  3.407613e+001  2.061185e+001
    endloop
  endfacet
  facet normal -4.156115e-002  9.991359e-001  6.888768e-005
    outer loop
      vertex -3.126161e+001  3.406881e+001  2.061432e+001
      vertex -3.108554e+001  3.407613e+001  2.061185e+001
      vertex -3.130733e+001  3.406691e+001  2.060329e+001
    endloop
  endfacet
  facet normal -4.154150e-002  9.991368e-001 -2.811554e-005
    outer loop
      vertex -3.104890e+001  3.407765e+001  2.065118e+001
      vertex -3.117809e+001  3.407228e+001  2.065701e+001
      vertex -3.101795e+001  3.407894e+001  2.069514e+001
    endloop
  endfacet
  facet normal -4.154789e-002  9.991365e-001 -1.215065e-006
    outer loop
      vertex -3.101795e+001  3.407894e+001  2.069514e+001
      vertex -3.117809e+001  3.407228e+001  2.065701e+001
      vertex -3.114235e+001  3.407377e+001  2.068761e+001
    endloop
  endfacet
  facet normal -4.154497e-002  9.991367e-001 -4.960641e-005
    outer loop
      vertex -3.101795e+001  3.407894e+001  2.069514e+001
      vertex -3.114235e+001  3.407377e+001  2.068761e+001
      vertex -3.099328e+001  3.407997e+001  2.074290e+001
    endloop
  endfacet
  facet normal -4.156108e-002  9.991359e-001 -6.072836e-006
    outer loop
      vertex -3.099328e+001  3.407997e+001  2.074290e+001
      vertex -3.114235e+001  3.407377e+001  2.068761e+001
      vertex -3.111183e+001  3.407504e+001  2.072344e+001
    endloop
  endfacet
  facet normal -4.156920e-002  9.991357e-001  4.340617e-005
    outer loop
      vertex -3.099328e+001  3.407997e+001  2.074290e+001
      vertex -3.111183e+001  3.407504e+001  2.072344e+001
      vertex -3.097533e+001  3.408072e+001  2.079359e+001
    endloop
  endfacet
  facet normal -4.156779e-002  9.991356e-001  4.068026e-005
    outer loop
      vertex -3.097533e+001  3.408072e+001  2.079359e+001
      vertex -3.111183e+001  3.407504e+001  2.072344e+001
      vertex -3.108729e+001  3.407606e+001  2.076360e+001
    endloop
  endfacet
  facet normal -4.155303e-002  9.991363e-001 -1.453797e-005
    outer loop
      vertex -3.097533e+001  3.408072e+001  2.079359e+001
      vertex -3.108729e+001  3.407606e+001  2.076360e+001
      vertex -3.106933e+001  3.407681e+001  2.080710e+001
    endloop
  endfacet
  facet normal -4.155627e-002  9.991361e-001 -3.709353e-005
    outer loop
      vertex -3.097533e+001  3.408072e+001  2.079359e+001
      vertex -3.106933e+001  3.407681e+001  2.080710e+001
      vertex -3.096444e+001  3.408117e+001  2.084625e+001
    endloop
  endfacet
  facet normal -4.157439e-002  9.991354e-001  1.153059e-005
    outer loop
      vertex -3.096444e+001  3.408117e+001  2.084625e+001
      vertex -3.106933e+001  3.407681e+001  2.080710e+001
      vertex -3.105839e+001  3.407726e+001  2.085289e+001
    endloop
  endfacet
  facet normal -4.157380e-002  9.991355e-001  1.984511e-005
    outer loop
      vertex -3.096444e+001  3.408117e+001  2.084625e+001
      vertex -3.105839e+001  3.407726e+001  2.085289e+001
      vertex -3.096082e+001  3.408132e+001  2.089990e+001
    endloop
  endfacet
  facet normal -4.155626e-002  9.991362e-001 -1.661454e-005
    outer loop
      vertex -3.096082e+001  3.408132e+001  2.089990e+001
      vertex -3.105839e+001  3.407726e+001  2.085289e+001
      vertex -3.105474e+001  3.407741e+001  2.089982e+001
    endloop
  endfacet
  facet normal -4.155629e-002  9.991361e-001  2.172694e-005
    outer loop
      vertex -3.096082e+001  3.408132e+001  2.089990e+001
      vertex -3.105474e+001  3.407741e+001  2.089982e+001
      vertex -3.096454e+001  3.408116e+001  2.095355e+001
    endloop
  endfacet
  facet normal -4.154885e-002  9.991364e-001  9.215954e-006
    outer loop
      vertex -3.096454e+001  3.408116e+001  2.095355e+001
      vertex -3.105474e+001  3.407741e+001  2.089982e+001
      vertex -3.105847e+001  3.407726e+001  2.094675e+001
    endloop
  endfacet
  facet normal -4.154580e-002  9.991365e-001 -3.298058e-005
    outer loop
      vertex -3.096454e+001  3.408116e+001  2.095355e+001
      vertex -3.105847e+001  3.407726e+001  2.094675e+001
      vertex -3.097551e+001  3.408071e+001  2.100619e+001
    endloop
  endfacet
  facet normal -4.155976e-002  9.991360e-001 -1.346326e-005
    outer loop
      vertex -3.097551e+001  3.408071e+001  2.100619e+001
      vertex -3.105847e+001  3.407726e+001  2.094675e+001
      vertex -3.106949e+001  3.407680e+001  2.099251e+001
    endloop
  endfacet
  facet normal -4.156303e-002  9.991359e-001  9.031754e-006
    outer loop
      vertex -3.097551e+001  3.408071e+001  2.100619e+001
      vertex -3.106949e+001  3.407680e+001  2.099251e+001
      vertex -3.099355e+001  3.407996e+001  2.105684e+001
    endloop
  endfacet
  facet normal -4.156214e-002  9.991360e-001  7.976562e-006
    outer loop
      vertex -3.099355e+001  3.407996e+001  2.105684e+001
      vertex -3.106949e+001  3.407680e+001  2.099251e+001
      vertex -3.108753e+001  3.407605e+001  2.103599e+001
    endloop
  endfacet
  facet normal -4.155396e-002  9.991363e-001 -2.894409e-005
    outer loop
      vertex -3.099355e+001  3.407996e+001  2.105684e+001
      vertex -3.108753e+001  3.407605e+001  2.103599e+001
      vertex -3.111214e+001  3.407502e+001  2.107611e+001
    endloop
  endfacet
  facet normal -4.154273e-002  9.991367e-001  4.031873e-005
    outer loop
      vertex -3.099355e+001  3.407996e+001  2.105684e+001
      vertex -3.111214e+001  3.407502e+001  2.107611e+001
      vertex -3.101831e+001  3.407893e+001  2.110457e+001
    endloop
  endfacet
  facet normal -4.154086e-002  9.991368e-001  3.417306e-005
    outer loop
      vertex -3.101831e+001  3.407893e+001  2.110457e+001
      vertex -3.111214e+001  3.407502e+001  2.107611e+001
      vertex -3.114272e+001  3.407375e+001  2.111188e+001
    endloop
  endfacet
  facet normal -4.154563e-002  9.991366e-001 -4.696202e-005
    outer loop
      vertex -3.101831e+001  3.407893e+001  2.110457e+001
      vertex -3.114272e+001  3.407375e+001  2.111188e+001
      vertex -3.104933e+001  3.407764e+001  2.114847e+001
    endloop
  endfacet
  facet normal -4.156710e-002  9.991357e-001  7.923280e-006
    outer loop
      vertex -3.104933e+001  3.407764e+001  2.114847e+001
      vertex -3.114272e+001  3.407375e+001  2.111188e+001
      vertex -3.117851e+001  3.407226e+001  2.114242e+001
    endloop
  endfacet
  facet normal -4.156883e-002  9.991357e-001  4.485002e-005
    outer loop
      vertex -3.104933e+001  3.407764e+001  2.114847e+001
      vertex -3.117851e+001  3.407226e+001  2.114242e+001
      vertex -3.108604e+001  3.407611e+001  2.118774e+001
    endloop
  endfacet
  facet normal -4.155597e-002  9.991361e-001  1.858116e-005
    outer loop
      vertex -3.108604e+001  3.407611e+001  2.118774e+001
      vertex -3.117851e+001  3.407226e+001  2.114242e+001
      vertex -3.121863e+001  3.407059e+001  2.116698e+001
    endloop
  endfacet
  facet normal -4.154470e-002  9.991367e-001 -5.353708e-005
    outer loop
      vertex -3.108604e+001  3.407611e+001  2.118774e+001
      vertex -3.121863e+001  3.407059e+001  2.116698e+001
      vertex -3.126211e+001  3.406879e+001  2.118496e+001
    endloop
  endfacet
  facet normal -4.157474e-002  9.991354e-001  8.269716e-005
    outer loop
      vertex -3.130785e+001  3.406688e+001  2.119591e+001
      vertex -3.112775e+001  3.407438e+001  2.122164e+001
      vertex -3.126211e+001  3.406879e+001  2.118496e+001
    endloop
  endfacet
  facet normal -4.154514e-002  9.991366e-001 -2.590619e-005
    outer loop
      vertex -3.126211e+001  3.406879e+001  2.118496e+001
      vertex -3.112775e+001  3.407438e+001  2.122164e+001
      vertex -3.108604e+001  3.407611e+001  2.118774e+001
    endloop
  endfacet
  facet normal  4.155583e-002 -9.991362e-001 -1.882078e-005
    outer loop
      vertex -3.061994e+001  1.216655e+001  2.065670e+001
      vertex -3.074912e+001  1.216118e+001  2.065064e+001
      vertex -3.057982e+001  1.216822e+001  2.063214e+001
    endloop
  endfacet
  facet normal  4.155676e-002 -9.991361e-001 -3.511982e-006
    outer loop
      vertex -3.013839e+001  1.218658e+001  2.065118e+001
      vertex -3.026758e+001  1.218121e+001  2.065701e+001
      vertex -3.030766e+001  1.217954e+001  2.063238e+001
    endloop
  endfacet
  facet normal  4.155333e-002 -9.991363e-001 -9.884318e-006
    outer loop
      vertex -3.067127e+001  1.216442e+001  2.122125e+001
      vertex -3.071292e+001  1.216268e+001  2.118727e+001
      vertex -3.053685e+001  1.217001e+001  2.118480e+001
    endloop
  endfacet
  facet normal  4.155729e-002 -9.991361e-001  4.741095e-006
    outer loop
      vertex -3.067127e+001  1.216442e+001  2.122125e+001
      vertex -3.053685e+001  1.217001e+001  2.118480e+001
      vertex -3.049112e+001  1.217191e+001  2.119583e+001
    endloop
  endfacet
  facet normal  4.155719e-002 -9.991361e-001  4.008807e-006
    outer loop
      vertex -3.067127e+001  1.216442e+001  2.122125e+001
      vertex -3.049112e+001  1.217191e+001  2.119583e+001
      vertex -3.044423e+001  1.217386e+001  2.119956e+001
    endloop
  endfacet
  facet normal  4.155663e-002 -9.991361e-001 -1.894677e-006
    outer loop
      vertex -3.067127e+001  1.216442e+001  2.122125e+001
      vertex -3.044423e+001  1.217386e+001  2.119956e+001
      vertex -3.041745e+001  1.217497e+001  2.129266e+001
    endloop
  endfacet
  facet normal  4.155501e-002 -9.991362e-001  3.869279e-006
    outer loop
      vertex -3.067127e+001  1.216442e+001  2.122125e+001
      vertex -3.041745e+001  1.217497e+001  2.129266e+001
      vertex -3.047118e+001  1.217274e+001  2.129262e+001
    endloop
  endfacet
  facet normal  4.154517e-002 -9.991366e-001  3.148706e-005
    outer loop
      vertex -3.067127e+001  1.216442e+001  2.122125e+001
      vertex -3.047118e+001  1.217274e+001  2.129262e+001
      vertex -3.052440e+001  1.217053e+001  2.128525e+001
    endloop
  endfacet
  facet normal  4.156047e-002 -9.991360e-001 -3.682910e-006
    outer loop
      vertex -3.067127e+001  1.216442e+001  2.122125e+001
      vertex -3.052440e+001  1.217053e+001  2.128525e+001
      vertex -3.057613e+001  1.216837e+001  2.127069e+001
    endloop
  endfacet
  facet normal  4.158979e-002 -9.991348e-001 -6.018665e-005
    outer loop
      vertex -3.067127e+001  1.216442e+001  2.122125e+001
      vertex -3.057613e+001  1.216837e+001  2.127069e+001
      vertex -3.062539e+001  1.216632e+001  2.124923e+001
    endloop
  endfacet
  facet normal  4.156145e-002 -9.991360e-001 -5.374224e-005
    outer loop
      vertex -3.044423e+001  1.217386e+001  2.119956e+001
      vertex -3.039734e+001  1.217581e+001  2.119591e+001
      vertex -3.021724e+001  1.218330e+001  2.122164e+001
    endloop
  endfacet
  facet normal  4.155620e-002 -9.991361e-001  3.460414e-007
    outer loop
      vertex -3.044423e+001  1.217386e+001  2.119956e+001
      vertex -3.021724e+001  1.218330e+001  2.122164e+001
      vertex -3.026317e+001  1.218139e+001  2.124954e+001
    endloop
  endfacet
  facet normal  4.155315e-002 -9.991363e-001  1.140112e-005
    outer loop
      vertex -3.044423e+001  1.217386e+001  2.119956e+001
      vertex -3.026317e+001  1.218139e+001  2.124954e+001
      vertex -3.031247e+001  1.217934e+001  2.127093e+001
    endloop
  endfacet
  facet normal  4.155619e-002 -9.991361e-001  5.796065e-006
    outer loop
      vertex -3.044423e+001  1.217386e+001  2.119956e+001
      vertex -3.031247e+001  1.217934e+001  2.127093e+001
      vertex -3.036422e+001  1.217719e+001  2.128539e+001
    endloop
  endfacet
  facet normal  4.156790e-002 -9.991357e-001 -5.144121e-006
    outer loop
      vertex -3.044423e+001  1.217386e+001  2.119956e+001
      vertex -3.036422e+001  1.217719e+001  2.128539e+001
      vertex -3.041745e+001  1.217497e+001  2.129266e+001
    endloop
  endfacet
  facet normal  4.154669e-002 -9.991365e-001 -2.435882e-004
    outer loop
      vertex -3.044371e+001  1.217388e+001  2.059956e+001
      vertex -3.049060e+001  1.217193e+001  2.060321e+001
      vertex -3.071242e+001  1.216271e+001  2.061138e+001
    endloop
  endfacet
  facet normal  4.155720e-002 -9.991361e-001 -4.196394e-006
    outer loop
      vertex -3.044371e+001  1.217388e+001  2.059956e+001
      vertex -3.071242e+001  1.216271e+001  2.061138e+001
      vertex -3.067071e+001  1.216444e+001  2.057747e+001
    endloop
  endfacet
  facet normal  4.155706e-002 -9.991361e-001 -2.779153e-006
    outer loop
      vertex -3.044371e+001  1.217388e+001  2.059956e+001
      vertex -3.067071e+001  1.216444e+001  2.057747e+001
      vertex -3.062478e+001  1.216635e+001  2.054957e+001
    endloop
  endfacet
  facet normal  4.155216e-002 -9.991364e-001  1.502524e-005
    outer loop
      vertex -3.044371e+001  1.217388e+001  2.059956e+001
      vertex -3.062478e+001  1.216635e+001  2.054957e+001
      vertex -3.057548e+001  1.216840e+001  2.052819e+001
    endloop
  endfacet
  facet normal  4.155652e-002 -9.991362e-001  6.968213e-006
    outer loop
      vertex -3.044371e+001  1.217388e+001  2.059956e+001
      vertex -3.057548e+001  1.216840e+001  2.052819e+001
      vertex -3.052373e+001  1.217055e+001  2.051373e+001
    endloop
  endfacet
  facet normal  4.156808e-002 -9.991357e-001 -3.833157e-006
    outer loop
      vertex -3.044371e+001  1.217388e+001  2.059956e+001
      vertex -3.052373e+001  1.217055e+001  2.051373e+001
      vertex -3.047049e+001  1.217277e+001  2.050645e+001
    endloop
  endfacet
  facet normal  4.155736e-002 -9.991361e-001 -7.461431e-007
    outer loop
      vertex -3.044371e+001  1.217388e+001  2.059956e+001
      vertex -3.047049e+001  1.217277e+001  2.050645e+001
      vertex -3.041677e+001  1.217500e+001  2.050650e+001
    endloop
  endfacet
  facet normal  4.154993e-002 -9.991364e-001 -2.904206e-006
    outer loop
      vertex -3.044371e+001  1.217388e+001  2.059956e+001
      vertex -3.041677e+001  1.217500e+001  2.050650e+001
      vertex -3.036354e+001  1.217722e+001  2.051387e+001
    endloop
  endfacet
  facet normal  4.155811e-002 -9.991361e-001  4.757361e-006
    outer loop
      vertex -3.044371e+001  1.217388e+001  2.059956e+001
      vertex -3.036354e+001  1.217722e+001  2.051387e+001
      vertex -3.031182e+001  1.217937e+001  2.052843e+001
    endloop
  endfacet
  facet normal  4.156001e-002 -9.991361e-001  8.286755e-006
    outer loop
      vertex -3.044371e+001  1.217388e+001  2.059956e+001
      vertex -3.031182e+001  1.217937e+001  2.052843e+001
      vertex -3.026256e+001  1.218142e+001  2.054989e+001
    endloop
  endfacet
  facet normal  4.155546e-002 -9.991362e-001 -8.326409e-006
    outer loop
      vertex -3.044371e+001  1.217388e+001  2.059956e+001
      vertex -3.026256e+001  1.218142e+001  2.054989e+001
      vertex -3.021667e+001  1.218332e+001  2.057787e+001
    endloop
  endfacet
  facet normal  4.155541e-002 -9.991361e-001 -8.712077e-006
    outer loop
      vertex -3.044371e+001  1.217388e+001  2.059956e+001
      vertex -3.021667e+001  1.218332e+001  2.057787e+001
      vertex -3.017503e+001  1.218506e+001  2.061185e+001
    endloop
  endfacet
  facet normal  4.155531e-002 -9.991363e-001 -6.289769e-006
    outer loop
      vertex -3.044371e+001  1.217388e+001  2.059956e+001
      vertex -3.017503e+001  1.218506e+001  2.061185e+001
      vertex -3.039682e+001  1.217583e+001  2.060329e+001
    endloop
  endfacet
  facet normal  4.155513e-002 -9.991361e-001 -1.394654e-005
    outer loop
      vertex -3.049060e+001  1.217193e+001  2.060321e+001
      vertex -3.053635e+001  1.217003e+001  2.061416e+001
      vertex -3.071242e+001  1.216271e+001  2.061138e+001
    endloop
  endfacet
  facet normal  4.155447e-002 -9.991363e-001  2.774668e-005
    outer loop
      vertex -3.071242e+001  1.216271e+001  2.061138e+001
      vertex -3.053635e+001  1.217003e+001  2.061416e+001
      vertex -3.057982e+001  1.216822e+001  2.063214e+001
    endloop
  endfacet
  facet normal  4.155826e-002 -9.991361e-001  3.493167e-006
    outer loop
      vertex -3.071242e+001  1.216271e+001  2.061138e+001
      vertex -3.057982e+001  1.216822e+001  2.063214e+001
      vertex -3.074912e+001  1.216118e+001  2.065064e+001
    endloop
  endfacet
  facet normal  4.156083e-002 -9.991359e-001  6.096815e-006
    outer loop
      vertex -3.072896e+001  1.216202e+001  2.080661e+001
      vertex -3.082294e+001  1.215811e+001  2.079293e+001
      vertex -3.071093e+001  1.216277e+001  2.076313e+001
    endloop
  endfacet
  facet normal  4.155617e-002 -9.991362e-001 -1.148102e-005
    outer loop
      vertex -3.071093e+001  1.216277e+001  2.076313e+001
      vertex -3.082294e+001  1.215811e+001  2.079293e+001
      vertex -3.080490e+001  1.215886e+001  2.074228e+001
    endloop
  endfacet
  facet normal  4.155481e-002 -9.991362e-001 -5.373915e-006
    outer loop
      vertex -3.071093e+001  1.216277e+001  2.076313e+001
      vertex -3.080490e+001  1.215886e+001  2.074228e+001
      vertex -3.068631e+001  1.216379e+001  2.072301e+001
    endloop
  endfacet
  facet normal  4.155493e-002 -9.991363e-001 -4.692685e-006
    outer loop
      vertex -3.068631e+001  1.216379e+001  2.072301e+001
      vertex -3.080490e+001  1.215886e+001  2.074228e+001
      vertex -3.078015e+001  1.215989e+001  2.069455e+001
    endloop
  endfacet
  facet normal  4.155485e-002 -9.991363e-001 -4.438377e-006
    outer loop
      vertex -3.068631e+001  1.216379e+001  2.072301e+001
      vertex -3.078015e+001  1.215989e+001  2.069455e+001
      vertex -3.065574e+001  1.216506e+001  2.068724e+001
    endloop
  endfacet
  facet normal  4.155538e-002 -9.991361e-001  4.668138e-006
    outer loop
      vertex -3.065574e+001  1.216506e+001  2.068724e+001
      vertex -3.078015e+001  1.215989e+001  2.069455e+001
      vertex -3.074912e+001  1.216118e+001  2.065064e+001
    endloop
  endfacet
  facet normal  4.155464e-002 -9.991362e-001  6.561162e-006
    outer loop
      vertex -3.065574e+001  1.216506e+001  2.068724e+001
      vertex -3.074912e+001  1.216118e+001  2.065064e+001
      vertex -3.061994e+001  1.216655e+001  2.065670e+001
    endloop
  endfacet
  facet normal  4.155419e-002 -9.991362e-001  2.452522e-006
    outer loop
      vertex -3.068662e+001  1.216378e+001  2.107568e+001
      vertex -3.080518e+001  1.215885e+001  2.105621e+001
      vertex -3.071116e+001  1.216276e+001  2.103552e+001
    endloop
  endfacet
  facet normal  4.155563e-002 -9.991361e-001  9.025230e-006
    outer loop
      vertex -3.071116e+001  1.216276e+001  2.103552e+001
      vertex -3.080518e+001  1.215885e+001  2.105621e+001
      vertex -3.082313e+001  1.215810e+001  2.100553e+001
    endloop
  endfacet
  facet normal  4.155869e-002 -9.991360e-001 -2.409773e-006
    outer loop
      vertex -3.071116e+001  1.216276e+001  2.103552e+001
      vertex -3.082313e+001  1.215810e+001  2.100553e+001
      vertex -3.072912e+001  1.216201e+001  2.099202e+001
    endloop
  endfacet
  facet normal  4.155808e-002 -9.991361e-001 -6.706961e-006
    outer loop
      vertex -3.072912e+001  1.216201e+001  2.099202e+001
      vertex -3.082313e+001  1.215810e+001  2.100553e+001
      vertex -3.083401e+001  1.215765e+001  2.095287e+001
    endloop
  endfacet
  facet normal  4.155845e-002 -9.991360e-001 -7.717174e-006
    outer loop
      vertex -3.072912e+001  1.216201e+001  2.099202e+001
      vertex -3.083401e+001  1.215765e+001  2.095287e+001
      vertex -3.074006e+001  1.216156e+001  2.094623e+001
    endloop
  endfacet
  facet normal  4.155867e-002 -9.991361e-001 -4.614805e-006
    outer loop
      vertex -3.074006e+001  1.216156e+001  2.094623e+001
      vertex -3.083401e+001  1.215765e+001  2.095287e+001
      vertex -3.083763e+001  1.215750e+001  2.089922e+001
    endloop
  endfacet
  facet normal  4.155627e-002 -9.991362e-001  3.720980e-007
    outer loop
      vertex -3.074006e+001  1.216156e+001  2.094623e+001
      vertex -3.083763e+001  1.215750e+001  2.089922e+001
      vertex -3.074371e+001  1.216140e+001  2.089930e+001
    endloop
  endfacet
  facet normal  4.155627e-002 -9.991361e-001  6.689821e-006
    outer loop
      vertex -3.074371e+001  1.216140e+001  2.089930e+001
      vertex -3.083763e+001  1.215750e+001  2.089922e+001
      vertex -3.083392e+001  1.215765e+001  2.084557e+001
    endloop
  endfacet
  facet normal  4.155574e-002 -9.991362e-001  7.576523e-006
    outer loop
      vertex -3.074371e+001  1.216140e+001  2.089930e+001
      vertex -3.083392e+001  1.215765e+001  2.084557e+001
      vertex -3.073998e+001  1.216156e+001  2.085237e+001
    endloop
  endfacet
  facet normal  4.155584e-002 -9.991361e-001  6.117005e-006
    outer loop
      vertex -3.073998e+001  1.216156e+001  2.085237e+001
      vertex -3.083392e+001  1.215765e+001  2.084557e+001
      vertex -3.082294e+001  1.215811e+001  2.079293e+001
    endloop
  endfacet
  facet normal  4.156210e-002 -9.991359e-001 -2.629077e-006
    outer loop
      vertex -3.073998e+001  1.216156e+001  2.085237e+001
      vertex -3.082294e+001  1.215811e+001  2.079293e+001
      vertex -3.072896e+001  1.216202e+001  2.080661e+001
    endloop
  endfacet
  facet normal  4.155351e-002 -9.991363e-001  2.709782e-006
    outer loop
      vertex -3.053685e+001  1.217001e+001  2.118480e+001
      vertex -3.071292e+001  1.216268e+001  2.118727e+001
      vertex -3.058029e+001  1.216820e+001  2.116674e+001
    endloop
  endfacet
  facet normal  4.155543e-002 -9.991362e-001  1.517138e-005
    outer loop
      vertex -3.058029e+001  1.216820e+001  2.116674e+001
      vertex -3.071292e+001  1.216268e+001  2.118727e+001
      vertex -3.074956e+001  1.216116e+001  2.114794e+001
    endloop
  endfacet
  facet normal  4.155767e-002 -9.991361e-001 -5.000014e-006
    outer loop
      vertex -3.058029e+001  1.216820e+001  2.116674e+001
      vertex -3.074956e+001  1.216116e+001  2.114794e+001
      vertex -3.062037e+001  1.216653e+001  2.114211e+001
    endloop
  endfacet
  facet normal  4.155774e-002 -9.991361e-001 -3.564703e-006
    outer loop
      vertex -3.062037e+001  1.216653e+001  2.114211e+001
      vertex -3.074956e+001  1.216116e+001  2.114794e+001
      vertex -3.078050e+001  1.215987e+001  2.110398e+001
    endloop
  endfacet
  facet normal  4.155996e-002 -9.991361e-001 -1.290469e-005
    outer loop
      vertex -3.062037e+001  1.216653e+001  2.114211e+001
      vertex -3.078050e+001  1.215987e+001  2.110398e+001
      vertex -3.065611e+001  1.216505e+001  2.111151e+001
    endloop
  endfacet
  facet normal  4.155953e-002 -9.991360e-001 -5.804033e-006
    outer loop
      vertex -3.065611e+001  1.216505e+001  2.111151e+001
      vertex -3.078050e+001  1.215987e+001  2.110398e+001
      vertex -3.080518e+001  1.215885e+001  2.105621e+001
    endloop
  endfacet
  facet normal  4.155238e-002 -9.991363e-001  1.349999e-005
    outer loop
      vertex -3.065611e+001  1.216505e+001  2.111151e+001
      vertex -3.080518e+001  1.215885e+001  2.105621e+001
      vertex -3.068662e+001  1.216378e+001  2.107568e+001
    endloop
  endfacet
  facet normal  4.155390e-002 -9.991362e-001  3.033617e-005
    outer loop
      vertex -3.039682e+001  1.217583e+001  2.060329e+001
      vertex -3.017503e+001  1.218506e+001  2.061185e+001
      vertex -3.035110e+001  1.217773e+001  2.061432e+001
    endloop
  endfacet
  facet normal  4.155366e-002 -9.991363e-001  1.360142e-005
    outer loop
      vertex -3.035110e+001  1.217773e+001  2.061432e+001
      vertex -3.017503e+001  1.218506e+001  2.061185e+001
      vertex -3.013839e+001  1.218658e+001  2.065118e+001
    endloop
  endfacet
  facet normal  4.155700e-002 -9.991361e-001 -5.710077e-006
    outer loop
      vertex -3.035110e+001  1.217773e+001  2.061432e+001
      vertex -3.013839e+001  1.218658e+001  2.065118e+001
      vertex -3.030766e+001  1.217954e+001  2.063238e+001
    endloop
  endfacet
  facet normal  4.155957e-002 -9.991360e-001 -5.687356e-006
    outer loop
      vertex -3.015882e+001  1.218573e+001  2.080710e+001
      vertex -3.017678e+001  1.218498e+001  2.076360e+001
      vertex -3.006482e+001  1.218964e+001  2.079359e+001
    endloop
  endfacet
  facet normal  4.155802e-002 -9.991360e-001  1.088828e-007
    outer loop
      vertex -3.006482e+001  1.218964e+001  2.079359e+001
      vertex -3.017678e+001  1.218498e+001  2.076360e+001
      vertex -3.020132e+001  1.218396e+001  2.072344e+001
    endloop
  endfacet
  facet normal  4.155296e-002 -9.991364e-001  9.974828e-006
    outer loop
      vertex -3.006482e+001  1.218964e+001  2.079359e+001
      vertex -3.020132e+001  1.218396e+001  2.072344e+001
      vertex -3.008277e+001  1.218889e+001  2.074290e+001
    endloop
  endfacet
  facet normal  4.155238e-002 -9.991363e-001  1.349982e-005
    outer loop
      vertex -3.008277e+001  1.218889e+001  2.074290e+001
      vertex -3.020132e+001  1.218396e+001  2.072344e+001
      vertex -3.023184e+001  1.218269e+001  2.068761e+001
    endloop
  endfacet
  facet normal  4.155952e-002 -9.991360e-001 -5.803995e-006
    outer loop
      vertex -3.008277e+001  1.218889e+001  2.074290e+001
      vertex -3.023184e+001  1.218269e+001  2.068761e+001
      vertex -3.010744e+001  1.218787e+001  2.069514e+001
    endloop
  endfacet
  facet normal  4.155995e-002 -9.991360e-001 -1.290380e-005
    outer loop
      vertex -3.010744e+001  1.218787e+001  2.069514e+001
      vertex -3.023184e+001  1.218269e+001  2.068761e+001
      vertex -3.026758e+001  1.218121e+001  2.065701e+001
    endloop
  endfacet
  facet normal  4.155692e-002 -9.991362e-001 -9.885628e-008
    outer loop
      vertex -3.010744e+001  1.218787e+001  2.069514e+001
      vertex -3.026758e+001  1.218121e+001  2.065701e+001
      vertex -3.013839e+001  1.218658e+001  2.065118e+001
    endloop
  endfacet
  facet normal  4.155543e-002 -9.991362e-001 -8.156235e-006
    outer loop
      vertex -3.020163e+001  1.218395e+001  2.107611e+001
      vertex -3.017702e+001  1.218497e+001  2.103599e+001
      vertex -3.008304e+001  1.218888e+001  2.105684e+001
    endloop
  endfacet
  facet normal  4.155240e-002 -9.991363e-001  5.509728e-006
    outer loop
      vertex -3.008304e+001  1.218888e+001  2.105684e+001
      vertex -3.017702e+001  1.218497e+001  2.103599e+001
      vertex -3.015898e+001  1.218572e+001  2.099251e+001
    endloop
  endfacet
  facet normal  4.156269e-002 -9.991360e-001 -6.651107e-006
    outer loop
      vertex -3.008304e+001  1.218888e+001  2.105684e+001
      vertex -3.015898e+001  1.218572e+001  2.099251e+001
      vertex -3.006500e+001  1.218963e+001  2.100619e+001
    endloop
  endfacet
  facet normal  4.156211e-002 -9.991360e-001 -2.629003e-006
    outer loop
      vertex -3.006500e+001  1.218963e+001  2.100619e+001
      vertex -3.015898e+001  1.218572e+001  2.099251e+001
      vertex -3.014796e+001  1.218618e+001  2.094675e+001
    endloop
  endfacet
  facet normal  4.155584e-002 -9.991361e-001  6.117005e-006
    outer loop
      vertex -3.006500e+001  1.218963e+001  2.100619e+001
      vertex -3.014796e+001  1.218618e+001  2.094675e+001
      vertex -3.005403e+001  1.219009e+001  2.095355e+001
    endloop
  endfacet
  facet normal  4.155593e-002 -9.991362e-001  4.889767e-006
    outer loop
      vertex -3.005403e+001  1.219009e+001  2.095355e+001
      vertex -3.014796e+001  1.218618e+001  2.094675e+001
      vertex -3.014423e+001  1.218634e+001  2.089982e+001
    endloop
  endfacet
  facet normal  4.155627e-002 -9.991361e-001  4.325997e-006
    outer loop
      vertex -3.005403e+001  1.219009e+001  2.095355e+001
      vertex -3.014423e+001  1.218634e+001  2.089982e+001
      vertex -3.005031e+001  1.219024e+001  2.089990e+001
    endloop
  endfacet
  facet normal  4.155628e-002 -9.991362e-001  3.720854e-007
    outer loop
      vertex -3.005031e+001  1.219024e+001  2.089990e+001
      vertex -3.014423e+001  1.218634e+001  2.089982e+001
      vertex -3.014788e+001  1.218619e+001  2.085289e+001
    endloop
  endfacet
  facet normal  4.155867e-002 -9.991361e-001 -4.614941e-006
    outer loop
      vertex -3.005031e+001  1.219024e+001  2.089990e+001
      vertex -3.014788e+001  1.218619e+001  2.085289e+001
      vertex -3.005393e+001  1.219009e+001  2.084625e+001
    endloop
  endfacet
  facet normal  4.155864e-002 -9.991360e-001 -4.993070e-006
    outer loop
      vertex -3.005393e+001  1.219009e+001  2.084625e+001
      vertex -3.014788e+001  1.218619e+001  2.085289e+001
      vertex -3.015882e+001  1.218573e+001  2.080710e+001
    endloop
  endfacet
  facet normal  4.155938e-002 -9.991360e-001 -6.977617e-006
    outer loop
      vertex -3.005393e+001  1.219009e+001  2.084625e+001
      vertex -3.015882e+001  1.218573e+001  2.080710e+001
      vertex -3.006482e+001  1.218964e+001  2.079359e+001
    endloop
  endfacet
  facet normal  4.155447e-002 -9.991363e-001  2.774668e-005
    outer loop
      vertex -3.035160e+001  1.217771e+001  2.118496e+001
      vertex -3.030813e+001  1.217952e+001  2.116698e+001
      vertex -3.017553e+001  1.218504e+001  2.118774e+001
    endloop
  endfacet
  facet normal  4.155990e-002 -9.991360e-001 -6.990859e-006
    outer loop
      vertex -3.017553e+001  1.218504e+001  2.118774e+001
      vertex -3.030813e+001  1.217952e+001  2.116698e+001
      vertex -3.026800e+001  1.218119e+001  2.114242e+001
    endloop
  endfacet
  facet normal  4.155587e-002 -9.991362e-001  1.251282e-006
    outer loop
      vertex -3.017553e+001  1.218504e+001  2.118774e+001
      vertex -3.026800e+001  1.218119e+001  2.114242e+001
      vertex -3.013882e+001  1.218656e+001  2.114847e+001
    endloop
  endfacet
  facet normal  4.155575e-002 -9.991362e-001  3.715800e-006
    outer loop
      vertex -3.013882e+001  1.218656e+001  2.114847e+001
      vertex -3.026800e+001  1.218119e+001  2.114242e+001
      vertex -3.023221e+001  1.218268e+001  2.111188e+001
    endloop
  endfacet
  facet normal  4.155538e-002 -9.991361e-001  4.668138e-006
    outer loop
      vertex -3.013882e+001  1.218656e+001  2.114847e+001
      vertex -3.023221e+001  1.218268e+001  2.111188e+001
      vertex -3.010780e+001  1.218785e+001  2.110457e+001
    endloop
  endfacet
  facet normal  4.155506e-002 -9.991362e-001 -7.056087e-007
    outer loop
      vertex -3.010780e+001  1.218785e+001  2.110457e+001
      vertex -3.023221e+001  1.218268e+001  2.111188e+001
      vertex -3.020163e+001  1.218395e+001  2.107611e+001
    endloop
  endfacet
  facet normal  4.155609e-002 -9.991362e-001 -4.086970e-006
    outer loop
      vertex -3.010780e+001  1.218785e+001  2.110457e+001
      vertex -3.020163e+001  1.218395e+001  2.107611e+001
      vertex -3.008304e+001  1.218888e+001  2.105684e+001
    endloop
  endfacet
  facet normal  4.155554e-002 -9.991361e-001 -1.224504e-005
    outer loop
      vertex -3.039734e+001  1.217581e+001  2.119591e+001
      vertex -3.035160e+001  1.217771e+001  2.118496e+001
      vertex -3.021724e+001  1.218330e+001  2.122164e+001
    endloop
  endfacet
  facet normal  4.155508e-002 -9.991362e-001 -1.055703e-005
    outer loop
      vertex -3.021724e+001  1.218330e+001  2.122164e+001
      vertex -3.035160e+001  1.217771e+001  2.118496e+001
      vertex -3.017553e+001  1.218504e+001  2.118774e+001
    endloop
  endfacet
  facet normal  9.967502e-001  4.145746e-002  6.906774e-002
    outer loop
      vertex -3.005031e+001  1.219024e+001  2.089990e+001
      vertex -3.096082e+001  3.408132e+001  2.089990e+001
      vertex -3.005403e+001  1.219009e+001  2.095355e+001
    endloop
  endfacet
  facet normal  9.967462e-001  4.145743e-002  6.912535e-002
    outer loop
      vertex -3.005403e+001  1.219009e+001  2.095355e+001
      vertex -3.096082e+001  3.408132e+001  2.089990e+001
      vertex -3.096454e+001  3.408116e+001  2.095355e+001
    endloop
  endfacet
  facet normal  9.780615e-001  4.068029e-002  2.043056e-001
    outer loop
      vertex -3.005403e+001  1.219009e+001  2.095355e+001
      vertex -3.096454e+001  3.408116e+001  2.095355e+001
      vertex -3.006500e+001  1.218963e+001  2.100619e+001
    endloop
  endfacet
  facet normal  9.780618e-001  4.068029e-002  2.043044e-001
    outer loop
      vertex -3.006500e+001  1.218963e+001  2.100619e+001
      vertex -3.096454e+001  3.408116e+001  2.095355e+001
      vertex -3.097551e+001  3.408071e+001  2.100619e+001
    endloop
  endfacet
  facet normal  9.411423e-001  3.914471e-002  3.357365e-001
    outer loop
      vertex -3.006500e+001  1.218963e+001  2.100619e+001
      vertex -3.097551e+001  3.408071e+001  2.100619e+001
      vertex -3.008304e+001  1.218888e+001  2.105684e+001
    endloop
  endfacet
  facet normal  9.411601e-001  3.914532e-002  3.356861e-001
    outer loop
      vertex -3.008304e+001  1.218888e+001  2.105684e+001
      vertex -3.097551e+001  3.408071e+001  2.100619e+001
      vertex -3.099355e+001  3.407996e+001  2.105684e+001
    endloop
  endfacet
  facet normal  8.867227e-001  3.688113e-002  4.608281e-001
    outer loop
      vertex -3.008304e+001  1.218888e+001  2.105684e+001
      vertex -3.099355e+001  3.407996e+001  2.105684e+001
      vertex -3.010780e+001  1.218785e+001  2.110457e+001
    endloop
  endfacet
  facet normal  8.866991e-001  3.688027e-002  4.608737e-001
    outer loop
      vertex -3.010780e+001  1.218785e+001  2.110457e+001
      vertex -3.099355e+001  3.407996e+001  2.105684e+001
      vertex -3.101831e+001  3.407893e+001  2.110457e+001
    endloop
  endfacet
  facet normal  8.157477e-001  3.392920e-002  5.774119e-001
    outer loop
      vertex -3.010780e+001  1.218785e+001  2.110457e+001
      vertex -3.101831e+001  3.407893e+001  2.110457e+001
      vertex -3.013882e+001  1.218656e+001  2.114847e+001
    endloop
  endfacet
  facet normal  8.157749e-001  3.393022e-002  5.773734e-001
    outer loop
      vertex -3.013882e+001  1.218656e+001  2.114847e+001
      vertex -3.101831e+001  3.407893e+001  2.110457e+001
      vertex -3.104933e+001  3.407764e+001  2.114847e+001
    endloop
  endfacet
  facet normal  7.296103e-001  3.034640e-002  6.831895e-001
    outer loop
      vertex -3.013882e+001  1.218656e+001  2.114847e+001
      vertex -3.104933e+001  3.407764e+001  2.114847e+001
      vertex -3.017553e+001  1.218504e+001  2.118774e+001
    endloop
  endfacet
  facet normal  7.296097e-001  3.034638e-002  6.831901e-001
    outer loop
      vertex -3.017553e+001  1.218504e+001  2.118774e+001
      vertex -3.104933e+001  3.407764e+001  2.114847e+001
      vertex -3.108604e+001  3.407611e+001  2.118774e+001
    endloop
  endfacet
  facet normal  6.298863e-001  2.619863e-002  7.762453e-001
    outer loop
      vertex -3.017553e+001  1.218504e+001  2.118774e+001
      vertex -3.108604e+001  3.407611e+001  2.118774e+001
      vertex -3.021724e+001  1.218330e+001  2.122164e+001
    endloop
  endfacet
  facet normal  6.298592e-001  2.619758e-002  7.762673e-001
    outer loop
      vertex -3.021724e+001  1.218330e+001  2.122164e+001
      vertex -3.108604e+001  3.407611e+001  2.118774e+001
      vertex -3.112775e+001  3.407438e+001  2.122164e+001
    endloop
  endfacet
  facet normal  5.183845e-001  2.156104e-002  8.548758e-001
    outer loop
      vertex -3.021724e+001  1.218330e+001  2.122164e+001
      vertex -3.112775e+001  3.407438e+001  2.122164e+001
      vertex -3.026317e+001  1.218139e+001  2.124954e+001
    endloop
  endfacet
  facet normal  5.183845e-001  2.156104e-002  8.548758e-001
    outer loop
      vertex -3.026317e+001  1.218139e+001  2.124954e+001
      vertex -3.112775e+001  3.407438e+001  2.122164e+001
      vertex -3.117368e+001  3.407246e+001  2.124954e+001
    endloop
  endfacet
  facet normal  3.972582e-001  1.652307e-002  9.175582e-001
    outer loop
      vertex -3.026317e+001  1.218139e+001  2.124954e+001
      vertex -3.117368e+001  3.407246e+001  2.124954e+001
      vertex -3.031247e+001  1.217934e+001  2.127093e+001
    endloop
  endfacet
  facet normal  3.972582e-001  1.652307e-002  9.175582e-001
    outer loop
      vertex -3.031247e+001  1.217934e+001  2.127093e+001
      vertex -3.117368e+001  3.407246e+001  2.124954e+001
      vertex -3.122298e+001  3.407042e+001  2.127093e+001
    endloop
  endfacet
  facet normal  2.687365e-001  1.117749e-002  9.631490e-001
    outer loop
      vertex -3.031247e+001  1.217934e+001  2.127093e+001
      vertex -3.122298e+001  3.407042e+001  2.127093e+001
      vertex -3.036422e+001  1.217719e+001  2.128539e+001
    endloop
  endfacet
  facet normal  2.687365e-001  1.117749e-002  9.631490e-001
    outer loop
      vertex -3.036422e+001  1.217719e+001  2.128539e+001
      vertex -3.122298e+001  3.407042e+001  2.127093e+001
      vertex -3.127472e+001  3.406826e+001  2.128539e+001
    endloop
  endfacet
  facet normal  1.351754e-001  5.622317e-003  9.908057e-001
    outer loop
      vertex -3.036422e+001  1.217719e+001  2.128539e+001
      vertex -3.127472e+001  3.406826e+001  2.128539e+001
      vertex -3.041745e+001  1.217497e+001  2.129266e+001
    endloop
  endfacet
  facet normal  1.351754e-001  5.622317e-003  9.908057e-001
    outer loop
      vertex -3.041745e+001  1.217497e+001  2.129266e+001
      vertex -3.127472e+001  3.406826e+001  2.128539e+001
      vertex -3.132796e+001  3.406605e+001  2.129266e+001
    endloop
  endfacet
  facet normal -8.505112e-004 -3.537511e-005  9.999996e-001
    outer loop
      vertex -3.041745e+001  1.217497e+001  2.129266e+001
      vertex -3.132796e+001  3.406605e+001  2.129266e+001
      vertex -3.047118e+001  1.217274e+001  2.129262e+001
    endloop
  endfacet
  facet normal -8.505112e-004 -3.537511e-005  9.999996e-001
    outer loop
      vertex -3.047118e+001  1.217274e+001  2.129262e+001
      vertex -3.132796e+001  3.406605e+001  2.129266e+001
      vertex -3.138169e+001  3.406381e+001  2.129262e+001
    endloop
  endfacet
  facet normal -1.369314e-001 -5.695355e-003  9.905642e-001
    outer loop
      vertex -3.047118e+001  1.217274e+001  2.129262e+001
      vertex -3.138169e+001  3.406381e+001  2.129262e+001
      vertex -3.052440e+001  1.217053e+001  2.128525e+001
    endloop
  endfacet
  facet normal -1.369388e-001 -5.695643e-003  9.905632e-001
    outer loop
      vertex -3.052440e+001  1.217053e+001  2.128525e+001
      vertex -3.138169e+001  3.406381e+001  2.129262e+001
      vertex -3.143491e+001  3.406160e+001  2.128525e+001
    endloop
  endfacet
  facet normal -2.704051e-001 -1.124686e-002  9.626809e-001
    outer loop
      vertex -3.052440e+001  1.217053e+001  2.128525e+001
      vertex -3.143491e+001  3.406160e+001  2.128525e+001
      vertex -3.057613e+001  1.216837e+001  2.127069e+001
    endloop
  endfacet
  facet normal -2.704057e-001 -1.124689e-002  9.626808e-001
    outer loop
      vertex -3.057613e+001  1.216837e+001  2.127069e+001
      vertex -3.143491e+001  3.406160e+001  2.128525e+001
      vertex -3.148663e+001  3.405945e+001  2.127069e+001
    endloop
  endfacet
  facet normal -3.988423e-001 -1.658890e-002  9.168695e-001
    outer loop
      vertex -3.057613e+001  1.216837e+001  2.127069e+001
      vertex -3.148663e+001  3.405945e+001  2.127069e+001
      vertex -3.062539e+001  1.216632e+001  2.124923e+001
    endloop
  endfacet
  facet normal -3.988423e-001 -1.658890e-002  9.168695e-001
    outer loop
      vertex -3.062539e+001  1.216632e+001  2.124923e+001
      vertex -3.148663e+001  3.405945e+001  2.127069e+001
      vertex -3.153589e+001  3.405740e+001  2.124923e+001
    endloop
  endfacet
  facet normal -5.199100e-001 -2.162442e-002  8.539473e-001
    outer loop
      vertex -3.062539e+001  1.216632e+001  2.124923e+001
      vertex -3.153589e+001  3.405740e+001  2.124923e+001
      vertex -3.067127e+001  1.216442e+001  2.122125e+001
    endloop
  endfacet
  facet normal -5.198849e-001 -2.162345e-002  8.539627e-001
    outer loop
      vertex -3.067127e+001  1.216442e+001  2.122125e+001
      vertex -3.153589e+001  3.405740e+001  2.124923e+001
      vertex -3.158178e+001  3.405549e+001  2.122125e+001
    endloop
  endfacet
  facet normal -6.311885e-001 -2.625288e-002  7.751850e-001
    outer loop
      vertex -3.067127e+001  1.216442e+001  2.122125e+001
      vertex -3.158178e+001  3.405549e+001  2.122125e+001
      vertex -3.071292e+001  1.216268e+001  2.118727e+001
    endloop
  endfacet
  facet normal -6.312158e-001 -2.625392e-002  7.751629e-001
    outer loop
      vertex -3.071292e+001  1.216268e+001  2.118727e+001
      vertex -3.158178e+001  3.405549e+001  2.122125e+001
      vertex -3.162343e+001  3.405376e+001  2.118727e+001
    endloop
  endfacet
  facet normal -7.308162e-001 -3.039657e-002  6.818972e-001
    outer loop
      vertex -3.071292e+001  1.216268e+001  2.118727e+001
      vertex -3.162343e+001  3.405376e+001  2.118727e+001
      vertex -3.074956e+001  1.216116e+001  2.114794e+001
    endloop
  endfacet
  facet normal -7.307885e-001 -3.039552e-002  6.819268e-001
    outer loop
      vertex -3.074956e+001  1.216116e+001  2.114794e+001
      vertex -3.162343e+001  3.405376e+001  2.118727e+001
      vertex -3.166006e+001  3.405223e+001  2.114794e+001
    endloop
  endfacet
  facet normal -8.167549e-001 -3.397109e-002  5.759839e-001
    outer loop
      vertex -3.074956e+001  1.216116e+001  2.114794e+001
      vertex -3.166006e+001  3.405223e+001  2.114794e+001
      vertex -3.078050e+001  1.215987e+001  2.110398e+001
    endloop
  endfacet
  facet normal -8.167815e-001 -3.397209e-002  5.759459e-001
    outer loop
      vertex -3.078050e+001  1.215987e+001  2.110398e+001
      vertex -3.166006e+001  3.405223e+001  2.114794e+001
      vertex -3.169101e+001  3.405095e+001  2.110398e+001
    endloop
  endfacet
  facet normal -8.875231e-001 -3.691441e-002  4.592822e-001
    outer loop
      vertex -3.078050e+001  1.215987e+001  2.110398e+001
      vertex -3.169101e+001  3.405095e+001  2.110398e+001
      vertex -3.080518e+001  1.215885e+001  2.105621e+001
    endloop
  endfacet
  facet normal -8.875231e-001 -3.691441e-002  4.592822e-001
    outer loop
      vertex -3.080518e+001  1.215885e+001  2.105621e+001
      vertex -3.169101e+001  3.405095e+001  2.110398e+001
      vertex -3.171569e+001  3.404992e+001  2.105621e+001
    endloop
  endfacet
  facet normal -9.417429e-001 -3.916956e-002  3.340450e-001
    outer loop
      vertex -3.080518e+001  1.215885e+001  2.105621e+001
      vertex -3.171569e+001  3.404992e+001  2.105621e+001
      vertex -3.082313e+001  1.215810e+001  2.100553e+001
    endloop
  endfacet
  facet normal -9.417250e-001 -3.916895e-002  3.340954e-001
    outer loop
      vertex -3.082313e+001  1.215810e+001  2.100553e+001
      vertex -3.171569e+001  3.404992e+001  2.105621e+001
      vertex -3.173364e+001  3.404918e+001  2.100553e+001
    endloop
  endfacet
  facet normal -9.784149e-001 -4.069498e-002  2.026037e-001
    outer loop
      vertex -3.082313e+001  1.215810e+001  2.100553e+001
      vertex -3.173364e+001  3.404918e+001  2.100553e+001
      vertex -3.083401e+001  1.215765e+001  2.095287e+001
    endloop
  endfacet
  facet normal -9.784149e-001 -4.069498e-002  2.026037e-001
    outer loop
      vertex -3.083401e+001  1.215765e+001  2.095287e+001
      vertex -3.173364e+001  3.404918e+001  2.100553e+001
      vertex -3.174452e+001  3.404872e+001  2.095287e+001
    endloop
  endfacet
  facet normal -9.968666e-001 -4.146244e-002  6.736337e-002
    outer loop
      vertex -3.083401e+001  1.215765e+001  2.095287e+001
      vertex -3.174452e+001  3.404872e+001  2.095287e+001
      vertex -3.083763e+001  1.215750e+001  2.089922e+001
    endloop
  endfacet
  facet normal -9.968664e-001 -4.146244e-002  6.736572e-002
    outer loop
      vertex -3.083763e+001  1.215750e+001  2.089922e+001
      vertex -3.174452e+001  3.404872e+001  2.095287e+001
      vertex -3.174814e+001  3.404857e+001  2.089922e+001
    endloop
  endfacet
  facet normal -9.967463e-001 -4.145744e-002 -6.912300e-002
    outer loop
      vertex -3.083763e+001  1.215750e+001  2.089922e+001
      vertex -3.174814e+001  3.404857e+001  2.089922e+001
      vertex -3.083392e+001  1.215765e+001  2.084557e+001
    endloop
  endfacet
  facet normal -9.967462e-001 -4.145743e-002 -6.912535e-002
    outer loop
      vertex -3.083392e+001  1.215765e+001  2.084557e+001
      vertex -3.174814e+001  3.404857e+001  2.089922e+001
      vertex -3.174443e+001  3.404873e+001  2.084557e+001
    endloop
  endfacet
  facet normal -9.780613e-001 -4.068027e-002 -2.043067e-001
    outer loop
      vertex -3.083392e+001  1.215765e+001  2.084557e+001
      vertex -3.174443e+001  3.404873e+001  2.084557e+001
      vertex -3.082294e+001  1.215811e+001  2.079293e+001
    endloop
  endfacet
  facet normal -9.780613e-001 -4.068027e-002 -2.043067e-001
    outer loop
      vertex -3.082294e+001  1.215811e+001  2.079293e+001
      vertex -3.174443e+001  3.404873e+001  2.084557e+001
      vertex -3.173345e+001  3.404918e+001  2.079293e+001
    endloop
  endfacet
  facet normal -9.411570e-001 -3.914532e-002 -3.356951e-001
    outer loop
      vertex -3.082294e+001  1.215811e+001  2.079293e+001
      vertex -3.173345e+001  3.404918e+001  2.079293e+001
      vertex -3.080490e+001  1.215886e+001  2.074228e+001
    endloop
  endfacet
  facet normal -9.411577e-001 -3.914535e-002 -3.356930e-001
    outer loop
      vertex -3.080490e+001  1.215886e+001  2.074228e+001
      vertex -3.173345e+001  3.404918e+001  2.079293e+001
      vertex -3.171541e+001  3.404993e+001  2.074228e+001
    endloop
  endfacet
  facet normal -8.867293e-001 -3.688153e-002 -4.608155e-001
    outer loop
      vertex -3.080490e+001  1.215886e+001  2.074228e+001
      vertex -3.171541e+001  3.404993e+001  2.074228e+001
      vertex -3.078015e+001  1.215989e+001  2.069455e+001
    endloop
  endfacet
  facet normal -8.867052e-001 -3.688040e-002 -4.608621e-001
    outer loop
      vertex -3.078015e+001  1.215989e+001  2.069455e+001
      vertex -3.171541e+001  3.404993e+001  2.074228e+001
      vertex -3.169065e+001  3.405096e+001  2.069455e+001
    endloop
  endfacet
  facet normal -8.157471e-001 -3.392906e-002 -5.774127e-001
    outer loop
      vertex -3.078015e+001  1.215989e+001  2.069455e+001
      vertex -3.169065e+001  3.405096e+001  2.069455e+001
      vertex -3.074912e+001  1.216118e+001  2.065064e+001
    endloop
  endfacet
  facet normal -8.157738e-001 -3.393029e-002 -5.773749e-001
    outer loop
      vertex -3.074912e+001  1.216118e+001  2.065064e+001
      vertex -3.169065e+001  3.405096e+001  2.069455e+001
      vertex -3.165963e+001  3.405225e+001  2.065064e+001
    endloop
  endfacet
  facet normal -7.296109e-001 -3.034653e-002 -6.831889e-001
    outer loop
      vertex -3.074912e+001  1.216118e+001  2.065064e+001
      vertex -3.165963e+001  3.405225e+001  2.065064e+001
      vertex -3.071242e+001  1.216271e+001  2.061138e+001
    endloop
  endfacet
  facet normal -7.296109e-001 -3.034653e-002 -6.831889e-001
    outer loop
      vertex -3.071242e+001  1.216271e+001  2.061138e+001
      vertex -3.165963e+001  3.405225e+001  2.065064e+001
      vertex -3.162292e+001  3.405378e+001  2.061138e+001
    endloop
  endfacet
  facet normal -6.298581e-001 -2.619754e-002 -7.762684e-001
    outer loop
      vertex -3.071242e+001  1.216271e+001  2.061138e+001
      vertex -3.162292e+001  3.405378e+001  2.061138e+001
      vertex -3.067071e+001  1.216444e+001  2.057747e+001
    endloop
  endfacet
  facet normal -6.298592e-001 -2.619759e-002 -7.762674e-001
    outer loop
      vertex -3.067071e+001  1.216444e+001  2.057747e+001
      vertex -3.162292e+001  3.405378e+001  2.061138e+001
      vertex -3.158122e+001  3.405551e+001  2.057747e+001
    endloop
  endfacet
  facet normal -5.184096e-001 -2.156209e-002 -8.548605e-001
    outer loop
      vertex -3.067071e+001  1.216444e+001  2.057747e+001
      vertex -3.158122e+001  3.405551e+001  2.057747e+001
      vertex -3.062478e+001  1.216635e+001  2.054957e+001
    endloop
  endfacet
  facet normal -5.183845e-001 -2.156097e-002 -8.548757e-001
    outer loop
      vertex -3.062478e+001  1.216635e+001  2.054957e+001
      vertex -3.158122e+001  3.405551e+001  2.057747e+001
      vertex -3.153528e+001  3.405742e+001  2.054957e+001
    endloop
  endfacet
  facet normal -3.972379e-001 -1.652217e-002 -9.175668e-001
    outer loop
      vertex -3.062478e+001  1.216635e+001  2.054957e+001
      vertex -3.153528e+001  3.405742e+001  2.054957e+001
      vertex -3.057548e+001  1.216840e+001  2.052819e+001
    endloop
  endfacet
  facet normal -3.972582e-001 -1.652307e-002 -9.175581e-001
    outer loop
      vertex -3.057548e+001  1.216840e+001  2.052819e+001
      vertex -3.153528e+001  3.405742e+001  2.054957e+001
      vertex -3.148599e+001  3.405947e+001  2.052819e+001
    endloop
  endfacet
  facet normal -2.687362e-001 -1.117748e-002 -9.631490e-001
    outer loop
      vertex -3.057548e+001  1.216840e+001  2.052819e+001
      vertex -3.148599e+001  3.405947e+001  2.052819e+001
      vertex -3.052373e+001  1.217055e+001  2.051373e+001
    endloop
  endfacet
  facet normal -2.687359e-001 -1.117747e-002 -9.631491e-001
    outer loop
      vertex -3.052373e+001  1.217055e+001  2.051373e+001
      vertex -3.148599e+001  3.405947e+001  2.052819e+001
      vertex -3.143424e+001  3.406163e+001  2.051373e+001
    endloop
  endfacet
  facet normal -1.351755e-001 -5.622323e-003 -9.908057e-001
    outer loop
      vertex -3.052373e+001  1.217055e+001  2.051373e+001
      vertex -3.143424e+001  3.406163e+001  2.051373e+001
      vertex -3.047049e+001  1.217277e+001  2.050645e+001
    endloop
  endfacet
  facet normal -1.351757e-001 -5.622331e-003 -9.908057e-001
    outer loop
      vertex -3.047049e+001  1.217277e+001  2.050645e+001
      vertex -3.143424e+001  3.406163e+001  2.051373e+001
      vertex -3.138100e+001  3.406384e+001  2.050645e+001
    endloop
  endfacet
  facet normal  8.789103e-004  3.655631e-005 -9.999996e-001
    outer loop
      vertex -3.047049e+001  1.217277e+001  2.050645e+001
      vertex -3.138100e+001  3.406384e+001  2.050645e+001
      vertex -3.041677e+001  1.217500e+001  2.050650e+001
    endloop
  endfacet
  facet normal  8.788616e-004  3.655416e-005 -9.999996e-001
    outer loop
      vertex -3.041677e+001  1.217500e+001  2.050650e+001
      vertex -3.138100e+001  3.406384e+001  2.050645e+001
      vertex -3.132727e+001  3.406607e+001  2.050650e+001
    endloop
  endfacet
  facet normal  1.369036e-001  5.694179e-003 -9.905680e-001
    outer loop
      vertex -3.041677e+001  1.217500e+001  2.050650e+001
      vertex -3.132727e+001  3.406607e+001  2.050650e+001
      vertex -3.036354e+001  1.217722e+001  2.051387e+001
    endloop
  endfacet
  facet normal  1.369109e-001  5.694504e-003 -9.905670e-001
    outer loop
      vertex -3.036354e+001  1.217722e+001  2.051387e+001
      vertex -3.132727e+001  3.406607e+001  2.050650e+001
      vertex -3.127405e+001  3.406829e+001  2.051387e+001
    endloop
  endfacet
  facet normal  2.704051e-001  1.124690e-002 -9.626810e-001
    outer loop
      vertex -3.036354e+001  1.217722e+001  2.051387e+001
      vertex -3.127405e+001  3.406829e+001  2.051387e+001
      vertex -3.031182e+001  1.217937e+001  2.052843e+001
    endloop
  endfacet
  facet normal  2.704051e-001  1.124690e-002 -9.626810e-001
    outer loop
      vertex -3.031182e+001  1.217937e+001  2.052843e+001
      vertex -3.127405e+001  3.406829e+001  2.051387e+001
      vertex -3.122233e+001  3.407044e+001  2.052843e+001
    endloop
  endfacet
  facet normal  3.988427e-001  1.658897e-002 -9.168693e-001
    outer loop
      vertex -3.031182e+001  1.217937e+001  2.052843e+001
      vertex -3.122233e+001  3.407044e+001  2.052843e+001
      vertex -3.026256e+001  1.218142e+001  2.054989e+001
    endloop
  endfacet
  facet normal  3.988431e-001  1.658899e-002 -9.168691e-001
    outer loop
      vertex -3.026256e+001  1.218142e+001  2.054989e+001
      vertex -3.122233e+001  3.407044e+001  2.052843e+001
      vertex -3.117307e+001  3.407249e+001  2.054989e+001
    endloop
  endfacet
  facet normal  5.198843e-001  2.162343e-002 -8.539630e-001
    outer loop
      vertex -3.026256e+001  1.218142e+001  2.054989e+001
      vertex -3.117307e+001  3.407249e+001  2.054989e+001
      vertex -3.021667e+001  1.218332e+001  2.057787e+001
    endloop
  endfacet
  facet normal  5.198848e-001  2.162345e-002 -8.539627e-001
    outer loop
      vertex -3.021667e+001  1.218332e+001  2.057787e+001
      vertex -3.117307e+001  3.407249e+001  2.054989e+001
      vertex -3.112719e+001  3.407440e+001  2.057787e+001
    endloop
  endfacet
  facet normal  6.312339e-001  2.625476e-002 -7.751480e-001
    outer loop
      vertex -3.021667e+001  1.218332e+001  2.057787e+001
      vertex -3.112719e+001  3.407440e+001  2.057787e+001
      vertex -3.017503e+001  1.218506e+001  2.061185e+001
    endloop
  endfacet
  facet normal  6.312327e-001  2.625472e-002 -7.751490e-001
    outer loop
      vertex -3.017503e+001  1.218506e+001  2.061185e+001
      vertex -3.112719e+001  3.407440e+001  2.057787e+001
      vertex -3.108554e+001  3.407613e+001  2.061185e+001
    endloop
  endfacet
  facet normal  7.307874e-001  3.039547e-002 -6.819282e-001
    outer loop
      vertex -3.017503e+001  1.218506e+001  2.061185e+001
      vertex -3.108554e+001  3.407613e+001  2.061185e+001
      vertex -3.013839e+001  1.218658e+001  2.065118e+001
    endloop
  endfacet
  facet normal  7.307885e-001  3.039552e-002 -6.819269e-001
    outer loop
      vertex -3.013839e+001  1.218658e+001  2.065118e+001
      vertex -3.108554e+001  3.407613e+001  2.061185e+001
      vertex -3.104890e+001  3.407765e+001  2.065118e+001
    endloop
  endfacet
  facet normal  8.167728e-001  3.397184e-002 -5.759585e-001
    outer loop
      vertex -3.013839e+001  1.218658e+001  2.065118e+001
      vertex -3.104890e+001  3.407765e+001  2.065118e+001
      vertex -3.010744e+001  1.218787e+001  2.069514e+001
    endloop
  endfacet
  facet normal  8.167722e-001  3.397182e-002 -5.759593e-001
    outer loop
      vertex -3.010744e+001  1.218787e+001  2.069514e+001
      vertex -3.104890e+001  3.407765e+001  2.065118e+001
      vertex -3.101795e+001  3.407894e+001  2.069514e+001
    endloop
  endfacet
  facet normal  8.875226e-001  3.691452e-002 -4.592831e-001
    outer loop
      vertex -3.010744e+001  1.218787e+001  2.069514e+001
      vertex -3.101795e+001  3.407894e+001  2.069514e+001
      vertex -3.008277e+001  1.218889e+001  2.074290e+001
    endloop
  endfacet
  facet normal  8.875220e-001  3.691450e-002 -4.592840e-001
    outer loop
      vertex -3.008277e+001  1.218889e+001  2.074290e+001
      vertex -3.101795e+001  3.407894e+001  2.069514e+001
      vertex -3.099328e+001  3.407997e+001  2.074290e+001
    endloop
  endfacet
  facet normal  9.417433e-001  3.916971e-002 -3.340440e-001
    outer loop
      vertex -3.008277e+001  1.218889e+001  2.074290e+001
      vertex -3.099328e+001  3.407997e+001  2.074290e+001
      vertex -3.006482e+001  1.218964e+001  2.079359e+001
    endloop
  endfacet
  facet normal  9.417258e-001  3.916885e-002 -3.340933e-001
    outer loop
      vertex -3.006482e+001  1.218964e+001  2.079359e+001
      vertex -3.099328e+001  3.407997e+001  2.074290e+001
      vertex -3.097533e+001  3.408072e+001  2.079359e+001
    endloop
  endfacet
  facet normal  9.784158e-001  4.069488e-002 -2.025992e-001
    outer loop
      vertex -3.006482e+001  1.218964e+001  2.079359e+001
      vertex -3.097533e+001  3.408072e+001  2.079359e+001
      vertex -3.005393e+001  1.219009e+001  2.084625e+001
    endloop
  endfacet
  facet normal  9.784155e-001  4.069487e-002 -2.026004e-001
    outer loop
      vertex -3.005393e+001  1.219009e+001  2.084625e+001
      vertex -3.097533e+001  3.408072e+001  2.079359e+001
      vertex -3.096444e+001  3.408117e+001  2.084625e+001
    endloop
  endfacet
  facet normal  9.968664e-001  4.146229e-002 -6.736527e-002
    outer loop
      vertex -3.005393e+001  1.219009e+001  2.084625e+001
      vertex -3.096444e+001  3.408117e+001  2.084625e+001
      vertex -3.005031e+001  1.219024e+001  2.089990e+001
    endloop
  endfacet
  facet normal  9.968664e-001  4.146229e-002 -6.736527e-002
    outer loop
      vertex -3.005031e+001  1.219024e+001  2.089990e+001
      vertex -3.096444e+001  3.408117e+001  2.084625e+001
      vertex -3.096082e+001  3.408132e+001  2.089990e+001
    endloop
  endfacet
endsolid CATIA STL
