solid CATIA STL
  facet normal -7.753027e-002 -3.224698e-003 -9.969848e-001
    outer loop
      vertex -2.951793e+001 -1.009688e+001  2.119956e+001
      vertex -3.038155e+001  1.179614e+001  2.119591e+001
      vertex -2.947104e+001 -1.009494e+001  2.119591e+001
    endloop
  endfacet
  facet normal -2.323931e-001 -9.665873e-003 -9.725739e-001
    outer loop
      vertex -2.947104e+001 -1.009494e+001  2.119591e+001
      vertex -3.038155e+001  1.179614e+001  2.119591e+001
      vertex -3.033580e+001  1.179804e+001  2.118496e+001
    endloop
  endfacet
  facet normal -2.324078e-001 -9.666449e-003 -9.725704e-001
    outer loop
      vertex -2.947104e+001 -1.009494e+001  2.119591e+001
      vertex -3.033580e+001  1.179804e+001  2.118496e+001
      vertex -2.942530e+001 -1.009303e+001  2.118496e+001
    endloop
  endfacet
  facet normal -3.815427e-001 -1.586936e-002 -9.242150e-001
    outer loop
      vertex -2.942530e+001 -1.009303e+001  2.118496e+001
      vertex -3.033580e+001  1.179804e+001  2.118496e+001
      vertex -3.029233e+001  1.179985e+001  2.116698e+001
    endloop
  endfacet
  facet normal -3.815427e-001 -1.586936e-002 -9.242150e-001
    outer loop
      vertex -2.942530e+001 -1.009303e+001  2.118496e+001
      vertex -3.029233e+001  1.179985e+001  2.116698e+001
      vertex -2.938183e+001 -1.009122e+001  2.116698e+001
    endloop
  endfacet
  facet normal -5.213142e-001 -2.168283e-002 -8.530893e-001
    outer loop
      vertex -2.938183e+001 -1.009122e+001  2.116698e+001
      vertex -3.029233e+001  1.179985e+001  2.116698e+001
      vertex -3.025221e+001  1.180152e+001  2.114242e+001
    endloop
  endfacet
  facet normal -5.212854e-001 -2.168170e-002 -8.531069e-001
    outer loop
      vertex -2.938183e+001 -1.009122e+001  2.116698e+001
      vertex -3.025221e+001  1.180152e+001  2.114242e+001
      vertex -2.934170e+001 -1.008956e+001  2.114242e+001
    endloop
  endfacet
  facet normal -6.482379e-001 -2.696200e-002 -7.609603e-001
    outer loop
      vertex -2.934170e+001 -1.008956e+001  2.114242e+001
      vertex -3.025221e+001  1.180152e+001  2.114242e+001
      vertex -3.021642e+001  1.180301e+001  2.111188e+001
    endloop
  endfacet
  facet normal -6.482379e-001 -2.696200e-002 -7.609603e-001
    outer loop
      vertex -2.934170e+001 -1.008956e+001  2.114242e+001
      vertex -3.021642e+001  1.180301e+001  2.111188e+001
      vertex -2.930591e+001 -1.008807e+001  2.111188e+001
    endloop
  endfacet
  facet normal -7.591739e-001 -3.157614e-002 -6.501215e-001
    outer loop
      vertex -2.930591e+001 -1.008807e+001  2.111188e+001
      vertex -3.021642e+001  1.180301e+001  2.111188e+001
      vertex -3.018584e+001  1.180428e+001  2.107611e+001
    endloop
  endfacet
  facet normal -7.591739e-001 -3.157614e-002 -6.501215e-001
    outer loop
      vertex -2.930591e+001 -1.008807e+001  2.111188e+001
      vertex -3.018584e+001  1.180428e+001  2.107611e+001
      vertex -2.927533e+001 -1.008679e+001  2.107611e+001
    endloop
  endfacet
  facet normal -8.514306e-001 -3.541335e-002 -5.232704e-001
    outer loop
      vertex -2.927533e+001 -1.008679e+001  2.107611e+001
      vertex -3.018584e+001  1.180428e+001  2.107611e+001
      vertex -3.016123e+001  1.180530e+001  2.103599e+001
    endloop
  endfacet
  facet normal -8.514594e-001 -3.541443e-002 -5.232233e-001
    outer loop
      vertex -2.927533e+001 -1.008679e+001  2.107611e+001
      vertex -3.016123e+001  1.180530e+001  2.103599e+001
      vertex -2.925072e+001 -1.008577e+001  2.103599e+001
    endloop
  endfacet
  facet normal -9.227552e-001 -3.837981e-002 -3.834708e-001
    outer loop
      vertex -2.925072e+001 -1.008577e+001  2.103599e+001
      vertex -3.016123e+001  1.180530e+001  2.103599e+001
      vertex -3.014319e+001  1.180605e+001  2.099251e+001
    endloop
  endfacet
  facet normal -9.227322e-001 -3.837898e-002 -3.835260e-001
    outer loop
      vertex -2.925072e+001 -1.008577e+001  2.103599e+001
      vertex -3.014319e+001  1.180605e+001  2.099251e+001
      vertex -2.923268e+001 -1.008502e+001  2.099251e+001
    endloop
  endfacet
  facet normal -9.713270e-001 -4.040018e-002 -2.342895e-001
    outer loop
      vertex -2.923268e+001 -1.008502e+001  2.099251e+001
      vertex -3.014319e+001  1.180605e+001  2.099251e+001
      vertex -3.013217e+001  1.180651e+001  2.094675e+001
    endloop
  endfacet
  facet normal -9.713270e-001 -4.040018e-002 -2.342895e-001
    outer loop
      vertex -2.923268e+001 -1.008502e+001  2.099251e+001
      vertex -3.013217e+001  1.180651e+001  2.094675e+001
      vertex -2.922166e+001 -1.008456e+001  2.094675e+001
    endloop
  endfacet
  facet normal -9.959854e-001 -4.142579e-002 -7.935247e-002
    outer loop
      vertex -2.922166e+001 -1.008456e+001  2.094675e+001
      vertex -3.013217e+001  1.180651e+001  2.094675e+001
      vertex -3.012844e+001  1.180667e+001  2.089982e+001
    endloop
  endfacet
  facet normal -9.959906e-001 -4.142586e-002 -7.928810e-002
    outer loop
      vertex -2.922166e+001 -1.008456e+001  2.094675e+001
      vertex -3.012844e+001  1.180667e+001  2.089982e+001
      vertex -2.921793e+001 -1.008441e+001  2.089982e+001
    endloop
  endfacet
  facet normal -7.753027e-002 -3.224698e-003 -9.969848e-001
    outer loop
      vertex -3.038155e+001  1.179614e+001  2.119591e+001
      vertex -2.951793e+001 -1.009688e+001  2.119956e+001
      vertex -3.042844e+001  1.179419e+001  2.119956e+001
    endloop
  endfacet
  facet normal  7.924624e-002  3.296070e-003 -9.968496e-001
    outer loop
      vertex -3.042844e+001  1.179419e+001  2.119956e+001
      vertex -2.951793e+001 -1.009688e+001  2.119956e+001
      vertex -2.956482e+001 -1.009883e+001  2.119583e+001
    endloop
  endfacet
  facet normal  7.924624e-002  3.296070e-003 -9.968496e-001
    outer loop
      vertex -3.042844e+001  1.179419e+001  2.119956e+001
      vertex -2.956482e+001 -1.009883e+001  2.119583e+001
      vertex -3.047533e+001  1.179224e+001  2.119583e+001
    endloop
  endfacet
  facet normal  2.341041e-001  9.737038e-003 -9.721628e-001
    outer loop
      vertex -3.047533e+001  1.179224e+001  2.119583e+001
      vertex -2.956482e+001 -1.009883e+001  2.119583e+001
      vertex -2.961055e+001 -1.010074e+001  2.118480e+001
    endloop
  endfacet
  facet normal  2.341189e-001  9.737618e-003 -9.721593e-001
    outer loop
      vertex -3.047533e+001  1.179224e+001  2.119583e+001
      vertex -2.961055e+001 -1.010074e+001  2.118480e+001
      vertex -3.052106e+001  1.179034e+001  2.118480e+001
    endloop
  endfacet
  facet normal  3.831536e-001  1.593637e-002 -9.235471e-001
    outer loop
      vertex -3.052106e+001  1.179034e+001  2.118480e+001
      vertex -2.961055e+001 -1.010074e+001  2.118480e+001
      vertex -2.965399e+001 -1.010254e+001  2.116674e+001
    endloop
  endfacet
  facet normal  3.831536e-001  1.593637e-002 -9.235471e-001
    outer loop
      vertex -3.052106e+001  1.179034e+001  2.118480e+001
      vertex -2.965399e+001 -1.010254e+001  2.116674e+001
      vertex -3.056449e+001  1.178853e+001  2.116674e+001
    endloop
  endfacet
  facet normal  5.228015e-001  2.174469e-002 -8.521771e-001
    outer loop
      vertex -3.056449e+001  1.178853e+001  2.116674e+001
      vertex -2.965399e+001 -1.010254e+001  2.116674e+001
      vertex -2.969407e+001 -1.010421e+001  2.114211e+001
    endloop
  endfacet
  facet normal  5.228015e-001  2.174469e-002 -8.521771e-001
    outer loop
      vertex -3.056449e+001  1.178853e+001  2.116674e+001
      vertex -2.969407e+001 -1.010421e+001  2.114211e+001
      vertex -3.060457e+001  1.178686e+001  2.114211e+001
    endloop
  endfacet
  facet normal  6.495316e-001  2.701573e-002 -7.598546e-001
    outer loop
      vertex -3.060457e+001  1.178686e+001  2.114211e+001
      vertex -2.969407e+001 -1.010421e+001  2.114211e+001
      vertex -2.972981e+001 -1.010570e+001  2.111151e+001
    endloop
  endfacet
  facet normal  6.495316e-001  2.701573e-002 -7.598546e-001
    outer loop
      vertex -3.060457e+001  1.178686e+001  2.114211e+001
      vertex -2.972981e+001 -1.010570e+001  2.111151e+001
      vertex -3.064031e+001  1.178538e+001  2.111151e+001
    endloop
  endfacet
  facet normal  7.603245e-001  3.162389e-002 -6.487732e-001
    outer loop
      vertex -3.064031e+001  1.178538e+001  2.111151e+001
      vertex -2.972981e+001 -1.010570e+001  2.111151e+001
      vertex -2.976032e+001 -1.010697e+001  2.107568e+001
    endloop
  endfacet
  facet normal  7.602925e-001  3.162267e-002 -6.488107e-001
    outer loop
      vertex -3.064031e+001  1.178538e+001  2.111151e+001
      vertex -2.976032e+001 -1.010697e+001  2.107568e+001
      vertex -3.067083e+001  1.178411e+001  2.107568e+001
    endloop
  endfacet
  facet normal  8.523801e-001  3.545284e-002 -5.217196e-001
    outer loop
      vertex -3.067083e+001  1.178411e+001  2.107568e+001
      vertex -2.976032e+001 -1.010697e+001  2.107568e+001
      vertex -2.978486e+001 -1.010799e+001  2.103552e+001
    endloop
  endfacet
  facet normal  8.523801e-001  3.545284e-002 -5.217196e-001
    outer loop
      vertex -3.067083e+001  1.178411e+001  2.107568e+001
      vertex -2.978486e+001 -1.010799e+001  2.103552e+001
      vertex -3.069537e+001  1.178309e+001  2.103552e+001
    endloop
  endfacet
  facet normal  9.234053e-001  3.840698e-002 -3.818998e-001
    outer loop
      vertex -3.069537e+001  1.178309e+001  2.103552e+001
      vertex -2.978486e+001 -1.010799e+001  2.103552e+001
      vertex -2.980282e+001 -1.010873e+001  2.099202e+001
    endloop
  endfacet
  facet normal  9.234053e-001  3.840698e-002 -3.818998e-001
    outer loop
      vertex -3.069537e+001  1.178309e+001  2.103552e+001
      vertex -2.980282e+001 -1.010873e+001  2.099202e+001
      vertex -3.071333e+001  1.178234e+001  2.099202e+001
    endloop
  endfacet
  facet normal  9.717308e-001  4.041697e-002 -2.326064e-001
    outer loop
      vertex -3.071333e+001  1.178234e+001  2.099202e+001
      vertex -2.980282e+001 -1.010873e+001  2.099202e+001
      vertex -2.981376e+001 -1.010919e+001  2.094623e+001
    endloop
  endfacet
  facet normal  9.717454e-001  4.041744e-002 -2.325451e-001
    outer loop
      vertex -3.071333e+001  1.178234e+001  2.099202e+001
      vertex -2.981376e+001 -1.010919e+001  2.094623e+001
      vertex -3.072427e+001  1.178188e+001  2.094623e+001
    endloop
  endfacet
  facet normal  9.961233e-001  4.143138e-002 -7.760026e-002
    outer loop
      vertex -3.072427e+001  1.178188e+001  2.094623e+001
      vertex -2.981376e+001 -1.010919e+001  2.094623e+001
      vertex -2.981741e+001 -1.010934e+001  2.089930e+001
    endloop
  endfacet
  facet normal  9.961233e-001  4.143138e-002 -7.760026e-002
    outer loop
      vertex -3.072427e+001  1.178188e+001  2.094623e+001
      vertex -2.981741e+001 -1.010934e+001  2.089930e+001
      vertex -3.072792e+001  1.178173e+001  2.089930e+001
    endloop
  endfacet
  facet normal  7.753027e-002  3.224688e-003  9.969848e-001
    outer loop
      vertex -2.951741e+001 -1.009686e+001  2.059956e+001
      vertex -3.047481e+001  1.179226e+001  2.060321e+001
      vertex -2.956430e+001 -1.009881e+001  2.060321e+001
    endloop
  endfacet
  facet normal  2.323926e-001  9.665816e-003  9.725741e-001
    outer loop
      vertex -2.956430e+001 -1.009881e+001  2.060321e+001
      vertex -3.047481e+001  1.179226e+001  2.060321e+001
      vertex -3.052056e+001  1.179036e+001  2.061416e+001
    endloop
  endfacet
  facet normal  2.324072e-001  9.666458e-003  9.725706e-001
    outer loop
      vertex -2.956430e+001 -1.009881e+001  2.060321e+001
      vertex -3.052056e+001  1.179036e+001  2.061416e+001
      vertex -2.961005e+001 -1.010072e+001  2.061416e+001
    endloop
  endfacet
  facet normal  3.815418e-001  1.586938e-002  9.242154e-001
    outer loop
      vertex -2.961005e+001 -1.010072e+001  2.061416e+001
      vertex -3.052056e+001  1.179036e+001  2.061416e+001
      vertex -3.056403e+001  1.178855e+001  2.063214e+001
    endloop
  endfacet
  facet normal  3.815189e-001  1.586837e-002  9.242249e-001
    outer loop
      vertex -2.961005e+001 -1.010072e+001  2.061416e+001
      vertex -3.056403e+001  1.178855e+001  2.063214e+001
      vertex -2.965352e+001 -1.010252e+001  2.063214e+001
    endloop
  endfacet
  facet normal  5.212848e-001  2.168160e-002  8.531073e-001
    outer loop
      vertex -2.965352e+001 -1.010252e+001  2.063214e+001
      vertex -3.056403e+001  1.178855e+001  2.063214e+001
      vertex -3.060415e+001  1.178688e+001  2.065670e+001
    endloop
  endfacet
  facet normal  5.213137e-001  2.168288e-002  8.530897e-001
    outer loop
      vertex -2.965352e+001 -1.010252e+001  2.063214e+001
      vertex -3.060415e+001  1.178688e+001  2.065670e+001
      vertex -2.969364e+001 -1.010419e+001  2.065670e+001
    endloop
  endfacet
  facet normal  6.482379e-001  2.696200e-002  7.609603e-001
    outer loop
      vertex -2.969364e+001 -1.010419e+001  2.065670e+001
      vertex -3.060415e+001  1.178688e+001  2.065670e+001
      vertex -3.063994e+001  1.178539e+001  2.068724e+001
    endloop
  endfacet
  facet normal  6.482379e-001  2.696200e-002  7.609603e-001
    outer loop
      vertex -2.969364e+001 -1.010419e+001  2.065670e+001
      vertex -3.063994e+001  1.178539e+001  2.068724e+001
      vertex -2.972943e+001 -1.010568e+001  2.068724e+001
    endloop
  endfacet
  facet normal  7.591732e-001  3.157611e-002  6.501223e-001
    outer loop
      vertex -2.972943e+001 -1.010568e+001  2.068724e+001
      vertex -3.063994e+001  1.178539e+001  2.068724e+001
      vertex -3.067052e+001  1.178412e+001  2.072301e+001
    endloop
  endfacet
  facet normal  7.591732e-001  3.157611e-002  6.501223e-001
    outer loop
      vertex -2.972943e+001 -1.010568e+001  2.068724e+001
      vertex -3.067052e+001  1.178412e+001  2.072301e+001
      vertex -2.976001e+001 -1.010695e+001  2.072301e+001
    endloop
  endfacet
  facet normal  8.514588e-001  3.541453e-002  5.232244e-001
    outer loop
      vertex -2.976001e+001 -1.010695e+001  2.072301e+001
      vertex -3.067052e+001  1.178412e+001  2.072301e+001
      vertex -3.069513e+001  1.178310e+001  2.076313e+001
    endloop
  endfacet
  facet normal  8.514299e-001  3.541321e-002  5.232714e-001
    outer loop
      vertex -2.976001e+001 -1.010695e+001  2.072301e+001
      vertex -3.069513e+001  1.178310e+001  2.076313e+001
      vertex -2.978463e+001 -1.010798e+001  2.076313e+001
    endloop
  endfacet
  facet normal  9.227371e-001  3.837905e-002  3.835146e-001
    outer loop
      vertex -2.978463e+001 -1.010798e+001  2.076313e+001
      vertex -3.069513e+001  1.178310e+001  2.076313e+001
      vertex -3.071317e+001  1.178235e+001  2.080661e+001
    endloop
  endfacet
  facet normal  9.227600e-001  3.838014e-002  3.834593e-001
    outer loop
      vertex -2.978463e+001 -1.010798e+001  2.076313e+001
      vertex -3.071317e+001  1.178235e+001  2.080661e+001
      vertex -2.980266e+001 -1.010873e+001  2.080661e+001
    endloop
  endfacet
  facet normal  9.713252e-001  4.040010e-002  2.342968e-001
    outer loop
      vertex -2.980266e+001 -1.010873e+001  2.080661e+001
      vertex -3.071317e+001  1.178235e+001  2.080661e+001
      vertex -3.072419e+001  1.178189e+001  2.085237e+001
    endloop
  endfacet
  facet normal  9.713252e-001  4.040010e-002  2.342968e-001
    outer loop
      vertex -2.980266e+001 -1.010873e+001  2.080661e+001
      vertex -3.072419e+001  1.178189e+001  2.085237e+001
      vertex -2.981368e+001 -1.010919e+001  2.085237e+001
    endloop
  endfacet
  facet normal  9.959908e-001  4.142601e-002  7.928555e-002
    outer loop
      vertex -2.981368e+001 -1.010919e+001  2.085237e+001
      vertex -3.072419e+001  1.178189e+001  2.085237e+001
      vertex -3.072792e+001  1.178173e+001  2.089930e+001
    endloop
  endfacet
  facet normal  9.959857e-001  4.142566e-002  7.934991e-002
    outer loop
      vertex -2.981368e+001 -1.010919e+001  2.085237e+001
      vertex -3.072792e+001  1.178173e+001  2.089930e+001
      vertex -2.981741e+001 -1.010934e+001  2.089930e+001
    endloop
  endfacet
  facet normal  7.753529e-002  3.224907e-003  9.969844e-001
    outer loop
      vertex -3.047481e+001  1.179226e+001  2.060321e+001
      vertex -2.951741e+001 -1.009686e+001  2.059956e+001
      vertex -3.042792e+001  1.179421e+001  2.059956e+001
    endloop
  endfacet
  facet normal -7.927842e-002 -3.297409e-003  9.968470e-001
    outer loop
      vertex -3.042792e+001  1.179421e+001  2.059956e+001
      vertex -2.951741e+001 -1.009686e+001  2.059956e+001
      vertex -2.947052e+001 -1.009491e+001  2.060329e+001
    endloop
  endfacet
  facet normal -7.927842e-002 -3.297409e-003  9.968470e-001
    outer loop
      vertex -3.042792e+001  1.179421e+001  2.059956e+001
      vertex -2.947052e+001 -1.009491e+001  2.060329e+001
      vertex -3.038103e+001  1.179616e+001  2.060329e+001
    endloop
  endfacet
  facet normal -2.340882e-001 -9.736377e-003  9.721666e-001
    outer loop
      vertex -3.038103e+001  1.179616e+001  2.060329e+001
      vertex -2.947052e+001 -1.009491e+001  2.060329e+001
      vertex -2.942480e+001 -1.009301e+001  2.061432e+001
    endloop
  endfacet
  facet normal -2.340735e-001 -9.735732e-003  9.721702e-001
    outer loop
      vertex -3.038103e+001  1.179616e+001  2.060329e+001
      vertex -2.942480e+001 -1.009301e+001  2.061432e+001
      vertex -3.033531e+001  1.179806e+001  2.061432e+001
    endloop
  endfacet
  facet normal -3.831536e-001 -1.593637e-002  9.235471e-001
    outer loop
      vertex -3.033531e+001  1.179806e+001  2.061432e+001
      vertex -2.942480e+001 -1.009301e+001  2.061432e+001
      vertex -2.938136e+001 -1.009120e+001  2.063238e+001
    endloop
  endfacet
  facet normal -3.831536e-001 -1.593637e-002  9.235471e-001
    outer loop
      vertex -3.033531e+001  1.179806e+001  2.061432e+001
      vertex -2.938136e+001 -1.009120e+001  2.063238e+001
      vertex -3.029187e+001  1.179987e+001  2.063238e+001
    endloop
  endfacet
  facet normal -5.228009e-001 -2.174466e-002  8.521775e-001
    outer loop
      vertex -3.029187e+001  1.179987e+001  2.063238e+001
      vertex -2.938136e+001 -1.009120e+001  2.063238e+001
      vertex -2.934128e+001 -1.008954e+001  2.065701e+001
    endloop
  endfacet
  facet normal -5.228009e-001 -2.174466e-002  8.521775e-001
    outer loop
      vertex -3.029187e+001  1.179987e+001  2.063238e+001
      vertex -2.934128e+001 -1.008954e+001  2.065701e+001
      vertex -3.025179e+001  1.180154e+001  2.065701e+001
    endloop
  endfacet
  facet normal -6.495503e-001 -2.701650e-002  7.598385e-001
    outer loop
      vertex -3.025179e+001  1.180154e+001  2.065701e+001
      vertex -2.934128e+001 -1.008954e+001  2.065701e+001
      vertex -2.930554e+001 -1.008805e+001  2.068761e+001
    endloop
  endfacet
  facet normal -6.495503e-001 -2.701650e-002  7.598385e-001
    outer loop
      vertex -3.025179e+001  1.180154e+001  2.065701e+001
      vertex -2.930554e+001 -1.008805e+001  2.068761e+001
      vertex -3.021605e+001  1.180302e+001  2.068761e+001
    endloop
  endfacet
  facet normal -7.602918e-001 -3.162253e-002  6.488114e-001
    outer loop
      vertex -3.021605e+001  1.180302e+001  2.068761e+001
      vertex -2.930554e+001 -1.008805e+001  2.068761e+001
      vertex -2.927502e+001 -1.008678e+001  2.072344e+001
    endloop
  endfacet
  facet normal -7.603238e-001 -3.162397e-002  6.487740e-001
    outer loop
      vertex -3.021605e+001  1.180302e+001  2.068761e+001
      vertex -2.927502e+001 -1.008678e+001  2.072344e+001
      vertex -3.018553e+001  1.180429e+001  2.072344e+001
    endloop
  endfacet
  facet normal -8.523706e-001 -3.545245e-002  5.217350e-001
    outer loop
      vertex -3.018553e+001  1.180429e+001  2.072344e+001
      vertex -2.927502e+001 -1.008678e+001  2.072344e+001
      vertex -2.925048e+001 -1.008576e+001  2.076360e+001
    endloop
  endfacet
  facet normal -8.523706e-001 -3.545245e-002  5.217350e-001
    outer loop
      vertex -3.018553e+001  1.180429e+001  2.072344e+001
      vertex -2.925048e+001 -1.008576e+001  2.076360e+001
      vertex -3.016099e+001  1.180531e+001  2.076360e+001
    endloop
  endfacet
  facet normal -9.234049e-001 -3.840696e-002  3.819010e-001
    outer loop
      vertex -3.016099e+001  1.180531e+001  2.076360e+001
      vertex -2.925048e+001 -1.008576e+001  2.076360e+001
      vertex -2.923252e+001 -1.008501e+001  2.080710e+001
    endloop
  endfacet
  facet normal -9.234049e-001 -3.840696e-002  3.819010e-001
    outer loop
      vertex -3.016099e+001  1.180531e+001  2.076360e+001
      vertex -2.923252e+001 -1.008501e+001  2.080710e+001
      vertex -3.014303e+001  1.180606e+001  2.080710e+001
    endloop
  endfacet
  facet normal -9.717308e-001 -4.041697e-002  2.326064e-001
    outer loop
      vertex -3.014303e+001  1.180606e+001  2.080710e+001
      vertex -2.923252e+001 -1.008501e+001  2.080710e+001
      vertex -2.922158e+001 -1.008456e+001  2.085289e+001
    endloop
  endfacet
  facet normal -9.717308e-001 -4.041697e-002  2.326064e-001
    outer loop
      vertex -3.014303e+001  1.180606e+001  2.080710e+001
      vertex -2.922158e+001 -1.008456e+001  2.085289e+001
      vertex -3.013209e+001  1.180651e+001  2.085289e+001
    endloop
  endfacet
  facet normal -9.961284e-001 -4.143173e-002  7.753471e-002
    outer loop
      vertex -3.013209e+001  1.180651e+001  2.085289e+001
      vertex -2.922158e+001 -1.008456e+001  2.085289e+001
      vertex -2.921793e+001 -1.008441e+001  2.089982e+001
    endloop
  endfacet
  facet normal -9.961234e-001 -4.143138e-002  7.759909e-002
    outer loop
      vertex -3.013209e+001  1.180651e+001  2.085289e+001
      vertex -2.921793e+001 -1.008441e+001  2.089982e+001
      vertex -3.012844e+001  1.180667e+001  2.089982e+001
    endloop
  endfacet
  facet normal  4.155995e-002 -9.991360e-001  1.896039e-005
    outer loop
      vertex -2.969364e+001 -1.010419e+001  2.065670e+001
      vertex -2.982282e+001 -1.010957e+001  2.065064e+001
      vertex -2.965352e+001 -1.010252e+001  2.063214e+001
    endloop
  endfacet
  facet normal  4.155676e-002 -9.991361e-001 -3.511982e-006
    outer loop
      vertex -2.921209e+001 -1.008416e+001  2.065118e+001
      vertex -2.934128e+001 -1.008954e+001  2.065701e+001
      vertex -2.938136e+001 -1.009120e+001  2.063238e+001
    endloop
  endfacet
  facet normal  4.155865e-002 -9.991361e-001  9.757186e-006
    outer loop
      vertex -2.974497e+001 -1.010633e+001  2.122125e+001
      vertex -2.978662e+001 -1.010806e+001  2.118727e+001
      vertex -2.961055e+001 -1.010074e+001  2.118480e+001
    endloop
  endfacet
  facet normal  4.155729e-002 -9.991361e-001  4.741095e-006
    outer loop
      vertex -2.974497e+001 -1.010633e+001  2.122125e+001
      vertex -2.961055e+001 -1.010074e+001  2.118480e+001
      vertex -2.956482e+001 -1.009883e+001  2.119583e+001
    endloop
  endfacet
  facet normal  4.155546e-002 -9.991362e-001 -8.244351e-006
    outer loop
      vertex -2.974497e+001 -1.010633e+001  2.122125e+001
      vertex -2.956482e+001 -1.009883e+001  2.119583e+001
      vertex -2.951793e+001 -1.009688e+001  2.119956e+001
    endloop
  endfacet
  facet normal  4.155621e-002 -9.991361e-001 -4.125853e-007
    outer loop
      vertex -2.974497e+001 -1.010633e+001  2.122125e+001
      vertex -2.951793e+001 -1.009688e+001  2.119956e+001
      vertex -2.949115e+001 -1.009577e+001  2.129266e+001
    endloop
  endfacet
  facet normal  4.155501e-002 -9.991362e-001  3.869279e-006
    outer loop
      vertex -2.974497e+001 -1.010633e+001  2.122125e+001
      vertex -2.949115e+001 -1.009577e+001  2.129266e+001
      vertex -2.954488e+001 -1.009801e+001  2.129262e+001
    endloop
  endfacet
  facet normal  4.156854e-002 -9.991356e-001 -3.414473e-005
    outer loop
      vertex -2.974497e+001 -1.010633e+001  2.122125e+001
      vertex -2.954488e+001 -1.009801e+001  2.129262e+001
      vertex -2.959810e+001 -1.010022e+001  2.128525e+001
    endloop
  endfacet
  facet normal  4.153530e-002 -9.991371e-001  4.227626e-005
    outer loop
      vertex -2.974497e+001 -1.010633e+001  2.122125e+001
      vertex -2.959810e+001 -1.010022e+001  2.128525e+001
      vertex -2.964982e+001 -1.010237e+001  2.127069e+001
    endloop
  endfacet
  facet normal  4.159670e-002 -9.991345e-001 -7.607645e-005
    outer loop
      vertex -2.974497e+001 -1.010633e+001  2.122125e+001
      vertex -2.964982e+001 -1.010237e+001  2.127069e+001
      vertex -2.969909e+001 -1.010442e+001  2.124923e+001
    endloop
  endfacet
  facet normal  4.155269e-002 -9.991363e-001  4.223709e-005
    outer loop
      vertex -2.951793e+001 -1.009688e+001  2.119956e+001
      vertex -2.947104e+001 -1.009494e+001  2.119591e+001
      vertex -2.929094e+001 -1.008744e+001  2.122164e+001
    endloop
  endfacet
  facet normal  4.155668e-002 -9.991361e-001  1.138816e-006
    outer loop
      vertex -2.951793e+001 -1.009688e+001  2.119956e+001
      vertex -2.929094e+001 -1.008744e+001  2.122164e+001
      vertex -2.933687e+001 -1.008935e+001  2.124954e+001
    endloop
  endfacet
  facet normal  4.155959e-002 -9.991360e-001 -9.397845e-006
    outer loop
      vertex -2.951793e+001 -1.009688e+001  2.119956e+001
      vertex -2.933687e+001 -1.008935e+001  2.124954e+001
      vertex -2.938617e+001 -1.009140e+001  2.127093e+001
    endloop
  endfacet
  facet normal  4.155454e-002 -9.991362e-001 -7.728148e-008
    outer loop
      vertex -2.951793e+001 -1.009688e+001  2.119956e+001
      vertex -2.938617e+001 -1.009140e+001  2.127093e+001
      vertex -2.943792e+001 -1.009356e+001  2.128539e+001
    endloop
  endfacet
  facet normal  4.155432e-002 -9.991363e-001  1.300601e-007
    outer loop
      vertex -2.951793e+001 -1.009688e+001  2.119956e+001
      vertex -2.943792e+001 -1.009356e+001  2.128539e+001
      vertex -2.949115e+001 -1.009577e+001  2.129266e+001
    endloop
  endfacet
  facet normal  4.156123e-002 -9.991360e-001  1.519684e-004
    outer loop
      vertex -2.951741e+001 -1.009686e+001  2.059956e+001
      vertex -2.956430e+001 -1.009881e+001  2.060321e+001
      vertex -2.978612e+001 -1.010804e+001  2.061138e+001
    endloop
  endfacet
  facet normal  4.155525e-002 -9.991362e-001  1.588571e-005
    outer loop
      vertex -2.951741e+001 -1.009686e+001  2.059956e+001
      vertex -2.978612e+001 -1.010804e+001  2.061138e+001
      vertex -2.974441e+001 -1.010631e+001  2.057747e+001
    endloop
  endfacet
  facet normal  4.155668e-002 -9.991361e-001  1.138816e-006
    outer loop
      vertex -2.951741e+001 -1.009686e+001  2.059956e+001
      vertex -2.974441e+001 -1.010631e+001  2.057747e+001
      vertex -2.969847e+001 -1.010439e+001  2.054957e+001
    endloop
  endfacet
  facet normal  4.155959e-002 -9.991360e-001 -9.397845e-006
    outer loop
      vertex -2.951741e+001 -1.009686e+001  2.059956e+001
      vertex -2.969847e+001 -1.010439e+001  2.054957e+001
      vertex -2.964918e+001 -1.010234e+001  2.052819e+001
    endloop
  endfacet
  facet normal  4.155454e-002 -9.991362e-001 -7.728148e-008
    outer loop
      vertex -2.951741e+001 -1.009686e+001  2.059956e+001
      vertex -2.964918e+001 -1.010234e+001  2.052819e+001
      vertex -2.959743e+001 -1.010019e+001  2.051373e+001
    endloop
  endfacet
  facet normal  4.155432e-002 -9.991363e-001  1.300601e-007
    outer loop
      vertex -2.951741e+001 -1.009686e+001  2.059956e+001
      vertex -2.959743e+001 -1.010019e+001  2.051373e+001
      vertex -2.954419e+001 -1.009798e+001  2.050645e+001
    endloop
  endfacet
  facet normal  4.155501e-002 -9.991362e-001 -6.698162e-008
    outer loop
      vertex -2.951741e+001 -1.009686e+001  2.059956e+001
      vertex -2.954419e+001 -1.009798e+001  2.050645e+001
      vertex -2.949046e+001 -1.009574e+001  2.050650e+001
    endloop
  endfacet
  facet normal  4.156578e-002 -9.991357e-001  3.056998e-006
    outer loop
      vertex -2.951741e+001 -1.009686e+001  2.059956e+001
      vertex -2.949046e+001 -1.009574e+001  2.050650e+001
      vertex -2.943724e+001 -1.009353e+001  2.051387e+001
    endloop
  endfacet
  facet normal  4.156008e-002 -9.991360e-001 -2.284780e-006
    outer loop
      vertex -2.951741e+001 -1.009686e+001  2.059956e+001
      vertex -2.943724e+001 -1.009353e+001  2.051387e+001
      vertex -2.938552e+001 -1.009138e+001  2.052843e+001
    endloop
  endfacet
  facet normal  4.155403e-002 -9.991362e-001 -1.350967e-005
    outer loop
      vertex -2.951741e+001 -1.009686e+001  2.059956e+001
      vertex -2.938552e+001 -1.009138e+001  2.052843e+001
      vertex -2.933626e+001 -1.008933e+001  2.054989e+001
    endloop
  endfacet
  facet normal  4.155546e-002 -9.991362e-001 -8.326409e-006
    outer loop
      vertex -2.951741e+001 -1.009686e+001  2.059956e+001
      vertex -2.933626e+001 -1.008933e+001  2.054989e+001
      vertex -2.929037e+001 -1.008742e+001  2.057787e+001
    endloop
  endfacet
  facet normal  4.155733e-002 -9.991361e-001  1.137330e-005
    outer loop
      vertex -2.951741e+001 -1.009686e+001  2.059956e+001
      vertex -2.929037e+001 -1.008742e+001  2.057787e+001
      vertex -2.924873e+001 -1.008569e+001  2.061185e+001
    endloop
  endfacet
  facet normal  4.156195e-002 -9.991359e-001 -8.988490e-005
    outer loop
      vertex -2.951741e+001 -1.009686e+001  2.059956e+001
      vertex -2.924873e+001 -1.008569e+001  2.061185e+001
      vertex -2.947052e+001 -1.009491e+001  2.060329e+001
    endloop
  endfacet
  facet normal  4.155463e-002 -9.991363e-001 -2.763243e-005
    outer loop
      vertex -2.956430e+001 -1.009881e+001  2.060321e+001
      vertex -2.961005e+001 -1.010072e+001  2.061416e+001
      vertex -2.978612e+001 -1.010804e+001  2.061138e+001
    endloop
  endfacet
  facet normal  4.155431e-002 -9.991362e-001 -7.978033e-006
    outer loop
      vertex -2.978612e+001 -1.010804e+001  2.061138e+001
      vertex -2.961005e+001 -1.010072e+001  2.061416e+001
      vertex -2.965352e+001 -1.010252e+001  2.063214e+001
    endloop
  endfacet
  facet normal  4.155590e-002 -9.991361e-001 -1.812799e-005
    outer loop
      vertex -2.978612e+001 -1.010804e+001  2.061138e+001
      vertex -2.965352e+001 -1.010252e+001  2.063214e+001
      vertex -2.982282e+001 -1.010957e+001  2.065064e+001
    endloop
  endfacet
  facet normal  4.155559e-002 -9.991361e-001 -1.361112e-005
    outer loop
      vertex -2.980266e+001 -1.010873e+001  2.080661e+001
      vertex -2.989664e+001 -1.011264e+001  2.079293e+001
      vertex -2.978463e+001 -1.010798e+001  2.076313e+001
    endloop
  endfacet
  facet normal  4.156058e-002 -9.991360e-001  5.142679e-006
    outer loop
      vertex -2.978463e+001 -1.010798e+001  2.076313e+001
      vertex -2.989664e+001 -1.011264e+001  2.079293e+001
      vertex -2.987860e+001 -1.011189e+001  2.074228e+001
    endloop
  endfacet
  facet normal  4.155824e-002 -9.991361e-001  1.573072e-005
    outer loop
      vertex -2.978463e+001 -1.010798e+001  2.076313e+001
      vertex -2.987860e+001 -1.011189e+001  2.074228e+001
      vertex -2.976001e+001 -1.010695e+001  2.072301e+001
    endloop
  endfacet
  facet normal  4.155540e-002 -9.991363e-001 -1.790916e-006
    outer loop
      vertex -2.976001e+001 -1.010695e+001  2.072301e+001
      vertex -2.987860e+001 -1.011189e+001  2.074228e+001
      vertex -2.985384e+001 -1.011086e+001  2.069455e+001
    endloop
  endfacet
  facet normal  4.155506e-002 -9.991362e-001 -7.056087e-007
    outer loop
      vertex -2.976001e+001 -1.010695e+001  2.072301e+001
      vertex -2.985384e+001 -1.011086e+001  2.069455e+001
      vertex -2.972943e+001 -1.010568e+001  2.068724e+001
    endloop
  endfacet
  facet normal  4.155520e-002 -9.991362e-001  1.654681e-006
    outer loop
      vertex -2.972943e+001 -1.010568e+001  2.068724e+001
      vertex -2.985384e+001 -1.011086e+001  2.069455e+001
      vertex -2.982282e+001 -1.010957e+001  2.065064e+001
    endloop
  endfacet
  facet normal  4.156151e-002 -9.991360e-001 -1.447832e-005
    outer loop
      vertex -2.972943e+001 -1.010568e+001  2.068724e+001
      vertex -2.982282e+001 -1.010957e+001  2.065064e+001
      vertex -2.969364e+001 -1.010419e+001  2.065670e+001
    endloop
  endfacet
  facet normal  4.156075e-002 -9.991360e-001  1.595528e-006
    outer loop
      vertex -2.976032e+001 -1.010697e+001  2.107568e+001
      vertex -2.987888e+001 -1.011190e+001  2.105621e+001
      vertex -2.978486e+001 -1.010799e+001  2.103552e+001
    endloop
  endfacet
  facet normal  4.155883e-002 -9.991360e-001 -7.147324e-006
    outer loop
      vertex -2.978486e+001 -1.010799e+001  2.103552e+001
      vertex -2.987888e+001 -1.011190e+001  2.105621e+001
      vertex -2.989683e+001 -1.011264e+001  2.100553e+001
    endloop
  endfacet
  facet normal  4.155830e-002 -9.991361e-001 -5.161526e-006
    outer loop
      vertex -2.978486e+001 -1.010799e+001  2.103552e+001
      vertex -2.989683e+001 -1.011264e+001  2.100553e+001
      vertex -2.980282e+001 -1.010873e+001  2.099202e+001
    endloop
  endfacet
  facet normal  4.155808e-002 -9.991361e-001 -6.706961e-006
    outer loop
      vertex -2.980282e+001 -1.010873e+001  2.099202e+001
      vertex -2.989683e+001 -1.011264e+001  2.100553e+001
      vertex -2.990771e+001 -1.011310e+001  2.095287e+001
    endloop
  endfacet
  facet normal  4.155165e-002 -9.991364e-001  1.056259e-005
    outer loop
      vertex -2.980282e+001 -1.010873e+001  2.099202e+001
      vertex -2.990771e+001 -1.011310e+001  2.095287e+001
      vertex -2.981376e+001 -1.010919e+001  2.094623e+001
    endloop
  endfacet
  facet normal  4.155160e-002 -9.991363e-001  1.007017e-005
    outer loop
      vertex -2.981376e+001 -1.010919e+001  2.094623e+001
      vertex -2.990771e+001 -1.011310e+001  2.095287e+001
      vertex -2.991133e+001 -1.011325e+001  2.089922e+001
    endloop
  endfacet
  facet normal  4.155627e-002 -9.991362e-001  3.720980e-007
    outer loop
      vertex -2.981376e+001 -1.010919e+001  2.094623e+001
      vertex -2.991133e+001 -1.011325e+001  2.089922e+001
      vertex -2.981741e+001 -1.010934e+001  2.089930e+001
    endloop
  endfacet
  facet normal  4.155628e-002 -9.991361e-001 -7.518546e-006
    outer loop
      vertex -2.981741e+001 -1.010934e+001  2.089930e+001
      vertex -2.991133e+001 -1.011325e+001  2.089922e+001
      vertex -2.990762e+001 -1.011309e+001  2.084557e+001
    endloop
  endfacet
  facet normal  4.155691e-002 -9.991361e-001 -8.573958e-006
    outer loop
      vertex -2.981741e+001 -1.010934e+001  2.089930e+001
      vertex -2.990762e+001 -1.011309e+001  2.084557e+001
      vertex -2.981368e+001 -1.010919e+001  2.085237e+001
    endloop
  endfacet
  facet normal  4.155584e-002 -9.991361e-001  6.117005e-006
    outer loop
      vertex -2.981368e+001 -1.010919e+001  2.085237e+001
      vertex -2.990762e+001 -1.011309e+001  2.084557e+001
      vertex -2.989664e+001 -1.011264e+001  2.079293e+001
    endloop
  endfacet
  facet normal  4.155194e-002 -9.991363e-001  1.157662e-005
    outer loop
      vertex -2.981368e+001 -1.010919e+001  2.085237e+001
      vertex -2.989664e+001 -1.011264e+001  2.079293e+001
      vertex -2.980266e+001 -1.010873e+001  2.080661e+001
    endloop
  endfacet
  facet normal  4.155838e-002 -9.991361e-001 -9.042667e-006
    outer loop
      vertex -2.961055e+001 -1.010074e+001  2.118480e+001
      vertex -2.978662e+001 -1.010806e+001  2.118727e+001
      vertex -2.965399e+001 -1.010254e+001  2.116674e+001
    endloop
  endfacet
  facet normal  4.155823e-002 -9.991361e-001 -1.004186e-005
    outer loop
      vertex -2.965399e+001 -1.010254e+001  2.116674e+001
      vertex -2.978662e+001 -1.010806e+001  2.118727e+001
      vertex -2.982326e+001 -1.010958e+001  2.114794e+001
    endloop
  endfacet
  facet normal  4.155767e-002 -9.991361e-001 -5.000014e-006
    outer loop
      vertex -2.965399e+001 -1.010254e+001  2.116674e+001
      vertex -2.982326e+001 -1.010958e+001  2.114794e+001
      vertex -2.969407e+001 -1.010421e+001  2.114211e+001
    endloop
  endfacet
  facet normal  4.155786e-002 -9.991361e-001 -7.686029e-007
    outer loop
      vertex -2.969407e+001 -1.010421e+001  2.114211e+001
      vertex -2.982326e+001 -1.010958e+001  2.114794e+001
      vertex -2.985420e+001 -1.011087e+001  2.110398e+001
    endloop
  endfacet
  facet normal  4.155285e-002 -9.991364e-001  2.031692e-005
    outer loop
      vertex -2.969407e+001 -1.010421e+001  2.114211e+001
      vertex -2.985420e+001 -1.011087e+001  2.110398e+001
      vertex -2.972981e+001 -1.010570e+001  2.111151e+001
    endloop
  endfacet
  facet normal  4.155343e-002 -9.991362e-001  1.065263e-005
    outer loop
      vertex -2.972981e+001 -1.010570e+001  2.111151e+001
      vertex -2.985420e+001 -1.011087e+001  2.110398e+001
      vertex -2.987888e+001 -1.011190e+001  2.105621e+001
    endloop
  endfacet
  facet normal  4.156390e-002 -9.991359e-001 -1.760748e-005
    outer loop
      vertex -2.972981e+001 -1.010570e+001  2.111151e+001
      vertex -2.987888e+001 -1.011190e+001  2.105621e+001
      vertex -2.976032e+001 -1.010697e+001  2.107568e+001
    endloop
  endfacet
  facet normal  4.155799e-002 -9.991361e-001  1.337685e-005
    outer loop
      vertex -2.947052e+001 -1.009491e+001  2.060329e+001
      vertex -2.924873e+001 -1.008569e+001  2.061185e+001
      vertex -2.942480e+001 -1.009301e+001  2.061432e+001
    endloop
  endfacet
  facet normal  4.155766e-002 -9.991361e-001 -9.508924e-006
    outer loop
      vertex -2.942480e+001 -1.009301e+001  2.061432e+001
      vertex -2.924873e+001 -1.008569e+001  2.061185e+001
      vertex -2.921209e+001 -1.008416e+001  2.065118e+001
    endloop
  endfacet
  facet normal  4.155700e-002 -9.991361e-001 -5.710077e-006
    outer loop
      vertex -2.942480e+001 -1.009301e+001  2.061432e+001
      vertex -2.921209e+001 -1.008416e+001  2.065118e+001
      vertex -2.938136e+001 -1.009120e+001  2.063238e+001
    endloop
  endfacet
  facet normal  4.155830e-002 -9.991361e-001 -5.161526e-006
    outer loop
      vertex -2.923252e+001 -1.008501e+001  2.080710e+001
      vertex -2.925048e+001 -1.008576e+001  2.076360e+001
      vertex -2.913852e+001 -1.008110e+001  2.079359e+001
    endloop
  endfacet
  facet normal  4.155566e-002 -9.991361e-001  4.712627e-006
    outer loop
      vertex -2.913852e+001 -1.008110e+001  2.079359e+001
      vertex -2.925048e+001 -1.008576e+001  2.076360e+001
      vertex -2.927502e+001 -1.008678e+001  2.072344e+001
    endloop
  endfacet
  facet normal  4.156396e-002 -9.991359e-001 -1.146975e-005
    outer loop
      vertex -2.913852e+001 -1.008110e+001  2.079359e+001
      vertex -2.927502e+001 -1.008678e+001  2.072344e+001
      vertex -2.915647e+001 -1.008185e+001  2.074290e+001
    endloop
  endfacet
  facet normal  4.156581e-002 -9.991357e-001 -2.278369e-005
    outer loop
      vertex -2.915647e+001 -1.008185e+001  2.074290e+001
      vertex -2.927502e+001 -1.008678e+001  2.072344e+001
      vertex -2.930554e+001 -1.008805e+001  2.068761e+001
    endloop
  endfacet
  facet normal  4.155222e-002 -9.991363e-001  1.393654e-005
    outer loop
      vertex -2.915647e+001 -1.008185e+001  2.074290e+001
      vertex -2.930554e+001 -1.008805e+001  2.068761e+001
      vertex -2.918114e+001 -1.008288e+001  2.069514e+001
    endloop
  endfacet
  facet normal  4.155175e-002 -9.991363e-001  2.159642e-005
    outer loop
      vertex -2.918114e+001 -1.008288e+001  2.069514e+001
      vertex -2.930554e+001 -1.008805e+001  2.068761e+001
      vertex -2.934128e+001 -1.008954e+001  2.065701e+001
    endloop
  endfacet
  facet normal  4.155692e-002 -9.991362e-001 -9.885628e-008
    outer loop
      vertex -2.918114e+001 -1.008288e+001  2.069514e+001
      vertex -2.934128e+001 -1.008954e+001  2.065701e+001
      vertex -2.921209e+001 -1.008416e+001  2.065118e+001
    endloop
  endfacet
  facet normal  4.155766e-002 -9.991361e-001  1.221934e-005
    outer loop
      vertex -2.927533e+001 -1.008679e+001  2.107611e+001
      vertex -2.925072e+001 -1.008577e+001  2.103599e+001
      vertex -2.915674e+001 -1.008186e+001  2.105684e+001
    endloop
  endfacet
  facet normal  4.156214e-002 -9.991360e-001 -7.976562e-006
    outer loop
      vertex -2.915674e+001 -1.008186e+001  2.105684e+001
      vertex -2.925072e+001 -1.008577e+001  2.103599e+001
      vertex -2.923268e+001 -1.008502e+001  2.099251e+001
    endloop
  endfacet
  facet normal  4.155326e-002 -9.991363e-001  2.529728e-006
    outer loop
      vertex -2.915674e+001 -1.008186e+001  2.105684e+001
      vertex -2.923268e+001 -1.008502e+001  2.099251e+001
      vertex -2.913870e+001 -1.008111e+001  2.100619e+001
    endloop
  endfacet
  facet normal  4.155194e-002 -9.991363e-001  1.157629e-005
    outer loop
      vertex -2.913870e+001 -1.008111e+001  2.100619e+001
      vertex -2.923268e+001 -1.008502e+001  2.099251e+001
      vertex -2.922166e+001 -1.008456e+001  2.094675e+001
    endloop
  endfacet
  facet normal  4.156485e-002 -9.991358e-001 -6.481271e-006
    outer loop
      vertex -2.913870e+001 -1.008111e+001  2.100619e+001
      vertex -2.922166e+001 -1.008456e+001  2.094675e+001
      vertex -2.912773e+001 -1.008066e+001  2.095355e+001
    endloop
  endfacet
  facet normal  4.156515e-002 -9.991358e-001 -1.062011e-005
    outer loop
      vertex -2.912773e+001 -1.008066e+001  2.095355e+001
      vertex -2.922166e+001 -1.008456e+001  2.094675e+001
      vertex -2.921793e+001 -1.008441e+001  2.089982e+001
    endloop
  endfacet
  facet normal  4.155492e-002 -9.991362e-001  6.596353e-006
    outer loop
      vertex -2.912773e+001 -1.008066e+001  2.095355e+001
      vertex -2.921793e+001 -1.008441e+001  2.089982e+001
      vertex -2.912401e+001 -1.008050e+001  2.089990e+001
    endloop
  endfacet
  facet normal  4.155492e-002 -9.991363e-001  3.179248e-006
    outer loop
      vertex -2.912401e+001 -1.008050e+001  2.089990e+001
      vertex -2.921793e+001 -1.008441e+001  2.089982e+001
      vertex -2.922158e+001 -1.008456e+001  2.085289e+001
    endloop
  endfacet
  facet normal  4.155867e-002 -9.991361e-001 -4.614941e-006
    outer loop
      vertex -2.912401e+001 -1.008050e+001  2.089990e+001
      vertex -2.922158e+001 -1.008456e+001  2.085289e+001
      vertex -2.912763e+001 -1.008065e+001  2.084625e+001
    endloop
  endfacet
  facet normal  4.155961e-002 -9.991360e-001  8.655927e-006
    outer loop
      vertex -2.912763e+001 -1.008065e+001  2.084625e+001
      vertex -2.922158e+001 -1.008456e+001  2.085289e+001
      vertex -2.923252e+001 -1.008501e+001  2.080710e+001
    endloop
  endfacet
  facet normal  4.156009e-002 -9.991361e-001  7.350706e-006
    outer loop
      vertex -2.912763e+001 -1.008065e+001  2.084625e+001
      vertex -2.923252e+001 -1.008501e+001  2.080710e+001
      vertex -2.913852e+001 -1.008110e+001  2.079359e+001
    endloop
  endfacet
  facet normal  4.155859e-002 -9.991361e-001 -4.689141e-006
    outer loop
      vertex -2.942530e+001 -1.009303e+001  2.118496e+001
      vertex -2.938183e+001 -1.009122e+001  2.116698e+001
      vertex -2.924923e+001 -1.008571e+001  2.118774e+001
    endloop
  endfacet
  facet normal  4.155528e-002 -9.991362e-001  1.647779e-005
    outer loop
      vertex -2.924923e+001 -1.008571e+001  2.118774e+001
      vertex -2.938183e+001 -1.009122e+001  2.116698e+001
      vertex -2.934170e+001 -1.008956e+001  2.114242e+001
    endloop
  endfacet
  facet normal  4.156057e-002 -9.991360e-001  5.656560e-006
    outer loop
      vertex -2.924923e+001 -1.008571e+001  2.118774e+001
      vertex -2.934170e+001 -1.008956e+001  2.114242e+001
      vertex -2.921252e+001 -1.008418e+001  2.114847e+001
    endloop
  endfacet
  facet normal  4.156151e-002 -9.991360e-001 -1.447832e-005
    outer loop
      vertex -2.921252e+001 -1.008418e+001  2.114847e+001
      vertex -2.934170e+001 -1.008956e+001  2.114242e+001
      vertex -2.930591e+001 -1.008807e+001  2.111188e+001
    endloop
  endfacet
  facet normal  4.155520e-002 -9.991362e-001  1.654681e-006
    outer loop
      vertex -2.921252e+001 -1.008418e+001  2.114847e+001
      vertex -2.930591e+001 -1.008807e+001  2.111188e+001
      vertex -2.918150e+001 -1.008289e+001  2.110457e+001
    endloop
  endfacet
  facet normal  4.155506e-002 -9.991362e-001 -7.056087e-007
    outer loop
      vertex -2.918150e+001 -1.008289e+001  2.110457e+001
      vertex -2.930591e+001 -1.008807e+001  2.111188e+001
      vertex -2.927533e+001 -1.008679e+001  2.107611e+001
    endloop
  endfacet
  facet normal  4.155540e-002 -9.991363e-001 -1.790965e-006
    outer loop
      vertex -2.918150e+001 -1.008289e+001  2.110457e+001
      vertex -2.927533e+001 -1.008679e+001  2.107611e+001
      vertex -2.915674e+001 -1.008186e+001  2.105684e+001
    endloop
  endfacet
  facet normal  4.155966e-002 -9.991360e-001 -6.583660e-006
    outer loop
      vertex -2.947104e+001 -1.009494e+001  2.119591e+001
      vertex -2.942530e+001 -1.009303e+001  2.118496e+001
      vertex -2.929094e+001 -1.008744e+001  2.122164e+001
    endloop
  endfacet
  facet normal  4.155855e-002 -9.991360e-001 -2.531973e-006
    outer loop
      vertex -2.929094e+001 -1.008744e+001  2.122164e+001
      vertex -2.942530e+001 -1.009303e+001  2.118496e+001
      vertex -2.924923e+001 -1.008571e+001  2.118774e+001
    endloop
  endfacet
  facet normal -4.155425e-002  9.991362e-001 -1.480198e-005
    outer loop
      vertex -3.056403e+001  1.178855e+001  2.063214e+001
      vertex -3.073333e+001  1.178151e+001  2.065064e+001
      vertex -3.060415e+001  1.178688e+001  2.065670e+001
    endloop
  endfacet
  facet normal -4.155349e-002  9.991363e-001 -3.277378e-005
    outer loop
      vertex -3.029187e+001  1.179987e+001  2.063238e+001
      vertex -3.025179e+001  1.180154e+001  2.065701e+001
      vertex -3.012260e+001  1.180691e+001  2.065118e+001
    endloop
  endfacet
  facet normal -4.159670e-002  9.991345e-001  7.607645e-005
    outer loop
      vertex -3.065548e+001  1.178475e+001  2.122125e+001
      vertex -3.060959e+001  1.178665e+001  2.124923e+001
      vertex -3.056033e+001  1.178870e+001  2.127069e+001
    endloop
  endfacet
  facet normal -4.152996e-002  9.991373e-001 -5.255839e-005
    outer loop
      vertex -3.065548e+001  1.178475e+001  2.122125e+001
      vertex -3.056033e+001  1.178870e+001  2.127069e+001
      vertex -3.050861e+001  1.179085e+001  2.128525e+001
    endloop
  endfacet
  facet normal -4.156895e-002  9.991357e-001  3.705005e-005
    outer loop
      vertex -3.065548e+001  1.178475e+001  2.122125e+001
      vertex -3.050861e+001  1.179085e+001  2.128525e+001
      vertex -3.045539e+001  1.179307e+001  2.129262e+001
    endloop
  endfacet
  facet normal -4.155737e-002  9.991361e-001  4.545125e-006
    outer loop
      vertex -3.065548e+001  1.178475e+001  2.122125e+001
      vertex -3.045539e+001  1.179307e+001  2.129262e+001
      vertex -3.040166e+001  1.179530e+001  2.129266e+001
    endloop
  endfacet
  facet normal -4.155621e-002  9.991361e-001  4.125853e-007
    outer loop
      vertex -3.065548e+001  1.178475e+001  2.122125e+001
      vertex -3.040166e+001  1.179530e+001  2.129266e+001
      vertex -3.042844e+001  1.179419e+001  2.119956e+001
    endloop
  endfacet
  facet normal -4.155546e-002  9.991362e-001  8.244351e-006
    outer loop
      vertex -3.065548e+001  1.178475e+001  2.122125e+001
      vertex -3.042844e+001  1.179419e+001  2.119956e+001
      vertex -3.047533e+001  1.179224e+001  2.119583e+001
    endloop
  endfacet
  facet normal -4.155831e-002  9.991361e-001 -1.199521e-005
    outer loop
      vertex -3.065548e+001  1.178475e+001  2.122125e+001
      vertex -3.047533e+001  1.179224e+001  2.119583e+001
      vertex -3.052106e+001  1.179034e+001  2.118480e+001
    endloop
  endfacet
  facet normal -4.155794e-002  9.991361e-001 -1.062525e-005
    outer loop
      vertex -3.065548e+001  1.178475e+001  2.122125e+001
      vertex -3.052106e+001  1.179034e+001  2.118480e+001
      vertex -3.069713e+001  1.178301e+001  2.118727e+001
    endloop
  endfacet
  facet normal -4.155432e-002  9.991363e-001 -1.300601e-007
    outer loop
      vertex -3.042844e+001  1.179419e+001  2.119956e+001
      vertex -3.040166e+001  1.179530e+001  2.129266e+001
      vertex -3.034842e+001  1.179752e+001  2.128539e+001
    endloop
  endfacet
  facet normal -4.155454e-002  9.991362e-001  7.728148e-008
    outer loop
      vertex -3.042844e+001  1.179419e+001  2.119956e+001
      vertex -3.034842e+001  1.179752e+001  2.128539e+001
      vertex -3.029668e+001  1.179967e+001  2.127093e+001
    endloop
  endfacet
  facet normal -4.155816e-002  9.991361e-001  6.760091e-006
    outer loop
      vertex -3.042844e+001  1.179419e+001  2.119956e+001
      vertex -3.029668e+001  1.179967e+001  2.127093e+001
      vertex -3.024738e+001  1.180172e+001  2.124954e+001
    endloop
  endfacet
  facet normal -4.155706e-002  9.991361e-001  2.779153e-006
    outer loop
      vertex -3.042844e+001  1.179419e+001  2.119956e+001
      vertex -3.024738e+001  1.180172e+001  2.124954e+001
      vertex -3.020145e+001  1.180363e+001  2.122164e+001
    endloop
  endfacet
  facet normal -4.155269e-002  9.991363e-001 -4.223709e-005
    outer loop
      vertex -3.042844e+001  1.179419e+001  2.119956e+001
      vertex -3.020145e+001  1.180363e+001  2.122164e+001
      vertex -3.038155e+001  1.179614e+001  2.119591e+001
    endloop
  endfacet
  facet normal -4.153898e-002  9.991368e-001 -4.030516e-004
    outer loop
      vertex -3.042792e+001  1.179421e+001  2.059956e+001
      vertex -3.038103e+001  1.179616e+001  2.060329e+001
      vertex -3.015924e+001  1.180538e+001  2.061185e+001
    endloop
  endfacet
  facet normal -4.155810e-002  9.991361e-001  1.573826e-005
    outer loop
      vertex -3.042792e+001  1.179421e+001  2.059956e+001
      vertex -3.015924e+001  1.180538e+001  2.061185e+001
      vertex -3.020089e+001  1.180365e+001  2.057787e+001
    endloop
  endfacet
  facet normal -4.156060e-002  9.991359e-001 -1.046658e-005
    outer loop
      vertex -3.042792e+001  1.179421e+001  2.059956e+001
      vertex -3.020089e+001  1.180365e+001  2.057787e+001
      vertex -3.024677e+001  1.180174e+001  2.054989e+001
    endloop
  endfacet
  facet normal -4.155403e-002  9.991362e-001  1.350967e-005
    outer loop
      vertex -3.042792e+001  1.179421e+001  2.059956e+001
      vertex -3.024677e+001  1.180174e+001  2.054989e+001
      vertex -3.029603e+001  1.179970e+001  2.052843e+001
    endloop
  endfacet
  facet normal -4.156169e-002  9.991359e-001 -7.030363e-007
    outer loop
      vertex -3.042792e+001  1.179421e+001  2.059956e+001
      vertex -3.029603e+001  1.179970e+001  2.052843e+001
      vertex -3.034775e+001  1.179754e+001  2.051387e+001
    endloop
  endfacet
  facet normal -4.156349e-002  9.991359e-001 -2.393441e-006
    outer loop
      vertex -3.042792e+001  1.179421e+001  2.059956e+001
      vertex -3.034775e+001  1.179754e+001  2.051387e+001
      vertex -3.040097e+001  1.179533e+001  2.050650e+001
    endloop
  endfacet
  facet normal -4.155501e-002  9.991362e-001  6.698162e-008
    outer loop
      vertex -3.042792e+001  1.179421e+001  2.059956e+001
      vertex -3.040097e+001  1.179533e+001  2.050650e+001
      vertex -3.045470e+001  1.179310e+001  2.050645e+001
    endloop
  endfacet
  facet normal -4.155432e-002  9.991363e-001 -1.300601e-007
    outer loop
      vertex -3.042792e+001  1.179421e+001  2.059956e+001
      vertex -3.045470e+001  1.179310e+001  2.050645e+001
      vertex -3.050794e+001  1.179088e+001  2.051373e+001
    endloop
  endfacet
  facet normal -4.155454e-002  9.991362e-001  7.728148e-008
    outer loop
      vertex -3.042792e+001  1.179421e+001  2.059956e+001
      vertex -3.050794e+001  1.179088e+001  2.051373e+001
      vertex -3.055969e+001  1.178873e+001  2.052819e+001
    endloop
  endfacet
  facet normal -4.155959e-002  9.991360e-001  9.397845e-006
    outer loop
      vertex -3.042792e+001  1.179421e+001  2.059956e+001
      vertex -3.055969e+001  1.178873e+001  2.052819e+001
      vertex -3.060898e+001  1.178668e+001  2.054957e+001
    endloop
  endfacet
  facet normal -4.155668e-002  9.991361e-001 -1.138816e-006
    outer loop
      vertex -3.042792e+001  1.179421e+001  2.059956e+001
      vertex -3.060898e+001  1.178668e+001  2.054957e+001
      vertex -3.065492e+001  1.178477e+001  2.057747e+001
    endloop
  endfacet
  facet normal -4.155558e-002  9.991362e-001 -1.254473e-005
    outer loop
      vertex -3.042792e+001  1.179421e+001  2.059956e+001
      vertex -3.065492e+001  1.178477e+001  2.057747e+001
      vertex -3.069662e+001  1.178303e+001  2.061138e+001
    endloop
  endfacet
  facet normal -4.155881e-002  9.991361e-001 -8.615611e-005
    outer loop
      vertex -3.042792e+001  1.179421e+001  2.059956e+001
      vertex -3.069662e+001  1.178303e+001  2.061138e+001
      vertex -3.047481e+001  1.179226e+001  2.060321e+001
    endloop
  endfacet
  facet normal -4.155282e-002  9.991363e-001 -1.622437e-006
    outer loop
      vertex -3.073333e+001  1.178151e+001  2.065064e+001
      vertex -3.056403e+001  1.178855e+001  2.063214e+001
      vertex -3.069662e+001  1.178303e+001  2.061138e+001
    endloop
  endfacet
  facet normal -4.155511e-002  9.991362e-001  1.309499e-005
    outer loop
      vertex -3.069662e+001  1.178303e+001  2.061138e+001
      vertex -3.056403e+001  1.178855e+001  2.063214e+001
      vertex -3.052056e+001  1.179036e+001  2.061416e+001
    endloop
  endfacet
  facet normal -4.155513e-002  9.991361e-001  1.394654e-005
    outer loop
      vertex -3.069662e+001  1.178303e+001  2.061138e+001
      vertex -3.052056e+001  1.179036e+001  2.061416e+001
      vertex -3.047481e+001  1.179226e+001  2.060321e+001
    endloop
  endfacet
  facet normal -4.155482e-002  9.991361e-001 -2.625259e-006
    outer loop
      vertex -3.060415e+001  1.178688e+001  2.065670e+001
      vertex -3.073333e+001  1.178151e+001  2.065064e+001
      vertex -3.063994e+001  1.178539e+001  2.068724e+001
    endloop
  endfacet
  facet normal -4.156052e-002  9.991360e-001  1.194222e-005
    outer loop
      vertex -3.063994e+001  1.178539e+001  2.068724e+001
      vertex -3.073333e+001  1.178151e+001  2.065064e+001
      vertex -3.076435e+001  1.178022e+001  2.069455e+001
    endloop
  endfacet
  facet normal -4.156151e-002  9.991360e-001 -4.809366e-006
    outer loop
      vertex -3.063994e+001  1.178539e+001  2.068724e+001
      vertex -3.076435e+001  1.178022e+001  2.069455e+001
      vertex -3.067052e+001  1.178412e+001  2.072301e+001
    endloop
  endfacet
  facet normal -4.156309e-002  9.991359e-001  4.452675e-007
    outer loop
      vertex -3.067052e+001  1.178412e+001  2.072301e+001
      vertex -3.076435e+001  1.178022e+001  2.069455e+001
      vertex -3.078911e+001  1.177919e+001  2.074228e+001
    endloop
  endfacet
  facet normal -4.156255e-002  9.991359e-001  3.776731e-006
    outer loop
      vertex -3.067052e+001  1.178412e+001  2.072301e+001
      vertex -3.078911e+001  1.177919e+001  2.074228e+001
      vertex -3.069513e+001  1.178310e+001  2.076313e+001
    endloop
  endfacet
  facet normal -4.156007e-002  9.991360e-001 -7.463245e-006
    outer loop
      vertex -3.069513e+001  1.178310e+001  2.076313e+001
      vertex -3.078911e+001  1.177919e+001  2.074228e+001
      vertex -3.080715e+001  1.177844e+001  2.079293e+001
    endloop
  endfacet
  facet normal -4.156043e-002  9.991360e-001 -8.847949e-006
    outer loop
      vertex -3.069513e+001  1.178310e+001  2.076313e+001
      vertex -3.080715e+001  1.177844e+001  2.079293e+001
      vertex -3.071317e+001  1.178235e+001  2.080661e+001
    endloop
  endfacet
  facet normal -4.156210e-002  9.991359e-001  2.629077e-006
    outer loop
      vertex -3.071317e+001  1.178235e+001  2.080661e+001
      vertex -3.080715e+001  1.177844e+001  2.079293e+001
      vertex -3.072419e+001  1.178189e+001  2.085237e+001
    endloop
  endfacet
  facet normal -4.155584e-002  9.991361e-001 -6.117005e-006
    outer loop
      vertex -3.072419e+001  1.178189e+001  2.085237e+001
      vertex -3.080715e+001  1.177844e+001  2.079293e+001
      vertex -3.081813e+001  1.177798e+001  2.084557e+001
    endloop
  endfacet
  facet normal -4.155710e-002  9.991361e-001  1.126095e-005
    outer loop
      vertex -3.072419e+001  1.178189e+001  2.085237e+001
      vertex -3.081813e+001  1.177798e+001  2.084557e+001
      vertex -3.072792e+001  1.178173e+001  2.089930e+001
    endloop
  endfacet
  facet normal -4.155493e-002  9.991361e-001  7.612020e-006
    outer loop
      vertex -3.072792e+001  1.178173e+001  2.089930e+001
      vertex -3.081813e+001  1.177798e+001  2.084557e+001
      vertex -3.082184e+001  1.177783e+001  2.089922e+001
    endloop
  endfacet
  facet normal -4.155492e-002  9.991362e-001 -4.771144e-007
    outer loop
      vertex -3.072792e+001  1.178173e+001  2.089930e+001
      vertex -3.082184e+001  1.177783e+001  2.089922e+001
      vertex -3.072427e+001  1.178188e+001  2.094623e+001
    endloop
  endfacet
  facet normal -4.155144e-002  9.991363e-001 -7.717954e-006
    outer loop
      vertex -3.072427e+001  1.178188e+001  2.094623e+001
      vertex -3.082184e+001  1.177783e+001  2.089922e+001
      vertex -3.081822e+001  1.177798e+001  2.095287e+001
    endloop
  endfacet
  facet normal -4.155184e-002  9.991364e-001 -1.328626e-005
    outer loop
      vertex -3.072427e+001  1.178188e+001  2.094623e+001
      vertex -3.081822e+001  1.177798e+001  2.095287e+001
      vertex -3.071333e+001  1.178234e+001  2.099202e+001
    endloop
  endfacet
  facet normal -4.155841e-002  9.991361e-001  4.368049e-006
    outer loop
      vertex -3.071333e+001  1.178234e+001  2.099202e+001
      vertex -3.081822e+001  1.177798e+001  2.095287e+001
      vertex -3.080734e+001  1.177843e+001  2.100553e+001
    endloop
  endfacet
  facet normal -4.155830e-002  9.991361e-001  5.161526e-006
    outer loop
      vertex -3.071333e+001  1.178234e+001  2.099202e+001
      vertex -3.080734e+001  1.177843e+001  2.100553e+001
      vertex -3.069537e+001  1.178309e+001  2.103552e+001
    endloop
  endfacet
  facet normal -4.155513e-002  9.991363e-001 -6.704077e-006
    outer loop
      vertex -3.069537e+001  1.178309e+001  2.103552e+001
      vertex -3.080734e+001  1.177843e+001  2.100553e+001
      vertex -3.078939e+001  1.177918e+001  2.105621e+001
    endloop
  endfacet
  facet normal -4.155480e-002  9.991361e-001 -5.235852e-006
    outer loop
      vertex -3.069537e+001  1.178309e+001  2.103552e+001
      vertex -3.078939e+001  1.177918e+001  2.105621e+001
      vertex -3.067083e+001  1.178411e+001  2.107568e+001
    endloop
  endfacet
  facet normal -4.155835e-002  9.991361e-001  1.641548e-005
    outer loop
      vertex -3.067083e+001  1.178411e+001  2.107568e+001
      vertex -3.078939e+001  1.177918e+001  2.105621e+001
      vertex -3.064031e+001  1.178538e+001  2.111151e+001
    endloop
  endfacet
  facet normal -4.155321e-002  9.991363e-001  2.536285e-006
    outer loop
      vertex -3.064031e+001  1.178538e+001  2.111151e+001
      vertex -3.078939e+001  1.177918e+001  2.105621e+001
      vertex -3.076471e+001  1.178020e+001  2.110398e+001
    endloop
  endfacet
  facet normal -4.155175e-002  9.991363e-001 -2.159791e-005
    outer loop
      vertex -3.064031e+001  1.178538e+001  2.111151e+001
      vertex -3.076471e+001  1.178020e+001  2.110398e+001
      vertex -3.060457e+001  1.178686e+001  2.114211e+001
    endloop
  endfacet
  facet normal -4.155691e-002  9.991361e-001  9.885214e-008
    outer loop
      vertex -3.060457e+001  1.178686e+001  2.114211e+001
      vertex -3.076471e+001  1.178020e+001  2.110398e+001
      vertex -3.073376e+001  1.178149e+001  2.114794e+001
    endloop
  endfacet
  facet normal -4.155676e-002  9.991362e-001  3.511919e-006
    outer loop
      vertex -3.060457e+001  1.178686e+001  2.114211e+001
      vertex -3.073376e+001  1.178149e+001  2.114794e+001
      vertex -3.056449e+001  1.178853e+001  2.116674e+001
    endloop
  endfacet
  facet normal -4.155739e-002  9.991361e-001  9.263378e-006
    outer loop
      vertex -3.056449e+001  1.178853e+001  2.116674e+001
      vertex -3.073376e+001  1.178149e+001  2.114794e+001
      vertex -3.069713e+001  1.178301e+001  2.118727e+001
    endloop
  endfacet
  facet normal -4.155769e-002  9.991361e-001  7.366245e-006
    outer loop
      vertex -3.056449e+001  1.178853e+001  2.116674e+001
      vertex -3.069713e+001  1.178301e+001  2.118727e+001
      vertex -3.052106e+001  1.179034e+001  2.118480e+001
    endloop
  endfacet
  facet normal -4.155802e-002  9.991361e-001  8.170515e-006
    outer loop
      vertex -3.029187e+001  1.179987e+001  2.063238e+001
      vertex -3.012260e+001  1.180691e+001  2.065118e+001
      vertex -3.033531e+001  1.179806e+001  2.061432e+001
    endloop
  endfacet
  facet normal -4.155770e-002  9.991361e-001  6.326247e-006
    outer loop
      vertex -3.033531e+001  1.179806e+001  2.061432e+001
      vertex -3.012260e+001  1.180691e+001  2.065118e+001
      vertex -3.015924e+001  1.180538e+001  2.061185e+001
    endloop
  endfacet
  facet normal -4.155691e-002  9.991361e-001  6.279329e-005
    outer loop
      vertex -3.033531e+001  1.179806e+001  2.061432e+001
      vertex -3.015924e+001  1.180538e+001  2.061185e+001
      vertex -3.038103e+001  1.179616e+001  2.060329e+001
    endloop
  endfacet
  facet normal -4.155215e-002  9.991363e-001 -3.257170e-006
    outer loop
      vertex -3.012260e+001  1.180691e+001  2.065118e+001
      vertex -3.025179e+001  1.180154e+001  2.065701e+001
      vertex -3.009165e+001  1.180820e+001  2.069514e+001
    endloop
  endfacet
  facet normal -4.155447e-002  9.991363e-001  6.484948e-006
    outer loop
      vertex -3.009165e+001  1.180820e+001  2.069514e+001
      vertex -3.025179e+001  1.180154e+001  2.065701e+001
      vertex -3.021605e+001  1.180302e+001  2.068761e+001
    endloop
  endfacet
  facet normal -4.155344e-002  9.991363e-001 -1.065256e-005
    outer loop
      vertex -3.009165e+001  1.180820e+001  2.069514e+001
      vertex -3.021605e+001  1.180302e+001  2.068761e+001
      vertex -3.006697e+001  1.180922e+001  2.074290e+001
    endloop
  endfacet
  facet normal -4.155238e-002  9.991363e-001 -1.349982e-005
    outer loop
      vertex -3.006697e+001  1.180922e+001  2.074290e+001
      vertex -3.021605e+001  1.180302e+001  2.068761e+001
      vertex -3.018553e+001  1.180429e+001  2.072344e+001
    endloop
  endfacet
  facet normal -4.155558e-002  9.991362e-001  5.993198e-006
    outer loop
      vertex -3.006697e+001  1.180922e+001  2.074290e+001
      vertex -3.018553e+001  1.180429e+001  2.072344e+001
      vertex -3.004903e+001  1.180997e+001  2.079359e+001
    endloop
  endfacet
  facet normal -4.156173e-002  9.991360e-001  1.798382e-005
    outer loop
      vertex -3.004903e+001  1.180997e+001  2.079359e+001
      vertex -3.018553e+001  1.180429e+001  2.072344e+001
      vertex -3.016099e+001  1.180531e+001  2.076360e+001
    endloop
  endfacet
  facet normal -4.155303e-002  9.991363e-001 -1.453797e-005
    outer loop
      vertex -3.004903e+001  1.180997e+001  2.079359e+001
      vertex -3.016099e+001  1.180531e+001  2.076360e+001
      vertex -3.014303e+001  1.180606e+001  2.080710e+001
    endloop
  endfacet
  facet normal -4.155223e-002  9.991364e-001 -8.978571e-006
    outer loop
      vertex -3.004903e+001  1.180997e+001  2.079359e+001
      vertex -3.014303e+001  1.180606e+001  2.080710e+001
      vertex -3.003814e+001  1.181042e+001  2.084625e+001
    endloop
  endfacet
  facet normal -4.155845e-002  9.991360e-001  7.717204e-006
    outer loop
      vertex -3.003814e+001  1.181042e+001  2.084625e+001
      vertex -3.014303e+001  1.180606e+001  2.080710e+001
      vertex -3.013209e+001  1.180651e+001  2.085289e+001
    endloop
  endfacet
  facet normal -4.155867e-002  9.991361e-001  4.614941e-006
    outer loop
      vertex -3.003814e+001  1.181042e+001  2.084625e+001
      vertex -3.013209e+001  1.180651e+001  2.085289e+001
      vertex -3.003452e+001  1.181057e+001  2.089990e+001
    endloop
  endfacet
  facet normal -4.155628e-002  9.991362e-001 -3.720854e-007
    outer loop
      vertex -3.003452e+001  1.181057e+001  2.089990e+001
      vertex -3.013209e+001  1.180651e+001  2.085289e+001
      vertex -3.012844e+001  1.180667e+001  2.089982e+001
    endloop
  endfacet
  facet normal -4.155627e-002  9.991361e-001 -6.689828e-006
    outer loop
      vertex -3.003452e+001  1.181057e+001  2.089990e+001
      vertex -3.012844e+001  1.180667e+001  2.089982e+001
      vertex -3.003824e+001  1.181042e+001  2.095355e+001
    endloop
  endfacet
  facet normal -4.155574e-002  9.991361e-001 -7.576768e-006
    outer loop
      vertex -3.003824e+001  1.181042e+001  2.095355e+001
      vertex -3.012844e+001  1.180667e+001  2.089982e+001
      vertex -3.013217e+001  1.180651e+001  2.094675e+001
    endloop
  endfacet
  facet normal -4.155688e-002  9.991361e-001  8.148283e-006
    outer loop
      vertex -3.003824e+001  1.181042e+001  2.095355e+001
      vertex -3.013217e+001  1.180651e+001  2.094675e+001
      vertex -3.004921e+001  1.180996e+001  2.100619e+001
    endloop
  endfacet
  facet normal -4.155428e-002  9.991362e-001  4.515971e-006
    outer loop
      vertex -3.004921e+001  1.180996e+001  2.100619e+001
      vertex -3.013217e+001  1.180651e+001  2.094675e+001
      vertex -3.014319e+001  1.180605e+001  2.099251e+001
    endloop
  endfacet
  facet normal -4.155326e-002  9.991363e-001 -2.529728e-006
    outer loop
      vertex -3.004921e+001  1.180996e+001  2.100619e+001
      vertex -3.014319e+001  1.180605e+001  2.099251e+001
      vertex -3.006725e+001  1.180921e+001  2.105684e+001
    endloop
  endfacet
  facet normal -4.156397e-002  9.991359e-001  1.013537e-005
    outer loop
      vertex -3.006725e+001  1.180921e+001  2.105684e+001
      vertex -3.014319e+001  1.180605e+001  2.099251e+001
      vertex -3.016123e+001  1.180530e+001  2.103599e+001
    endloop
  endfacet
  facet normal -4.155824e-002  9.991361e-001 -1.573058e-005
    outer loop
      vertex -3.006725e+001  1.180921e+001  2.105684e+001
      vertex -3.016123e+001  1.180530e+001  2.103599e+001
      vertex -3.018584e+001  1.180428e+001  2.107611e+001
    endloop
  endfacet
  facet normal -4.155492e-002  9.991363e-001  4.692814e-006
    outer loop
      vertex -3.006725e+001  1.180921e+001  2.105684e+001
      vertex -3.018584e+001  1.180428e+001  2.107611e+001
      vertex -3.009201e+001  1.180818e+001  2.110457e+001
    endloop
  endfacet
  facet normal -4.155399e-002  9.991363e-001  1.623078e-006
    outer loop
      vertex -3.009201e+001  1.180818e+001  2.110457e+001
      vertex -3.018584e+001  1.180428e+001  2.107611e+001
      vertex -3.021642e+001  1.180301e+001  2.111188e+001
    endloop
  endfacet
  facet normal -4.155432e-002  9.991362e-001 -3.916675e-006
    outer loop
      vertex -3.009201e+001  1.180818e+001  2.110457e+001
      vertex -3.021642e+001  1.180301e+001  2.111188e+001
      vertex -3.012303e+001  1.180689e+001  2.114847e+001
    endloop
  endfacet
  facet normal -4.156151e-002  9.991360e-001  1.447832e-005
    outer loop
      vertex -3.012303e+001  1.180689e+001  2.114847e+001
      vertex -3.021642e+001  1.180301e+001  2.111188e+001
      vertex -3.025221e+001  1.180152e+001  2.114242e+001
    endloop
  endfacet
  facet normal -4.156057e-002  9.991360e-001 -5.656560e-006
    outer loop
      vertex -3.012303e+001  1.180689e+001  2.114847e+001
      vertex -3.025221e+001  1.180152e+001  2.114242e+001
      vertex -3.015974e+001  1.180536e+001  2.118774e+001
    endloop
  endfacet
  facet normal -4.155669e-002  9.991361e-001 -1.361052e-005
    outer loop
      vertex -3.015974e+001  1.180536e+001  2.118774e+001
      vertex -3.025221e+001  1.180152e+001  2.114242e+001
      vertex -3.029233e+001  1.179985e+001  2.116698e+001
    endloop
  endfacet
  facet normal -4.155928e-002  9.991360e-001  3.011464e-006
    outer loop
      vertex -3.015974e+001  1.180536e+001  2.118774e+001
      vertex -3.029233e+001  1.179985e+001  2.116698e+001
      vertex -3.033580e+001  1.179804e+001  2.118496e+001
    endloop
  endfacet
  facet normal -4.155862e-002  9.991360e-001 -6.692076e-007
    outer loop
      vertex -3.038155e+001  1.179614e+001  2.119591e+001
      vertex -3.020145e+001  1.180363e+001  2.122164e+001
      vertex -3.033580e+001  1.179804e+001  2.118496e+001
    endloop
  endfacet
  facet normal -4.155926e-002  9.991360e-001  1.662651e-006
    outer loop
      vertex -3.033580e+001  1.179804e+001  2.118496e+001
      vertex -3.020145e+001  1.180363e+001  2.122164e+001
      vertex -3.015974e+001  1.180536e+001  2.118774e+001
    endloop
  endfacet
  facet normal  9.967464e-001  4.145743e-002  6.912300e-002
    outer loop
      vertex -2.912401e+001 -1.008050e+001  2.089990e+001
      vertex -3.003452e+001  1.181057e+001  2.089990e+001
      vertex -2.912773e+001 -1.008066e+001  2.095355e+001
    endloop
  endfacet
  facet normal  9.967464e-001  4.145743e-002  6.912300e-002
    outer loop
      vertex -2.912773e+001 -1.008066e+001  2.095355e+001
      vertex -3.003452e+001  1.181057e+001  2.089990e+001
      vertex -3.003824e+001  1.181042e+001  2.095355e+001
    endloop
  endfacet
  facet normal  9.780616e-001  4.068029e-002  2.043056e-001
    outer loop
      vertex -2.912773e+001 -1.008066e+001  2.095355e+001
      vertex -3.003824e+001  1.181042e+001  2.095355e+001
      vertex -2.913870e+001 -1.008111e+001  2.100619e+001
    endloop
  endfacet
  facet normal  9.780616e-001  4.068029e-002  2.043056e-001
    outer loop
      vertex -2.913870e+001 -1.008111e+001  2.100619e+001
      vertex -3.003824e+001  1.181042e+001  2.095355e+001
      vertex -3.004921e+001  1.180996e+001  2.100619e+001
    endloop
  endfacet
  facet normal  9.411606e-001  3.914547e-002  3.356851e-001
    outer loop
      vertex -2.913870e+001 -1.008111e+001  2.100619e+001
      vertex -3.004921e+001  1.180996e+001  2.100619e+001
      vertex -2.915674e+001 -1.008186e+001  2.105684e+001
    endloop
  endfacet
  facet normal  9.411606e-001  3.914547e-002  3.356851e-001
    outer loop
      vertex -2.915674e+001 -1.008186e+001  2.105684e+001
      vertex -3.004921e+001  1.180996e+001  2.100619e+001
      vertex -3.006725e+001  1.180921e+001  2.105684e+001
    endloop
  endfacet
  facet normal  8.867001e-001  3.688031e-002  4.608718e-001
    outer loop
      vertex -2.915674e+001 -1.008186e+001  2.105684e+001
      vertex -3.006725e+001  1.180921e+001  2.105684e+001
      vertex -2.918150e+001 -1.008289e+001  2.110457e+001
    endloop
  endfacet
  facet normal  8.867233e-001  3.688115e-002  4.608272e-001
    outer loop
      vertex -2.918150e+001 -1.008289e+001  2.110457e+001
      vertex -3.006725e+001  1.180921e+001  2.105684e+001
      vertex -3.009201e+001  1.180818e+001  2.110457e+001
    endloop
  endfacet
  facet normal  8.157744e-001  3.393020e-002  5.773742e-001
    outer loop
      vertex -2.918150e+001 -1.008289e+001  2.110457e+001
      vertex -3.009201e+001  1.180818e+001  2.110457e+001
      vertex -2.921252e+001 -1.008418e+001  2.114847e+001
    endloop
  endfacet
  facet normal  8.157476e-001  3.392920e-002  5.774119e-001
    outer loop
      vertex -2.921252e+001 -1.008418e+001  2.114847e+001
      vertex -3.009201e+001  1.180818e+001  2.110457e+001
      vertex -3.012303e+001  1.180689e+001  2.114847e+001
    endloop
  endfacet
  facet normal  7.296109e-001  3.034653e-002  6.831889e-001
    outer loop
      vertex -2.921252e+001 -1.008418e+001  2.114847e+001
      vertex -3.012303e+001  1.180689e+001  2.114847e+001
      vertex -2.924923e+001 -1.008571e+001  2.118774e+001
    endloop
  endfacet
  facet normal  7.296109e-001  3.034653e-002  6.831889e-001
    outer loop
      vertex -2.924923e+001 -1.008571e+001  2.118774e+001
      vertex -3.012303e+001  1.180689e+001  2.114847e+001
      vertex -3.015974e+001  1.180536e+001  2.118774e+001
    endloop
  endfacet
  facet normal  6.298592e-001  2.619758e-002  7.762673e-001
    outer loop
      vertex -2.924923e+001 -1.008571e+001  2.118774e+001
      vertex -3.015974e+001  1.180536e+001  2.118774e+001
      vertex -2.929094e+001 -1.008744e+001  2.122164e+001
    endloop
  endfacet
  facet normal  6.298592e-001  2.619758e-002  7.762673e-001
    outer loop
      vertex -2.929094e+001 -1.008744e+001  2.122164e+001
      vertex -3.015974e+001  1.180536e+001  2.118774e+001
      vertex -3.020145e+001  1.180363e+001  2.122164e+001
    endloop
  endfacet
  facet normal  5.183845e-001  2.156104e-002  8.548758e-001
    outer loop
      vertex -2.929094e+001 -1.008744e+001  2.122164e+001
      vertex -3.020145e+001  1.180363e+001  2.122164e+001
      vertex -2.933687e+001 -1.008935e+001  2.124954e+001
    endloop
  endfacet
  facet normal  5.184096e-001  2.156202e-002  8.548605e-001
    outer loop
      vertex -2.933687e+001 -1.008935e+001  2.124954e+001
      vertex -3.020145e+001  1.180363e+001  2.122164e+001
      vertex -3.024738e+001  1.180172e+001  2.124954e+001
    endloop
  endfacet
  facet normal  3.972582e-001  1.652301e-002  9.175582e-001
    outer loop
      vertex -2.933687e+001 -1.008935e+001  2.124954e+001
      vertex -3.024738e+001  1.180172e+001  2.124954e+001
      vertex -2.938617e+001 -1.009140e+001  2.127093e+001
    endloop
  endfacet
  facet normal  3.972375e-001  1.652221e-002  9.175671e-001
    outer loop
      vertex -2.938617e+001 -1.009140e+001  2.127093e+001
      vertex -3.024738e+001  1.180172e+001  2.124954e+001
      vertex -3.029668e+001  1.179967e+001  2.127093e+001
    endloop
  endfacet
  facet normal  2.687365e-001  1.117749e-002  9.631490e-001
    outer loop
      vertex -2.938617e+001 -1.009140e+001  2.127093e+001
      vertex -3.029668e+001  1.179967e+001  2.127093e+001
      vertex -2.943792e+001 -1.009356e+001  2.128539e+001
    endloop
  endfacet
  facet normal  2.687365e-001  1.117749e-002  9.631490e-001
    outer loop
      vertex -2.943792e+001 -1.009356e+001  2.128539e+001
      vertex -3.029668e+001  1.179967e+001  2.127093e+001
      vertex -3.034842e+001  1.179752e+001  2.128539e+001
    endloop
  endfacet
  facet normal  1.351757e-001  5.622330e-003  9.908056e-001
    outer loop
      vertex -2.943792e+001 -1.009356e+001  2.128539e+001
      vertex -3.034842e+001  1.179752e+001  2.128539e+001
      vertex -2.949115e+001 -1.009577e+001  2.129266e+001
    endloop
  endfacet
  facet normal  1.351757e-001  5.622330e-003  9.908056e-001
    outer loop
      vertex -2.949115e+001 -1.009577e+001  2.129266e+001
      vertex -3.034842e+001  1.179752e+001  2.128539e+001
      vertex -3.040166e+001  1.179530e+001  2.129266e+001
    endloop
  endfacet
  facet normal -8.505112e-004 -3.537511e-005  9.999996e-001
    outer loop
      vertex -2.949115e+001 -1.009577e+001  2.129266e+001
      vertex -3.040166e+001  1.179530e+001  2.129266e+001
      vertex -2.954488e+001 -1.009801e+001  2.129262e+001
    endloop
  endfacet
  facet normal -8.505594e-004 -3.537700e-005  9.999997e-001
    outer loop
      vertex -2.954488e+001 -1.009801e+001  2.129262e+001
      vertex -3.040166e+001  1.179530e+001  2.129266e+001
      vertex -3.045539e+001  1.179307e+001  2.129262e+001
    endloop
  endfacet
  facet normal -1.369314e-001 -5.695336e-003  9.905642e-001
    outer loop
      vertex -2.954488e+001 -1.009801e+001  2.129262e+001
      vertex -3.045539e+001  1.179307e+001  2.129262e+001
      vertex -2.959810e+001 -1.010022e+001  2.128525e+001
    endloop
  endfacet
  facet normal -1.369314e-001 -5.695336e-003  9.905642e-001
    outer loop
      vertex -2.959810e+001 -1.010022e+001  2.128525e+001
      vertex -3.045539e+001  1.179307e+001  2.129262e+001
      vertex -3.050861e+001  1.179085e+001  2.128525e+001
    endloop
  endfacet
  facet normal -2.704202e-001 -1.124749e-002  9.626768e-001
    outer loop
      vertex -2.959810e+001 -1.010022e+001  2.128525e+001
      vertex -3.050861e+001  1.179085e+001  2.128525e+001
      vertex -2.964982e+001 -1.010237e+001  2.127069e+001
    endloop
  endfacet
  facet normal -2.704054e-001 -1.124691e-002  9.626808e-001
    outer loop
      vertex -2.964982e+001 -1.010237e+001  2.127069e+001
      vertex -3.050861e+001  1.179085e+001  2.128525e+001
      vertex -3.056033e+001  1.178870e+001  2.127069e+001
    endloop
  endfacet
  facet normal -3.988431e-001 -1.658899e-002  9.168690e-001
    outer loop
      vertex -2.964982e+001 -1.010237e+001  2.127069e+001
      vertex -3.056033e+001  1.178870e+001  2.127069e+001
      vertex -2.969909e+001 -1.010442e+001  2.124923e+001
    endloop
  endfacet
  facet normal -3.988431e-001 -1.658899e-002  9.168690e-001
    outer loop
      vertex -2.969909e+001 -1.010442e+001  2.124923e+001
      vertex -3.056033e+001  1.178870e+001  2.127069e+001
      vertex -3.060959e+001  1.178665e+001  2.124923e+001
    endloop
  endfacet
  facet normal -5.198849e-001 -2.162345e-002  8.539627e-001
    outer loop
      vertex -2.969909e+001 -1.010442e+001  2.124923e+001
      vertex -3.060959e+001  1.178665e+001  2.124923e+001
      vertex -2.974497e+001 -1.010633e+001  2.122125e+001
    endloop
  endfacet
  facet normal -5.198849e-001 -2.162345e-002  8.539627e-001
    outer loop
      vertex -2.974497e+001 -1.010633e+001  2.122125e+001
      vertex -3.060959e+001  1.178665e+001  2.124923e+001
      vertex -3.065548e+001  1.178475e+001  2.122125e+001
    endloop
  endfacet
  facet normal -6.312162e-001 -2.625403e-002  7.751624e-001
    outer loop
      vertex -2.974497e+001 -1.010633e+001  2.122125e+001
      vertex -3.065548e+001  1.178475e+001  2.122125e+001
      vertex -2.978662e+001 -1.010806e+001  2.118727e+001
    endloop
  endfacet
  facet normal -6.312162e-001 -2.625403e-002  7.751624e-001
    outer loop
      vertex -2.978662e+001 -1.010806e+001  2.118727e+001
      vertex -3.065548e+001  1.178475e+001  2.122125e+001
      vertex -3.069713e+001  1.178301e+001  2.118727e+001
    endloop
  endfacet
  facet normal -7.307885e-001 -3.039552e-002  6.819268e-001
    outer loop
      vertex -2.978662e+001 -1.010806e+001  2.118727e+001
      vertex -3.069713e+001  1.178301e+001  2.118727e+001
      vertex -2.982326e+001 -1.010958e+001  2.114794e+001
    endloop
  endfacet
  facet normal -7.307885e-001 -3.039552e-002  6.819268e-001
    outer loop
      vertex -2.982326e+001 -1.010958e+001  2.114794e+001
      vertex -3.069713e+001  1.178301e+001  2.118727e+001
      vertex -3.073376e+001  1.178149e+001  2.114794e+001
    endloop
  endfacet
  facet normal -8.167822e-001 -3.397223e-002  5.759452e-001
    outer loop
      vertex -2.982326e+001 -1.010958e+001  2.114794e+001
      vertex -3.073376e+001  1.178149e+001  2.114794e+001
      vertex -2.985420e+001 -1.011087e+001  2.110398e+001
    endloop
  endfacet
  facet normal -8.167822e-001 -3.397223e-002  5.759452e-001
    outer loop
      vertex -2.985420e+001 -1.011087e+001  2.110398e+001
      vertex -3.073376e+001  1.178149e+001  2.114794e+001
      vertex -3.076471e+001  1.178020e+001  2.110398e+001
    endloop
  endfacet
  facet normal -8.874999e-001 -3.691358e-002  4.593270e-001
    outer loop
      vertex -2.985420e+001 -1.011087e+001  2.110398e+001
      vertex -3.076471e+001  1.178020e+001  2.110398e+001
      vertex -2.987888e+001 -1.011190e+001  2.105621e+001
    endloop
  endfacet
  facet normal -8.875231e-001 -3.691441e-002  4.592822e-001
    outer loop
      vertex -2.987888e+001 -1.011190e+001  2.105621e+001
      vertex -3.076471e+001  1.178020e+001  2.110398e+001
      vertex -3.078939e+001  1.177918e+001  2.105621e+001
    endloop
  endfacet
  facet normal -9.417433e-001 -3.916958e-002  3.340440e-001
    outer loop
      vertex -2.987888e+001 -1.011190e+001  2.105621e+001
      vertex -3.078939e+001  1.177918e+001  2.105621e+001
      vertex -2.989683e+001 -1.011264e+001  2.100553e+001
    endloop
  endfacet
  facet normal -9.417254e-001 -3.916896e-002  3.340943e-001
    outer loop
      vertex -2.989683e+001 -1.011264e+001  2.100553e+001
      vertex -3.078939e+001  1.177918e+001  2.105621e+001
      vertex -3.080734e+001  1.177843e+001  2.100553e+001
    endloop
  endfacet
  facet normal -9.784149e-001 -4.069498e-002  2.026037e-001
    outer loop
      vertex -2.989683e+001 -1.011264e+001  2.100553e+001
      vertex -3.080734e+001  1.177843e+001  2.100553e+001
      vertex -2.990771e+001 -1.011310e+001  2.095287e+001
    endloop
  endfacet
  facet normal -9.784262e-001 -4.069531e-002  2.025494e-001
    outer loop
      vertex -2.990771e+001 -1.011310e+001  2.095287e+001
      vertex -3.080734e+001  1.177843e+001  2.100553e+001
      vertex -3.081822e+001  1.177798e+001  2.095287e+001
    endloop
  endfacet
  facet normal -9.968666e-001 -4.146229e-002  6.736337e-002
    outer loop
      vertex -2.990771e+001 -1.011310e+001  2.095287e+001
      vertex -3.081822e+001  1.177798e+001  2.095287e+001
      vertex -2.991133e+001 -1.011325e+001  2.089922e+001
    endloop
  endfacet
  facet normal -9.968628e-001 -4.146228e-002  6.741982e-002
    outer loop
      vertex -2.991133e+001 -1.011325e+001  2.089922e+001
      vertex -3.081822e+001  1.177798e+001  2.095287e+001
      vertex -3.082184e+001  1.177783e+001  2.089922e+001
    endloop
  endfacet
  facet normal -9.967462e-001 -4.145743e-002 -6.912535e-002
    outer loop
      vertex -2.991133e+001 -1.011325e+001  2.089922e+001
      vertex -3.082184e+001  1.177783e+001  2.089922e+001
      vertex -2.990762e+001 -1.011309e+001  2.084557e+001
    endloop
  endfacet
  facet normal -9.967462e-001 -4.145743e-002 -6.912535e-002
    outer loop
      vertex -2.990762e+001 -1.011309e+001  2.084557e+001
      vertex -3.082184e+001  1.177783e+001  2.089922e+001
      vertex -3.081813e+001  1.177798e+001  2.084557e+001
    endloop
  endfacet
  facet normal -9.780613e-001 -4.068027e-002 -2.043067e-001
    outer loop
      vertex -2.990762e+001 -1.011309e+001  2.084557e+001
      vertex -3.081813e+001  1.177798e+001  2.084557e+001
      vertex -2.989664e+001 -1.011264e+001  2.079293e+001
    endloop
  endfacet
  facet normal -9.780613e-001 -4.068027e-002 -2.043067e-001
    outer loop
      vertex -2.989664e+001 -1.011264e+001  2.079293e+001
      vertex -3.081813e+001  1.177798e+001  2.084557e+001
      vertex -3.080715e+001  1.177844e+001  2.079293e+001
    endloop
  endfacet
  facet normal -9.411570e-001 -3.914532e-002 -3.356951e-001
    outer loop
      vertex -2.989664e+001 -1.011264e+001  2.079293e+001
      vertex -3.080715e+001  1.177844e+001  2.079293e+001
      vertex -2.987860e+001 -1.011189e+001  2.074228e+001
    endloop
  endfacet
  facet normal -9.411390e-001 -3.914444e-002 -3.357454e-001
    outer loop
      vertex -2.987860e+001 -1.011189e+001  2.074228e+001
      vertex -3.080715e+001  1.177844e+001  2.079293e+001
      vertex -3.078911e+001  1.177919e+001  2.074228e+001
    endloop
  endfacet
  facet normal -8.867052e-001 -3.688040e-002 -4.608621e-001
    outer loop
      vertex -2.987860e+001 -1.011189e+001  2.074228e+001
      vertex -3.078911e+001  1.177919e+001  2.074228e+001
      vertex -2.985384e+001 -1.011086e+001  2.069455e+001
    endloop
  endfacet
  facet normal -8.867282e-001 -3.688148e-002 -4.608174e-001
    outer loop
      vertex -2.985384e+001 -1.011086e+001  2.069455e+001
      vertex -3.078911e+001  1.177919e+001  2.074228e+001
      vertex -3.076435e+001  1.178022e+001  2.069455e+001
    endloop
  endfacet
  facet normal -8.157738e-001 -3.393029e-002 -5.773749e-001
    outer loop
      vertex -2.985384e+001 -1.011086e+001  2.069455e+001
      vertex -3.076435e+001  1.178022e+001  2.069455e+001
      vertex -2.982282e+001 -1.010957e+001  2.065064e+001
    endloop
  endfacet
  facet normal -8.157738e-001 -3.393029e-002 -5.773749e-001
    outer loop
      vertex -2.982282e+001 -1.010957e+001  2.065064e+001
      vertex -3.076435e+001  1.178022e+001  2.069455e+001
      vertex -3.073333e+001  1.178151e+001  2.065064e+001
    endloop
  endfacet
  facet normal -7.296103e-001 -3.034651e-002 -6.831895e-001
    outer loop
      vertex -2.982282e+001 -1.010957e+001  2.065064e+001
      vertex -3.073333e+001  1.178151e+001  2.065064e+001
      vertex -2.978612e+001 -1.010804e+001  2.061138e+001
    endloop
  endfacet
  facet normal -7.295821e-001 -3.034523e-002 -6.832197e-001
    outer loop
      vertex -2.978612e+001 -1.010804e+001  2.061138e+001
      vertex -3.073333e+001  1.178151e+001  2.065064e+001
      vertex -3.069662e+001  1.178303e+001  2.061138e+001
    endloop
  endfacet
  facet normal -6.298587e-001 -2.619747e-002 -7.762678e-001
    outer loop
      vertex -2.978612e+001 -1.010804e+001  2.061138e+001
      vertex -3.069662e+001  1.178303e+001  2.061138e+001
      vertex -2.974441e+001 -1.010631e+001  2.057747e+001
    endloop
  endfacet
  facet normal -6.298864e-001 -2.619871e-002 -7.762453e-001
    outer loop
      vertex -2.974441e+001 -1.010631e+001  2.057747e+001
      vertex -3.069662e+001  1.178303e+001  2.061138e+001
      vertex -3.065492e+001  1.178477e+001  2.057747e+001
    endloop
  endfacet
  facet normal -5.183845e-001 -2.156104e-002 -8.548758e-001
    outer loop
      vertex -2.974441e+001 -1.010631e+001  2.057747e+001
      vertex -3.065492e+001  1.178477e+001  2.057747e+001
      vertex -2.969847e+001 -1.010439e+001  2.054957e+001
    endloop
  endfacet
  facet normal -5.183845e-001 -2.156104e-002 -8.548758e-001
    outer loop
      vertex -2.969847e+001 -1.010439e+001  2.054957e+001
      vertex -3.065492e+001  1.178477e+001  2.057747e+001
      vertex -3.060898e+001  1.178668e+001  2.054957e+001
    endloop
  endfacet
  facet normal -3.972582e-001 -1.652307e-002 -9.175582e-001
    outer loop
      vertex -2.969847e+001 -1.010439e+001  2.054957e+001
      vertex -3.060898e+001  1.178668e+001  2.054957e+001
      vertex -2.964918e+001 -1.010234e+001  2.052819e+001
    endloop
  endfacet
  facet normal -3.972582e-001 -1.652307e-002 -9.175582e-001
    outer loop
      vertex -2.964918e+001 -1.010234e+001  2.052819e+001
      vertex -3.060898e+001  1.178668e+001  2.054957e+001
      vertex -3.055969e+001  1.178873e+001  2.052819e+001
    endloop
  endfacet
  facet normal -2.687361e-001 -1.117748e-002 -9.631490e-001
    outer loop
      vertex -2.964918e+001 -1.010234e+001  2.052819e+001
      vertex -3.055969e+001  1.178873e+001  2.052819e+001
      vertex -2.959743e+001 -1.010019e+001  2.051373e+001
    endloop
  endfacet
  facet normal -2.687361e-001 -1.117748e-002 -9.631490e-001
    outer loop
      vertex -2.959743e+001 -1.010019e+001  2.051373e+001
      vertex -3.055969e+001  1.178873e+001  2.052819e+001
      vertex -3.050794e+001  1.179088e+001  2.051373e+001
    endloop
  endfacet
  facet normal -1.351754e-001 -5.622317e-003 -9.908057e-001
    outer loop
      vertex -2.959743e+001 -1.010019e+001  2.051373e+001
      vertex -3.050794e+001  1.179088e+001  2.051373e+001
      vertex -2.954419e+001 -1.009798e+001  2.050645e+001
    endloop
  endfacet
  facet normal -1.351754e-001 -5.622317e-003 -9.908057e-001
    outer loop
      vertex -2.954419e+001 -1.009798e+001  2.050645e+001
      vertex -3.050794e+001  1.179088e+001  2.051373e+001
      vertex -3.045470e+001  1.179310e+001  2.050645e+001
    endloop
  endfacet
  facet normal  8.788605e-004  3.655424e-005 -9.999996e-001
    outer loop
      vertex -2.954419e+001 -1.009798e+001  2.050645e+001
      vertex -3.045470e+001  1.179310e+001  2.050645e+001
      vertex -2.949046e+001 -1.009574e+001  2.050650e+001
    endloop
  endfacet
  facet normal  8.788605e-004  3.655424e-005 -9.999996e-001
    outer loop
      vertex -2.949046e+001 -1.009574e+001  2.050650e+001
      vertex -3.045470e+001  1.179310e+001  2.050645e+001
      vertex -3.040097e+001  1.179533e+001  2.050650e+001
    endloop
  endfacet
  facet normal  1.369109e-001  5.694504e-003 -9.905670e-001
    outer loop
      vertex -2.949046e+001 -1.009574e+001  2.050650e+001
      vertex -3.040097e+001  1.179533e+001  2.050650e+001
      vertex -2.943724e+001 -1.009353e+001  2.051387e+001
    endloop
  endfacet
  facet normal  1.369033e-001  5.694165e-003 -9.905680e-001
    outer loop
      vertex -2.943724e+001 -1.009353e+001  2.051387e+001
      vertex -3.040097e+001  1.179533e+001  2.050650e+001
      vertex -3.034775e+001  1.179754e+001  2.051387e+001
    endloop
  endfacet
  facet normal  2.704051e-001  1.124686e-002 -9.626810e-001
    outer loop
      vertex -2.943724e+001 -1.009353e+001  2.051387e+001
      vertex -3.034775e+001  1.179754e+001  2.051387e+001
      vertex -2.938552e+001 -1.009138e+001  2.052843e+001
    endloop
  endfacet
  facet normal  2.704199e-001  1.124751e-002 -9.626768e-001
    outer loop
      vertex -2.938552e+001 -1.009138e+001  2.052843e+001
      vertex -3.034775e+001  1.179754e+001  2.051387e+001
      vertex -3.029603e+001  1.179970e+001  2.052843e+001
    endloop
  endfacet
  facet normal  3.988427e-001  1.658897e-002 -9.168693e-001
    outer loop
      vertex -2.938552e+001 -1.009138e+001  2.052843e+001
      vertex -3.029603e+001  1.179970e+001  2.052843e+001
      vertex -2.933626e+001 -1.008933e+001  2.054989e+001
    endloop
  endfacet
  facet normal  3.988427e-001  1.658897e-002 -9.168693e-001
    outer loop
      vertex -2.933626e+001 -1.008933e+001  2.054989e+001
      vertex -3.029603e+001  1.179970e+001  2.052843e+001
      vertex -3.024677e+001  1.180174e+001  2.054989e+001
    endloop
  endfacet
  facet normal  5.198843e-001  2.162343e-002 -8.539629e-001
    outer loop
      vertex -2.933626e+001 -1.008933e+001  2.054989e+001
      vertex -3.024677e+001  1.180174e+001  2.054989e+001
      vertex -2.929037e+001 -1.008742e+001  2.057787e+001
    endloop
  endfacet
  facet normal  5.198843e-001  2.162343e-002 -8.539629e-001
    outer loop
      vertex -2.929037e+001 -1.008742e+001  2.057787e+001
      vertex -3.024677e+001  1.180174e+001  2.054989e+001
      vertex -3.020089e+001  1.180365e+001  2.057787e+001
    endloop
  endfacet
  facet normal  6.312327e-001  2.625472e-002 -7.751490e-001
    outer loop
      vertex -2.929037e+001 -1.008742e+001  2.057787e+001
      vertex -3.020089e+001  1.180365e+001  2.057787e+001
      vertex -2.924873e+001 -1.008569e+001  2.061185e+001
    endloop
  endfacet
  facet normal  6.312050e-001  2.625347e-002 -7.751716e-001
    outer loop
      vertex -2.924873e+001 -1.008569e+001  2.061185e+001
      vertex -3.020089e+001  1.180365e+001  2.057787e+001
      vertex -3.015924e+001  1.180538e+001  2.061185e+001
    endloop
  endfacet
  facet normal  7.307880e-001  3.039539e-002 -6.819275e-001
    outer loop
      vertex -2.924873e+001 -1.008569e+001  2.061185e+001
      vertex -3.015924e+001  1.180538e+001  2.061185e+001
      vertex -2.921209e+001 -1.008416e+001  2.065118e+001
    endloop
  endfacet
  facet normal  7.308161e-001  3.039666e-002 -6.818971e-001
    outer loop
      vertex -2.921209e+001 -1.008416e+001  2.065118e+001
      vertex -3.015924e+001  1.180538e+001  2.061185e+001
      vertex -3.012260e+001  1.180691e+001  2.065118e+001
    endloop
  endfacet
  facet normal  8.167722e-001  3.397181e-002 -5.759593e-001
    outer loop
      vertex -2.921209e+001 -1.008416e+001  2.065118e+001
      vertex -3.012260e+001  1.180691e+001  2.065118e+001
      vertex -2.918114e+001 -1.008288e+001  2.069514e+001
    endloop
  endfacet
  facet normal  8.167722e-001  3.397181e-002 -5.759593e-001
    outer loop
      vertex -2.918114e+001 -1.008288e+001  2.069514e+001
      vertex -3.012260e+001  1.180691e+001  2.065118e+001
      vertex -3.009165e+001  1.180820e+001  2.069514e+001
    endloop
  endfacet
  facet normal  8.875220e-001  3.691450e-002 -4.592840e-001
    outer loop
      vertex -2.918114e+001 -1.008288e+001  2.069514e+001
      vertex -3.009165e+001  1.180820e+001  2.069514e+001
      vertex -2.915647e+001 -1.008185e+001  2.074290e+001
    endloop
  endfacet
  facet normal  8.874990e-001  3.691341e-002 -4.593288e-001
    outer loop
      vertex -2.915647e+001 -1.008185e+001  2.074290e+001
      vertex -3.009165e+001  1.180820e+001  2.069514e+001
      vertex -3.006697e+001  1.180922e+001  2.074290e+001
    endloop
  endfacet
  facet normal  9.417250e-001  3.916882e-002 -3.340954e-001
    outer loop
      vertex -2.915647e+001 -1.008185e+001  2.074290e+001
      vertex -3.006697e+001  1.180922e+001  2.074290e+001
      vertex -2.913852e+001 -1.008110e+001  2.079359e+001
    endloop
  endfacet
  facet normal  9.417429e-001  3.916969e-002 -3.340450e-001
    outer loop
      vertex -2.913852e+001 -1.008110e+001  2.079359e+001
      vertex -3.006697e+001  1.180922e+001  2.074290e+001
      vertex -3.004903e+001  1.180997e+001  2.079359e+001
    endloop
  endfacet
  facet normal  9.784155e-001  4.069501e-002 -2.026004e-001
    outer loop
      vertex -2.913852e+001 -1.008110e+001  2.079359e+001
      vertex -3.004903e+001  1.180997e+001  2.079359e+001
      vertex -2.912763e+001 -1.008065e+001  2.084625e+001
    endloop
  endfacet
  facet normal  9.784155e-001  4.069501e-002 -2.026004e-001
    outer loop
      vertex -2.912763e+001 -1.008065e+001  2.084625e+001
      vertex -3.004903e+001  1.180997e+001  2.079359e+001
      vertex -3.003814e+001  1.181042e+001  2.084625e+001
    endloop
  endfacet
  facet normal  9.968664e-001  4.146243e-002 -6.736645e-002
    outer loop
      vertex -2.912763e+001 -1.008065e+001  2.084625e+001
      vertex -3.003814e+001  1.181042e+001  2.084625e+001
      vertex -2.912401e+001 -1.008050e+001  2.089990e+001
    endloop
  endfacet
  facet normal  9.968664e-001  4.146243e-002 -6.736645e-002
    outer loop
      vertex -2.912401e+001 -1.008050e+001  2.089990e+001
      vertex -3.003814e+001  1.181042e+001  2.084625e+001
      vertex -3.003452e+001  1.181057e+001  2.089990e+001
    endloop
  endfacet
endsolid CATIA STL
